M48
; DRILL file {KiCad 8.0.2} date 2024-10-11T16:26:52+0200
; FORMAT={-:-/ absolute / metric / decimal}
; #@! TF.CreationDate,2024-10-11T16:26:52+02:00
; #@! TF.GenerationSoftware,Kicad,Pcbnew,8.0.2
; #@! TF.FileFunction,NonPlated,1,4,NPTH
FMAT,2
METRIC
; #@! TA.AperFunction,NonPlated,NPTH,ComponentDrill
T1C1.499
; #@! TA.AperFunction,NonPlated,NPTH,ComponentDrill
T2C1.750
; #@! TA.AperFunction,NonPlated,NPTH,ComponentDrill
T3C3.988
%
G90
G05
T1
X199.596Y-39.0
X206.607Y-39.0
T2
X70.92Y-48.5
X70.92Y-68.0
X70.92Y-87.5
X81.08Y-48.5
X81.08Y-68.0
X81.08Y-87.5
X90.42Y-48.5
X90.42Y-68.0
X90.42Y-87.5
X100.58Y-48.5
X100.58Y-68.0
X100.58Y-87.5
X109.92Y-45.5
X109.92Y-65.0
X109.92Y-84.5
X120.08Y-45.5
X120.08Y-65.0
X120.08Y-84.5
X129.42Y-42.0
X129.42Y-61.5
X129.42Y-81.0
X139.58Y-42.0
X139.58Y-61.5
X139.58Y-81.0
X148.92Y-42.0
X148.92Y-61.5
X148.92Y-81.5
X148.92Y-107.5
X159.08Y-42.0
X159.08Y-61.5
X159.08Y-81.5
X159.08Y-107.5
X168.42Y-48.0
X168.42Y-67.5
X168.42Y-87.0
X175.92Y-115.5
X178.58Y-48.0
X178.58Y-67.5
X178.58Y-87.0
X186.08Y-115.5
X187.92Y-56.0
X187.92Y-75.5
X187.92Y-95.0
X198.08Y-56.0
X198.08Y-75.5
X198.08Y-95.0
T3
X76.0Y-48.5
X76.0Y-68.0
X76.0Y-87.5
X95.5Y-48.5
X95.5Y-68.0
X95.5Y-87.5
X115.0Y-45.5
X115.0Y-65.0
X115.0Y-84.5
X134.5Y-42.0
X134.5Y-61.5
X134.5Y-81.0
X154.0Y-42.0
X154.0Y-61.5
X154.0Y-81.5
X154.0Y-107.5
X173.5Y-48.0
X173.5Y-67.5
X173.5Y-87.0
X181.0Y-115.5
X193.0Y-56.0
X193.0Y-75.5
X193.0Y-95.0
M30
