%TF.GenerationSoftware,KiCad,Pcbnew,8.0.2*%
%TF.CreationDate,2024-10-11T16:24:47+02:00*%
%TF.ProjectId,duo_board,64756f5f-626f-4617-9264-2e6b69636164,rev?*%
%TF.SameCoordinates,Original*%
%TF.FileFunction,Drillmap*%
%TF.FilePolarity,Positive*%
%FSLAX45Y45*%
G04 Gerber Fmt 4.5, Leading zero omitted, Abs format (unit mm)*
G04 Created by KiCad (PCBNEW 8.0.2) date 2024-10-11 16:24:47*
%MOMM*%
%LPD*%
G01*
G04 APERTURE LIST*
%ADD10C,0.150000*%
%ADD11C,0.200000*%
%ADD12C,0.149860*%
%ADD13C,0.175000*%
%ADD14C,0.398780*%
G04 APERTURE END LIST*
D10*
X7005000Y-3550000D02*
G75*
G02*
X6795000Y-3550000I-105000J0D01*
G01*
X6795000Y-3550000D02*
G75*
G02*
X7005000Y-3550000I105000J0D01*
G01*
X21129035Y-10658467D02*
G75*
G02*
X20974343Y-10247837I480315J415397D01*
G01*
X22585973Y-12946450D02*
G75*
G02*
X22375973Y-12946450I-105000J0D01*
G01*
X22375973Y-12946450D02*
G75*
G02*
X22585973Y-12946450I105000J0D01*
G01*
X20289740Y-2995000D02*
G75*
G02*
X20924722Y-3625242I0J-635000D01*
G01*
X6855000Y-2995000D02*
X20289740Y-2995000D01*
X17583189Y-13484476D02*
X14388729Y-13238748D01*
X13802723Y-12624852D02*
X13788784Y-12164859D01*
X6220000Y-3630000D02*
G75*
G02*
X6855000Y-2995000I635000J0D01*
G01*
X21672474Y-15008856D02*
G75*
G02*
X20840732Y-15209608I-525974J355796D01*
G01*
X13149870Y-11549107D02*
G75*
G02*
X13788775Y-12164860I4190J-634993D01*
G01*
X6220000Y-10955781D02*
X6220000Y-3630000D01*
X14388729Y-13238748D02*
G75*
G02*
X13802722Y-12624852I48701J633129D01*
G01*
X20840735Y-15209603D02*
X17840259Y-13561073D01*
X13149870Y-11549107D02*
X6859205Y-11590767D01*
X6735000Y-11174500D02*
G75*
G02*
X6525000Y-11174500I-105000J0D01*
G01*
X6525000Y-11174500D02*
G75*
G02*
X6735000Y-11174500I105000J0D01*
G01*
X20924722Y-3625242D02*
X20974343Y-10247837D01*
X6859205Y-11590767D02*
G75*
G02*
X6219999Y-10955781I-4205J634987D01*
G01*
X22812576Y-13323408D02*
X21672474Y-15008856D01*
X22766898Y-12552235D02*
G75*
G02*
X22812576Y-13323408I-480309J-415389D01*
G01*
X21129035Y-10658467D02*
X22766898Y-12552235D01*
X17583189Y-13484476D02*
G75*
G02*
X17840259Y-13561072I-48689J-633094D01*
G01*
D11*
D12*
X19884710Y-3825070D02*
X20034570Y-3974930D01*
X20034570Y-3825070D02*
X19884710Y-3974930D01*
X20585750Y-3825070D02*
X20735610Y-3974930D01*
X20735610Y-3825070D02*
X20585750Y-3974930D01*
D13*
X7179500Y-4850000D02*
G75*
G02*
X7004500Y-4850000I-87500J0D01*
G01*
X7004500Y-4850000D02*
G75*
G02*
X7179500Y-4850000I87500J0D01*
G01*
X7179500Y-6800000D02*
G75*
G02*
X7004500Y-6800000I-87500J0D01*
G01*
X7004500Y-6800000D02*
G75*
G02*
X7179500Y-6800000I87500J0D01*
G01*
X7179500Y-8750000D02*
G75*
G02*
X7004500Y-8750000I-87500J0D01*
G01*
X7004500Y-8750000D02*
G75*
G02*
X7179500Y-8750000I87500J0D01*
G01*
X8195500Y-4850000D02*
G75*
G02*
X8020500Y-4850000I-87500J0D01*
G01*
X8020500Y-4850000D02*
G75*
G02*
X8195500Y-4850000I87500J0D01*
G01*
X8195500Y-6800000D02*
G75*
G02*
X8020500Y-6800000I-87500J0D01*
G01*
X8020500Y-6800000D02*
G75*
G02*
X8195500Y-6800000I87500J0D01*
G01*
X8195500Y-8750000D02*
G75*
G02*
X8020500Y-8750000I-87500J0D01*
G01*
X8020500Y-8750000D02*
G75*
G02*
X8195500Y-8750000I87500J0D01*
G01*
X9129500Y-4850000D02*
G75*
G02*
X8954500Y-4850000I-87500J0D01*
G01*
X8954500Y-4850000D02*
G75*
G02*
X9129500Y-4850000I87500J0D01*
G01*
X9129500Y-6800000D02*
G75*
G02*
X8954500Y-6800000I-87500J0D01*
G01*
X8954500Y-6800000D02*
G75*
G02*
X9129500Y-6800000I87500J0D01*
G01*
X9129500Y-8750000D02*
G75*
G02*
X8954500Y-8750000I-87500J0D01*
G01*
X8954500Y-8750000D02*
G75*
G02*
X9129500Y-8750000I87500J0D01*
G01*
X10145500Y-4850000D02*
G75*
G02*
X9970500Y-4850000I-87500J0D01*
G01*
X9970500Y-4850000D02*
G75*
G02*
X10145500Y-4850000I87500J0D01*
G01*
X10145500Y-6800000D02*
G75*
G02*
X9970500Y-6800000I-87500J0D01*
G01*
X9970500Y-6800000D02*
G75*
G02*
X10145500Y-6800000I87500J0D01*
G01*
X10145500Y-8750000D02*
G75*
G02*
X9970500Y-8750000I-87500J0D01*
G01*
X9970500Y-8750000D02*
G75*
G02*
X10145500Y-8750000I87500J0D01*
G01*
X11079500Y-4550000D02*
G75*
G02*
X10904500Y-4550000I-87500J0D01*
G01*
X10904500Y-4550000D02*
G75*
G02*
X11079500Y-4550000I87500J0D01*
G01*
X11079500Y-6500000D02*
G75*
G02*
X10904500Y-6500000I-87500J0D01*
G01*
X10904500Y-6500000D02*
G75*
G02*
X11079500Y-6500000I87500J0D01*
G01*
X11079500Y-8450000D02*
G75*
G02*
X10904500Y-8450000I-87500J0D01*
G01*
X10904500Y-8450000D02*
G75*
G02*
X11079500Y-8450000I87500J0D01*
G01*
X12095500Y-4550000D02*
G75*
G02*
X11920500Y-4550000I-87500J0D01*
G01*
X11920500Y-4550000D02*
G75*
G02*
X12095500Y-4550000I87500J0D01*
G01*
X12095500Y-6500000D02*
G75*
G02*
X11920500Y-6500000I-87500J0D01*
G01*
X11920500Y-6500000D02*
G75*
G02*
X12095500Y-6500000I87500J0D01*
G01*
X12095500Y-8450000D02*
G75*
G02*
X11920500Y-8450000I-87500J0D01*
G01*
X11920500Y-8450000D02*
G75*
G02*
X12095500Y-8450000I87500J0D01*
G01*
X13029500Y-4200000D02*
G75*
G02*
X12854500Y-4200000I-87500J0D01*
G01*
X12854500Y-4200000D02*
G75*
G02*
X13029500Y-4200000I87500J0D01*
G01*
X13029500Y-6150000D02*
G75*
G02*
X12854500Y-6150000I-87500J0D01*
G01*
X12854500Y-6150000D02*
G75*
G02*
X13029500Y-6150000I87500J0D01*
G01*
X13029500Y-8100000D02*
G75*
G02*
X12854500Y-8100000I-87500J0D01*
G01*
X12854500Y-8100000D02*
G75*
G02*
X13029500Y-8100000I87500J0D01*
G01*
X14045500Y-4200000D02*
G75*
G02*
X13870500Y-4200000I-87500J0D01*
G01*
X13870500Y-4200000D02*
G75*
G02*
X14045500Y-4200000I87500J0D01*
G01*
X14045500Y-6150000D02*
G75*
G02*
X13870500Y-6150000I-87500J0D01*
G01*
X13870500Y-6150000D02*
G75*
G02*
X14045500Y-6150000I87500J0D01*
G01*
X14045500Y-8100000D02*
G75*
G02*
X13870500Y-8100000I-87500J0D01*
G01*
X13870500Y-8100000D02*
G75*
G02*
X14045500Y-8100000I87500J0D01*
G01*
X14979500Y-4200000D02*
G75*
G02*
X14804500Y-4200000I-87500J0D01*
G01*
X14804500Y-4200000D02*
G75*
G02*
X14979500Y-4200000I87500J0D01*
G01*
X14979500Y-6150000D02*
G75*
G02*
X14804500Y-6150000I-87500J0D01*
G01*
X14804500Y-6150000D02*
G75*
G02*
X14979500Y-6150000I87500J0D01*
G01*
X14979500Y-8150000D02*
G75*
G02*
X14804500Y-8150000I-87500J0D01*
G01*
X14804500Y-8150000D02*
G75*
G02*
X14979500Y-8150000I87500J0D01*
G01*
X14979500Y-10750000D02*
G75*
G02*
X14804500Y-10750000I-87500J0D01*
G01*
X14804500Y-10750000D02*
G75*
G02*
X14979500Y-10750000I87500J0D01*
G01*
X15995500Y-4200000D02*
G75*
G02*
X15820500Y-4200000I-87500J0D01*
G01*
X15820500Y-4200000D02*
G75*
G02*
X15995500Y-4200000I87500J0D01*
G01*
X15995500Y-6150000D02*
G75*
G02*
X15820500Y-6150000I-87500J0D01*
G01*
X15820500Y-6150000D02*
G75*
G02*
X15995500Y-6150000I87500J0D01*
G01*
X15995500Y-8150000D02*
G75*
G02*
X15820500Y-8150000I-87500J0D01*
G01*
X15820500Y-8150000D02*
G75*
G02*
X15995500Y-8150000I87500J0D01*
G01*
X15995500Y-10750000D02*
G75*
G02*
X15820500Y-10750000I-87500J0D01*
G01*
X15820500Y-10750000D02*
G75*
G02*
X15995500Y-10750000I87500J0D01*
G01*
X16929500Y-4800000D02*
G75*
G02*
X16754500Y-4800000I-87500J0D01*
G01*
X16754500Y-4800000D02*
G75*
G02*
X16929500Y-4800000I87500J0D01*
G01*
X16929500Y-6750000D02*
G75*
G02*
X16754500Y-6750000I-87500J0D01*
G01*
X16754500Y-6750000D02*
G75*
G02*
X16929500Y-6750000I87500J0D01*
G01*
X16929500Y-8700000D02*
G75*
G02*
X16754500Y-8700000I-87500J0D01*
G01*
X16754500Y-8700000D02*
G75*
G02*
X16929500Y-8700000I87500J0D01*
G01*
X17679500Y-11550000D02*
G75*
G02*
X17504500Y-11550000I-87500J0D01*
G01*
X17504500Y-11550000D02*
G75*
G02*
X17679500Y-11550000I87500J0D01*
G01*
X17945500Y-4800000D02*
G75*
G02*
X17770500Y-4800000I-87500J0D01*
G01*
X17770500Y-4800000D02*
G75*
G02*
X17945500Y-4800000I87500J0D01*
G01*
X17945500Y-6750000D02*
G75*
G02*
X17770500Y-6750000I-87500J0D01*
G01*
X17770500Y-6750000D02*
G75*
G02*
X17945500Y-6750000I87500J0D01*
G01*
X17945500Y-8700000D02*
G75*
G02*
X17770500Y-8700000I-87500J0D01*
G01*
X17770500Y-8700000D02*
G75*
G02*
X17945500Y-8700000I87500J0D01*
G01*
X18695500Y-11550000D02*
G75*
G02*
X18520500Y-11550000I-87500J0D01*
G01*
X18520500Y-11550000D02*
G75*
G02*
X18695500Y-11550000I87500J0D01*
G01*
X18879500Y-5600000D02*
G75*
G02*
X18704500Y-5600000I-87500J0D01*
G01*
X18704500Y-5600000D02*
G75*
G02*
X18879500Y-5600000I87500J0D01*
G01*
X18879500Y-7550000D02*
G75*
G02*
X18704500Y-7550000I-87500J0D01*
G01*
X18704500Y-7550000D02*
G75*
G02*
X18879500Y-7550000I87500J0D01*
G01*
X18879500Y-9500000D02*
G75*
G02*
X18704500Y-9500000I-87500J0D01*
G01*
X18704500Y-9500000D02*
G75*
G02*
X18879500Y-9500000I87500J0D01*
G01*
X19895500Y-5600000D02*
G75*
G02*
X19720500Y-5600000I-87500J0D01*
G01*
X19720500Y-5600000D02*
G75*
G02*
X19895500Y-5600000I87500J0D01*
G01*
X19895500Y-7550000D02*
G75*
G02*
X19720500Y-7550000I-87500J0D01*
G01*
X19720500Y-7550000D02*
G75*
G02*
X19895500Y-7550000I87500J0D01*
G01*
X19895500Y-9500000D02*
G75*
G02*
X19720500Y-9500000I-87500J0D01*
G01*
X19720500Y-9500000D02*
G75*
G02*
X19895500Y-9500000I87500J0D01*
G01*
D14*
X7600000Y-4650610D02*
X7600000Y-5049390D01*
X7400610Y-4850000D02*
X7799390Y-4850000D01*
X7600000Y-6600610D02*
X7600000Y-6999390D01*
X7400610Y-6800000D02*
X7799390Y-6800000D01*
X7600000Y-8550610D02*
X7600000Y-8949390D01*
X7400610Y-8750000D02*
X7799390Y-8750000D01*
X9550000Y-4650610D02*
X9550000Y-5049390D01*
X9350610Y-4850000D02*
X9749390Y-4850000D01*
X9550000Y-6600610D02*
X9550000Y-6999390D01*
X9350610Y-6800000D02*
X9749390Y-6800000D01*
X9550000Y-8550610D02*
X9550000Y-8949390D01*
X9350610Y-8750000D02*
X9749390Y-8750000D01*
X11500000Y-4350610D02*
X11500000Y-4749390D01*
X11300610Y-4550000D02*
X11699390Y-4550000D01*
X11500000Y-6300610D02*
X11500000Y-6699390D01*
X11300610Y-6500000D02*
X11699390Y-6500000D01*
X11500000Y-8250610D02*
X11500000Y-8649390D01*
X11300610Y-8450000D02*
X11699390Y-8450000D01*
X13450000Y-4000610D02*
X13450000Y-4399390D01*
X13250610Y-4200000D02*
X13649390Y-4200000D01*
X13450000Y-5950610D02*
X13450000Y-6349390D01*
X13250610Y-6150000D02*
X13649390Y-6150000D01*
X13450000Y-7900610D02*
X13450000Y-8299390D01*
X13250610Y-8100000D02*
X13649390Y-8100000D01*
X15400000Y-4000610D02*
X15400000Y-4399390D01*
X15200610Y-4200000D02*
X15599390Y-4200000D01*
X15400000Y-5950610D02*
X15400000Y-6349390D01*
X15200610Y-6150000D02*
X15599390Y-6150000D01*
X15400000Y-7950610D02*
X15400000Y-8349390D01*
X15200610Y-8150000D02*
X15599390Y-8150000D01*
X15400000Y-10550610D02*
X15400000Y-10949390D01*
X15200610Y-10750000D02*
X15599390Y-10750000D01*
X17350000Y-4600610D02*
X17350000Y-4999390D01*
X17150610Y-4800000D02*
X17549390Y-4800000D01*
X17350000Y-6550610D02*
X17350000Y-6949390D01*
X17150610Y-6750000D02*
X17549390Y-6750000D01*
X17350000Y-8500610D02*
X17350000Y-8899390D01*
X17150610Y-8700000D02*
X17549390Y-8700000D01*
X18100000Y-11350610D02*
X18100000Y-11749390D01*
X17900610Y-11550000D02*
X18299390Y-11550000D01*
X19300000Y-5400610D02*
X19300000Y-5799390D01*
X19100610Y-5600000D02*
X19499390Y-5600000D01*
X19300000Y-7350610D02*
X19300000Y-7749390D01*
X19100610Y-7550000D02*
X19499390Y-7550000D01*
X19300000Y-9300610D02*
X19300000Y-9699390D01*
X19100610Y-9500000D02*
X19499390Y-9500000D01*
D11*
X6473277Y-15607055D02*
X6473277Y-15407055D01*
X6473277Y-15407055D02*
X6520896Y-15407055D01*
X6520896Y-15407055D02*
X6549467Y-15416579D01*
X6549467Y-15416579D02*
X6568515Y-15435626D01*
X6568515Y-15435626D02*
X6578039Y-15454674D01*
X6578039Y-15454674D02*
X6587562Y-15492769D01*
X6587562Y-15492769D02*
X6587562Y-15521341D01*
X6587562Y-15521341D02*
X6578039Y-15559436D01*
X6578039Y-15559436D02*
X6568515Y-15578483D01*
X6568515Y-15578483D02*
X6549467Y-15597531D01*
X6549467Y-15597531D02*
X6520896Y-15607055D01*
X6520896Y-15607055D02*
X6473277Y-15607055D01*
X6673277Y-15607055D02*
X6673277Y-15473722D01*
X6673277Y-15511817D02*
X6682801Y-15492769D01*
X6682801Y-15492769D02*
X6692324Y-15483245D01*
X6692324Y-15483245D02*
X6711372Y-15473722D01*
X6711372Y-15473722D02*
X6730420Y-15473722D01*
X6797086Y-15607055D02*
X6797086Y-15473722D01*
X6797086Y-15407055D02*
X6787562Y-15416579D01*
X6787562Y-15416579D02*
X6797086Y-15426103D01*
X6797086Y-15426103D02*
X6806610Y-15416579D01*
X6806610Y-15416579D02*
X6797086Y-15407055D01*
X6797086Y-15407055D02*
X6797086Y-15426103D01*
X6920896Y-15607055D02*
X6901848Y-15597531D01*
X6901848Y-15597531D02*
X6892324Y-15578483D01*
X6892324Y-15578483D02*
X6892324Y-15407055D01*
X7025658Y-15607055D02*
X7006610Y-15597531D01*
X7006610Y-15597531D02*
X6997086Y-15578483D01*
X6997086Y-15578483D02*
X6997086Y-15407055D01*
X7254229Y-15607055D02*
X7254229Y-15407055D01*
X7254229Y-15407055D02*
X7320896Y-15549912D01*
X7320896Y-15549912D02*
X7387562Y-15407055D01*
X7387562Y-15407055D02*
X7387562Y-15607055D01*
X7568515Y-15607055D02*
X7568515Y-15502293D01*
X7568515Y-15502293D02*
X7558991Y-15483245D01*
X7558991Y-15483245D02*
X7539943Y-15473722D01*
X7539943Y-15473722D02*
X7501848Y-15473722D01*
X7501848Y-15473722D02*
X7482801Y-15483245D01*
X7568515Y-15597531D02*
X7549467Y-15607055D01*
X7549467Y-15607055D02*
X7501848Y-15607055D01*
X7501848Y-15607055D02*
X7482801Y-15597531D01*
X7482801Y-15597531D02*
X7473277Y-15578483D01*
X7473277Y-15578483D02*
X7473277Y-15559436D01*
X7473277Y-15559436D02*
X7482801Y-15540388D01*
X7482801Y-15540388D02*
X7501848Y-15530864D01*
X7501848Y-15530864D02*
X7549467Y-15530864D01*
X7549467Y-15530864D02*
X7568515Y-15521341D01*
X7663753Y-15473722D02*
X7663753Y-15673722D01*
X7663753Y-15483245D02*
X7682801Y-15473722D01*
X7682801Y-15473722D02*
X7720896Y-15473722D01*
X7720896Y-15473722D02*
X7739943Y-15483245D01*
X7739943Y-15483245D02*
X7749467Y-15492769D01*
X7749467Y-15492769D02*
X7758991Y-15511817D01*
X7758991Y-15511817D02*
X7758991Y-15568960D01*
X7758991Y-15568960D02*
X7749467Y-15588007D01*
X7749467Y-15588007D02*
X7739943Y-15597531D01*
X7739943Y-15597531D02*
X7720896Y-15607055D01*
X7720896Y-15607055D02*
X7682801Y-15607055D01*
X7682801Y-15607055D02*
X7663753Y-15597531D01*
X7844705Y-15588007D02*
X7854229Y-15597531D01*
X7854229Y-15597531D02*
X7844705Y-15607055D01*
X7844705Y-15607055D02*
X7835182Y-15597531D01*
X7835182Y-15597531D02*
X7844705Y-15588007D01*
X7844705Y-15588007D02*
X7844705Y-15607055D01*
X7844705Y-15483245D02*
X7854229Y-15492769D01*
X7854229Y-15492769D02*
X7844705Y-15502293D01*
X7844705Y-15502293D02*
X7835182Y-15492769D01*
X7835182Y-15492769D02*
X7844705Y-15483245D01*
X7844705Y-15483245D02*
X7844705Y-15502293D01*
D12*
X6062640Y-15860641D02*
X6212500Y-16010501D01*
X6212500Y-15860641D02*
X6062640Y-16010501D01*
D11*
X6578039Y-16027055D02*
X6463753Y-16027055D01*
X6520896Y-16027055D02*
X6520896Y-15827055D01*
X6520896Y-15827055D02*
X6501848Y-15855626D01*
X6501848Y-15855626D02*
X6482801Y-15874674D01*
X6482801Y-15874674D02*
X6463753Y-15884198D01*
X6663753Y-16008007D02*
X6673277Y-16017531D01*
X6673277Y-16017531D02*
X6663753Y-16027055D01*
X6663753Y-16027055D02*
X6654229Y-16017531D01*
X6654229Y-16017531D02*
X6663753Y-16008007D01*
X6663753Y-16008007D02*
X6663753Y-16027055D01*
X6844705Y-15893722D02*
X6844705Y-16027055D01*
X6797086Y-15817531D02*
X6749467Y-15960388D01*
X6749467Y-15960388D02*
X6873277Y-15960388D01*
X6958991Y-16027055D02*
X6997086Y-16027055D01*
X6997086Y-16027055D02*
X7016134Y-16017531D01*
X7016134Y-16017531D02*
X7025658Y-16008007D01*
X7025658Y-16008007D02*
X7044705Y-15979436D01*
X7044705Y-15979436D02*
X7054229Y-15941341D01*
X7054229Y-15941341D02*
X7054229Y-15865150D01*
X7054229Y-15865150D02*
X7044705Y-15846103D01*
X7044705Y-15846103D02*
X7035182Y-15836579D01*
X7035182Y-15836579D02*
X7016134Y-15827055D01*
X7016134Y-15827055D02*
X6978039Y-15827055D01*
X6978039Y-15827055D02*
X6958991Y-15836579D01*
X6958991Y-15836579D02*
X6949467Y-15846103D01*
X6949467Y-15846103D02*
X6939943Y-15865150D01*
X6939943Y-15865150D02*
X6939943Y-15912769D01*
X6939943Y-15912769D02*
X6949467Y-15931817D01*
X6949467Y-15931817D02*
X6958991Y-15941341D01*
X6958991Y-15941341D02*
X6978039Y-15950864D01*
X6978039Y-15950864D02*
X7016134Y-15950864D01*
X7016134Y-15950864D02*
X7035182Y-15941341D01*
X7035182Y-15941341D02*
X7044705Y-15931817D01*
X7044705Y-15931817D02*
X7054229Y-15912769D01*
X7149467Y-16027055D02*
X7187562Y-16027055D01*
X7187562Y-16027055D02*
X7206610Y-16017531D01*
X7206610Y-16017531D02*
X7216134Y-16008007D01*
X7216134Y-16008007D02*
X7235182Y-15979436D01*
X7235182Y-15979436D02*
X7244705Y-15941341D01*
X7244705Y-15941341D02*
X7244705Y-15865150D01*
X7244705Y-15865150D02*
X7235182Y-15846103D01*
X7235182Y-15846103D02*
X7225658Y-15836579D01*
X7225658Y-15836579D02*
X7206610Y-15827055D01*
X7206610Y-15827055D02*
X7168515Y-15827055D01*
X7168515Y-15827055D02*
X7149467Y-15836579D01*
X7149467Y-15836579D02*
X7139943Y-15846103D01*
X7139943Y-15846103D02*
X7130420Y-15865150D01*
X7130420Y-15865150D02*
X7130420Y-15912769D01*
X7130420Y-15912769D02*
X7139943Y-15931817D01*
X7139943Y-15931817D02*
X7149467Y-15941341D01*
X7149467Y-15941341D02*
X7168515Y-15950864D01*
X7168515Y-15950864D02*
X7206610Y-15950864D01*
X7206610Y-15950864D02*
X7225658Y-15941341D01*
X7225658Y-15941341D02*
X7235182Y-15931817D01*
X7235182Y-15931817D02*
X7244705Y-15912769D01*
X7330420Y-16027055D02*
X7330420Y-15893722D01*
X7330420Y-15912769D02*
X7339943Y-15903245D01*
X7339943Y-15903245D02*
X7358991Y-15893722D01*
X7358991Y-15893722D02*
X7387563Y-15893722D01*
X7387563Y-15893722D02*
X7406610Y-15903245D01*
X7406610Y-15903245D02*
X7416134Y-15922293D01*
X7416134Y-15922293D02*
X7416134Y-16027055D01*
X7416134Y-15922293D02*
X7425658Y-15903245D01*
X7425658Y-15903245D02*
X7444705Y-15893722D01*
X7444705Y-15893722D02*
X7473277Y-15893722D01*
X7473277Y-15893722D02*
X7492324Y-15903245D01*
X7492324Y-15903245D02*
X7501848Y-15922293D01*
X7501848Y-15922293D02*
X7501848Y-16027055D01*
X7597086Y-16027055D02*
X7597086Y-15893722D01*
X7597086Y-15912769D02*
X7606610Y-15903245D01*
X7606610Y-15903245D02*
X7625658Y-15893722D01*
X7625658Y-15893722D02*
X7654229Y-15893722D01*
X7654229Y-15893722D02*
X7673277Y-15903245D01*
X7673277Y-15903245D02*
X7682801Y-15922293D01*
X7682801Y-15922293D02*
X7682801Y-16027055D01*
X7682801Y-15922293D02*
X7692324Y-15903245D01*
X7692324Y-15903245D02*
X7711372Y-15893722D01*
X7711372Y-15893722D02*
X7739943Y-15893722D01*
X7739943Y-15893722D02*
X7758991Y-15903245D01*
X7758991Y-15903245D02*
X7768515Y-15922293D01*
X7768515Y-15922293D02*
X7768515Y-16027055D01*
X8158991Y-15817531D02*
X7987563Y-16074674D01*
X8416134Y-15827055D02*
X8435182Y-15827055D01*
X8435182Y-15827055D02*
X8454229Y-15836579D01*
X8454229Y-15836579D02*
X8463753Y-15846103D01*
X8463753Y-15846103D02*
X8473277Y-15865150D01*
X8473277Y-15865150D02*
X8482801Y-15903245D01*
X8482801Y-15903245D02*
X8482801Y-15950864D01*
X8482801Y-15950864D02*
X8473277Y-15988960D01*
X8473277Y-15988960D02*
X8463753Y-16008007D01*
X8463753Y-16008007D02*
X8454229Y-16017531D01*
X8454229Y-16017531D02*
X8435182Y-16027055D01*
X8435182Y-16027055D02*
X8416134Y-16027055D01*
X8416134Y-16027055D02*
X8397087Y-16017531D01*
X8397087Y-16017531D02*
X8387563Y-16008007D01*
X8387563Y-16008007D02*
X8378039Y-15988960D01*
X8378039Y-15988960D02*
X8368515Y-15950864D01*
X8368515Y-15950864D02*
X8368515Y-15903245D01*
X8368515Y-15903245D02*
X8378039Y-15865150D01*
X8378039Y-15865150D02*
X8387563Y-15846103D01*
X8387563Y-15846103D02*
X8397087Y-15836579D01*
X8397087Y-15836579D02*
X8416134Y-15827055D01*
X8568515Y-16008007D02*
X8578039Y-16017531D01*
X8578039Y-16017531D02*
X8568515Y-16027055D01*
X8568515Y-16027055D02*
X8558991Y-16017531D01*
X8558991Y-16017531D02*
X8568515Y-16008007D01*
X8568515Y-16008007D02*
X8568515Y-16027055D01*
X8701848Y-15827055D02*
X8720896Y-15827055D01*
X8720896Y-15827055D02*
X8739944Y-15836579D01*
X8739944Y-15836579D02*
X8749468Y-15846103D01*
X8749468Y-15846103D02*
X8758991Y-15865150D01*
X8758991Y-15865150D02*
X8768515Y-15903245D01*
X8768515Y-15903245D02*
X8768515Y-15950864D01*
X8768515Y-15950864D02*
X8758991Y-15988960D01*
X8758991Y-15988960D02*
X8749468Y-16008007D01*
X8749468Y-16008007D02*
X8739944Y-16017531D01*
X8739944Y-16017531D02*
X8720896Y-16027055D01*
X8720896Y-16027055D02*
X8701848Y-16027055D01*
X8701848Y-16027055D02*
X8682801Y-16017531D01*
X8682801Y-16017531D02*
X8673277Y-16008007D01*
X8673277Y-16008007D02*
X8663753Y-15988960D01*
X8663753Y-15988960D02*
X8654229Y-15950864D01*
X8654229Y-15950864D02*
X8654229Y-15903245D01*
X8654229Y-15903245D02*
X8663753Y-15865150D01*
X8663753Y-15865150D02*
X8673277Y-15846103D01*
X8673277Y-15846103D02*
X8682801Y-15836579D01*
X8682801Y-15836579D02*
X8701848Y-15827055D01*
X8949468Y-15827055D02*
X8854229Y-15827055D01*
X8854229Y-15827055D02*
X8844706Y-15922293D01*
X8844706Y-15922293D02*
X8854229Y-15912769D01*
X8854229Y-15912769D02*
X8873277Y-15903245D01*
X8873277Y-15903245D02*
X8920896Y-15903245D01*
X8920896Y-15903245D02*
X8939944Y-15912769D01*
X8939944Y-15912769D02*
X8949468Y-15922293D01*
X8949468Y-15922293D02*
X8958991Y-15941341D01*
X8958991Y-15941341D02*
X8958991Y-15988960D01*
X8958991Y-15988960D02*
X8949468Y-16008007D01*
X8949468Y-16008007D02*
X8939944Y-16017531D01*
X8939944Y-16017531D02*
X8920896Y-16027055D01*
X8920896Y-16027055D02*
X8873277Y-16027055D01*
X8873277Y-16027055D02*
X8854229Y-16017531D01*
X8854229Y-16017531D02*
X8844706Y-16008007D01*
X9054229Y-16027055D02*
X9092325Y-16027055D01*
X9092325Y-16027055D02*
X9111372Y-16017531D01*
X9111372Y-16017531D02*
X9120896Y-16008007D01*
X9120896Y-16008007D02*
X9139944Y-15979436D01*
X9139944Y-15979436D02*
X9149468Y-15941341D01*
X9149468Y-15941341D02*
X9149468Y-15865150D01*
X9149468Y-15865150D02*
X9139944Y-15846103D01*
X9139944Y-15846103D02*
X9130420Y-15836579D01*
X9130420Y-15836579D02*
X9111372Y-15827055D01*
X9111372Y-15827055D02*
X9073277Y-15827055D01*
X9073277Y-15827055D02*
X9054229Y-15836579D01*
X9054229Y-15836579D02*
X9044706Y-15846103D01*
X9044706Y-15846103D02*
X9035182Y-15865150D01*
X9035182Y-15865150D02*
X9035182Y-15912769D01*
X9035182Y-15912769D02*
X9044706Y-15931817D01*
X9044706Y-15931817D02*
X9054229Y-15941341D01*
X9054229Y-15941341D02*
X9073277Y-15950864D01*
X9073277Y-15950864D02*
X9111372Y-15950864D01*
X9111372Y-15950864D02*
X9130420Y-15941341D01*
X9130420Y-15941341D02*
X9139944Y-15931817D01*
X9139944Y-15931817D02*
X9149468Y-15912769D01*
X9273277Y-15827055D02*
X9292325Y-15827055D01*
X9292325Y-15827055D02*
X9311372Y-15836579D01*
X9311372Y-15836579D02*
X9320896Y-15846103D01*
X9320896Y-15846103D02*
X9330420Y-15865150D01*
X9330420Y-15865150D02*
X9339944Y-15903245D01*
X9339944Y-15903245D02*
X9339944Y-15950864D01*
X9339944Y-15950864D02*
X9330420Y-15988960D01*
X9330420Y-15988960D02*
X9320896Y-16008007D01*
X9320896Y-16008007D02*
X9311372Y-16017531D01*
X9311372Y-16017531D02*
X9292325Y-16027055D01*
X9292325Y-16027055D02*
X9273277Y-16027055D01*
X9273277Y-16027055D02*
X9254229Y-16017531D01*
X9254229Y-16017531D02*
X9244706Y-16008007D01*
X9244706Y-16008007D02*
X9235182Y-15988960D01*
X9235182Y-15988960D02*
X9225658Y-15950864D01*
X9225658Y-15950864D02*
X9225658Y-15903245D01*
X9225658Y-15903245D02*
X9235182Y-15865150D01*
X9235182Y-15865150D02*
X9244706Y-15846103D01*
X9244706Y-15846103D02*
X9254229Y-15836579D01*
X9254229Y-15836579D02*
X9273277Y-15827055D01*
X9416134Y-15827055D02*
X9416134Y-15865150D01*
X9492325Y-15827055D02*
X9492325Y-15865150D01*
X9787563Y-16103245D02*
X9778039Y-16093722D01*
X9778039Y-16093722D02*
X9758991Y-16065150D01*
X9758991Y-16065150D02*
X9749468Y-16046103D01*
X9749468Y-16046103D02*
X9739944Y-16017531D01*
X9739944Y-16017531D02*
X9730420Y-15969912D01*
X9730420Y-15969912D02*
X9730420Y-15931817D01*
X9730420Y-15931817D02*
X9739944Y-15884198D01*
X9739944Y-15884198D02*
X9749468Y-15855626D01*
X9749468Y-15855626D02*
X9758991Y-15836579D01*
X9758991Y-15836579D02*
X9778039Y-15808007D01*
X9778039Y-15808007D02*
X9787563Y-15798483D01*
X9854230Y-15846103D02*
X9863753Y-15836579D01*
X9863753Y-15836579D02*
X9882801Y-15827055D01*
X9882801Y-15827055D02*
X9930420Y-15827055D01*
X9930420Y-15827055D02*
X9949468Y-15836579D01*
X9949468Y-15836579D02*
X9958991Y-15846103D01*
X9958991Y-15846103D02*
X9968515Y-15865150D01*
X9968515Y-15865150D02*
X9968515Y-15884198D01*
X9968515Y-15884198D02*
X9958991Y-15912769D01*
X9958991Y-15912769D02*
X9844706Y-16027055D01*
X9844706Y-16027055D02*
X9968515Y-16027055D01*
X10206611Y-16027055D02*
X10206611Y-15827055D01*
X10292325Y-16027055D02*
X10292325Y-15922293D01*
X10292325Y-15922293D02*
X10282801Y-15903245D01*
X10282801Y-15903245D02*
X10263753Y-15893722D01*
X10263753Y-15893722D02*
X10235182Y-15893722D01*
X10235182Y-15893722D02*
X10216134Y-15903245D01*
X10216134Y-15903245D02*
X10206611Y-15912769D01*
X10416134Y-16027055D02*
X10397087Y-16017531D01*
X10397087Y-16017531D02*
X10387563Y-16008007D01*
X10387563Y-16008007D02*
X10378039Y-15988960D01*
X10378039Y-15988960D02*
X10378039Y-15931817D01*
X10378039Y-15931817D02*
X10387563Y-15912769D01*
X10387563Y-15912769D02*
X10397087Y-15903245D01*
X10397087Y-15903245D02*
X10416134Y-15893722D01*
X10416134Y-15893722D02*
X10444706Y-15893722D01*
X10444706Y-15893722D02*
X10463753Y-15903245D01*
X10463753Y-15903245D02*
X10473277Y-15912769D01*
X10473277Y-15912769D02*
X10482801Y-15931817D01*
X10482801Y-15931817D02*
X10482801Y-15988960D01*
X10482801Y-15988960D02*
X10473277Y-16008007D01*
X10473277Y-16008007D02*
X10463753Y-16017531D01*
X10463753Y-16017531D02*
X10444706Y-16027055D01*
X10444706Y-16027055D02*
X10416134Y-16027055D01*
X10597087Y-16027055D02*
X10578039Y-16017531D01*
X10578039Y-16017531D02*
X10568515Y-15998483D01*
X10568515Y-15998483D02*
X10568515Y-15827055D01*
X10749468Y-16017531D02*
X10730420Y-16027055D01*
X10730420Y-16027055D02*
X10692325Y-16027055D01*
X10692325Y-16027055D02*
X10673277Y-16017531D01*
X10673277Y-16017531D02*
X10663753Y-15998483D01*
X10663753Y-15998483D02*
X10663753Y-15922293D01*
X10663753Y-15922293D02*
X10673277Y-15903245D01*
X10673277Y-15903245D02*
X10692325Y-15893722D01*
X10692325Y-15893722D02*
X10730420Y-15893722D01*
X10730420Y-15893722D02*
X10749468Y-15903245D01*
X10749468Y-15903245D02*
X10758992Y-15922293D01*
X10758992Y-15922293D02*
X10758992Y-15941341D01*
X10758992Y-15941341D02*
X10663753Y-15960388D01*
X10835182Y-16017531D02*
X10854230Y-16027055D01*
X10854230Y-16027055D02*
X10892325Y-16027055D01*
X10892325Y-16027055D02*
X10911373Y-16017531D01*
X10911373Y-16017531D02*
X10920896Y-15998483D01*
X10920896Y-15998483D02*
X10920896Y-15988960D01*
X10920896Y-15988960D02*
X10911373Y-15969912D01*
X10911373Y-15969912D02*
X10892325Y-15960388D01*
X10892325Y-15960388D02*
X10863753Y-15960388D01*
X10863753Y-15960388D02*
X10844706Y-15950864D01*
X10844706Y-15950864D02*
X10835182Y-15931817D01*
X10835182Y-15931817D02*
X10835182Y-15922293D01*
X10835182Y-15922293D02*
X10844706Y-15903245D01*
X10844706Y-15903245D02*
X10863753Y-15893722D01*
X10863753Y-15893722D02*
X10892325Y-15893722D01*
X10892325Y-15893722D02*
X10911373Y-15903245D01*
X10987563Y-16103245D02*
X10997087Y-16093722D01*
X10997087Y-16093722D02*
X11016134Y-16065150D01*
X11016134Y-16065150D02*
X11025658Y-16046103D01*
X11025658Y-16046103D02*
X11035182Y-16017531D01*
X11035182Y-16017531D02*
X11044706Y-15969912D01*
X11044706Y-15969912D02*
X11044706Y-15931817D01*
X11044706Y-15931817D02*
X11035182Y-15884198D01*
X11035182Y-15884198D02*
X11025658Y-15855626D01*
X11025658Y-15855626D02*
X11016134Y-15836579D01*
X11016134Y-15836579D02*
X10997087Y-15808007D01*
X10997087Y-15808007D02*
X10987563Y-15798483D01*
X11349468Y-16103245D02*
X11339944Y-16093722D01*
X11339944Y-16093722D02*
X11320896Y-16065150D01*
X11320896Y-16065150D02*
X11311372Y-16046103D01*
X11311372Y-16046103D02*
X11301849Y-16017531D01*
X11301849Y-16017531D02*
X11292325Y-15969912D01*
X11292325Y-15969912D02*
X11292325Y-15931817D01*
X11292325Y-15931817D02*
X11301849Y-15884198D01*
X11301849Y-15884198D02*
X11311372Y-15855626D01*
X11311372Y-15855626D02*
X11320896Y-15836579D01*
X11320896Y-15836579D02*
X11339944Y-15808007D01*
X11339944Y-15808007D02*
X11349468Y-15798483D01*
X11425658Y-15893722D02*
X11425658Y-16027055D01*
X11425658Y-15912769D02*
X11435182Y-15903245D01*
X11435182Y-15903245D02*
X11454230Y-15893722D01*
X11454230Y-15893722D02*
X11482801Y-15893722D01*
X11482801Y-15893722D02*
X11501849Y-15903245D01*
X11501849Y-15903245D02*
X11511372Y-15922293D01*
X11511372Y-15922293D02*
X11511372Y-16027055D01*
X11635182Y-16027055D02*
X11616134Y-16017531D01*
X11616134Y-16017531D02*
X11606611Y-16008007D01*
X11606611Y-16008007D02*
X11597087Y-15988960D01*
X11597087Y-15988960D02*
X11597087Y-15931817D01*
X11597087Y-15931817D02*
X11606611Y-15912769D01*
X11606611Y-15912769D02*
X11616134Y-15903245D01*
X11616134Y-15903245D02*
X11635182Y-15893722D01*
X11635182Y-15893722D02*
X11663753Y-15893722D01*
X11663753Y-15893722D02*
X11682801Y-15903245D01*
X11682801Y-15903245D02*
X11692325Y-15912769D01*
X11692325Y-15912769D02*
X11701849Y-15931817D01*
X11701849Y-15931817D02*
X11701849Y-15988960D01*
X11701849Y-15988960D02*
X11692325Y-16008007D01*
X11692325Y-16008007D02*
X11682801Y-16017531D01*
X11682801Y-16017531D02*
X11663753Y-16027055D01*
X11663753Y-16027055D02*
X11635182Y-16027055D01*
X11758992Y-15893722D02*
X11835182Y-15893722D01*
X11787563Y-15827055D02*
X11787563Y-15998483D01*
X11787563Y-15998483D02*
X11797087Y-16017531D01*
X11797087Y-16017531D02*
X11816134Y-16027055D01*
X11816134Y-16027055D02*
X11835182Y-16027055D01*
X12054230Y-15893722D02*
X12054230Y-16093722D01*
X12054230Y-15903245D02*
X12073277Y-15893722D01*
X12073277Y-15893722D02*
X12111373Y-15893722D01*
X12111373Y-15893722D02*
X12130420Y-15903245D01*
X12130420Y-15903245D02*
X12139944Y-15912769D01*
X12139944Y-15912769D02*
X12149468Y-15931817D01*
X12149468Y-15931817D02*
X12149468Y-15988960D01*
X12149468Y-15988960D02*
X12139944Y-16008007D01*
X12139944Y-16008007D02*
X12130420Y-16017531D01*
X12130420Y-16017531D02*
X12111373Y-16027055D01*
X12111373Y-16027055D02*
X12073277Y-16027055D01*
X12073277Y-16027055D02*
X12054230Y-16017531D01*
X12263753Y-16027055D02*
X12244706Y-16017531D01*
X12244706Y-16017531D02*
X12235182Y-15998483D01*
X12235182Y-15998483D02*
X12235182Y-15827055D01*
X12425658Y-16027055D02*
X12425658Y-15922293D01*
X12425658Y-15922293D02*
X12416134Y-15903245D01*
X12416134Y-15903245D02*
X12397087Y-15893722D01*
X12397087Y-15893722D02*
X12358992Y-15893722D01*
X12358992Y-15893722D02*
X12339944Y-15903245D01*
X12425658Y-16017531D02*
X12406611Y-16027055D01*
X12406611Y-16027055D02*
X12358992Y-16027055D01*
X12358992Y-16027055D02*
X12339944Y-16017531D01*
X12339944Y-16017531D02*
X12330420Y-15998483D01*
X12330420Y-15998483D02*
X12330420Y-15979436D01*
X12330420Y-15979436D02*
X12339944Y-15960388D01*
X12339944Y-15960388D02*
X12358992Y-15950864D01*
X12358992Y-15950864D02*
X12406611Y-15950864D01*
X12406611Y-15950864D02*
X12425658Y-15941341D01*
X12492325Y-15893722D02*
X12568515Y-15893722D01*
X12520896Y-15827055D02*
X12520896Y-15998483D01*
X12520896Y-15998483D02*
X12530420Y-16017531D01*
X12530420Y-16017531D02*
X12549468Y-16027055D01*
X12549468Y-16027055D02*
X12568515Y-16027055D01*
X12711373Y-16017531D02*
X12692325Y-16027055D01*
X12692325Y-16027055D02*
X12654230Y-16027055D01*
X12654230Y-16027055D02*
X12635182Y-16017531D01*
X12635182Y-16017531D02*
X12625658Y-15998483D01*
X12625658Y-15998483D02*
X12625658Y-15922293D01*
X12625658Y-15922293D02*
X12635182Y-15903245D01*
X12635182Y-15903245D02*
X12654230Y-15893722D01*
X12654230Y-15893722D02*
X12692325Y-15893722D01*
X12692325Y-15893722D02*
X12711373Y-15903245D01*
X12711373Y-15903245D02*
X12720896Y-15922293D01*
X12720896Y-15922293D02*
X12720896Y-15941341D01*
X12720896Y-15941341D02*
X12625658Y-15960388D01*
X12892325Y-16027055D02*
X12892325Y-15827055D01*
X12892325Y-16017531D02*
X12873277Y-16027055D01*
X12873277Y-16027055D02*
X12835182Y-16027055D01*
X12835182Y-16027055D02*
X12816134Y-16017531D01*
X12816134Y-16017531D02*
X12806611Y-16008007D01*
X12806611Y-16008007D02*
X12797087Y-15988960D01*
X12797087Y-15988960D02*
X12797087Y-15931817D01*
X12797087Y-15931817D02*
X12806611Y-15912769D01*
X12806611Y-15912769D02*
X12816134Y-15903245D01*
X12816134Y-15903245D02*
X12835182Y-15893722D01*
X12835182Y-15893722D02*
X12873277Y-15893722D01*
X12873277Y-15893722D02*
X12892325Y-15903245D01*
X12968515Y-16103245D02*
X12978039Y-16093722D01*
X12978039Y-16093722D02*
X12997087Y-16065150D01*
X12997087Y-16065150D02*
X13006611Y-16046103D01*
X13006611Y-16046103D02*
X13016134Y-16017531D01*
X13016134Y-16017531D02*
X13025658Y-15969912D01*
X13025658Y-15969912D02*
X13025658Y-15931817D01*
X13025658Y-15931817D02*
X13016134Y-15884198D01*
X13016134Y-15884198D02*
X13006611Y-15855626D01*
X13006611Y-15855626D02*
X12997087Y-15836579D01*
X12997087Y-15836579D02*
X12978039Y-15808007D01*
X12978039Y-15808007D02*
X12968515Y-15798483D01*
D13*
X6212500Y-16205431D02*
G75*
G02*
X6037500Y-16205431I-87500J0D01*
G01*
X6037500Y-16205431D02*
G75*
G02*
X6212500Y-16205431I87500J0D01*
G01*
D11*
X6578039Y-16296915D02*
X6463753Y-16296915D01*
X6520896Y-16296915D02*
X6520896Y-16096915D01*
X6520896Y-16096915D02*
X6501848Y-16125486D01*
X6501848Y-16125486D02*
X6482801Y-16144534D01*
X6482801Y-16144534D02*
X6463753Y-16154058D01*
X6663753Y-16277867D02*
X6673277Y-16287391D01*
X6673277Y-16287391D02*
X6663753Y-16296915D01*
X6663753Y-16296915D02*
X6654229Y-16287391D01*
X6654229Y-16287391D02*
X6663753Y-16277867D01*
X6663753Y-16277867D02*
X6663753Y-16296915D01*
X6739943Y-16096915D02*
X6873277Y-16096915D01*
X6873277Y-16096915D02*
X6787562Y-16296915D01*
X7044705Y-16096915D02*
X6949467Y-16096915D01*
X6949467Y-16096915D02*
X6939943Y-16192153D01*
X6939943Y-16192153D02*
X6949467Y-16182629D01*
X6949467Y-16182629D02*
X6968515Y-16173105D01*
X6968515Y-16173105D02*
X7016134Y-16173105D01*
X7016134Y-16173105D02*
X7035182Y-16182629D01*
X7035182Y-16182629D02*
X7044705Y-16192153D01*
X7044705Y-16192153D02*
X7054229Y-16211201D01*
X7054229Y-16211201D02*
X7054229Y-16258820D01*
X7054229Y-16258820D02*
X7044705Y-16277867D01*
X7044705Y-16277867D02*
X7035182Y-16287391D01*
X7035182Y-16287391D02*
X7016134Y-16296915D01*
X7016134Y-16296915D02*
X6968515Y-16296915D01*
X6968515Y-16296915D02*
X6949467Y-16287391D01*
X6949467Y-16287391D02*
X6939943Y-16277867D01*
X7178039Y-16096915D02*
X7197086Y-16096915D01*
X7197086Y-16096915D02*
X7216134Y-16106439D01*
X7216134Y-16106439D02*
X7225658Y-16115963D01*
X7225658Y-16115963D02*
X7235182Y-16135010D01*
X7235182Y-16135010D02*
X7244705Y-16173105D01*
X7244705Y-16173105D02*
X7244705Y-16220724D01*
X7244705Y-16220724D02*
X7235182Y-16258820D01*
X7235182Y-16258820D02*
X7225658Y-16277867D01*
X7225658Y-16277867D02*
X7216134Y-16287391D01*
X7216134Y-16287391D02*
X7197086Y-16296915D01*
X7197086Y-16296915D02*
X7178039Y-16296915D01*
X7178039Y-16296915D02*
X7158991Y-16287391D01*
X7158991Y-16287391D02*
X7149467Y-16277867D01*
X7149467Y-16277867D02*
X7139943Y-16258820D01*
X7139943Y-16258820D02*
X7130420Y-16220724D01*
X7130420Y-16220724D02*
X7130420Y-16173105D01*
X7130420Y-16173105D02*
X7139943Y-16135010D01*
X7139943Y-16135010D02*
X7149467Y-16115963D01*
X7149467Y-16115963D02*
X7158991Y-16106439D01*
X7158991Y-16106439D02*
X7178039Y-16096915D01*
X7330420Y-16296915D02*
X7330420Y-16163582D01*
X7330420Y-16182629D02*
X7339943Y-16173105D01*
X7339943Y-16173105D02*
X7358991Y-16163582D01*
X7358991Y-16163582D02*
X7387563Y-16163582D01*
X7387563Y-16163582D02*
X7406610Y-16173105D01*
X7406610Y-16173105D02*
X7416134Y-16192153D01*
X7416134Y-16192153D02*
X7416134Y-16296915D01*
X7416134Y-16192153D02*
X7425658Y-16173105D01*
X7425658Y-16173105D02*
X7444705Y-16163582D01*
X7444705Y-16163582D02*
X7473277Y-16163582D01*
X7473277Y-16163582D02*
X7492324Y-16173105D01*
X7492324Y-16173105D02*
X7501848Y-16192153D01*
X7501848Y-16192153D02*
X7501848Y-16296915D01*
X7597086Y-16296915D02*
X7597086Y-16163582D01*
X7597086Y-16182629D02*
X7606610Y-16173105D01*
X7606610Y-16173105D02*
X7625658Y-16163582D01*
X7625658Y-16163582D02*
X7654229Y-16163582D01*
X7654229Y-16163582D02*
X7673277Y-16173105D01*
X7673277Y-16173105D02*
X7682801Y-16192153D01*
X7682801Y-16192153D02*
X7682801Y-16296915D01*
X7682801Y-16192153D02*
X7692324Y-16173105D01*
X7692324Y-16173105D02*
X7711372Y-16163582D01*
X7711372Y-16163582D02*
X7739943Y-16163582D01*
X7739943Y-16163582D02*
X7758991Y-16173105D01*
X7758991Y-16173105D02*
X7768515Y-16192153D01*
X7768515Y-16192153D02*
X7768515Y-16296915D01*
X8158991Y-16087391D02*
X7987563Y-16344534D01*
X8416134Y-16096915D02*
X8435182Y-16096915D01*
X8435182Y-16096915D02*
X8454229Y-16106439D01*
X8454229Y-16106439D02*
X8463753Y-16115963D01*
X8463753Y-16115963D02*
X8473277Y-16135010D01*
X8473277Y-16135010D02*
X8482801Y-16173105D01*
X8482801Y-16173105D02*
X8482801Y-16220724D01*
X8482801Y-16220724D02*
X8473277Y-16258820D01*
X8473277Y-16258820D02*
X8463753Y-16277867D01*
X8463753Y-16277867D02*
X8454229Y-16287391D01*
X8454229Y-16287391D02*
X8435182Y-16296915D01*
X8435182Y-16296915D02*
X8416134Y-16296915D01*
X8416134Y-16296915D02*
X8397087Y-16287391D01*
X8397087Y-16287391D02*
X8387563Y-16277867D01*
X8387563Y-16277867D02*
X8378039Y-16258820D01*
X8378039Y-16258820D02*
X8368515Y-16220724D01*
X8368515Y-16220724D02*
X8368515Y-16173105D01*
X8368515Y-16173105D02*
X8378039Y-16135010D01*
X8378039Y-16135010D02*
X8387563Y-16115963D01*
X8387563Y-16115963D02*
X8397087Y-16106439D01*
X8397087Y-16106439D02*
X8416134Y-16096915D01*
X8568515Y-16277867D02*
X8578039Y-16287391D01*
X8578039Y-16287391D02*
X8568515Y-16296915D01*
X8568515Y-16296915D02*
X8558991Y-16287391D01*
X8558991Y-16287391D02*
X8568515Y-16277867D01*
X8568515Y-16277867D02*
X8568515Y-16296915D01*
X8701848Y-16096915D02*
X8720896Y-16096915D01*
X8720896Y-16096915D02*
X8739944Y-16106439D01*
X8739944Y-16106439D02*
X8749468Y-16115963D01*
X8749468Y-16115963D02*
X8758991Y-16135010D01*
X8758991Y-16135010D02*
X8768515Y-16173105D01*
X8768515Y-16173105D02*
X8768515Y-16220724D01*
X8768515Y-16220724D02*
X8758991Y-16258820D01*
X8758991Y-16258820D02*
X8749468Y-16277867D01*
X8749468Y-16277867D02*
X8739944Y-16287391D01*
X8739944Y-16287391D02*
X8720896Y-16296915D01*
X8720896Y-16296915D02*
X8701848Y-16296915D01*
X8701848Y-16296915D02*
X8682801Y-16287391D01*
X8682801Y-16287391D02*
X8673277Y-16277867D01*
X8673277Y-16277867D02*
X8663753Y-16258820D01*
X8663753Y-16258820D02*
X8654229Y-16220724D01*
X8654229Y-16220724D02*
X8654229Y-16173105D01*
X8654229Y-16173105D02*
X8663753Y-16135010D01*
X8663753Y-16135010D02*
X8673277Y-16115963D01*
X8673277Y-16115963D02*
X8682801Y-16106439D01*
X8682801Y-16106439D02*
X8701848Y-16096915D01*
X8939944Y-16096915D02*
X8901848Y-16096915D01*
X8901848Y-16096915D02*
X8882801Y-16106439D01*
X8882801Y-16106439D02*
X8873277Y-16115963D01*
X8873277Y-16115963D02*
X8854229Y-16144534D01*
X8854229Y-16144534D02*
X8844706Y-16182629D01*
X8844706Y-16182629D02*
X8844706Y-16258820D01*
X8844706Y-16258820D02*
X8854229Y-16277867D01*
X8854229Y-16277867D02*
X8863753Y-16287391D01*
X8863753Y-16287391D02*
X8882801Y-16296915D01*
X8882801Y-16296915D02*
X8920896Y-16296915D01*
X8920896Y-16296915D02*
X8939944Y-16287391D01*
X8939944Y-16287391D02*
X8949468Y-16277867D01*
X8949468Y-16277867D02*
X8958991Y-16258820D01*
X8958991Y-16258820D02*
X8958991Y-16211201D01*
X8958991Y-16211201D02*
X8949468Y-16192153D01*
X8949468Y-16192153D02*
X8939944Y-16182629D01*
X8939944Y-16182629D02*
X8920896Y-16173105D01*
X8920896Y-16173105D02*
X8882801Y-16173105D01*
X8882801Y-16173105D02*
X8863753Y-16182629D01*
X8863753Y-16182629D02*
X8854229Y-16192153D01*
X8854229Y-16192153D02*
X8844706Y-16211201D01*
X9073277Y-16182629D02*
X9054229Y-16173105D01*
X9054229Y-16173105D02*
X9044706Y-16163582D01*
X9044706Y-16163582D02*
X9035182Y-16144534D01*
X9035182Y-16144534D02*
X9035182Y-16135010D01*
X9035182Y-16135010D02*
X9044706Y-16115963D01*
X9044706Y-16115963D02*
X9054229Y-16106439D01*
X9054229Y-16106439D02*
X9073277Y-16096915D01*
X9073277Y-16096915D02*
X9111372Y-16096915D01*
X9111372Y-16096915D02*
X9130420Y-16106439D01*
X9130420Y-16106439D02*
X9139944Y-16115963D01*
X9139944Y-16115963D02*
X9149468Y-16135010D01*
X9149468Y-16135010D02*
X9149468Y-16144534D01*
X9149468Y-16144534D02*
X9139944Y-16163582D01*
X9139944Y-16163582D02*
X9130420Y-16173105D01*
X9130420Y-16173105D02*
X9111372Y-16182629D01*
X9111372Y-16182629D02*
X9073277Y-16182629D01*
X9073277Y-16182629D02*
X9054229Y-16192153D01*
X9054229Y-16192153D02*
X9044706Y-16201677D01*
X9044706Y-16201677D02*
X9035182Y-16220724D01*
X9035182Y-16220724D02*
X9035182Y-16258820D01*
X9035182Y-16258820D02*
X9044706Y-16277867D01*
X9044706Y-16277867D02*
X9054229Y-16287391D01*
X9054229Y-16287391D02*
X9073277Y-16296915D01*
X9073277Y-16296915D02*
X9111372Y-16296915D01*
X9111372Y-16296915D02*
X9130420Y-16287391D01*
X9130420Y-16287391D02*
X9139944Y-16277867D01*
X9139944Y-16277867D02*
X9149468Y-16258820D01*
X9149468Y-16258820D02*
X9149468Y-16220724D01*
X9149468Y-16220724D02*
X9139944Y-16201677D01*
X9139944Y-16201677D02*
X9130420Y-16192153D01*
X9130420Y-16192153D02*
X9111372Y-16182629D01*
X9244706Y-16296915D02*
X9282801Y-16296915D01*
X9282801Y-16296915D02*
X9301849Y-16287391D01*
X9301849Y-16287391D02*
X9311372Y-16277867D01*
X9311372Y-16277867D02*
X9330420Y-16249296D01*
X9330420Y-16249296D02*
X9339944Y-16211201D01*
X9339944Y-16211201D02*
X9339944Y-16135010D01*
X9339944Y-16135010D02*
X9330420Y-16115963D01*
X9330420Y-16115963D02*
X9320896Y-16106439D01*
X9320896Y-16106439D02*
X9301849Y-16096915D01*
X9301849Y-16096915D02*
X9263753Y-16096915D01*
X9263753Y-16096915D02*
X9244706Y-16106439D01*
X9244706Y-16106439D02*
X9235182Y-16115963D01*
X9235182Y-16115963D02*
X9225658Y-16135010D01*
X9225658Y-16135010D02*
X9225658Y-16182629D01*
X9225658Y-16182629D02*
X9235182Y-16201677D01*
X9235182Y-16201677D02*
X9244706Y-16211201D01*
X9244706Y-16211201D02*
X9263753Y-16220724D01*
X9263753Y-16220724D02*
X9301849Y-16220724D01*
X9301849Y-16220724D02*
X9320896Y-16211201D01*
X9320896Y-16211201D02*
X9330420Y-16201677D01*
X9330420Y-16201677D02*
X9339944Y-16182629D01*
X9416134Y-16096915D02*
X9416134Y-16135010D01*
X9492325Y-16096915D02*
X9492325Y-16135010D01*
X9787563Y-16373105D02*
X9778039Y-16363582D01*
X9778039Y-16363582D02*
X9758991Y-16335010D01*
X9758991Y-16335010D02*
X9749468Y-16315963D01*
X9749468Y-16315963D02*
X9739944Y-16287391D01*
X9739944Y-16287391D02*
X9730420Y-16239772D01*
X9730420Y-16239772D02*
X9730420Y-16201677D01*
X9730420Y-16201677D02*
X9739944Y-16154058D01*
X9739944Y-16154058D02*
X9749468Y-16125486D01*
X9749468Y-16125486D02*
X9758991Y-16106439D01*
X9758991Y-16106439D02*
X9778039Y-16077867D01*
X9778039Y-16077867D02*
X9787563Y-16068343D01*
X9949468Y-16163582D02*
X9949468Y-16296915D01*
X9901849Y-16087391D02*
X9854230Y-16230248D01*
X9854230Y-16230248D02*
X9978039Y-16230248D01*
X10139944Y-16096915D02*
X10101849Y-16096915D01*
X10101849Y-16096915D02*
X10082801Y-16106439D01*
X10082801Y-16106439D02*
X10073277Y-16115963D01*
X10073277Y-16115963D02*
X10054230Y-16144534D01*
X10054230Y-16144534D02*
X10044706Y-16182629D01*
X10044706Y-16182629D02*
X10044706Y-16258820D01*
X10044706Y-16258820D02*
X10054230Y-16277867D01*
X10054230Y-16277867D02*
X10063753Y-16287391D01*
X10063753Y-16287391D02*
X10082801Y-16296915D01*
X10082801Y-16296915D02*
X10120896Y-16296915D01*
X10120896Y-16296915D02*
X10139944Y-16287391D01*
X10139944Y-16287391D02*
X10149468Y-16277867D01*
X10149468Y-16277867D02*
X10158991Y-16258820D01*
X10158991Y-16258820D02*
X10158991Y-16211201D01*
X10158991Y-16211201D02*
X10149468Y-16192153D01*
X10149468Y-16192153D02*
X10139944Y-16182629D01*
X10139944Y-16182629D02*
X10120896Y-16173105D01*
X10120896Y-16173105D02*
X10082801Y-16173105D01*
X10082801Y-16173105D02*
X10063753Y-16182629D01*
X10063753Y-16182629D02*
X10054230Y-16192153D01*
X10054230Y-16192153D02*
X10044706Y-16211201D01*
X10397087Y-16296915D02*
X10397087Y-16096915D01*
X10482801Y-16296915D02*
X10482801Y-16192153D01*
X10482801Y-16192153D02*
X10473277Y-16173105D01*
X10473277Y-16173105D02*
X10454230Y-16163582D01*
X10454230Y-16163582D02*
X10425658Y-16163582D01*
X10425658Y-16163582D02*
X10406611Y-16173105D01*
X10406611Y-16173105D02*
X10397087Y-16182629D01*
X10606611Y-16296915D02*
X10587563Y-16287391D01*
X10587563Y-16287391D02*
X10578039Y-16277867D01*
X10578039Y-16277867D02*
X10568515Y-16258820D01*
X10568515Y-16258820D02*
X10568515Y-16201677D01*
X10568515Y-16201677D02*
X10578039Y-16182629D01*
X10578039Y-16182629D02*
X10587563Y-16173105D01*
X10587563Y-16173105D02*
X10606611Y-16163582D01*
X10606611Y-16163582D02*
X10635182Y-16163582D01*
X10635182Y-16163582D02*
X10654230Y-16173105D01*
X10654230Y-16173105D02*
X10663753Y-16182629D01*
X10663753Y-16182629D02*
X10673277Y-16201677D01*
X10673277Y-16201677D02*
X10673277Y-16258820D01*
X10673277Y-16258820D02*
X10663753Y-16277867D01*
X10663753Y-16277867D02*
X10654230Y-16287391D01*
X10654230Y-16287391D02*
X10635182Y-16296915D01*
X10635182Y-16296915D02*
X10606611Y-16296915D01*
X10787563Y-16296915D02*
X10768515Y-16287391D01*
X10768515Y-16287391D02*
X10758992Y-16268343D01*
X10758992Y-16268343D02*
X10758992Y-16096915D01*
X10939944Y-16287391D02*
X10920896Y-16296915D01*
X10920896Y-16296915D02*
X10882801Y-16296915D01*
X10882801Y-16296915D02*
X10863753Y-16287391D01*
X10863753Y-16287391D02*
X10854230Y-16268343D01*
X10854230Y-16268343D02*
X10854230Y-16192153D01*
X10854230Y-16192153D02*
X10863753Y-16173105D01*
X10863753Y-16173105D02*
X10882801Y-16163582D01*
X10882801Y-16163582D02*
X10920896Y-16163582D01*
X10920896Y-16163582D02*
X10939944Y-16173105D01*
X10939944Y-16173105D02*
X10949468Y-16192153D01*
X10949468Y-16192153D02*
X10949468Y-16211201D01*
X10949468Y-16211201D02*
X10854230Y-16230248D01*
X11025658Y-16287391D02*
X11044706Y-16296915D01*
X11044706Y-16296915D02*
X11082801Y-16296915D01*
X11082801Y-16296915D02*
X11101849Y-16287391D01*
X11101849Y-16287391D02*
X11111373Y-16268343D01*
X11111373Y-16268343D02*
X11111373Y-16258820D01*
X11111373Y-16258820D02*
X11101849Y-16239772D01*
X11101849Y-16239772D02*
X11082801Y-16230248D01*
X11082801Y-16230248D02*
X11054230Y-16230248D01*
X11054230Y-16230248D02*
X11035182Y-16220724D01*
X11035182Y-16220724D02*
X11025658Y-16201677D01*
X11025658Y-16201677D02*
X11025658Y-16192153D01*
X11025658Y-16192153D02*
X11035182Y-16173105D01*
X11035182Y-16173105D02*
X11054230Y-16163582D01*
X11054230Y-16163582D02*
X11082801Y-16163582D01*
X11082801Y-16163582D02*
X11101849Y-16173105D01*
X11178039Y-16373105D02*
X11187563Y-16363582D01*
X11187563Y-16363582D02*
X11206611Y-16335010D01*
X11206611Y-16335010D02*
X11216134Y-16315963D01*
X11216134Y-16315963D02*
X11225658Y-16287391D01*
X11225658Y-16287391D02*
X11235182Y-16239772D01*
X11235182Y-16239772D02*
X11235182Y-16201677D01*
X11235182Y-16201677D02*
X11225658Y-16154058D01*
X11225658Y-16154058D02*
X11216134Y-16125486D01*
X11216134Y-16125486D02*
X11206611Y-16106439D01*
X11206611Y-16106439D02*
X11187563Y-16077867D01*
X11187563Y-16077867D02*
X11178039Y-16068343D01*
X11539944Y-16373105D02*
X11530420Y-16363582D01*
X11530420Y-16363582D02*
X11511372Y-16335010D01*
X11511372Y-16335010D02*
X11501849Y-16315963D01*
X11501849Y-16315963D02*
X11492325Y-16287391D01*
X11492325Y-16287391D02*
X11482801Y-16239772D01*
X11482801Y-16239772D02*
X11482801Y-16201677D01*
X11482801Y-16201677D02*
X11492325Y-16154058D01*
X11492325Y-16154058D02*
X11501849Y-16125486D01*
X11501849Y-16125486D02*
X11511372Y-16106439D01*
X11511372Y-16106439D02*
X11530420Y-16077867D01*
X11530420Y-16077867D02*
X11539944Y-16068343D01*
X11616134Y-16163582D02*
X11616134Y-16296915D01*
X11616134Y-16182629D02*
X11625658Y-16173105D01*
X11625658Y-16173105D02*
X11644706Y-16163582D01*
X11644706Y-16163582D02*
X11673277Y-16163582D01*
X11673277Y-16163582D02*
X11692325Y-16173105D01*
X11692325Y-16173105D02*
X11701849Y-16192153D01*
X11701849Y-16192153D02*
X11701849Y-16296915D01*
X11825658Y-16296915D02*
X11806611Y-16287391D01*
X11806611Y-16287391D02*
X11797087Y-16277867D01*
X11797087Y-16277867D02*
X11787563Y-16258820D01*
X11787563Y-16258820D02*
X11787563Y-16201677D01*
X11787563Y-16201677D02*
X11797087Y-16182629D01*
X11797087Y-16182629D02*
X11806611Y-16173105D01*
X11806611Y-16173105D02*
X11825658Y-16163582D01*
X11825658Y-16163582D02*
X11854230Y-16163582D01*
X11854230Y-16163582D02*
X11873277Y-16173105D01*
X11873277Y-16173105D02*
X11882801Y-16182629D01*
X11882801Y-16182629D02*
X11892325Y-16201677D01*
X11892325Y-16201677D02*
X11892325Y-16258820D01*
X11892325Y-16258820D02*
X11882801Y-16277867D01*
X11882801Y-16277867D02*
X11873277Y-16287391D01*
X11873277Y-16287391D02*
X11854230Y-16296915D01*
X11854230Y-16296915D02*
X11825658Y-16296915D01*
X11949468Y-16163582D02*
X12025658Y-16163582D01*
X11978039Y-16096915D02*
X11978039Y-16268343D01*
X11978039Y-16268343D02*
X11987563Y-16287391D01*
X11987563Y-16287391D02*
X12006611Y-16296915D01*
X12006611Y-16296915D02*
X12025658Y-16296915D01*
X12244706Y-16163582D02*
X12244706Y-16363582D01*
X12244706Y-16173105D02*
X12263753Y-16163582D01*
X12263753Y-16163582D02*
X12301849Y-16163582D01*
X12301849Y-16163582D02*
X12320896Y-16173105D01*
X12320896Y-16173105D02*
X12330420Y-16182629D01*
X12330420Y-16182629D02*
X12339944Y-16201677D01*
X12339944Y-16201677D02*
X12339944Y-16258820D01*
X12339944Y-16258820D02*
X12330420Y-16277867D01*
X12330420Y-16277867D02*
X12320896Y-16287391D01*
X12320896Y-16287391D02*
X12301849Y-16296915D01*
X12301849Y-16296915D02*
X12263753Y-16296915D01*
X12263753Y-16296915D02*
X12244706Y-16287391D01*
X12454230Y-16296915D02*
X12435182Y-16287391D01*
X12435182Y-16287391D02*
X12425658Y-16268343D01*
X12425658Y-16268343D02*
X12425658Y-16096915D01*
X12616134Y-16296915D02*
X12616134Y-16192153D01*
X12616134Y-16192153D02*
X12606611Y-16173105D01*
X12606611Y-16173105D02*
X12587563Y-16163582D01*
X12587563Y-16163582D02*
X12549468Y-16163582D01*
X12549468Y-16163582D02*
X12530420Y-16173105D01*
X12616134Y-16287391D02*
X12597087Y-16296915D01*
X12597087Y-16296915D02*
X12549468Y-16296915D01*
X12549468Y-16296915D02*
X12530420Y-16287391D01*
X12530420Y-16287391D02*
X12520896Y-16268343D01*
X12520896Y-16268343D02*
X12520896Y-16249296D01*
X12520896Y-16249296D02*
X12530420Y-16230248D01*
X12530420Y-16230248D02*
X12549468Y-16220724D01*
X12549468Y-16220724D02*
X12597087Y-16220724D01*
X12597087Y-16220724D02*
X12616134Y-16211201D01*
X12682801Y-16163582D02*
X12758992Y-16163582D01*
X12711373Y-16096915D02*
X12711373Y-16268343D01*
X12711373Y-16268343D02*
X12720896Y-16287391D01*
X12720896Y-16287391D02*
X12739944Y-16296915D01*
X12739944Y-16296915D02*
X12758992Y-16296915D01*
X12901849Y-16287391D02*
X12882801Y-16296915D01*
X12882801Y-16296915D02*
X12844706Y-16296915D01*
X12844706Y-16296915D02*
X12825658Y-16287391D01*
X12825658Y-16287391D02*
X12816134Y-16268343D01*
X12816134Y-16268343D02*
X12816134Y-16192153D01*
X12816134Y-16192153D02*
X12825658Y-16173105D01*
X12825658Y-16173105D02*
X12844706Y-16163582D01*
X12844706Y-16163582D02*
X12882801Y-16163582D01*
X12882801Y-16163582D02*
X12901849Y-16173105D01*
X12901849Y-16173105D02*
X12911373Y-16192153D01*
X12911373Y-16192153D02*
X12911373Y-16211201D01*
X12911373Y-16211201D02*
X12816134Y-16230248D01*
X13082801Y-16296915D02*
X13082801Y-16096915D01*
X13082801Y-16287391D02*
X13063754Y-16296915D01*
X13063754Y-16296915D02*
X13025658Y-16296915D01*
X13025658Y-16296915D02*
X13006611Y-16287391D01*
X13006611Y-16287391D02*
X12997087Y-16277867D01*
X12997087Y-16277867D02*
X12987563Y-16258820D01*
X12987563Y-16258820D02*
X12987563Y-16201677D01*
X12987563Y-16201677D02*
X12997087Y-16182629D01*
X12997087Y-16182629D02*
X13006611Y-16173105D01*
X13006611Y-16173105D02*
X13025658Y-16163582D01*
X13025658Y-16163582D02*
X13063754Y-16163582D01*
X13063754Y-16163582D02*
X13082801Y-16173105D01*
X13158992Y-16373105D02*
X13168515Y-16363582D01*
X13168515Y-16363582D02*
X13187563Y-16335010D01*
X13187563Y-16335010D02*
X13197087Y-16315963D01*
X13197087Y-16315963D02*
X13206611Y-16287391D01*
X13206611Y-16287391D02*
X13216134Y-16239772D01*
X13216134Y-16239772D02*
X13216134Y-16201677D01*
X13216134Y-16201677D02*
X13206611Y-16154058D01*
X13206611Y-16154058D02*
X13197087Y-16125486D01*
X13197087Y-16125486D02*
X13187563Y-16106439D01*
X13187563Y-16106439D02*
X13168515Y-16077867D01*
X13168515Y-16077867D02*
X13158992Y-16068343D01*
X6112500Y-16400431D02*
X6112500Y-16600431D01*
X6012500Y-16500431D02*
X6212500Y-16500431D01*
X6454229Y-16391915D02*
X6578039Y-16391915D01*
X6578039Y-16391915D02*
X6511372Y-16468105D01*
X6511372Y-16468105D02*
X6539943Y-16468105D01*
X6539943Y-16468105D02*
X6558991Y-16477629D01*
X6558991Y-16477629D02*
X6568515Y-16487153D01*
X6568515Y-16487153D02*
X6578039Y-16506201D01*
X6578039Y-16506201D02*
X6578039Y-16553820D01*
X6578039Y-16553820D02*
X6568515Y-16572867D01*
X6568515Y-16572867D02*
X6558991Y-16582391D01*
X6558991Y-16582391D02*
X6539943Y-16591915D01*
X6539943Y-16591915D02*
X6482801Y-16591915D01*
X6482801Y-16591915D02*
X6463753Y-16582391D01*
X6463753Y-16582391D02*
X6454229Y-16572867D01*
X6663753Y-16572867D02*
X6673277Y-16582391D01*
X6673277Y-16582391D02*
X6663753Y-16591915D01*
X6663753Y-16591915D02*
X6654229Y-16582391D01*
X6654229Y-16582391D02*
X6663753Y-16572867D01*
X6663753Y-16572867D02*
X6663753Y-16591915D01*
X6768515Y-16591915D02*
X6806610Y-16591915D01*
X6806610Y-16591915D02*
X6825658Y-16582391D01*
X6825658Y-16582391D02*
X6835182Y-16572867D01*
X6835182Y-16572867D02*
X6854229Y-16544296D01*
X6854229Y-16544296D02*
X6863753Y-16506201D01*
X6863753Y-16506201D02*
X6863753Y-16430010D01*
X6863753Y-16430010D02*
X6854229Y-16410963D01*
X6854229Y-16410963D02*
X6844705Y-16401439D01*
X6844705Y-16401439D02*
X6825658Y-16391915D01*
X6825658Y-16391915D02*
X6787562Y-16391915D01*
X6787562Y-16391915D02*
X6768515Y-16401439D01*
X6768515Y-16401439D02*
X6758991Y-16410963D01*
X6758991Y-16410963D02*
X6749467Y-16430010D01*
X6749467Y-16430010D02*
X6749467Y-16477629D01*
X6749467Y-16477629D02*
X6758991Y-16496677D01*
X6758991Y-16496677D02*
X6768515Y-16506201D01*
X6768515Y-16506201D02*
X6787562Y-16515724D01*
X6787562Y-16515724D02*
X6825658Y-16515724D01*
X6825658Y-16515724D02*
X6844705Y-16506201D01*
X6844705Y-16506201D02*
X6854229Y-16496677D01*
X6854229Y-16496677D02*
X6863753Y-16477629D01*
X6978039Y-16477629D02*
X6958991Y-16468105D01*
X6958991Y-16468105D02*
X6949467Y-16458582D01*
X6949467Y-16458582D02*
X6939943Y-16439534D01*
X6939943Y-16439534D02*
X6939943Y-16430010D01*
X6939943Y-16430010D02*
X6949467Y-16410963D01*
X6949467Y-16410963D02*
X6958991Y-16401439D01*
X6958991Y-16401439D02*
X6978039Y-16391915D01*
X6978039Y-16391915D02*
X7016134Y-16391915D01*
X7016134Y-16391915D02*
X7035182Y-16401439D01*
X7035182Y-16401439D02*
X7044705Y-16410963D01*
X7044705Y-16410963D02*
X7054229Y-16430010D01*
X7054229Y-16430010D02*
X7054229Y-16439534D01*
X7054229Y-16439534D02*
X7044705Y-16458582D01*
X7044705Y-16458582D02*
X7035182Y-16468105D01*
X7035182Y-16468105D02*
X7016134Y-16477629D01*
X7016134Y-16477629D02*
X6978039Y-16477629D01*
X6978039Y-16477629D02*
X6958991Y-16487153D01*
X6958991Y-16487153D02*
X6949467Y-16496677D01*
X6949467Y-16496677D02*
X6939943Y-16515724D01*
X6939943Y-16515724D02*
X6939943Y-16553820D01*
X6939943Y-16553820D02*
X6949467Y-16572867D01*
X6949467Y-16572867D02*
X6958991Y-16582391D01*
X6958991Y-16582391D02*
X6978039Y-16591915D01*
X6978039Y-16591915D02*
X7016134Y-16591915D01*
X7016134Y-16591915D02*
X7035182Y-16582391D01*
X7035182Y-16582391D02*
X7044705Y-16572867D01*
X7044705Y-16572867D02*
X7054229Y-16553820D01*
X7054229Y-16553820D02*
X7054229Y-16515724D01*
X7054229Y-16515724D02*
X7044705Y-16496677D01*
X7044705Y-16496677D02*
X7035182Y-16487153D01*
X7035182Y-16487153D02*
X7016134Y-16477629D01*
X7168515Y-16477629D02*
X7149467Y-16468105D01*
X7149467Y-16468105D02*
X7139943Y-16458582D01*
X7139943Y-16458582D02*
X7130420Y-16439534D01*
X7130420Y-16439534D02*
X7130420Y-16430010D01*
X7130420Y-16430010D02*
X7139943Y-16410963D01*
X7139943Y-16410963D02*
X7149467Y-16401439D01*
X7149467Y-16401439D02*
X7168515Y-16391915D01*
X7168515Y-16391915D02*
X7206610Y-16391915D01*
X7206610Y-16391915D02*
X7225658Y-16401439D01*
X7225658Y-16401439D02*
X7235182Y-16410963D01*
X7235182Y-16410963D02*
X7244705Y-16430010D01*
X7244705Y-16430010D02*
X7244705Y-16439534D01*
X7244705Y-16439534D02*
X7235182Y-16458582D01*
X7235182Y-16458582D02*
X7225658Y-16468105D01*
X7225658Y-16468105D02*
X7206610Y-16477629D01*
X7206610Y-16477629D02*
X7168515Y-16477629D01*
X7168515Y-16477629D02*
X7149467Y-16487153D01*
X7149467Y-16487153D02*
X7139943Y-16496677D01*
X7139943Y-16496677D02*
X7130420Y-16515724D01*
X7130420Y-16515724D02*
X7130420Y-16553820D01*
X7130420Y-16553820D02*
X7139943Y-16572867D01*
X7139943Y-16572867D02*
X7149467Y-16582391D01*
X7149467Y-16582391D02*
X7168515Y-16591915D01*
X7168515Y-16591915D02*
X7206610Y-16591915D01*
X7206610Y-16591915D02*
X7225658Y-16582391D01*
X7225658Y-16582391D02*
X7235182Y-16572867D01*
X7235182Y-16572867D02*
X7244705Y-16553820D01*
X7244705Y-16553820D02*
X7244705Y-16515724D01*
X7244705Y-16515724D02*
X7235182Y-16496677D01*
X7235182Y-16496677D02*
X7225658Y-16487153D01*
X7225658Y-16487153D02*
X7206610Y-16477629D01*
X7330420Y-16591915D02*
X7330420Y-16458582D01*
X7330420Y-16477629D02*
X7339943Y-16468105D01*
X7339943Y-16468105D02*
X7358991Y-16458582D01*
X7358991Y-16458582D02*
X7387563Y-16458582D01*
X7387563Y-16458582D02*
X7406610Y-16468105D01*
X7406610Y-16468105D02*
X7416134Y-16487153D01*
X7416134Y-16487153D02*
X7416134Y-16591915D01*
X7416134Y-16487153D02*
X7425658Y-16468105D01*
X7425658Y-16468105D02*
X7444705Y-16458582D01*
X7444705Y-16458582D02*
X7473277Y-16458582D01*
X7473277Y-16458582D02*
X7492324Y-16468105D01*
X7492324Y-16468105D02*
X7501848Y-16487153D01*
X7501848Y-16487153D02*
X7501848Y-16591915D01*
X7597086Y-16591915D02*
X7597086Y-16458582D01*
X7597086Y-16477629D02*
X7606610Y-16468105D01*
X7606610Y-16468105D02*
X7625658Y-16458582D01*
X7625658Y-16458582D02*
X7654229Y-16458582D01*
X7654229Y-16458582D02*
X7673277Y-16468105D01*
X7673277Y-16468105D02*
X7682801Y-16487153D01*
X7682801Y-16487153D02*
X7682801Y-16591915D01*
X7682801Y-16487153D02*
X7692324Y-16468105D01*
X7692324Y-16468105D02*
X7711372Y-16458582D01*
X7711372Y-16458582D02*
X7739943Y-16458582D01*
X7739943Y-16458582D02*
X7758991Y-16468105D01*
X7758991Y-16468105D02*
X7768515Y-16487153D01*
X7768515Y-16487153D02*
X7768515Y-16591915D01*
X8158991Y-16382391D02*
X7987563Y-16639534D01*
X8416134Y-16391915D02*
X8435182Y-16391915D01*
X8435182Y-16391915D02*
X8454229Y-16401439D01*
X8454229Y-16401439D02*
X8463753Y-16410963D01*
X8463753Y-16410963D02*
X8473277Y-16430010D01*
X8473277Y-16430010D02*
X8482801Y-16468105D01*
X8482801Y-16468105D02*
X8482801Y-16515724D01*
X8482801Y-16515724D02*
X8473277Y-16553820D01*
X8473277Y-16553820D02*
X8463753Y-16572867D01*
X8463753Y-16572867D02*
X8454229Y-16582391D01*
X8454229Y-16582391D02*
X8435182Y-16591915D01*
X8435182Y-16591915D02*
X8416134Y-16591915D01*
X8416134Y-16591915D02*
X8397087Y-16582391D01*
X8397087Y-16582391D02*
X8387563Y-16572867D01*
X8387563Y-16572867D02*
X8378039Y-16553820D01*
X8378039Y-16553820D02*
X8368515Y-16515724D01*
X8368515Y-16515724D02*
X8368515Y-16468105D01*
X8368515Y-16468105D02*
X8378039Y-16430010D01*
X8378039Y-16430010D02*
X8387563Y-16410963D01*
X8387563Y-16410963D02*
X8397087Y-16401439D01*
X8397087Y-16401439D02*
X8416134Y-16391915D01*
X8568515Y-16572867D02*
X8578039Y-16582391D01*
X8578039Y-16582391D02*
X8568515Y-16591915D01*
X8568515Y-16591915D02*
X8558991Y-16582391D01*
X8558991Y-16582391D02*
X8568515Y-16572867D01*
X8568515Y-16572867D02*
X8568515Y-16591915D01*
X8768515Y-16591915D02*
X8654229Y-16591915D01*
X8711372Y-16591915D02*
X8711372Y-16391915D01*
X8711372Y-16391915D02*
X8692325Y-16420486D01*
X8692325Y-16420486D02*
X8673277Y-16439534D01*
X8673277Y-16439534D02*
X8654229Y-16449058D01*
X8949468Y-16391915D02*
X8854229Y-16391915D01*
X8854229Y-16391915D02*
X8844706Y-16487153D01*
X8844706Y-16487153D02*
X8854229Y-16477629D01*
X8854229Y-16477629D02*
X8873277Y-16468105D01*
X8873277Y-16468105D02*
X8920896Y-16468105D01*
X8920896Y-16468105D02*
X8939944Y-16477629D01*
X8939944Y-16477629D02*
X8949468Y-16487153D01*
X8949468Y-16487153D02*
X8958991Y-16506201D01*
X8958991Y-16506201D02*
X8958991Y-16553820D01*
X8958991Y-16553820D02*
X8949468Y-16572867D01*
X8949468Y-16572867D02*
X8939944Y-16582391D01*
X8939944Y-16582391D02*
X8920896Y-16591915D01*
X8920896Y-16591915D02*
X8873277Y-16591915D01*
X8873277Y-16591915D02*
X8854229Y-16582391D01*
X8854229Y-16582391D02*
X8844706Y-16572867D01*
X9025658Y-16391915D02*
X9158991Y-16391915D01*
X9158991Y-16391915D02*
X9073277Y-16591915D01*
X9273277Y-16391915D02*
X9292325Y-16391915D01*
X9292325Y-16391915D02*
X9311372Y-16401439D01*
X9311372Y-16401439D02*
X9320896Y-16410963D01*
X9320896Y-16410963D02*
X9330420Y-16430010D01*
X9330420Y-16430010D02*
X9339944Y-16468105D01*
X9339944Y-16468105D02*
X9339944Y-16515724D01*
X9339944Y-16515724D02*
X9330420Y-16553820D01*
X9330420Y-16553820D02*
X9320896Y-16572867D01*
X9320896Y-16572867D02*
X9311372Y-16582391D01*
X9311372Y-16582391D02*
X9292325Y-16591915D01*
X9292325Y-16591915D02*
X9273277Y-16591915D01*
X9273277Y-16591915D02*
X9254229Y-16582391D01*
X9254229Y-16582391D02*
X9244706Y-16572867D01*
X9244706Y-16572867D02*
X9235182Y-16553820D01*
X9235182Y-16553820D02*
X9225658Y-16515724D01*
X9225658Y-16515724D02*
X9225658Y-16468105D01*
X9225658Y-16468105D02*
X9235182Y-16430010D01*
X9235182Y-16430010D02*
X9244706Y-16410963D01*
X9244706Y-16410963D02*
X9254229Y-16401439D01*
X9254229Y-16401439D02*
X9273277Y-16391915D01*
X9416134Y-16391915D02*
X9416134Y-16430010D01*
X9492325Y-16391915D02*
X9492325Y-16430010D01*
X9787563Y-16668105D02*
X9778039Y-16658582D01*
X9778039Y-16658582D02*
X9758991Y-16630010D01*
X9758991Y-16630010D02*
X9749468Y-16610963D01*
X9749468Y-16610963D02*
X9739944Y-16582391D01*
X9739944Y-16582391D02*
X9730420Y-16534772D01*
X9730420Y-16534772D02*
X9730420Y-16496677D01*
X9730420Y-16496677D02*
X9739944Y-16449058D01*
X9739944Y-16449058D02*
X9749468Y-16420486D01*
X9749468Y-16420486D02*
X9758991Y-16401439D01*
X9758991Y-16401439D02*
X9778039Y-16372867D01*
X9778039Y-16372867D02*
X9787563Y-16363343D01*
X9854230Y-16410963D02*
X9863753Y-16401439D01*
X9863753Y-16401439D02*
X9882801Y-16391915D01*
X9882801Y-16391915D02*
X9930420Y-16391915D01*
X9930420Y-16391915D02*
X9949468Y-16401439D01*
X9949468Y-16401439D02*
X9958991Y-16410963D01*
X9958991Y-16410963D02*
X9968515Y-16430010D01*
X9968515Y-16430010D02*
X9968515Y-16449058D01*
X9968515Y-16449058D02*
X9958991Y-16477629D01*
X9958991Y-16477629D02*
X9844706Y-16591915D01*
X9844706Y-16591915D02*
X9968515Y-16591915D01*
X10035182Y-16391915D02*
X10158991Y-16391915D01*
X10158991Y-16391915D02*
X10092325Y-16468105D01*
X10092325Y-16468105D02*
X10120896Y-16468105D01*
X10120896Y-16468105D02*
X10139944Y-16477629D01*
X10139944Y-16477629D02*
X10149468Y-16487153D01*
X10149468Y-16487153D02*
X10158991Y-16506201D01*
X10158991Y-16506201D02*
X10158991Y-16553820D01*
X10158991Y-16553820D02*
X10149468Y-16572867D01*
X10149468Y-16572867D02*
X10139944Y-16582391D01*
X10139944Y-16582391D02*
X10120896Y-16591915D01*
X10120896Y-16591915D02*
X10063753Y-16591915D01*
X10063753Y-16591915D02*
X10044706Y-16582391D01*
X10044706Y-16582391D02*
X10035182Y-16572867D01*
X10397087Y-16591915D02*
X10397087Y-16391915D01*
X10482801Y-16591915D02*
X10482801Y-16487153D01*
X10482801Y-16487153D02*
X10473277Y-16468105D01*
X10473277Y-16468105D02*
X10454230Y-16458582D01*
X10454230Y-16458582D02*
X10425658Y-16458582D01*
X10425658Y-16458582D02*
X10406611Y-16468105D01*
X10406611Y-16468105D02*
X10397087Y-16477629D01*
X10606611Y-16591915D02*
X10587563Y-16582391D01*
X10587563Y-16582391D02*
X10578039Y-16572867D01*
X10578039Y-16572867D02*
X10568515Y-16553820D01*
X10568515Y-16553820D02*
X10568515Y-16496677D01*
X10568515Y-16496677D02*
X10578039Y-16477629D01*
X10578039Y-16477629D02*
X10587563Y-16468105D01*
X10587563Y-16468105D02*
X10606611Y-16458582D01*
X10606611Y-16458582D02*
X10635182Y-16458582D01*
X10635182Y-16458582D02*
X10654230Y-16468105D01*
X10654230Y-16468105D02*
X10663753Y-16477629D01*
X10663753Y-16477629D02*
X10673277Y-16496677D01*
X10673277Y-16496677D02*
X10673277Y-16553820D01*
X10673277Y-16553820D02*
X10663753Y-16572867D01*
X10663753Y-16572867D02*
X10654230Y-16582391D01*
X10654230Y-16582391D02*
X10635182Y-16591915D01*
X10635182Y-16591915D02*
X10606611Y-16591915D01*
X10787563Y-16591915D02*
X10768515Y-16582391D01*
X10768515Y-16582391D02*
X10758992Y-16563343D01*
X10758992Y-16563343D02*
X10758992Y-16391915D01*
X10939944Y-16582391D02*
X10920896Y-16591915D01*
X10920896Y-16591915D02*
X10882801Y-16591915D01*
X10882801Y-16591915D02*
X10863753Y-16582391D01*
X10863753Y-16582391D02*
X10854230Y-16563343D01*
X10854230Y-16563343D02*
X10854230Y-16487153D01*
X10854230Y-16487153D02*
X10863753Y-16468105D01*
X10863753Y-16468105D02*
X10882801Y-16458582D01*
X10882801Y-16458582D02*
X10920896Y-16458582D01*
X10920896Y-16458582D02*
X10939944Y-16468105D01*
X10939944Y-16468105D02*
X10949468Y-16487153D01*
X10949468Y-16487153D02*
X10949468Y-16506201D01*
X10949468Y-16506201D02*
X10854230Y-16525248D01*
X11025658Y-16582391D02*
X11044706Y-16591915D01*
X11044706Y-16591915D02*
X11082801Y-16591915D01*
X11082801Y-16591915D02*
X11101849Y-16582391D01*
X11101849Y-16582391D02*
X11111373Y-16563343D01*
X11111373Y-16563343D02*
X11111373Y-16553820D01*
X11111373Y-16553820D02*
X11101849Y-16534772D01*
X11101849Y-16534772D02*
X11082801Y-16525248D01*
X11082801Y-16525248D02*
X11054230Y-16525248D01*
X11054230Y-16525248D02*
X11035182Y-16515724D01*
X11035182Y-16515724D02*
X11025658Y-16496677D01*
X11025658Y-16496677D02*
X11025658Y-16487153D01*
X11025658Y-16487153D02*
X11035182Y-16468105D01*
X11035182Y-16468105D02*
X11054230Y-16458582D01*
X11054230Y-16458582D02*
X11082801Y-16458582D01*
X11082801Y-16458582D02*
X11101849Y-16468105D01*
X11178039Y-16668105D02*
X11187563Y-16658582D01*
X11187563Y-16658582D02*
X11206611Y-16630010D01*
X11206611Y-16630010D02*
X11216134Y-16610963D01*
X11216134Y-16610963D02*
X11225658Y-16582391D01*
X11225658Y-16582391D02*
X11235182Y-16534772D01*
X11235182Y-16534772D02*
X11235182Y-16496677D01*
X11235182Y-16496677D02*
X11225658Y-16449058D01*
X11225658Y-16449058D02*
X11216134Y-16420486D01*
X11216134Y-16420486D02*
X11206611Y-16401439D01*
X11206611Y-16401439D02*
X11187563Y-16372867D01*
X11187563Y-16372867D02*
X11178039Y-16363343D01*
X11539944Y-16668105D02*
X11530420Y-16658582D01*
X11530420Y-16658582D02*
X11511372Y-16630010D01*
X11511372Y-16630010D02*
X11501849Y-16610963D01*
X11501849Y-16610963D02*
X11492325Y-16582391D01*
X11492325Y-16582391D02*
X11482801Y-16534772D01*
X11482801Y-16534772D02*
X11482801Y-16496677D01*
X11482801Y-16496677D02*
X11492325Y-16449058D01*
X11492325Y-16449058D02*
X11501849Y-16420486D01*
X11501849Y-16420486D02*
X11511372Y-16401439D01*
X11511372Y-16401439D02*
X11530420Y-16372867D01*
X11530420Y-16372867D02*
X11539944Y-16363343D01*
X11616134Y-16458582D02*
X11616134Y-16591915D01*
X11616134Y-16477629D02*
X11625658Y-16468105D01*
X11625658Y-16468105D02*
X11644706Y-16458582D01*
X11644706Y-16458582D02*
X11673277Y-16458582D01*
X11673277Y-16458582D02*
X11692325Y-16468105D01*
X11692325Y-16468105D02*
X11701849Y-16487153D01*
X11701849Y-16487153D02*
X11701849Y-16591915D01*
X11825658Y-16591915D02*
X11806611Y-16582391D01*
X11806611Y-16582391D02*
X11797087Y-16572867D01*
X11797087Y-16572867D02*
X11787563Y-16553820D01*
X11787563Y-16553820D02*
X11787563Y-16496677D01*
X11787563Y-16496677D02*
X11797087Y-16477629D01*
X11797087Y-16477629D02*
X11806611Y-16468105D01*
X11806611Y-16468105D02*
X11825658Y-16458582D01*
X11825658Y-16458582D02*
X11854230Y-16458582D01*
X11854230Y-16458582D02*
X11873277Y-16468105D01*
X11873277Y-16468105D02*
X11882801Y-16477629D01*
X11882801Y-16477629D02*
X11892325Y-16496677D01*
X11892325Y-16496677D02*
X11892325Y-16553820D01*
X11892325Y-16553820D02*
X11882801Y-16572867D01*
X11882801Y-16572867D02*
X11873277Y-16582391D01*
X11873277Y-16582391D02*
X11854230Y-16591915D01*
X11854230Y-16591915D02*
X11825658Y-16591915D01*
X11949468Y-16458582D02*
X12025658Y-16458582D01*
X11978039Y-16391915D02*
X11978039Y-16563343D01*
X11978039Y-16563343D02*
X11987563Y-16582391D01*
X11987563Y-16582391D02*
X12006611Y-16591915D01*
X12006611Y-16591915D02*
X12025658Y-16591915D01*
X12244706Y-16458582D02*
X12244706Y-16658582D01*
X12244706Y-16468105D02*
X12263753Y-16458582D01*
X12263753Y-16458582D02*
X12301849Y-16458582D01*
X12301849Y-16458582D02*
X12320896Y-16468105D01*
X12320896Y-16468105D02*
X12330420Y-16477629D01*
X12330420Y-16477629D02*
X12339944Y-16496677D01*
X12339944Y-16496677D02*
X12339944Y-16553820D01*
X12339944Y-16553820D02*
X12330420Y-16572867D01*
X12330420Y-16572867D02*
X12320896Y-16582391D01*
X12320896Y-16582391D02*
X12301849Y-16591915D01*
X12301849Y-16591915D02*
X12263753Y-16591915D01*
X12263753Y-16591915D02*
X12244706Y-16582391D01*
X12454230Y-16591915D02*
X12435182Y-16582391D01*
X12435182Y-16582391D02*
X12425658Y-16563343D01*
X12425658Y-16563343D02*
X12425658Y-16391915D01*
X12616134Y-16591915D02*
X12616134Y-16487153D01*
X12616134Y-16487153D02*
X12606611Y-16468105D01*
X12606611Y-16468105D02*
X12587563Y-16458582D01*
X12587563Y-16458582D02*
X12549468Y-16458582D01*
X12549468Y-16458582D02*
X12530420Y-16468105D01*
X12616134Y-16582391D02*
X12597087Y-16591915D01*
X12597087Y-16591915D02*
X12549468Y-16591915D01*
X12549468Y-16591915D02*
X12530420Y-16582391D01*
X12530420Y-16582391D02*
X12520896Y-16563343D01*
X12520896Y-16563343D02*
X12520896Y-16544296D01*
X12520896Y-16544296D02*
X12530420Y-16525248D01*
X12530420Y-16525248D02*
X12549468Y-16515724D01*
X12549468Y-16515724D02*
X12597087Y-16515724D01*
X12597087Y-16515724D02*
X12616134Y-16506201D01*
X12682801Y-16458582D02*
X12758992Y-16458582D01*
X12711373Y-16391915D02*
X12711373Y-16563343D01*
X12711373Y-16563343D02*
X12720896Y-16582391D01*
X12720896Y-16582391D02*
X12739944Y-16591915D01*
X12739944Y-16591915D02*
X12758992Y-16591915D01*
X12901849Y-16582391D02*
X12882801Y-16591915D01*
X12882801Y-16591915D02*
X12844706Y-16591915D01*
X12844706Y-16591915D02*
X12825658Y-16582391D01*
X12825658Y-16582391D02*
X12816134Y-16563343D01*
X12816134Y-16563343D02*
X12816134Y-16487153D01*
X12816134Y-16487153D02*
X12825658Y-16468105D01*
X12825658Y-16468105D02*
X12844706Y-16458582D01*
X12844706Y-16458582D02*
X12882801Y-16458582D01*
X12882801Y-16458582D02*
X12901849Y-16468105D01*
X12901849Y-16468105D02*
X12911373Y-16487153D01*
X12911373Y-16487153D02*
X12911373Y-16506201D01*
X12911373Y-16506201D02*
X12816134Y-16525248D01*
X13082801Y-16591915D02*
X13082801Y-16391915D01*
X13082801Y-16582391D02*
X13063754Y-16591915D01*
X13063754Y-16591915D02*
X13025658Y-16591915D01*
X13025658Y-16591915D02*
X13006611Y-16582391D01*
X13006611Y-16582391D02*
X12997087Y-16572867D01*
X12997087Y-16572867D02*
X12987563Y-16553820D01*
X12987563Y-16553820D02*
X12987563Y-16496677D01*
X12987563Y-16496677D02*
X12997087Y-16477629D01*
X12997087Y-16477629D02*
X13006611Y-16468105D01*
X13006611Y-16468105D02*
X13025658Y-16458582D01*
X13025658Y-16458582D02*
X13063754Y-16458582D01*
X13063754Y-16458582D02*
X13082801Y-16468105D01*
X13158992Y-16668105D02*
X13168515Y-16658582D01*
X13168515Y-16658582D02*
X13187563Y-16630010D01*
X13187563Y-16630010D02*
X13197087Y-16610963D01*
X13197087Y-16610963D02*
X13206611Y-16582391D01*
X13206611Y-16582391D02*
X13216134Y-16534772D01*
X13216134Y-16534772D02*
X13216134Y-16496677D01*
X13216134Y-16496677D02*
X13206611Y-16449058D01*
X13206611Y-16449058D02*
X13197087Y-16420486D01*
X13197087Y-16420486D02*
X13187563Y-16401439D01*
X13187563Y-16401439D02*
X13168515Y-16372867D01*
X13168515Y-16372867D02*
X13158992Y-16363343D01*
M02*
