%TF.GenerationSoftware,KiCad,Pcbnew,8.0.2*%
%TF.CreationDate,2024-10-11T16:24:47+02:00*%
%TF.ProjectId,duo_board,64756f5f-626f-4617-9264-2e6b69636164,rev?*%
%TF.SameCoordinates,Original*%
%TF.FileFunction,Drillmap*%
%TF.FilePolarity,Positive*%
%FSLAX45Y45*%
G04 Gerber Fmt 4.5, Leading zero omitted, Abs format (unit mm)*
G04 Created by KiCad (PCBNEW 8.0.2) date 2024-10-11 16:24:47*
%MOMM*%
%LPD*%
G01*
G04 APERTURE LIST*
%ADD10C,0.150000*%
%ADD11C,0.200000*%
%ADD12C,0.100000*%
%ADD13C,0.139700*%
%ADD14C,0.152400*%
G04 APERTURE END LIST*
D10*
X7005000Y-3550000D02*
G75*
G02*
X6795000Y-3550000I-105000J0D01*
G01*
X6795000Y-3550000D02*
G75*
G02*
X7005000Y-3550000I105000J0D01*
G01*
X21129035Y-10658467D02*
G75*
G02*
X20974343Y-10247837I480315J415397D01*
G01*
X22585973Y-12946450D02*
G75*
G02*
X22375973Y-12946450I-105000J0D01*
G01*
X22375973Y-12946450D02*
G75*
G02*
X22585973Y-12946450I105000J0D01*
G01*
X20289740Y-2995000D02*
G75*
G02*
X20924722Y-3625242I0J-635000D01*
G01*
X6855000Y-2995000D02*
X20289740Y-2995000D01*
X17583189Y-13484476D02*
X14388729Y-13238748D01*
X13802723Y-12624852D02*
X13788784Y-12164859D01*
X6220000Y-3630000D02*
G75*
G02*
X6855000Y-2995000I635000J0D01*
G01*
X21672474Y-15008856D02*
G75*
G02*
X20840732Y-15209608I-525974J355796D01*
G01*
X13149870Y-11549107D02*
G75*
G02*
X13788775Y-12164860I4190J-634993D01*
G01*
X6220000Y-10955781D02*
X6220000Y-3630000D01*
X14388729Y-13238748D02*
G75*
G02*
X13802722Y-12624852I48701J633129D01*
G01*
X20840735Y-15209603D02*
X17840259Y-13561073D01*
X13149870Y-11549107D02*
X6859205Y-11590767D01*
X6735000Y-11174500D02*
G75*
G02*
X6525000Y-11174500I-105000J0D01*
G01*
X6525000Y-11174500D02*
G75*
G02*
X6735000Y-11174500I105000J0D01*
G01*
X20924722Y-3625242D02*
X20974343Y-10247837D01*
X6859205Y-11590767D02*
G75*
G02*
X6219999Y-10955781I-4205J634987D01*
G01*
X22812576Y-13323408D02*
X21672474Y-15008856D01*
X22766898Y-12552235D02*
G75*
G02*
X22812576Y-13323408I-480309J-415389D01*
G01*
X21129035Y-10658467D02*
X22766898Y-12552235D01*
X17583189Y-13484476D02*
G75*
G02*
X17840259Y-13561072I-48689J-633094D01*
G01*
D11*
D12*
X6485000Y-7285000D02*
X6515000Y-7315000D01*
X6515000Y-7285000D02*
X6485000Y-7315000D01*
X6941530Y-11325400D02*
X6971530Y-11355400D01*
X6971530Y-11325400D02*
X6941530Y-11355400D01*
X7385000Y-10185000D02*
X7415000Y-10215000D01*
X7415000Y-10185000D02*
X7385000Y-10215000D01*
X7472520Y-10922500D02*
X7502520Y-10952500D01*
X7502520Y-10922500D02*
X7472520Y-10952500D01*
X7485000Y-10585000D02*
X7515000Y-10615000D01*
X7515000Y-10585000D02*
X7485000Y-10615000D01*
X7785000Y-10285000D02*
X7815000Y-10315000D01*
X7815000Y-10285000D02*
X7785000Y-10315000D01*
X8185000Y-11085000D02*
X8215000Y-11115000D01*
X8215000Y-11085000D02*
X8185000Y-11115000D01*
X8485000Y-3335000D02*
X8515000Y-3365000D01*
X8515000Y-3335000D02*
X8485000Y-3365000D01*
X8835000Y-11085000D02*
X8865000Y-11115000D01*
X8865000Y-11085000D02*
X8835000Y-11115000D01*
X10485000Y-3285000D02*
X10515000Y-3315000D01*
X10515000Y-3285000D02*
X10485000Y-3315000D01*
X10551600Y-5461770D02*
X10581600Y-5491770D01*
X10581600Y-5461770D02*
X10551600Y-5491770D01*
X10559400Y-9273110D02*
X10589400Y-9303110D01*
X10589400Y-9273110D02*
X10559400Y-9303110D01*
X10580600Y-7220850D02*
X10610600Y-7250850D01*
X10610600Y-7220850D02*
X10580600Y-7250850D01*
X10885000Y-10435000D02*
X10915000Y-10465000D01*
X10915000Y-10435000D02*
X10885000Y-10465000D01*
X11285000Y-11135000D02*
X11315000Y-11165000D01*
X11315000Y-11135000D02*
X11285000Y-11165000D01*
X11385000Y-11035000D02*
X11415000Y-11065000D01*
X11415000Y-11035000D02*
X11385000Y-11065000D01*
X11435000Y-10645700D02*
X11465000Y-10675700D01*
X11465000Y-10645700D02*
X11435000Y-10675700D01*
X11478200Y-10983600D02*
X11508200Y-11013600D01*
X11508200Y-10983600D02*
X11478200Y-11013600D01*
X11533000Y-10923400D02*
X11563000Y-10953400D01*
X11563000Y-10923400D02*
X11533000Y-10953400D01*
X11635000Y-10735000D02*
X11665000Y-10765000D01*
X11665000Y-10735000D02*
X11635000Y-10765000D01*
X12085000Y-10485000D02*
X12115000Y-10515000D01*
X12115000Y-10485000D02*
X12085000Y-10515000D01*
X12085000Y-11435000D02*
X12115000Y-11465000D01*
X12115000Y-11435000D02*
X12085000Y-11465000D01*
X12147700Y-7220850D02*
X12177700Y-7250850D01*
X12177700Y-7220850D02*
X12147700Y-7250850D01*
X12290100Y-5461770D02*
X12320100Y-5491770D01*
X12320100Y-5461770D02*
X12290100Y-5491770D01*
X12299700Y-9273110D02*
X12329700Y-9303110D01*
X12329700Y-9273110D02*
X12299700Y-9303110D01*
X12639700Y-11390200D02*
X12669700Y-11420200D01*
X12669700Y-11390200D02*
X12639700Y-11420200D01*
X13035000Y-11085000D02*
X13065000Y-11115000D01*
X13065000Y-11085000D02*
X13035000Y-11115000D01*
X13635000Y-11330200D02*
X13665000Y-11360200D01*
X13665000Y-11330200D02*
X13635000Y-11360200D01*
X13735000Y-11085000D02*
X13765000Y-11115000D01*
X13765000Y-11085000D02*
X13735000Y-11115000D01*
X14085000Y-9435000D02*
X14115000Y-9465000D01*
X14115000Y-9435000D02*
X14085000Y-9465000D01*
X15785000Y-12735000D02*
X15815000Y-12765000D01*
X15815000Y-12735000D02*
X15785000Y-12765000D01*
X18442000Y-9490670D02*
X18472000Y-9520670D01*
X18472000Y-9490670D02*
X18442000Y-9520670D01*
X19385000Y-4235000D02*
X19415000Y-4265000D01*
X19415000Y-4235000D02*
X19385000Y-4265000D01*
X20140400Y-8057360D02*
X20170400Y-8087360D01*
X20170400Y-8057360D02*
X20140400Y-8087360D01*
X20335000Y-3935000D02*
X20365000Y-3965000D01*
X20365000Y-3935000D02*
X20335000Y-3965000D01*
X20685000Y-4635000D02*
X20715000Y-4665000D01*
X20715000Y-4635000D02*
X20685000Y-4665000D01*
X6415000Y-9918000D02*
G75*
G02*
X6355000Y-9918000I-30000J0D01*
G01*
X6355000Y-9918000D02*
G75*
G02*
X6415000Y-9918000I30000J0D01*
G01*
X6325000Y-9948000D02*
X6445000Y-9948000D01*
X6445000Y-9888000D02*
G75*
G02*
X6445000Y-9948000I0J-30000D01*
G01*
X6445000Y-9888000D02*
X6325000Y-9888000D01*
X6325000Y-9888000D02*
G75*
G03*
X6325000Y-9948000I0J-30000D01*
G01*
X6415000Y-10782000D02*
G75*
G02*
X6355000Y-10782000I-30000J0D01*
G01*
X6355000Y-10782000D02*
G75*
G02*
X6415000Y-10782000I30000J0D01*
G01*
X6325000Y-10812000D02*
X6445000Y-10812000D01*
X6445000Y-10752000D02*
G75*
G02*
X6445000Y-10812000I0J-30000D01*
G01*
X6445000Y-10752000D02*
X6325000Y-10752000D01*
X6325000Y-10752000D02*
G75*
G03*
X6325000Y-10812000I0J-30000D01*
G01*
X6815000Y-9918000D02*
G75*
G02*
X6755000Y-9918000I-30000J0D01*
G01*
X6755000Y-9918000D02*
G75*
G02*
X6815000Y-9918000I30000J0D01*
G01*
X6745000Y-9948000D02*
X6825000Y-9948000D01*
X6825000Y-9888000D02*
G75*
G02*
X6825000Y-9948000I0J-30000D01*
G01*
X6825000Y-9888000D02*
X6745000Y-9888000D01*
X6745000Y-9888000D02*
G75*
G03*
X6745000Y-9948000I0J-30000D01*
G01*
X6815000Y-10782000D02*
G75*
G02*
X6755000Y-10782000I-30000J0D01*
G01*
X6755000Y-10782000D02*
G75*
G02*
X6815000Y-10782000I30000J0D01*
G01*
X6745000Y-10812000D02*
X6825000Y-10812000D01*
X6825000Y-10752000D02*
G75*
G02*
X6825000Y-10812000I0J-30000D01*
G01*
X6825000Y-10752000D02*
X6745000Y-10752000D01*
X6745000Y-10752000D02*
G75*
G03*
X6745000Y-10812000I0J-30000D01*
G01*
X6500000Y-7702000D02*
X6500000Y-7782000D01*
X6460000Y-7742000D02*
X6540000Y-7742000D01*
X6500000Y-8718000D02*
X6500000Y-8798000D01*
X6460000Y-8758000D02*
X6540000Y-8758000D01*
X8200000Y-11360000D02*
X8200000Y-11440000D01*
X8160000Y-11400000D02*
X8240000Y-11400000D01*
X8700000Y-11360000D02*
X8700000Y-11440000D01*
X8660000Y-11400000D02*
X8740000Y-11400000D01*
X9200000Y-10860000D02*
X9200000Y-10940000D01*
X9160000Y-10900000D02*
X9240000Y-10900000D01*
X9200000Y-11360000D02*
X9200000Y-11440000D01*
X9160000Y-11400000D02*
X9240000Y-11400000D01*
X9469640Y-10260000D02*
X9469640Y-10340000D01*
X9429640Y-10300000D02*
X9509640Y-10300000D01*
X9719640Y-10260000D02*
X9719640Y-10340000D01*
X9679640Y-10300000D02*
X9759640Y-10300000D01*
X10250000Y-9910000D02*
X10250000Y-9990000D01*
X10210000Y-9950000D02*
X10290000Y-9950000D01*
X10250000Y-10410000D02*
X10250000Y-10490000D01*
X10210000Y-10450000D02*
X10290000Y-10450000D01*
X10250000Y-10810000D02*
X10250000Y-10890000D01*
X10210000Y-10850000D02*
X10290000Y-10850000D01*
X10250000Y-11310000D02*
X10250000Y-11390000D01*
X10210000Y-11350000D02*
X10290000Y-11350000D01*
X11800000Y-9760000D02*
X11800000Y-9840000D01*
X11760000Y-9800000D02*
X11840000Y-9800000D01*
X12300000Y-9760000D02*
X12300000Y-9840000D01*
X12260000Y-9800000D02*
X12340000Y-9800000D01*
X12300000Y-10710000D02*
X12300000Y-10790000D01*
X12260000Y-10750000D02*
X12340000Y-10750000D01*
X12450000Y-10235000D02*
X12450000Y-10315000D01*
X12410000Y-10275000D02*
X12490000Y-10275000D01*
X12450000Y-10485000D02*
X12450000Y-10565000D01*
X12410000Y-10525000D02*
X12490000Y-10525000D01*
X12450000Y-11135000D02*
X12450000Y-11215000D01*
X12410000Y-11175000D02*
X12490000Y-11175000D01*
X12450000Y-11385000D02*
X12450000Y-11465000D01*
X12410000Y-11425000D02*
X12490000Y-11425000D01*
X12800000Y-10710000D02*
X12800000Y-10790000D01*
X12760000Y-10750000D02*
X12840000Y-10750000D01*
X12950000Y-9710000D02*
X12950000Y-9790000D01*
X12910000Y-9750000D02*
X12990000Y-9750000D01*
X13350000Y-10565000D02*
X13350000Y-10645000D01*
X13310000Y-10605000D02*
X13390000Y-10605000D01*
X13350000Y-11053000D02*
X13350000Y-11133000D01*
X13310000Y-11093000D02*
X13390000Y-11093000D01*
X13450000Y-9710000D02*
X13450000Y-9790000D01*
X13410000Y-9750000D02*
X13490000Y-9750000D01*
X14350000Y-12360000D02*
X14350000Y-12440000D01*
X14310000Y-12400000D02*
X14390000Y-12400000D01*
X14350000Y-12860000D02*
X14350000Y-12940000D01*
X14310000Y-12900000D02*
X14390000Y-12900000D01*
X14950000Y-12410000D02*
X14950000Y-12490000D01*
X14910000Y-12450000D02*
X14990000Y-12450000D01*
X14950000Y-12910000D02*
X14950000Y-12990000D01*
X14910000Y-12950000D02*
X14990000Y-12950000D01*
X16992000Y-13010000D02*
X16992000Y-13090000D01*
X16952000Y-13050000D02*
X17032000Y-13050000D01*
X18008000Y-13010000D02*
X18008000Y-13090000D01*
X17968000Y-13050000D02*
X18048000Y-13050000D01*
X20675931Y-12193911D02*
X20675931Y-12131049D01*
X20613069Y-12131049D01*
X20613069Y-12193911D01*
X20675931Y-12193911D01*
X20929931Y-12191911D02*
X20929931Y-12129049D01*
X20867069Y-12129049D01*
X20867069Y-12191911D01*
X20929931Y-12191911D01*
X21183931Y-12193911D02*
X21183931Y-12131049D01*
X21121069Y-12131049D01*
X21121069Y-12193911D01*
X21183931Y-12193911D01*
X21820431Y-13335431D02*
X21820431Y-13272569D01*
X21757569Y-13272569D01*
X21757569Y-13335431D01*
X21820431Y-13335431D01*
X21821931Y-12828911D02*
X21821931Y-12766049D01*
X21759069Y-12766049D01*
X21759069Y-12828911D01*
X21821931Y-12828911D01*
X21821931Y-13082911D02*
X21821931Y-13020049D01*
X21759069Y-13020049D01*
X21759069Y-13082911D01*
X21821931Y-13082911D01*
X20581500Y-13680480D02*
X20626500Y-13635480D01*
X20581500Y-13590480D01*
X20536500Y-13635480D01*
X20581500Y-13680480D01*
X20582500Y-14174500D02*
X20627500Y-14129500D01*
X20582500Y-14084500D01*
X20537500Y-14129500D01*
X20582500Y-14174500D01*
X21217500Y-13682480D02*
X21262500Y-13637480D01*
X21217500Y-13592480D01*
X21172500Y-13637480D01*
X21217500Y-13682480D01*
X21217500Y-14176480D02*
X21262500Y-14131480D01*
X21217500Y-14086480D01*
X21172500Y-14131480D01*
X21217500Y-14176480D01*
X9177500Y-3300000D02*
X9272500Y-3395000D01*
X9272500Y-3300000D02*
X9177500Y-3395000D01*
X9272500Y-3347500D02*
G75*
G02*
X9177500Y-3347500I-47500J0D01*
G01*
X9177500Y-3347500D02*
G75*
G02*
X9272500Y-3347500I47500J0D01*
G01*
X9427500Y-3300000D02*
X9522500Y-3395000D01*
X9522500Y-3300000D02*
X9427500Y-3395000D01*
X9522500Y-3347500D02*
G75*
G02*
X9427500Y-3347500I-47500J0D01*
G01*
X9427500Y-3347500D02*
G75*
G02*
X9522500Y-3347500I47500J0D01*
G01*
X9677500Y-3300000D02*
X9772500Y-3395000D01*
X9772500Y-3300000D02*
X9677500Y-3395000D01*
X9772500Y-3347500D02*
G75*
G02*
X9677500Y-3347500I-47500J0D01*
G01*
X9677500Y-3347500D02*
G75*
G02*
X9772500Y-3347500I47500J0D01*
G01*
X9927500Y-3300000D02*
X10022500Y-3395000D01*
X10022500Y-3300000D02*
X9927500Y-3395000D01*
X10022500Y-3347500D02*
G75*
G02*
X9927500Y-3347500I-47500J0D01*
G01*
X9927500Y-3347500D02*
G75*
G02*
X10022500Y-3347500I47500J0D01*
G01*
D13*
X20195150Y-12472150D02*
X20334850Y-12611850D01*
X20334850Y-12472150D02*
X20195150Y-12611850D01*
X20265000Y-12472150D02*
X20265000Y-12611850D01*
X20195150Y-12542000D02*
X20334850Y-12542000D01*
X20195150Y-13488150D02*
X20334850Y-13627850D01*
X20334850Y-13488150D02*
X20195150Y-13627850D01*
X20265000Y-13488150D02*
X20265000Y-13627850D01*
X20195150Y-13558000D02*
X20334850Y-13558000D01*
X21465150Y-12473630D02*
X21604850Y-12613330D01*
X21604850Y-12473630D02*
X21465150Y-12613330D01*
X21535000Y-12473630D02*
X21535000Y-12613330D01*
X21465150Y-12543480D02*
X21604850Y-12543480D01*
X21465150Y-13486630D02*
X21604850Y-13626330D01*
X21604850Y-13486630D02*
X21465150Y-13626330D01*
X21535000Y-13486630D02*
X21535000Y-13626330D01*
X21465150Y-13556480D02*
X21604850Y-13556480D01*
D14*
X7142800Y-4519800D02*
X7295200Y-4672200D01*
X7295200Y-4519800D02*
X7142800Y-4672200D01*
X7272882Y-4649882D02*
X7272882Y-4542118D01*
X7165118Y-4542118D01*
X7165118Y-4649882D01*
X7272882Y-4649882D01*
X7142800Y-6469800D02*
X7295200Y-6622200D01*
X7295200Y-6469800D02*
X7142800Y-6622200D01*
X7272882Y-6599882D02*
X7272882Y-6492118D01*
X7165118Y-6492118D01*
X7165118Y-6599882D01*
X7272882Y-6599882D01*
X7142800Y-8419800D02*
X7295200Y-8572200D01*
X7295200Y-8419800D02*
X7142800Y-8572200D01*
X7272882Y-8549882D02*
X7272882Y-8442118D01*
X7165118Y-8442118D01*
X7165118Y-8549882D01*
X7272882Y-8549882D01*
X7777800Y-4265800D02*
X7930200Y-4418200D01*
X7930200Y-4265800D02*
X7777800Y-4418200D01*
X7907882Y-4395882D02*
X7907882Y-4288118D01*
X7800118Y-4288118D01*
X7800118Y-4395882D01*
X7907882Y-4395882D01*
X7777800Y-6215800D02*
X7930200Y-6368200D01*
X7930200Y-6215800D02*
X7777800Y-6368200D01*
X7907882Y-6345882D02*
X7907882Y-6238118D01*
X7800118Y-6238118D01*
X7800118Y-6345882D01*
X7907882Y-6345882D01*
X7777800Y-8165800D02*
X7930200Y-8318200D01*
X7930200Y-8165800D02*
X7777800Y-8318200D01*
X7907882Y-8295882D02*
X7907882Y-8188118D01*
X7800118Y-8188118D01*
X7800118Y-8295882D01*
X7907882Y-8295882D01*
X9092800Y-4519800D02*
X9245200Y-4672200D01*
X9245200Y-4519800D02*
X9092800Y-4672200D01*
X9222882Y-4649882D02*
X9222882Y-4542118D01*
X9115118Y-4542118D01*
X9115118Y-4649882D01*
X9222882Y-4649882D01*
X9092800Y-6469800D02*
X9245200Y-6622200D01*
X9245200Y-6469800D02*
X9092800Y-6622200D01*
X9222882Y-6599882D02*
X9222882Y-6492118D01*
X9115118Y-6492118D01*
X9115118Y-6599882D01*
X9222882Y-6599882D01*
X9092800Y-8419800D02*
X9245200Y-8572200D01*
X9245200Y-8419800D02*
X9092800Y-8572200D01*
X9222882Y-8549882D02*
X9222882Y-8442118D01*
X9115118Y-8442118D01*
X9115118Y-8549882D01*
X9222882Y-8549882D01*
X9727800Y-4265800D02*
X9880200Y-4418200D01*
X9880200Y-4265800D02*
X9727800Y-4418200D01*
X9857882Y-4395882D02*
X9857882Y-4288118D01*
X9750118Y-4288118D01*
X9750118Y-4395882D01*
X9857882Y-4395882D01*
X9727800Y-6215800D02*
X9880200Y-6368200D01*
X9880200Y-6215800D02*
X9727800Y-6368200D01*
X9857882Y-6345882D02*
X9857882Y-6238118D01*
X9750118Y-6238118D01*
X9750118Y-6345882D01*
X9857882Y-6345882D01*
X9727800Y-8165800D02*
X9880200Y-8318200D01*
X9880200Y-8165800D02*
X9727800Y-8318200D01*
X9857882Y-8295882D02*
X9857882Y-8188118D01*
X9750118Y-8188118D01*
X9750118Y-8295882D01*
X9857882Y-8295882D01*
X11042800Y-4219800D02*
X11195200Y-4372200D01*
X11195200Y-4219800D02*
X11042800Y-4372200D01*
X11172882Y-4349882D02*
X11172882Y-4242118D01*
X11065118Y-4242118D01*
X11065118Y-4349882D01*
X11172882Y-4349882D01*
X11042800Y-6169800D02*
X11195200Y-6322200D01*
X11195200Y-6169800D02*
X11042800Y-6322200D01*
X11172882Y-6299882D02*
X11172882Y-6192118D01*
X11065118Y-6192118D01*
X11065118Y-6299882D01*
X11172882Y-6299882D01*
X11042800Y-8119800D02*
X11195200Y-8272200D01*
X11195200Y-8119800D02*
X11042800Y-8272200D01*
X11172882Y-8249882D02*
X11172882Y-8142118D01*
X11065118Y-8142118D01*
X11065118Y-8249882D01*
X11172882Y-8249882D01*
X11677800Y-3965800D02*
X11830200Y-4118200D01*
X11830200Y-3965800D02*
X11677800Y-4118200D01*
X11807882Y-4095882D02*
X11807882Y-3988118D01*
X11700118Y-3988118D01*
X11700118Y-4095882D01*
X11807882Y-4095882D01*
X11677800Y-5915800D02*
X11830200Y-6068200D01*
X11830200Y-5915800D02*
X11677800Y-6068200D01*
X11807882Y-6045882D02*
X11807882Y-5938118D01*
X11700118Y-5938118D01*
X11700118Y-6045882D01*
X11807882Y-6045882D01*
X11677800Y-7865800D02*
X11830200Y-8018200D01*
X11830200Y-7865800D02*
X11677800Y-8018200D01*
X11807882Y-7995882D02*
X11807882Y-7888118D01*
X11700118Y-7888118D01*
X11700118Y-7995882D01*
X11807882Y-7995882D01*
X12992800Y-3869800D02*
X13145200Y-4022200D01*
X13145200Y-3869800D02*
X12992800Y-4022200D01*
X13122882Y-3999882D02*
X13122882Y-3892118D01*
X13015118Y-3892118D01*
X13015118Y-3999882D01*
X13122882Y-3999882D01*
X12992800Y-5819800D02*
X13145200Y-5972200D01*
X13145200Y-5819800D02*
X12992800Y-5972200D01*
X13122882Y-5949882D02*
X13122882Y-5842118D01*
X13015118Y-5842118D01*
X13015118Y-5949882D01*
X13122882Y-5949882D01*
X12992800Y-7769800D02*
X13145200Y-7922200D01*
X13145200Y-7769800D02*
X12992800Y-7922200D01*
X13122882Y-7899882D02*
X13122882Y-7792118D01*
X13015118Y-7792118D01*
X13015118Y-7899882D01*
X13122882Y-7899882D01*
X13627800Y-3615800D02*
X13780200Y-3768200D01*
X13780200Y-3615800D02*
X13627800Y-3768200D01*
X13757882Y-3745882D02*
X13757882Y-3638118D01*
X13650118Y-3638118D01*
X13650118Y-3745882D01*
X13757882Y-3745882D01*
X13627800Y-5565800D02*
X13780200Y-5718200D01*
X13780200Y-5565800D02*
X13627800Y-5718200D01*
X13757882Y-5695882D02*
X13757882Y-5588118D01*
X13650118Y-5588118D01*
X13650118Y-5695882D01*
X13757882Y-5695882D01*
X13627800Y-7515800D02*
X13780200Y-7668200D01*
X13780200Y-7515800D02*
X13627800Y-7668200D01*
X13757882Y-7645882D02*
X13757882Y-7538118D01*
X13650118Y-7538118D01*
X13650118Y-7645882D01*
X13757882Y-7645882D01*
X14942800Y-3869800D02*
X15095200Y-4022200D01*
X15095200Y-3869800D02*
X14942800Y-4022200D01*
X15072882Y-3999882D02*
X15072882Y-3892118D01*
X14965118Y-3892118D01*
X14965118Y-3999882D01*
X15072882Y-3999882D01*
X14942800Y-5819800D02*
X15095200Y-5972200D01*
X15095200Y-5819800D02*
X14942800Y-5972200D01*
X15072882Y-5949882D02*
X15072882Y-5842118D01*
X14965118Y-5842118D01*
X14965118Y-5949882D01*
X15072882Y-5949882D01*
X14942800Y-7819800D02*
X15095200Y-7972200D01*
X15095200Y-7819800D02*
X14942800Y-7972200D01*
X15072882Y-7949882D02*
X15072882Y-7842118D01*
X14965118Y-7842118D01*
X14965118Y-7949882D01*
X15072882Y-7949882D01*
X14942800Y-10419800D02*
X15095200Y-10572200D01*
X15095200Y-10419800D02*
X14942800Y-10572200D01*
X15072882Y-10549882D02*
X15072882Y-10442118D01*
X14965118Y-10442118D01*
X14965118Y-10549882D01*
X15072882Y-10549882D01*
X15577800Y-3615800D02*
X15730200Y-3768200D01*
X15730200Y-3615800D02*
X15577800Y-3768200D01*
X15707882Y-3745882D02*
X15707882Y-3638118D01*
X15600118Y-3638118D01*
X15600118Y-3745882D01*
X15707882Y-3745882D01*
X15577800Y-5565800D02*
X15730200Y-5718200D01*
X15730200Y-5565800D02*
X15577800Y-5718200D01*
X15707882Y-5695882D02*
X15707882Y-5588118D01*
X15600118Y-5588118D01*
X15600118Y-5695882D01*
X15707882Y-5695882D01*
X15577800Y-7565800D02*
X15730200Y-7718200D01*
X15730200Y-7565800D02*
X15577800Y-7718200D01*
X15707882Y-7695882D02*
X15707882Y-7588118D01*
X15600118Y-7588118D01*
X15600118Y-7695882D01*
X15707882Y-7695882D01*
X15577800Y-10165800D02*
X15730200Y-10318200D01*
X15730200Y-10165800D02*
X15577800Y-10318200D01*
X15707882Y-10295882D02*
X15707882Y-10188118D01*
X15600118Y-10188118D01*
X15600118Y-10295882D01*
X15707882Y-10295882D01*
X16892800Y-4469800D02*
X17045200Y-4622200D01*
X17045200Y-4469800D02*
X16892800Y-4622200D01*
X17022882Y-4599882D02*
X17022882Y-4492118D01*
X16915118Y-4492118D01*
X16915118Y-4599882D01*
X17022882Y-4599882D01*
X16892800Y-6419800D02*
X17045200Y-6572200D01*
X17045200Y-6419800D02*
X16892800Y-6572200D01*
X17022882Y-6549882D02*
X17022882Y-6442118D01*
X16915118Y-6442118D01*
X16915118Y-6549882D01*
X17022882Y-6549882D01*
X16892800Y-8369800D02*
X17045200Y-8522200D01*
X17045200Y-8369800D02*
X16892800Y-8522200D01*
X17022882Y-8499882D02*
X17022882Y-8392118D01*
X16915118Y-8392118D01*
X16915118Y-8499882D01*
X17022882Y-8499882D01*
X17527800Y-4215800D02*
X17680200Y-4368200D01*
X17680200Y-4215800D02*
X17527800Y-4368200D01*
X17657882Y-4345882D02*
X17657882Y-4238118D01*
X17550118Y-4238118D01*
X17550118Y-4345882D01*
X17657882Y-4345882D01*
X17527800Y-6165800D02*
X17680200Y-6318200D01*
X17680200Y-6165800D02*
X17527800Y-6318200D01*
X17657882Y-6295882D02*
X17657882Y-6188118D01*
X17550118Y-6188118D01*
X17550118Y-6295882D01*
X17657882Y-6295882D01*
X17527800Y-8115800D02*
X17680200Y-8268200D01*
X17680200Y-8115800D02*
X17527800Y-8268200D01*
X17657882Y-8245882D02*
X17657882Y-8138118D01*
X17550118Y-8138118D01*
X17550118Y-8245882D01*
X17657882Y-8245882D01*
X17642800Y-11219800D02*
X17795200Y-11372200D01*
X17795200Y-11219800D02*
X17642800Y-11372200D01*
X17772882Y-11349882D02*
X17772882Y-11242118D01*
X17665118Y-11242118D01*
X17665118Y-11349882D01*
X17772882Y-11349882D01*
X18277800Y-10965800D02*
X18430200Y-11118200D01*
X18430200Y-10965800D02*
X18277800Y-11118200D01*
X18407882Y-11095882D02*
X18407882Y-10988118D01*
X18300118Y-10988118D01*
X18300118Y-11095882D01*
X18407882Y-11095882D01*
X18842800Y-5269800D02*
X18995200Y-5422200D01*
X18995200Y-5269800D02*
X18842800Y-5422200D01*
X18972882Y-5399882D02*
X18972882Y-5292118D01*
X18865118Y-5292118D01*
X18865118Y-5399882D01*
X18972882Y-5399882D01*
X18842800Y-7219800D02*
X18995200Y-7372200D01*
X18995200Y-7219800D02*
X18842800Y-7372200D01*
X18972882Y-7349882D02*
X18972882Y-7242118D01*
X18865118Y-7242118D01*
X18865118Y-7349882D01*
X18972882Y-7349882D01*
X18842800Y-9169800D02*
X18995200Y-9322200D01*
X18995200Y-9169800D02*
X18842800Y-9322200D01*
X18972882Y-9299882D02*
X18972882Y-9192118D01*
X18865118Y-9192118D01*
X18865118Y-9299882D01*
X18972882Y-9299882D01*
X19477800Y-5015800D02*
X19630200Y-5168200D01*
X19630200Y-5015800D02*
X19477800Y-5168200D01*
X19607882Y-5145882D02*
X19607882Y-5038118D01*
X19500118Y-5038118D01*
X19500118Y-5145882D01*
X19607882Y-5145882D01*
X19477800Y-6965800D02*
X19630200Y-7118200D01*
X19630200Y-6965800D02*
X19477800Y-7118200D01*
X19607882Y-7095882D02*
X19607882Y-6988118D01*
X19500118Y-6988118D01*
X19500118Y-7095882D01*
X19607882Y-7095882D01*
X19477800Y-8915800D02*
X19630200Y-9068200D01*
X19630200Y-8915800D02*
X19477800Y-9068200D01*
X19607882Y-9045882D02*
X19607882Y-8938118D01*
X19500118Y-8938118D01*
X19500118Y-9045882D01*
X19607882Y-9045882D01*
D11*
X6473277Y-15607055D02*
X6473277Y-15407055D01*
X6473277Y-15407055D02*
X6520896Y-15407055D01*
X6520896Y-15407055D02*
X6549467Y-15416579D01*
X6549467Y-15416579D02*
X6568515Y-15435626D01*
X6568515Y-15435626D02*
X6578039Y-15454674D01*
X6578039Y-15454674D02*
X6587562Y-15492769D01*
X6587562Y-15492769D02*
X6587562Y-15521341D01*
X6587562Y-15521341D02*
X6578039Y-15559436D01*
X6578039Y-15559436D02*
X6568515Y-15578483D01*
X6568515Y-15578483D02*
X6549467Y-15597531D01*
X6549467Y-15597531D02*
X6520896Y-15607055D01*
X6520896Y-15607055D02*
X6473277Y-15607055D01*
X6673277Y-15607055D02*
X6673277Y-15473722D01*
X6673277Y-15511817D02*
X6682801Y-15492769D01*
X6682801Y-15492769D02*
X6692324Y-15483245D01*
X6692324Y-15483245D02*
X6711372Y-15473722D01*
X6711372Y-15473722D02*
X6730420Y-15473722D01*
X6797086Y-15607055D02*
X6797086Y-15473722D01*
X6797086Y-15407055D02*
X6787562Y-15416579D01*
X6787562Y-15416579D02*
X6797086Y-15426103D01*
X6797086Y-15426103D02*
X6806610Y-15416579D01*
X6806610Y-15416579D02*
X6797086Y-15407055D01*
X6797086Y-15407055D02*
X6797086Y-15426103D01*
X6920896Y-15607055D02*
X6901848Y-15597531D01*
X6901848Y-15597531D02*
X6892324Y-15578483D01*
X6892324Y-15578483D02*
X6892324Y-15407055D01*
X7025658Y-15607055D02*
X7006610Y-15597531D01*
X7006610Y-15597531D02*
X6997086Y-15578483D01*
X6997086Y-15578483D02*
X6997086Y-15407055D01*
X7254229Y-15607055D02*
X7254229Y-15407055D01*
X7254229Y-15407055D02*
X7320896Y-15549912D01*
X7320896Y-15549912D02*
X7387562Y-15407055D01*
X7387562Y-15407055D02*
X7387562Y-15607055D01*
X7568515Y-15607055D02*
X7568515Y-15502293D01*
X7568515Y-15502293D02*
X7558991Y-15483245D01*
X7558991Y-15483245D02*
X7539943Y-15473722D01*
X7539943Y-15473722D02*
X7501848Y-15473722D01*
X7501848Y-15473722D02*
X7482801Y-15483245D01*
X7568515Y-15597531D02*
X7549467Y-15607055D01*
X7549467Y-15607055D02*
X7501848Y-15607055D01*
X7501848Y-15607055D02*
X7482801Y-15597531D01*
X7482801Y-15597531D02*
X7473277Y-15578483D01*
X7473277Y-15578483D02*
X7473277Y-15559436D01*
X7473277Y-15559436D02*
X7482801Y-15540388D01*
X7482801Y-15540388D02*
X7501848Y-15530864D01*
X7501848Y-15530864D02*
X7549467Y-15530864D01*
X7549467Y-15530864D02*
X7568515Y-15521341D01*
X7663753Y-15473722D02*
X7663753Y-15673722D01*
X7663753Y-15483245D02*
X7682801Y-15473722D01*
X7682801Y-15473722D02*
X7720896Y-15473722D01*
X7720896Y-15473722D02*
X7739943Y-15483245D01*
X7739943Y-15483245D02*
X7749467Y-15492769D01*
X7749467Y-15492769D02*
X7758991Y-15511817D01*
X7758991Y-15511817D02*
X7758991Y-15568960D01*
X7758991Y-15568960D02*
X7749467Y-15588007D01*
X7749467Y-15588007D02*
X7739943Y-15597531D01*
X7739943Y-15597531D02*
X7720896Y-15607055D01*
X7720896Y-15607055D02*
X7682801Y-15607055D01*
X7682801Y-15607055D02*
X7663753Y-15597531D01*
X7844705Y-15588007D02*
X7854229Y-15597531D01*
X7854229Y-15597531D02*
X7844705Y-15607055D01*
X7844705Y-15607055D02*
X7835182Y-15597531D01*
X7835182Y-15597531D02*
X7844705Y-15588007D01*
X7844705Y-15588007D02*
X7844705Y-15607055D01*
X7844705Y-15483245D02*
X7854229Y-15492769D01*
X7854229Y-15492769D02*
X7844705Y-15502293D01*
X7844705Y-15502293D02*
X7835182Y-15492769D01*
X7835182Y-15492769D02*
X7844705Y-15483245D01*
X7844705Y-15483245D02*
X7844705Y-15502293D01*
D12*
X6182500Y-15920571D02*
X6212500Y-15950571D01*
X6212500Y-15920571D02*
X6182500Y-15950571D01*
D11*
X6511372Y-15827055D02*
X6530420Y-15827055D01*
X6530420Y-15827055D02*
X6549467Y-15836579D01*
X6549467Y-15836579D02*
X6558991Y-15846103D01*
X6558991Y-15846103D02*
X6568515Y-15865150D01*
X6568515Y-15865150D02*
X6578039Y-15903245D01*
X6578039Y-15903245D02*
X6578039Y-15950864D01*
X6578039Y-15950864D02*
X6568515Y-15988960D01*
X6568515Y-15988960D02*
X6558991Y-16008007D01*
X6558991Y-16008007D02*
X6549467Y-16017531D01*
X6549467Y-16017531D02*
X6530420Y-16027055D01*
X6530420Y-16027055D02*
X6511372Y-16027055D01*
X6511372Y-16027055D02*
X6492324Y-16017531D01*
X6492324Y-16017531D02*
X6482801Y-16008007D01*
X6482801Y-16008007D02*
X6473277Y-15988960D01*
X6473277Y-15988960D02*
X6463753Y-15950864D01*
X6463753Y-15950864D02*
X6463753Y-15903245D01*
X6463753Y-15903245D02*
X6473277Y-15865150D01*
X6473277Y-15865150D02*
X6482801Y-15846103D01*
X6482801Y-15846103D02*
X6492324Y-15836579D01*
X6492324Y-15836579D02*
X6511372Y-15827055D01*
X6663753Y-16008007D02*
X6673277Y-16017531D01*
X6673277Y-16017531D02*
X6663753Y-16027055D01*
X6663753Y-16027055D02*
X6654229Y-16017531D01*
X6654229Y-16017531D02*
X6663753Y-16008007D01*
X6663753Y-16008007D02*
X6663753Y-16027055D01*
X6739943Y-15827055D02*
X6863753Y-15827055D01*
X6863753Y-15827055D02*
X6797086Y-15903245D01*
X6797086Y-15903245D02*
X6825658Y-15903245D01*
X6825658Y-15903245D02*
X6844705Y-15912769D01*
X6844705Y-15912769D02*
X6854229Y-15922293D01*
X6854229Y-15922293D02*
X6863753Y-15941341D01*
X6863753Y-15941341D02*
X6863753Y-15988960D01*
X6863753Y-15988960D02*
X6854229Y-16008007D01*
X6854229Y-16008007D02*
X6844705Y-16017531D01*
X6844705Y-16017531D02*
X6825658Y-16027055D01*
X6825658Y-16027055D02*
X6768515Y-16027055D01*
X6768515Y-16027055D02*
X6749467Y-16017531D01*
X6749467Y-16017531D02*
X6739943Y-16008007D01*
X6987562Y-15827055D02*
X7006610Y-15827055D01*
X7006610Y-15827055D02*
X7025658Y-15836579D01*
X7025658Y-15836579D02*
X7035182Y-15846103D01*
X7035182Y-15846103D02*
X7044705Y-15865150D01*
X7044705Y-15865150D02*
X7054229Y-15903245D01*
X7054229Y-15903245D02*
X7054229Y-15950864D01*
X7054229Y-15950864D02*
X7044705Y-15988960D01*
X7044705Y-15988960D02*
X7035182Y-16008007D01*
X7035182Y-16008007D02*
X7025658Y-16017531D01*
X7025658Y-16017531D02*
X7006610Y-16027055D01*
X7006610Y-16027055D02*
X6987562Y-16027055D01*
X6987562Y-16027055D02*
X6968515Y-16017531D01*
X6968515Y-16017531D02*
X6958991Y-16008007D01*
X6958991Y-16008007D02*
X6949467Y-15988960D01*
X6949467Y-15988960D02*
X6939943Y-15950864D01*
X6939943Y-15950864D02*
X6939943Y-15903245D01*
X6939943Y-15903245D02*
X6949467Y-15865150D01*
X6949467Y-15865150D02*
X6958991Y-15846103D01*
X6958991Y-15846103D02*
X6968515Y-15836579D01*
X6968515Y-15836579D02*
X6987562Y-15827055D01*
X7178039Y-15827055D02*
X7197086Y-15827055D01*
X7197086Y-15827055D02*
X7216134Y-15836579D01*
X7216134Y-15836579D02*
X7225658Y-15846103D01*
X7225658Y-15846103D02*
X7235182Y-15865150D01*
X7235182Y-15865150D02*
X7244705Y-15903245D01*
X7244705Y-15903245D02*
X7244705Y-15950864D01*
X7244705Y-15950864D02*
X7235182Y-15988960D01*
X7235182Y-15988960D02*
X7225658Y-16008007D01*
X7225658Y-16008007D02*
X7216134Y-16017531D01*
X7216134Y-16017531D02*
X7197086Y-16027055D01*
X7197086Y-16027055D02*
X7178039Y-16027055D01*
X7178039Y-16027055D02*
X7158991Y-16017531D01*
X7158991Y-16017531D02*
X7149467Y-16008007D01*
X7149467Y-16008007D02*
X7139943Y-15988960D01*
X7139943Y-15988960D02*
X7130420Y-15950864D01*
X7130420Y-15950864D02*
X7130420Y-15903245D01*
X7130420Y-15903245D02*
X7139943Y-15865150D01*
X7139943Y-15865150D02*
X7149467Y-15846103D01*
X7149467Y-15846103D02*
X7158991Y-15836579D01*
X7158991Y-15836579D02*
X7178039Y-15827055D01*
X7330420Y-16027055D02*
X7330420Y-15893722D01*
X7330420Y-15912769D02*
X7339943Y-15903245D01*
X7339943Y-15903245D02*
X7358991Y-15893722D01*
X7358991Y-15893722D02*
X7387563Y-15893722D01*
X7387563Y-15893722D02*
X7406610Y-15903245D01*
X7406610Y-15903245D02*
X7416134Y-15922293D01*
X7416134Y-15922293D02*
X7416134Y-16027055D01*
X7416134Y-15922293D02*
X7425658Y-15903245D01*
X7425658Y-15903245D02*
X7444705Y-15893722D01*
X7444705Y-15893722D02*
X7473277Y-15893722D01*
X7473277Y-15893722D02*
X7492324Y-15903245D01*
X7492324Y-15903245D02*
X7501848Y-15922293D01*
X7501848Y-15922293D02*
X7501848Y-16027055D01*
X7597086Y-16027055D02*
X7597086Y-15893722D01*
X7597086Y-15912769D02*
X7606610Y-15903245D01*
X7606610Y-15903245D02*
X7625658Y-15893722D01*
X7625658Y-15893722D02*
X7654229Y-15893722D01*
X7654229Y-15893722D02*
X7673277Y-15903245D01*
X7673277Y-15903245D02*
X7682801Y-15922293D01*
X7682801Y-15922293D02*
X7682801Y-16027055D01*
X7682801Y-15922293D02*
X7692324Y-15903245D01*
X7692324Y-15903245D02*
X7711372Y-15893722D01*
X7711372Y-15893722D02*
X7739943Y-15893722D01*
X7739943Y-15893722D02*
X7758991Y-15903245D01*
X7758991Y-15903245D02*
X7768515Y-15922293D01*
X7768515Y-15922293D02*
X7768515Y-16027055D01*
X8158991Y-15817531D02*
X7987563Y-16074674D01*
X8416134Y-15827055D02*
X8435182Y-15827055D01*
X8435182Y-15827055D02*
X8454229Y-15836579D01*
X8454229Y-15836579D02*
X8463753Y-15846103D01*
X8463753Y-15846103D02*
X8473277Y-15865150D01*
X8473277Y-15865150D02*
X8482801Y-15903245D01*
X8482801Y-15903245D02*
X8482801Y-15950864D01*
X8482801Y-15950864D02*
X8473277Y-15988960D01*
X8473277Y-15988960D02*
X8463753Y-16008007D01*
X8463753Y-16008007D02*
X8454229Y-16017531D01*
X8454229Y-16017531D02*
X8435182Y-16027055D01*
X8435182Y-16027055D02*
X8416134Y-16027055D01*
X8416134Y-16027055D02*
X8397087Y-16017531D01*
X8397087Y-16017531D02*
X8387563Y-16008007D01*
X8387563Y-16008007D02*
X8378039Y-15988960D01*
X8378039Y-15988960D02*
X8368515Y-15950864D01*
X8368515Y-15950864D02*
X8368515Y-15903245D01*
X8368515Y-15903245D02*
X8378039Y-15865150D01*
X8378039Y-15865150D02*
X8387563Y-15846103D01*
X8387563Y-15846103D02*
X8397087Y-15836579D01*
X8397087Y-15836579D02*
X8416134Y-15827055D01*
X8568515Y-16008007D02*
X8578039Y-16017531D01*
X8578039Y-16017531D02*
X8568515Y-16027055D01*
X8568515Y-16027055D02*
X8558991Y-16017531D01*
X8558991Y-16017531D02*
X8568515Y-16008007D01*
X8568515Y-16008007D02*
X8568515Y-16027055D01*
X8701848Y-15827055D02*
X8720896Y-15827055D01*
X8720896Y-15827055D02*
X8739944Y-15836579D01*
X8739944Y-15836579D02*
X8749468Y-15846103D01*
X8749468Y-15846103D02*
X8758991Y-15865150D01*
X8758991Y-15865150D02*
X8768515Y-15903245D01*
X8768515Y-15903245D02*
X8768515Y-15950864D01*
X8768515Y-15950864D02*
X8758991Y-15988960D01*
X8758991Y-15988960D02*
X8749468Y-16008007D01*
X8749468Y-16008007D02*
X8739944Y-16017531D01*
X8739944Y-16017531D02*
X8720896Y-16027055D01*
X8720896Y-16027055D02*
X8701848Y-16027055D01*
X8701848Y-16027055D02*
X8682801Y-16017531D01*
X8682801Y-16017531D02*
X8673277Y-16008007D01*
X8673277Y-16008007D02*
X8663753Y-15988960D01*
X8663753Y-15988960D02*
X8654229Y-15950864D01*
X8654229Y-15950864D02*
X8654229Y-15903245D01*
X8654229Y-15903245D02*
X8663753Y-15865150D01*
X8663753Y-15865150D02*
X8673277Y-15846103D01*
X8673277Y-15846103D02*
X8682801Y-15836579D01*
X8682801Y-15836579D02*
X8701848Y-15827055D01*
X8958991Y-16027055D02*
X8844706Y-16027055D01*
X8901848Y-16027055D02*
X8901848Y-15827055D01*
X8901848Y-15827055D02*
X8882801Y-15855626D01*
X8882801Y-15855626D02*
X8863753Y-15874674D01*
X8863753Y-15874674D02*
X8844706Y-15884198D01*
X9149468Y-16027055D02*
X9035182Y-16027055D01*
X9092325Y-16027055D02*
X9092325Y-15827055D01*
X9092325Y-15827055D02*
X9073277Y-15855626D01*
X9073277Y-15855626D02*
X9054229Y-15874674D01*
X9054229Y-15874674D02*
X9035182Y-15884198D01*
X9263753Y-15912769D02*
X9244706Y-15903245D01*
X9244706Y-15903245D02*
X9235182Y-15893722D01*
X9235182Y-15893722D02*
X9225658Y-15874674D01*
X9225658Y-15874674D02*
X9225658Y-15865150D01*
X9225658Y-15865150D02*
X9235182Y-15846103D01*
X9235182Y-15846103D02*
X9244706Y-15836579D01*
X9244706Y-15836579D02*
X9263753Y-15827055D01*
X9263753Y-15827055D02*
X9301849Y-15827055D01*
X9301849Y-15827055D02*
X9320896Y-15836579D01*
X9320896Y-15836579D02*
X9330420Y-15846103D01*
X9330420Y-15846103D02*
X9339944Y-15865150D01*
X9339944Y-15865150D02*
X9339944Y-15874674D01*
X9339944Y-15874674D02*
X9330420Y-15893722D01*
X9330420Y-15893722D02*
X9320896Y-15903245D01*
X9320896Y-15903245D02*
X9301849Y-15912769D01*
X9301849Y-15912769D02*
X9263753Y-15912769D01*
X9263753Y-15912769D02*
X9244706Y-15922293D01*
X9244706Y-15922293D02*
X9235182Y-15931817D01*
X9235182Y-15931817D02*
X9225658Y-15950864D01*
X9225658Y-15950864D02*
X9225658Y-15988960D01*
X9225658Y-15988960D02*
X9235182Y-16008007D01*
X9235182Y-16008007D02*
X9244706Y-16017531D01*
X9244706Y-16017531D02*
X9263753Y-16027055D01*
X9263753Y-16027055D02*
X9301849Y-16027055D01*
X9301849Y-16027055D02*
X9320896Y-16017531D01*
X9320896Y-16017531D02*
X9330420Y-16008007D01*
X9330420Y-16008007D02*
X9339944Y-15988960D01*
X9339944Y-15988960D02*
X9339944Y-15950864D01*
X9339944Y-15950864D02*
X9330420Y-15931817D01*
X9330420Y-15931817D02*
X9320896Y-15922293D01*
X9320896Y-15922293D02*
X9301849Y-15912769D01*
X9416134Y-15827055D02*
X9416134Y-15865150D01*
X9492325Y-15827055D02*
X9492325Y-15865150D01*
X9787563Y-16103245D02*
X9778039Y-16093722D01*
X9778039Y-16093722D02*
X9758991Y-16065150D01*
X9758991Y-16065150D02*
X9749468Y-16046103D01*
X9749468Y-16046103D02*
X9739944Y-16017531D01*
X9739944Y-16017531D02*
X9730420Y-15969912D01*
X9730420Y-15969912D02*
X9730420Y-15931817D01*
X9730420Y-15931817D02*
X9739944Y-15884198D01*
X9739944Y-15884198D02*
X9749468Y-15855626D01*
X9749468Y-15855626D02*
X9758991Y-15836579D01*
X9758991Y-15836579D02*
X9778039Y-15808007D01*
X9778039Y-15808007D02*
X9787563Y-15798483D01*
X9844706Y-15827055D02*
X9968515Y-15827055D01*
X9968515Y-15827055D02*
X9901849Y-15903245D01*
X9901849Y-15903245D02*
X9930420Y-15903245D01*
X9930420Y-15903245D02*
X9949468Y-15912769D01*
X9949468Y-15912769D02*
X9958991Y-15922293D01*
X9958991Y-15922293D02*
X9968515Y-15941341D01*
X9968515Y-15941341D02*
X9968515Y-15988960D01*
X9968515Y-15988960D02*
X9958991Y-16008007D01*
X9958991Y-16008007D02*
X9949468Y-16017531D01*
X9949468Y-16017531D02*
X9930420Y-16027055D01*
X9930420Y-16027055D02*
X9873277Y-16027055D01*
X9873277Y-16027055D02*
X9854230Y-16017531D01*
X9854230Y-16017531D02*
X9844706Y-16008007D01*
X10139944Y-15827055D02*
X10101849Y-15827055D01*
X10101849Y-15827055D02*
X10082801Y-15836579D01*
X10082801Y-15836579D02*
X10073277Y-15846103D01*
X10073277Y-15846103D02*
X10054230Y-15874674D01*
X10054230Y-15874674D02*
X10044706Y-15912769D01*
X10044706Y-15912769D02*
X10044706Y-15988960D01*
X10044706Y-15988960D02*
X10054230Y-16008007D01*
X10054230Y-16008007D02*
X10063753Y-16017531D01*
X10063753Y-16017531D02*
X10082801Y-16027055D01*
X10082801Y-16027055D02*
X10120896Y-16027055D01*
X10120896Y-16027055D02*
X10139944Y-16017531D01*
X10139944Y-16017531D02*
X10149468Y-16008007D01*
X10149468Y-16008007D02*
X10158991Y-15988960D01*
X10158991Y-15988960D02*
X10158991Y-15941341D01*
X10158991Y-15941341D02*
X10149468Y-15922293D01*
X10149468Y-15922293D02*
X10139944Y-15912769D01*
X10139944Y-15912769D02*
X10120896Y-15903245D01*
X10120896Y-15903245D02*
X10082801Y-15903245D01*
X10082801Y-15903245D02*
X10063753Y-15912769D01*
X10063753Y-15912769D02*
X10054230Y-15922293D01*
X10054230Y-15922293D02*
X10044706Y-15941341D01*
X10397087Y-16027055D02*
X10397087Y-15827055D01*
X10482801Y-16027055D02*
X10482801Y-15922293D01*
X10482801Y-15922293D02*
X10473277Y-15903245D01*
X10473277Y-15903245D02*
X10454230Y-15893722D01*
X10454230Y-15893722D02*
X10425658Y-15893722D01*
X10425658Y-15893722D02*
X10406611Y-15903245D01*
X10406611Y-15903245D02*
X10397087Y-15912769D01*
X10606611Y-16027055D02*
X10587563Y-16017531D01*
X10587563Y-16017531D02*
X10578039Y-16008007D01*
X10578039Y-16008007D02*
X10568515Y-15988960D01*
X10568515Y-15988960D02*
X10568515Y-15931817D01*
X10568515Y-15931817D02*
X10578039Y-15912769D01*
X10578039Y-15912769D02*
X10587563Y-15903245D01*
X10587563Y-15903245D02*
X10606611Y-15893722D01*
X10606611Y-15893722D02*
X10635182Y-15893722D01*
X10635182Y-15893722D02*
X10654230Y-15903245D01*
X10654230Y-15903245D02*
X10663753Y-15912769D01*
X10663753Y-15912769D02*
X10673277Y-15931817D01*
X10673277Y-15931817D02*
X10673277Y-15988960D01*
X10673277Y-15988960D02*
X10663753Y-16008007D01*
X10663753Y-16008007D02*
X10654230Y-16017531D01*
X10654230Y-16017531D02*
X10635182Y-16027055D01*
X10635182Y-16027055D02*
X10606611Y-16027055D01*
X10787563Y-16027055D02*
X10768515Y-16017531D01*
X10768515Y-16017531D02*
X10758992Y-15998483D01*
X10758992Y-15998483D02*
X10758992Y-15827055D01*
X10939944Y-16017531D02*
X10920896Y-16027055D01*
X10920896Y-16027055D02*
X10882801Y-16027055D01*
X10882801Y-16027055D02*
X10863753Y-16017531D01*
X10863753Y-16017531D02*
X10854230Y-15998483D01*
X10854230Y-15998483D02*
X10854230Y-15922293D01*
X10854230Y-15922293D02*
X10863753Y-15903245D01*
X10863753Y-15903245D02*
X10882801Y-15893722D01*
X10882801Y-15893722D02*
X10920896Y-15893722D01*
X10920896Y-15893722D02*
X10939944Y-15903245D01*
X10939944Y-15903245D02*
X10949468Y-15922293D01*
X10949468Y-15922293D02*
X10949468Y-15941341D01*
X10949468Y-15941341D02*
X10854230Y-15960388D01*
X11025658Y-16017531D02*
X11044706Y-16027055D01*
X11044706Y-16027055D02*
X11082801Y-16027055D01*
X11082801Y-16027055D02*
X11101849Y-16017531D01*
X11101849Y-16017531D02*
X11111373Y-15998483D01*
X11111373Y-15998483D02*
X11111373Y-15988960D01*
X11111373Y-15988960D02*
X11101849Y-15969912D01*
X11101849Y-15969912D02*
X11082801Y-15960388D01*
X11082801Y-15960388D02*
X11054230Y-15960388D01*
X11054230Y-15960388D02*
X11035182Y-15950864D01*
X11035182Y-15950864D02*
X11025658Y-15931817D01*
X11025658Y-15931817D02*
X11025658Y-15922293D01*
X11025658Y-15922293D02*
X11035182Y-15903245D01*
X11035182Y-15903245D02*
X11054230Y-15893722D01*
X11054230Y-15893722D02*
X11082801Y-15893722D01*
X11082801Y-15893722D02*
X11101849Y-15903245D01*
X11178039Y-16103245D02*
X11187563Y-16093722D01*
X11187563Y-16093722D02*
X11206611Y-16065150D01*
X11206611Y-16065150D02*
X11216134Y-16046103D01*
X11216134Y-16046103D02*
X11225658Y-16017531D01*
X11225658Y-16017531D02*
X11235182Y-15969912D01*
X11235182Y-15969912D02*
X11235182Y-15931817D01*
X11235182Y-15931817D02*
X11225658Y-15884198D01*
X11225658Y-15884198D02*
X11216134Y-15855626D01*
X11216134Y-15855626D02*
X11206611Y-15836579D01*
X11206611Y-15836579D02*
X11187563Y-15808007D01*
X11187563Y-15808007D02*
X11178039Y-15798483D01*
D12*
X6212500Y-16199571D02*
G75*
G02*
X6152500Y-16199571I-30000J0D01*
G01*
X6152500Y-16199571D02*
G75*
G02*
X6212500Y-16199571I30000J0D01*
G01*
D11*
X6511372Y-16091055D02*
X6530420Y-16091055D01*
X6530420Y-16091055D02*
X6549467Y-16100579D01*
X6549467Y-16100579D02*
X6558991Y-16110103D01*
X6558991Y-16110103D02*
X6568515Y-16129150D01*
X6568515Y-16129150D02*
X6578039Y-16167245D01*
X6578039Y-16167245D02*
X6578039Y-16214864D01*
X6578039Y-16214864D02*
X6568515Y-16252960D01*
X6568515Y-16252960D02*
X6558991Y-16272007D01*
X6558991Y-16272007D02*
X6549467Y-16281531D01*
X6549467Y-16281531D02*
X6530420Y-16291055D01*
X6530420Y-16291055D02*
X6511372Y-16291055D01*
X6511372Y-16291055D02*
X6492324Y-16281531D01*
X6492324Y-16281531D02*
X6482801Y-16272007D01*
X6482801Y-16272007D02*
X6473277Y-16252960D01*
X6473277Y-16252960D02*
X6463753Y-16214864D01*
X6463753Y-16214864D02*
X6463753Y-16167245D01*
X6463753Y-16167245D02*
X6473277Y-16129150D01*
X6473277Y-16129150D02*
X6482801Y-16110103D01*
X6482801Y-16110103D02*
X6492324Y-16100579D01*
X6492324Y-16100579D02*
X6511372Y-16091055D01*
X6663753Y-16272007D02*
X6673277Y-16281531D01*
X6673277Y-16281531D02*
X6663753Y-16291055D01*
X6663753Y-16291055D02*
X6654229Y-16281531D01*
X6654229Y-16281531D02*
X6663753Y-16272007D01*
X6663753Y-16272007D02*
X6663753Y-16291055D01*
X6844705Y-16091055D02*
X6806610Y-16091055D01*
X6806610Y-16091055D02*
X6787562Y-16100579D01*
X6787562Y-16100579D02*
X6778039Y-16110103D01*
X6778039Y-16110103D02*
X6758991Y-16138674D01*
X6758991Y-16138674D02*
X6749467Y-16176769D01*
X6749467Y-16176769D02*
X6749467Y-16252960D01*
X6749467Y-16252960D02*
X6758991Y-16272007D01*
X6758991Y-16272007D02*
X6768515Y-16281531D01*
X6768515Y-16281531D02*
X6787562Y-16291055D01*
X6787562Y-16291055D02*
X6825658Y-16291055D01*
X6825658Y-16291055D02*
X6844705Y-16281531D01*
X6844705Y-16281531D02*
X6854229Y-16272007D01*
X6854229Y-16272007D02*
X6863753Y-16252960D01*
X6863753Y-16252960D02*
X6863753Y-16205341D01*
X6863753Y-16205341D02*
X6854229Y-16186293D01*
X6854229Y-16186293D02*
X6844705Y-16176769D01*
X6844705Y-16176769D02*
X6825658Y-16167245D01*
X6825658Y-16167245D02*
X6787562Y-16167245D01*
X6787562Y-16167245D02*
X6768515Y-16176769D01*
X6768515Y-16176769D02*
X6758991Y-16186293D01*
X6758991Y-16186293D02*
X6749467Y-16205341D01*
X6987562Y-16091055D02*
X7006610Y-16091055D01*
X7006610Y-16091055D02*
X7025658Y-16100579D01*
X7025658Y-16100579D02*
X7035182Y-16110103D01*
X7035182Y-16110103D02*
X7044705Y-16129150D01*
X7044705Y-16129150D02*
X7054229Y-16167245D01*
X7054229Y-16167245D02*
X7054229Y-16214864D01*
X7054229Y-16214864D02*
X7044705Y-16252960D01*
X7044705Y-16252960D02*
X7035182Y-16272007D01*
X7035182Y-16272007D02*
X7025658Y-16281531D01*
X7025658Y-16281531D02*
X7006610Y-16291055D01*
X7006610Y-16291055D02*
X6987562Y-16291055D01*
X6987562Y-16291055D02*
X6968515Y-16281531D01*
X6968515Y-16281531D02*
X6958991Y-16272007D01*
X6958991Y-16272007D02*
X6949467Y-16252960D01*
X6949467Y-16252960D02*
X6939943Y-16214864D01*
X6939943Y-16214864D02*
X6939943Y-16167245D01*
X6939943Y-16167245D02*
X6949467Y-16129150D01*
X6949467Y-16129150D02*
X6958991Y-16110103D01*
X6958991Y-16110103D02*
X6968515Y-16100579D01*
X6968515Y-16100579D02*
X6987562Y-16091055D01*
X7178039Y-16091055D02*
X7197086Y-16091055D01*
X7197086Y-16091055D02*
X7216134Y-16100579D01*
X7216134Y-16100579D02*
X7225658Y-16110103D01*
X7225658Y-16110103D02*
X7235182Y-16129150D01*
X7235182Y-16129150D02*
X7244705Y-16167245D01*
X7244705Y-16167245D02*
X7244705Y-16214864D01*
X7244705Y-16214864D02*
X7235182Y-16252960D01*
X7235182Y-16252960D02*
X7225658Y-16272007D01*
X7225658Y-16272007D02*
X7216134Y-16281531D01*
X7216134Y-16281531D02*
X7197086Y-16291055D01*
X7197086Y-16291055D02*
X7178039Y-16291055D01*
X7178039Y-16291055D02*
X7158991Y-16281531D01*
X7158991Y-16281531D02*
X7149467Y-16272007D01*
X7149467Y-16272007D02*
X7139943Y-16252960D01*
X7139943Y-16252960D02*
X7130420Y-16214864D01*
X7130420Y-16214864D02*
X7130420Y-16167245D01*
X7130420Y-16167245D02*
X7139943Y-16129150D01*
X7139943Y-16129150D02*
X7149467Y-16110103D01*
X7149467Y-16110103D02*
X7158991Y-16100579D01*
X7158991Y-16100579D02*
X7178039Y-16091055D01*
X7330420Y-16291055D02*
X7330420Y-16157722D01*
X7330420Y-16176769D02*
X7339943Y-16167245D01*
X7339943Y-16167245D02*
X7358991Y-16157722D01*
X7358991Y-16157722D02*
X7387563Y-16157722D01*
X7387563Y-16157722D02*
X7406610Y-16167245D01*
X7406610Y-16167245D02*
X7416134Y-16186293D01*
X7416134Y-16186293D02*
X7416134Y-16291055D01*
X7416134Y-16186293D02*
X7425658Y-16167245D01*
X7425658Y-16167245D02*
X7444705Y-16157722D01*
X7444705Y-16157722D02*
X7473277Y-16157722D01*
X7473277Y-16157722D02*
X7492324Y-16167245D01*
X7492324Y-16167245D02*
X7501848Y-16186293D01*
X7501848Y-16186293D02*
X7501848Y-16291055D01*
X7597086Y-16291055D02*
X7597086Y-16157722D01*
X7597086Y-16176769D02*
X7606610Y-16167245D01*
X7606610Y-16167245D02*
X7625658Y-16157722D01*
X7625658Y-16157722D02*
X7654229Y-16157722D01*
X7654229Y-16157722D02*
X7673277Y-16167245D01*
X7673277Y-16167245D02*
X7682801Y-16186293D01*
X7682801Y-16186293D02*
X7682801Y-16291055D01*
X7682801Y-16186293D02*
X7692324Y-16167245D01*
X7692324Y-16167245D02*
X7711372Y-16157722D01*
X7711372Y-16157722D02*
X7739943Y-16157722D01*
X7739943Y-16157722D02*
X7758991Y-16167245D01*
X7758991Y-16167245D02*
X7768515Y-16186293D01*
X7768515Y-16186293D02*
X7768515Y-16291055D01*
X8158991Y-16081531D02*
X7987563Y-16338674D01*
X8416134Y-16091055D02*
X8435182Y-16091055D01*
X8435182Y-16091055D02*
X8454229Y-16100579D01*
X8454229Y-16100579D02*
X8463753Y-16110103D01*
X8463753Y-16110103D02*
X8473277Y-16129150D01*
X8473277Y-16129150D02*
X8482801Y-16167245D01*
X8482801Y-16167245D02*
X8482801Y-16214864D01*
X8482801Y-16214864D02*
X8473277Y-16252960D01*
X8473277Y-16252960D02*
X8463753Y-16272007D01*
X8463753Y-16272007D02*
X8454229Y-16281531D01*
X8454229Y-16281531D02*
X8435182Y-16291055D01*
X8435182Y-16291055D02*
X8416134Y-16291055D01*
X8416134Y-16291055D02*
X8397087Y-16281531D01*
X8397087Y-16281531D02*
X8387563Y-16272007D01*
X8387563Y-16272007D02*
X8378039Y-16252960D01*
X8378039Y-16252960D02*
X8368515Y-16214864D01*
X8368515Y-16214864D02*
X8368515Y-16167245D01*
X8368515Y-16167245D02*
X8378039Y-16129150D01*
X8378039Y-16129150D02*
X8387563Y-16110103D01*
X8387563Y-16110103D02*
X8397087Y-16100579D01*
X8397087Y-16100579D02*
X8416134Y-16091055D01*
X8568515Y-16272007D02*
X8578039Y-16281531D01*
X8578039Y-16281531D02*
X8568515Y-16291055D01*
X8568515Y-16291055D02*
X8558991Y-16281531D01*
X8558991Y-16281531D02*
X8568515Y-16272007D01*
X8568515Y-16272007D02*
X8568515Y-16291055D01*
X8701848Y-16091055D02*
X8720896Y-16091055D01*
X8720896Y-16091055D02*
X8739944Y-16100579D01*
X8739944Y-16100579D02*
X8749468Y-16110103D01*
X8749468Y-16110103D02*
X8758991Y-16129150D01*
X8758991Y-16129150D02*
X8768515Y-16167245D01*
X8768515Y-16167245D02*
X8768515Y-16214864D01*
X8768515Y-16214864D02*
X8758991Y-16252960D01*
X8758991Y-16252960D02*
X8749468Y-16272007D01*
X8749468Y-16272007D02*
X8739944Y-16281531D01*
X8739944Y-16281531D02*
X8720896Y-16291055D01*
X8720896Y-16291055D02*
X8701848Y-16291055D01*
X8701848Y-16291055D02*
X8682801Y-16281531D01*
X8682801Y-16281531D02*
X8673277Y-16272007D01*
X8673277Y-16272007D02*
X8663753Y-16252960D01*
X8663753Y-16252960D02*
X8654229Y-16214864D01*
X8654229Y-16214864D02*
X8654229Y-16167245D01*
X8654229Y-16167245D02*
X8663753Y-16129150D01*
X8663753Y-16129150D02*
X8673277Y-16110103D01*
X8673277Y-16110103D02*
X8682801Y-16100579D01*
X8682801Y-16100579D02*
X8701848Y-16091055D01*
X8844706Y-16110103D02*
X8854229Y-16100579D01*
X8854229Y-16100579D02*
X8873277Y-16091055D01*
X8873277Y-16091055D02*
X8920896Y-16091055D01*
X8920896Y-16091055D02*
X8939944Y-16100579D01*
X8939944Y-16100579D02*
X8949468Y-16110103D01*
X8949468Y-16110103D02*
X8958991Y-16129150D01*
X8958991Y-16129150D02*
X8958991Y-16148198D01*
X8958991Y-16148198D02*
X8949468Y-16176769D01*
X8949468Y-16176769D02*
X8835182Y-16291055D01*
X8835182Y-16291055D02*
X8958991Y-16291055D01*
X9025658Y-16091055D02*
X9149468Y-16091055D01*
X9149468Y-16091055D02*
X9082801Y-16167245D01*
X9082801Y-16167245D02*
X9111372Y-16167245D01*
X9111372Y-16167245D02*
X9130420Y-16176769D01*
X9130420Y-16176769D02*
X9139944Y-16186293D01*
X9139944Y-16186293D02*
X9149468Y-16205341D01*
X9149468Y-16205341D02*
X9149468Y-16252960D01*
X9149468Y-16252960D02*
X9139944Y-16272007D01*
X9139944Y-16272007D02*
X9130420Y-16281531D01*
X9130420Y-16281531D02*
X9111372Y-16291055D01*
X9111372Y-16291055D02*
X9054229Y-16291055D01*
X9054229Y-16291055D02*
X9035182Y-16281531D01*
X9035182Y-16281531D02*
X9025658Y-16272007D01*
X9320896Y-16091055D02*
X9282801Y-16091055D01*
X9282801Y-16091055D02*
X9263753Y-16100579D01*
X9263753Y-16100579D02*
X9254229Y-16110103D01*
X9254229Y-16110103D02*
X9235182Y-16138674D01*
X9235182Y-16138674D02*
X9225658Y-16176769D01*
X9225658Y-16176769D02*
X9225658Y-16252960D01*
X9225658Y-16252960D02*
X9235182Y-16272007D01*
X9235182Y-16272007D02*
X9244706Y-16281531D01*
X9244706Y-16281531D02*
X9263753Y-16291055D01*
X9263753Y-16291055D02*
X9301849Y-16291055D01*
X9301849Y-16291055D02*
X9320896Y-16281531D01*
X9320896Y-16281531D02*
X9330420Y-16272007D01*
X9330420Y-16272007D02*
X9339944Y-16252960D01*
X9339944Y-16252960D02*
X9339944Y-16205341D01*
X9339944Y-16205341D02*
X9330420Y-16186293D01*
X9330420Y-16186293D02*
X9320896Y-16176769D01*
X9320896Y-16176769D02*
X9301849Y-16167245D01*
X9301849Y-16167245D02*
X9263753Y-16167245D01*
X9263753Y-16167245D02*
X9244706Y-16176769D01*
X9244706Y-16176769D02*
X9235182Y-16186293D01*
X9235182Y-16186293D02*
X9225658Y-16205341D01*
X9416134Y-16091055D02*
X9416134Y-16129150D01*
X9492325Y-16091055D02*
X9492325Y-16129150D01*
X9787563Y-16367245D02*
X9778039Y-16357722D01*
X9778039Y-16357722D02*
X9758991Y-16329150D01*
X9758991Y-16329150D02*
X9749468Y-16310103D01*
X9749468Y-16310103D02*
X9739944Y-16281531D01*
X9739944Y-16281531D02*
X9730420Y-16233912D01*
X9730420Y-16233912D02*
X9730420Y-16195817D01*
X9730420Y-16195817D02*
X9739944Y-16148198D01*
X9739944Y-16148198D02*
X9749468Y-16119626D01*
X9749468Y-16119626D02*
X9758991Y-16100579D01*
X9758991Y-16100579D02*
X9778039Y-16072007D01*
X9778039Y-16072007D02*
X9787563Y-16062483D01*
X9901849Y-16091055D02*
X9920896Y-16091055D01*
X9920896Y-16091055D02*
X9939944Y-16100579D01*
X9939944Y-16100579D02*
X9949468Y-16110103D01*
X9949468Y-16110103D02*
X9958991Y-16129150D01*
X9958991Y-16129150D02*
X9968515Y-16167245D01*
X9968515Y-16167245D02*
X9968515Y-16214864D01*
X9968515Y-16214864D02*
X9958991Y-16252960D01*
X9958991Y-16252960D02*
X9949468Y-16272007D01*
X9949468Y-16272007D02*
X9939944Y-16281531D01*
X9939944Y-16281531D02*
X9920896Y-16291055D01*
X9920896Y-16291055D02*
X9901849Y-16291055D01*
X9901849Y-16291055D02*
X9882801Y-16281531D01*
X9882801Y-16281531D02*
X9873277Y-16272007D01*
X9873277Y-16272007D02*
X9863753Y-16252960D01*
X9863753Y-16252960D02*
X9854230Y-16214864D01*
X9854230Y-16214864D02*
X9854230Y-16167245D01*
X9854230Y-16167245D02*
X9863753Y-16129150D01*
X9863753Y-16129150D02*
X9873277Y-16110103D01*
X9873277Y-16110103D02*
X9882801Y-16100579D01*
X9882801Y-16100579D02*
X9901849Y-16091055D01*
X10206611Y-16291055D02*
X10206611Y-16091055D01*
X10292325Y-16291055D02*
X10292325Y-16186293D01*
X10292325Y-16186293D02*
X10282801Y-16167245D01*
X10282801Y-16167245D02*
X10263753Y-16157722D01*
X10263753Y-16157722D02*
X10235182Y-16157722D01*
X10235182Y-16157722D02*
X10216134Y-16167245D01*
X10216134Y-16167245D02*
X10206611Y-16176769D01*
X10416134Y-16291055D02*
X10397087Y-16281531D01*
X10397087Y-16281531D02*
X10387563Y-16272007D01*
X10387563Y-16272007D02*
X10378039Y-16252960D01*
X10378039Y-16252960D02*
X10378039Y-16195817D01*
X10378039Y-16195817D02*
X10387563Y-16176769D01*
X10387563Y-16176769D02*
X10397087Y-16167245D01*
X10397087Y-16167245D02*
X10416134Y-16157722D01*
X10416134Y-16157722D02*
X10444706Y-16157722D01*
X10444706Y-16157722D02*
X10463753Y-16167245D01*
X10463753Y-16167245D02*
X10473277Y-16176769D01*
X10473277Y-16176769D02*
X10482801Y-16195817D01*
X10482801Y-16195817D02*
X10482801Y-16252960D01*
X10482801Y-16252960D02*
X10473277Y-16272007D01*
X10473277Y-16272007D02*
X10463753Y-16281531D01*
X10463753Y-16281531D02*
X10444706Y-16291055D01*
X10444706Y-16291055D02*
X10416134Y-16291055D01*
X10597087Y-16291055D02*
X10578039Y-16281531D01*
X10578039Y-16281531D02*
X10568515Y-16262483D01*
X10568515Y-16262483D02*
X10568515Y-16091055D01*
X10749468Y-16281531D02*
X10730420Y-16291055D01*
X10730420Y-16291055D02*
X10692325Y-16291055D01*
X10692325Y-16291055D02*
X10673277Y-16281531D01*
X10673277Y-16281531D02*
X10663753Y-16262483D01*
X10663753Y-16262483D02*
X10663753Y-16186293D01*
X10663753Y-16186293D02*
X10673277Y-16167245D01*
X10673277Y-16167245D02*
X10692325Y-16157722D01*
X10692325Y-16157722D02*
X10730420Y-16157722D01*
X10730420Y-16157722D02*
X10749468Y-16167245D01*
X10749468Y-16167245D02*
X10758992Y-16186293D01*
X10758992Y-16186293D02*
X10758992Y-16205341D01*
X10758992Y-16205341D02*
X10663753Y-16224388D01*
X10835182Y-16281531D02*
X10854230Y-16291055D01*
X10854230Y-16291055D02*
X10892325Y-16291055D01*
X10892325Y-16291055D02*
X10911373Y-16281531D01*
X10911373Y-16281531D02*
X10920896Y-16262483D01*
X10920896Y-16262483D02*
X10920896Y-16252960D01*
X10920896Y-16252960D02*
X10911373Y-16233912D01*
X10911373Y-16233912D02*
X10892325Y-16224388D01*
X10892325Y-16224388D02*
X10863753Y-16224388D01*
X10863753Y-16224388D02*
X10844706Y-16214864D01*
X10844706Y-16214864D02*
X10835182Y-16195817D01*
X10835182Y-16195817D02*
X10835182Y-16186293D01*
X10835182Y-16186293D02*
X10844706Y-16167245D01*
X10844706Y-16167245D02*
X10863753Y-16157722D01*
X10863753Y-16157722D02*
X10892325Y-16157722D01*
X10892325Y-16157722D02*
X10911373Y-16167245D01*
X11158992Y-16214864D02*
X11311373Y-16214864D01*
X11235182Y-16291055D02*
X11235182Y-16138674D01*
X11644706Y-16157722D02*
X11644706Y-16291055D01*
X11597087Y-16081531D02*
X11549468Y-16224388D01*
X11549468Y-16224388D02*
X11673277Y-16224388D01*
X11892325Y-16281531D02*
X11911373Y-16291055D01*
X11911373Y-16291055D02*
X11949468Y-16291055D01*
X11949468Y-16291055D02*
X11968515Y-16281531D01*
X11968515Y-16281531D02*
X11978039Y-16262483D01*
X11978039Y-16262483D02*
X11978039Y-16252960D01*
X11978039Y-16252960D02*
X11968515Y-16233912D01*
X11968515Y-16233912D02*
X11949468Y-16224388D01*
X11949468Y-16224388D02*
X11920896Y-16224388D01*
X11920896Y-16224388D02*
X11901849Y-16214864D01*
X11901849Y-16214864D02*
X11892325Y-16195817D01*
X11892325Y-16195817D02*
X11892325Y-16186293D01*
X11892325Y-16186293D02*
X11901849Y-16167245D01*
X11901849Y-16167245D02*
X11920896Y-16157722D01*
X11920896Y-16157722D02*
X11949468Y-16157722D01*
X11949468Y-16157722D02*
X11968515Y-16167245D01*
X12092325Y-16291055D02*
X12073277Y-16281531D01*
X12073277Y-16281531D02*
X12063754Y-16262483D01*
X12063754Y-16262483D02*
X12063754Y-16091055D01*
X12197087Y-16291055D02*
X12178039Y-16281531D01*
X12178039Y-16281531D02*
X12168515Y-16272007D01*
X12168515Y-16272007D02*
X12158992Y-16252960D01*
X12158992Y-16252960D02*
X12158992Y-16195817D01*
X12158992Y-16195817D02*
X12168515Y-16176769D01*
X12168515Y-16176769D02*
X12178039Y-16167245D01*
X12178039Y-16167245D02*
X12197087Y-16157722D01*
X12197087Y-16157722D02*
X12225658Y-16157722D01*
X12225658Y-16157722D02*
X12244706Y-16167245D01*
X12244706Y-16167245D02*
X12254230Y-16176769D01*
X12254230Y-16176769D02*
X12263754Y-16195817D01*
X12263754Y-16195817D02*
X12263754Y-16252960D01*
X12263754Y-16252960D02*
X12254230Y-16272007D01*
X12254230Y-16272007D02*
X12244706Y-16281531D01*
X12244706Y-16281531D02*
X12225658Y-16291055D01*
X12225658Y-16291055D02*
X12197087Y-16291055D01*
X12320896Y-16157722D02*
X12397087Y-16157722D01*
X12349468Y-16091055D02*
X12349468Y-16262483D01*
X12349468Y-16262483D02*
X12358992Y-16281531D01*
X12358992Y-16281531D02*
X12378039Y-16291055D01*
X12378039Y-16291055D02*
X12397087Y-16291055D01*
X12454230Y-16281531D02*
X12473277Y-16291055D01*
X12473277Y-16291055D02*
X12511373Y-16291055D01*
X12511373Y-16291055D02*
X12530420Y-16281531D01*
X12530420Y-16281531D02*
X12539944Y-16262483D01*
X12539944Y-16262483D02*
X12539944Y-16252960D01*
X12539944Y-16252960D02*
X12530420Y-16233912D01*
X12530420Y-16233912D02*
X12511373Y-16224388D01*
X12511373Y-16224388D02*
X12482801Y-16224388D01*
X12482801Y-16224388D02*
X12463754Y-16214864D01*
X12463754Y-16214864D02*
X12454230Y-16195817D01*
X12454230Y-16195817D02*
X12454230Y-16186293D01*
X12454230Y-16186293D02*
X12463754Y-16167245D01*
X12463754Y-16167245D02*
X12482801Y-16157722D01*
X12482801Y-16157722D02*
X12511373Y-16157722D01*
X12511373Y-16157722D02*
X12530420Y-16167245D01*
X12606611Y-16367245D02*
X12616135Y-16357722D01*
X12616135Y-16357722D02*
X12635182Y-16329150D01*
X12635182Y-16329150D02*
X12644706Y-16310103D01*
X12644706Y-16310103D02*
X12654230Y-16281531D01*
X12654230Y-16281531D02*
X12663754Y-16233912D01*
X12663754Y-16233912D02*
X12663754Y-16195817D01*
X12663754Y-16195817D02*
X12654230Y-16148198D01*
X12654230Y-16148198D02*
X12644706Y-16119626D01*
X12644706Y-16119626D02*
X12635182Y-16100579D01*
X12635182Y-16100579D02*
X12616135Y-16072007D01*
X12616135Y-16072007D02*
X12606611Y-16062483D01*
D12*
X6172500Y-16423571D02*
X6172500Y-16503571D01*
X6132500Y-16463571D02*
X6212500Y-16463571D01*
D11*
X6511372Y-16355055D02*
X6530420Y-16355055D01*
X6530420Y-16355055D02*
X6549467Y-16364579D01*
X6549467Y-16364579D02*
X6558991Y-16374103D01*
X6558991Y-16374103D02*
X6568515Y-16393150D01*
X6568515Y-16393150D02*
X6578039Y-16431245D01*
X6578039Y-16431245D02*
X6578039Y-16478864D01*
X6578039Y-16478864D02*
X6568515Y-16516960D01*
X6568515Y-16516960D02*
X6558991Y-16536007D01*
X6558991Y-16536007D02*
X6549467Y-16545531D01*
X6549467Y-16545531D02*
X6530420Y-16555055D01*
X6530420Y-16555055D02*
X6511372Y-16555055D01*
X6511372Y-16555055D02*
X6492324Y-16545531D01*
X6492324Y-16545531D02*
X6482801Y-16536007D01*
X6482801Y-16536007D02*
X6473277Y-16516960D01*
X6473277Y-16516960D02*
X6463753Y-16478864D01*
X6463753Y-16478864D02*
X6463753Y-16431245D01*
X6463753Y-16431245D02*
X6473277Y-16393150D01*
X6473277Y-16393150D02*
X6482801Y-16374103D01*
X6482801Y-16374103D02*
X6492324Y-16364579D01*
X6492324Y-16364579D02*
X6511372Y-16355055D01*
X6663753Y-16536007D02*
X6673277Y-16545531D01*
X6673277Y-16545531D02*
X6663753Y-16555055D01*
X6663753Y-16555055D02*
X6654229Y-16545531D01*
X6654229Y-16545531D02*
X6663753Y-16536007D01*
X6663753Y-16536007D02*
X6663753Y-16555055D01*
X6787562Y-16440769D02*
X6768515Y-16431245D01*
X6768515Y-16431245D02*
X6758991Y-16421722D01*
X6758991Y-16421722D02*
X6749467Y-16402674D01*
X6749467Y-16402674D02*
X6749467Y-16393150D01*
X6749467Y-16393150D02*
X6758991Y-16374103D01*
X6758991Y-16374103D02*
X6768515Y-16364579D01*
X6768515Y-16364579D02*
X6787562Y-16355055D01*
X6787562Y-16355055D02*
X6825658Y-16355055D01*
X6825658Y-16355055D02*
X6844705Y-16364579D01*
X6844705Y-16364579D02*
X6854229Y-16374103D01*
X6854229Y-16374103D02*
X6863753Y-16393150D01*
X6863753Y-16393150D02*
X6863753Y-16402674D01*
X6863753Y-16402674D02*
X6854229Y-16421722D01*
X6854229Y-16421722D02*
X6844705Y-16431245D01*
X6844705Y-16431245D02*
X6825658Y-16440769D01*
X6825658Y-16440769D02*
X6787562Y-16440769D01*
X6787562Y-16440769D02*
X6768515Y-16450293D01*
X6768515Y-16450293D02*
X6758991Y-16459817D01*
X6758991Y-16459817D02*
X6749467Y-16478864D01*
X6749467Y-16478864D02*
X6749467Y-16516960D01*
X6749467Y-16516960D02*
X6758991Y-16536007D01*
X6758991Y-16536007D02*
X6768515Y-16545531D01*
X6768515Y-16545531D02*
X6787562Y-16555055D01*
X6787562Y-16555055D02*
X6825658Y-16555055D01*
X6825658Y-16555055D02*
X6844705Y-16545531D01*
X6844705Y-16545531D02*
X6854229Y-16536007D01*
X6854229Y-16536007D02*
X6863753Y-16516960D01*
X6863753Y-16516960D02*
X6863753Y-16478864D01*
X6863753Y-16478864D02*
X6854229Y-16459817D01*
X6854229Y-16459817D02*
X6844705Y-16450293D01*
X6844705Y-16450293D02*
X6825658Y-16440769D01*
X6987562Y-16355055D02*
X7006610Y-16355055D01*
X7006610Y-16355055D02*
X7025658Y-16364579D01*
X7025658Y-16364579D02*
X7035182Y-16374103D01*
X7035182Y-16374103D02*
X7044705Y-16393150D01*
X7044705Y-16393150D02*
X7054229Y-16431245D01*
X7054229Y-16431245D02*
X7054229Y-16478864D01*
X7054229Y-16478864D02*
X7044705Y-16516960D01*
X7044705Y-16516960D02*
X7035182Y-16536007D01*
X7035182Y-16536007D02*
X7025658Y-16545531D01*
X7025658Y-16545531D02*
X7006610Y-16555055D01*
X7006610Y-16555055D02*
X6987562Y-16555055D01*
X6987562Y-16555055D02*
X6968515Y-16545531D01*
X6968515Y-16545531D02*
X6958991Y-16536007D01*
X6958991Y-16536007D02*
X6949467Y-16516960D01*
X6949467Y-16516960D02*
X6939943Y-16478864D01*
X6939943Y-16478864D02*
X6939943Y-16431245D01*
X6939943Y-16431245D02*
X6949467Y-16393150D01*
X6949467Y-16393150D02*
X6958991Y-16374103D01*
X6958991Y-16374103D02*
X6968515Y-16364579D01*
X6968515Y-16364579D02*
X6987562Y-16355055D01*
X7178039Y-16355055D02*
X7197086Y-16355055D01*
X7197086Y-16355055D02*
X7216134Y-16364579D01*
X7216134Y-16364579D02*
X7225658Y-16374103D01*
X7225658Y-16374103D02*
X7235182Y-16393150D01*
X7235182Y-16393150D02*
X7244705Y-16431245D01*
X7244705Y-16431245D02*
X7244705Y-16478864D01*
X7244705Y-16478864D02*
X7235182Y-16516960D01*
X7235182Y-16516960D02*
X7225658Y-16536007D01*
X7225658Y-16536007D02*
X7216134Y-16545531D01*
X7216134Y-16545531D02*
X7197086Y-16555055D01*
X7197086Y-16555055D02*
X7178039Y-16555055D01*
X7178039Y-16555055D02*
X7158991Y-16545531D01*
X7158991Y-16545531D02*
X7149467Y-16536007D01*
X7149467Y-16536007D02*
X7139943Y-16516960D01*
X7139943Y-16516960D02*
X7130420Y-16478864D01*
X7130420Y-16478864D02*
X7130420Y-16431245D01*
X7130420Y-16431245D02*
X7139943Y-16393150D01*
X7139943Y-16393150D02*
X7149467Y-16374103D01*
X7149467Y-16374103D02*
X7158991Y-16364579D01*
X7158991Y-16364579D02*
X7178039Y-16355055D01*
X7330420Y-16555055D02*
X7330420Y-16421722D01*
X7330420Y-16440769D02*
X7339943Y-16431245D01*
X7339943Y-16431245D02*
X7358991Y-16421722D01*
X7358991Y-16421722D02*
X7387563Y-16421722D01*
X7387563Y-16421722D02*
X7406610Y-16431245D01*
X7406610Y-16431245D02*
X7416134Y-16450293D01*
X7416134Y-16450293D02*
X7416134Y-16555055D01*
X7416134Y-16450293D02*
X7425658Y-16431245D01*
X7425658Y-16431245D02*
X7444705Y-16421722D01*
X7444705Y-16421722D02*
X7473277Y-16421722D01*
X7473277Y-16421722D02*
X7492324Y-16431245D01*
X7492324Y-16431245D02*
X7501848Y-16450293D01*
X7501848Y-16450293D02*
X7501848Y-16555055D01*
X7597086Y-16555055D02*
X7597086Y-16421722D01*
X7597086Y-16440769D02*
X7606610Y-16431245D01*
X7606610Y-16431245D02*
X7625658Y-16421722D01*
X7625658Y-16421722D02*
X7654229Y-16421722D01*
X7654229Y-16421722D02*
X7673277Y-16431245D01*
X7673277Y-16431245D02*
X7682801Y-16450293D01*
X7682801Y-16450293D02*
X7682801Y-16555055D01*
X7682801Y-16450293D02*
X7692324Y-16431245D01*
X7692324Y-16431245D02*
X7711372Y-16421722D01*
X7711372Y-16421722D02*
X7739943Y-16421722D01*
X7739943Y-16421722D02*
X7758991Y-16431245D01*
X7758991Y-16431245D02*
X7768515Y-16450293D01*
X7768515Y-16450293D02*
X7768515Y-16555055D01*
X8158991Y-16345531D02*
X7987563Y-16602674D01*
X8416134Y-16355055D02*
X8435182Y-16355055D01*
X8435182Y-16355055D02*
X8454229Y-16364579D01*
X8454229Y-16364579D02*
X8463753Y-16374103D01*
X8463753Y-16374103D02*
X8473277Y-16393150D01*
X8473277Y-16393150D02*
X8482801Y-16431245D01*
X8482801Y-16431245D02*
X8482801Y-16478864D01*
X8482801Y-16478864D02*
X8473277Y-16516960D01*
X8473277Y-16516960D02*
X8463753Y-16536007D01*
X8463753Y-16536007D02*
X8454229Y-16545531D01*
X8454229Y-16545531D02*
X8435182Y-16555055D01*
X8435182Y-16555055D02*
X8416134Y-16555055D01*
X8416134Y-16555055D02*
X8397087Y-16545531D01*
X8397087Y-16545531D02*
X8387563Y-16536007D01*
X8387563Y-16536007D02*
X8378039Y-16516960D01*
X8378039Y-16516960D02*
X8368515Y-16478864D01*
X8368515Y-16478864D02*
X8368515Y-16431245D01*
X8368515Y-16431245D02*
X8378039Y-16393150D01*
X8378039Y-16393150D02*
X8387563Y-16374103D01*
X8387563Y-16374103D02*
X8397087Y-16364579D01*
X8397087Y-16364579D02*
X8416134Y-16355055D01*
X8568515Y-16536007D02*
X8578039Y-16545531D01*
X8578039Y-16545531D02*
X8568515Y-16555055D01*
X8568515Y-16555055D02*
X8558991Y-16545531D01*
X8558991Y-16545531D02*
X8568515Y-16536007D01*
X8568515Y-16536007D02*
X8568515Y-16555055D01*
X8701848Y-16355055D02*
X8720896Y-16355055D01*
X8720896Y-16355055D02*
X8739944Y-16364579D01*
X8739944Y-16364579D02*
X8749468Y-16374103D01*
X8749468Y-16374103D02*
X8758991Y-16393150D01*
X8758991Y-16393150D02*
X8768515Y-16431245D01*
X8768515Y-16431245D02*
X8768515Y-16478864D01*
X8768515Y-16478864D02*
X8758991Y-16516960D01*
X8758991Y-16516960D02*
X8749468Y-16536007D01*
X8749468Y-16536007D02*
X8739944Y-16545531D01*
X8739944Y-16545531D02*
X8720896Y-16555055D01*
X8720896Y-16555055D02*
X8701848Y-16555055D01*
X8701848Y-16555055D02*
X8682801Y-16545531D01*
X8682801Y-16545531D02*
X8673277Y-16536007D01*
X8673277Y-16536007D02*
X8663753Y-16516960D01*
X8663753Y-16516960D02*
X8654229Y-16478864D01*
X8654229Y-16478864D02*
X8654229Y-16431245D01*
X8654229Y-16431245D02*
X8663753Y-16393150D01*
X8663753Y-16393150D02*
X8673277Y-16374103D01*
X8673277Y-16374103D02*
X8682801Y-16364579D01*
X8682801Y-16364579D02*
X8701848Y-16355055D01*
X8835182Y-16355055D02*
X8958991Y-16355055D01*
X8958991Y-16355055D02*
X8892325Y-16431245D01*
X8892325Y-16431245D02*
X8920896Y-16431245D01*
X8920896Y-16431245D02*
X8939944Y-16440769D01*
X8939944Y-16440769D02*
X8949468Y-16450293D01*
X8949468Y-16450293D02*
X8958991Y-16469341D01*
X8958991Y-16469341D02*
X8958991Y-16516960D01*
X8958991Y-16516960D02*
X8949468Y-16536007D01*
X8949468Y-16536007D02*
X8939944Y-16545531D01*
X8939944Y-16545531D02*
X8920896Y-16555055D01*
X8920896Y-16555055D02*
X8863753Y-16555055D01*
X8863753Y-16555055D02*
X8844706Y-16545531D01*
X8844706Y-16545531D02*
X8835182Y-16536007D01*
X9149468Y-16555055D02*
X9035182Y-16555055D01*
X9092325Y-16555055D02*
X9092325Y-16355055D01*
X9092325Y-16355055D02*
X9073277Y-16383626D01*
X9073277Y-16383626D02*
X9054229Y-16402674D01*
X9054229Y-16402674D02*
X9035182Y-16412198D01*
X9330420Y-16355055D02*
X9235182Y-16355055D01*
X9235182Y-16355055D02*
X9225658Y-16450293D01*
X9225658Y-16450293D02*
X9235182Y-16440769D01*
X9235182Y-16440769D02*
X9254229Y-16431245D01*
X9254229Y-16431245D02*
X9301849Y-16431245D01*
X9301849Y-16431245D02*
X9320896Y-16440769D01*
X9320896Y-16440769D02*
X9330420Y-16450293D01*
X9330420Y-16450293D02*
X9339944Y-16469341D01*
X9339944Y-16469341D02*
X9339944Y-16516960D01*
X9339944Y-16516960D02*
X9330420Y-16536007D01*
X9330420Y-16536007D02*
X9320896Y-16545531D01*
X9320896Y-16545531D02*
X9301849Y-16555055D01*
X9301849Y-16555055D02*
X9254229Y-16555055D01*
X9254229Y-16555055D02*
X9235182Y-16545531D01*
X9235182Y-16545531D02*
X9225658Y-16536007D01*
X9416134Y-16355055D02*
X9416134Y-16393150D01*
X9492325Y-16355055D02*
X9492325Y-16393150D01*
X9787563Y-16631245D02*
X9778039Y-16621722D01*
X9778039Y-16621722D02*
X9758991Y-16593150D01*
X9758991Y-16593150D02*
X9749468Y-16574103D01*
X9749468Y-16574103D02*
X9739944Y-16545531D01*
X9739944Y-16545531D02*
X9730420Y-16497912D01*
X9730420Y-16497912D02*
X9730420Y-16459817D01*
X9730420Y-16459817D02*
X9739944Y-16412198D01*
X9739944Y-16412198D02*
X9749468Y-16383626D01*
X9749468Y-16383626D02*
X9758991Y-16364579D01*
X9758991Y-16364579D02*
X9778039Y-16336007D01*
X9778039Y-16336007D02*
X9787563Y-16326483D01*
X9844706Y-16355055D02*
X9968515Y-16355055D01*
X9968515Y-16355055D02*
X9901849Y-16431245D01*
X9901849Y-16431245D02*
X9930420Y-16431245D01*
X9930420Y-16431245D02*
X9949468Y-16440769D01*
X9949468Y-16440769D02*
X9958991Y-16450293D01*
X9958991Y-16450293D02*
X9968515Y-16469341D01*
X9968515Y-16469341D02*
X9968515Y-16516960D01*
X9968515Y-16516960D02*
X9958991Y-16536007D01*
X9958991Y-16536007D02*
X9949468Y-16545531D01*
X9949468Y-16545531D02*
X9930420Y-16555055D01*
X9930420Y-16555055D02*
X9873277Y-16555055D01*
X9873277Y-16555055D02*
X9854230Y-16545531D01*
X9854230Y-16545531D02*
X9844706Y-16536007D01*
X10092325Y-16355055D02*
X10111372Y-16355055D01*
X10111372Y-16355055D02*
X10130420Y-16364579D01*
X10130420Y-16364579D02*
X10139944Y-16374103D01*
X10139944Y-16374103D02*
X10149468Y-16393150D01*
X10149468Y-16393150D02*
X10158991Y-16431245D01*
X10158991Y-16431245D02*
X10158991Y-16478864D01*
X10158991Y-16478864D02*
X10149468Y-16516960D01*
X10149468Y-16516960D02*
X10139944Y-16536007D01*
X10139944Y-16536007D02*
X10130420Y-16545531D01*
X10130420Y-16545531D02*
X10111372Y-16555055D01*
X10111372Y-16555055D02*
X10092325Y-16555055D01*
X10092325Y-16555055D02*
X10073277Y-16545531D01*
X10073277Y-16545531D02*
X10063753Y-16536007D01*
X10063753Y-16536007D02*
X10054230Y-16516960D01*
X10054230Y-16516960D02*
X10044706Y-16478864D01*
X10044706Y-16478864D02*
X10044706Y-16431245D01*
X10044706Y-16431245D02*
X10054230Y-16393150D01*
X10054230Y-16393150D02*
X10063753Y-16374103D01*
X10063753Y-16374103D02*
X10073277Y-16364579D01*
X10073277Y-16364579D02*
X10092325Y-16355055D01*
X10397087Y-16555055D02*
X10397087Y-16355055D01*
X10482801Y-16555055D02*
X10482801Y-16450293D01*
X10482801Y-16450293D02*
X10473277Y-16431245D01*
X10473277Y-16431245D02*
X10454230Y-16421722D01*
X10454230Y-16421722D02*
X10425658Y-16421722D01*
X10425658Y-16421722D02*
X10406611Y-16431245D01*
X10406611Y-16431245D02*
X10397087Y-16440769D01*
X10606611Y-16555055D02*
X10587563Y-16545531D01*
X10587563Y-16545531D02*
X10578039Y-16536007D01*
X10578039Y-16536007D02*
X10568515Y-16516960D01*
X10568515Y-16516960D02*
X10568515Y-16459817D01*
X10568515Y-16459817D02*
X10578039Y-16440769D01*
X10578039Y-16440769D02*
X10587563Y-16431245D01*
X10587563Y-16431245D02*
X10606611Y-16421722D01*
X10606611Y-16421722D02*
X10635182Y-16421722D01*
X10635182Y-16421722D02*
X10654230Y-16431245D01*
X10654230Y-16431245D02*
X10663753Y-16440769D01*
X10663753Y-16440769D02*
X10673277Y-16459817D01*
X10673277Y-16459817D02*
X10673277Y-16516960D01*
X10673277Y-16516960D02*
X10663753Y-16536007D01*
X10663753Y-16536007D02*
X10654230Y-16545531D01*
X10654230Y-16545531D02*
X10635182Y-16555055D01*
X10635182Y-16555055D02*
X10606611Y-16555055D01*
X10787563Y-16555055D02*
X10768515Y-16545531D01*
X10768515Y-16545531D02*
X10758992Y-16526483D01*
X10758992Y-16526483D02*
X10758992Y-16355055D01*
X10939944Y-16545531D02*
X10920896Y-16555055D01*
X10920896Y-16555055D02*
X10882801Y-16555055D01*
X10882801Y-16555055D02*
X10863753Y-16545531D01*
X10863753Y-16545531D02*
X10854230Y-16526483D01*
X10854230Y-16526483D02*
X10854230Y-16450293D01*
X10854230Y-16450293D02*
X10863753Y-16431245D01*
X10863753Y-16431245D02*
X10882801Y-16421722D01*
X10882801Y-16421722D02*
X10920896Y-16421722D01*
X10920896Y-16421722D02*
X10939944Y-16431245D01*
X10939944Y-16431245D02*
X10949468Y-16450293D01*
X10949468Y-16450293D02*
X10949468Y-16469341D01*
X10949468Y-16469341D02*
X10854230Y-16488388D01*
X11025658Y-16545531D02*
X11044706Y-16555055D01*
X11044706Y-16555055D02*
X11082801Y-16555055D01*
X11082801Y-16555055D02*
X11101849Y-16545531D01*
X11101849Y-16545531D02*
X11111373Y-16526483D01*
X11111373Y-16526483D02*
X11111373Y-16516960D01*
X11111373Y-16516960D02*
X11101849Y-16497912D01*
X11101849Y-16497912D02*
X11082801Y-16488388D01*
X11082801Y-16488388D02*
X11054230Y-16488388D01*
X11054230Y-16488388D02*
X11035182Y-16478864D01*
X11035182Y-16478864D02*
X11025658Y-16459817D01*
X11025658Y-16459817D02*
X11025658Y-16450293D01*
X11025658Y-16450293D02*
X11035182Y-16431245D01*
X11035182Y-16431245D02*
X11054230Y-16421722D01*
X11054230Y-16421722D02*
X11082801Y-16421722D01*
X11082801Y-16421722D02*
X11101849Y-16431245D01*
X11178039Y-16631245D02*
X11187563Y-16621722D01*
X11187563Y-16621722D02*
X11206611Y-16593150D01*
X11206611Y-16593150D02*
X11216134Y-16574103D01*
X11216134Y-16574103D02*
X11225658Y-16545531D01*
X11225658Y-16545531D02*
X11235182Y-16497912D01*
X11235182Y-16497912D02*
X11235182Y-16459817D01*
X11235182Y-16459817D02*
X11225658Y-16412198D01*
X11225658Y-16412198D02*
X11216134Y-16383626D01*
X11216134Y-16383626D02*
X11206611Y-16364579D01*
X11206611Y-16364579D02*
X11187563Y-16336007D01*
X11187563Y-16336007D02*
X11178039Y-16326483D01*
D12*
X6199481Y-16759002D02*
X6199481Y-16696140D01*
X6136619Y-16696140D01*
X6136619Y-16759002D01*
X6199481Y-16759002D01*
D11*
X6511372Y-16619055D02*
X6530420Y-16619055D01*
X6530420Y-16619055D02*
X6549467Y-16628579D01*
X6549467Y-16628579D02*
X6558991Y-16638103D01*
X6558991Y-16638103D02*
X6568515Y-16657150D01*
X6568515Y-16657150D02*
X6578039Y-16695245D01*
X6578039Y-16695245D02*
X6578039Y-16742864D01*
X6578039Y-16742864D02*
X6568515Y-16780960D01*
X6568515Y-16780960D02*
X6558991Y-16800007D01*
X6558991Y-16800007D02*
X6549467Y-16809531D01*
X6549467Y-16809531D02*
X6530420Y-16819055D01*
X6530420Y-16819055D02*
X6511372Y-16819055D01*
X6511372Y-16819055D02*
X6492324Y-16809531D01*
X6492324Y-16809531D02*
X6482801Y-16800007D01*
X6482801Y-16800007D02*
X6473277Y-16780960D01*
X6473277Y-16780960D02*
X6463753Y-16742864D01*
X6463753Y-16742864D02*
X6463753Y-16695245D01*
X6463753Y-16695245D02*
X6473277Y-16657150D01*
X6473277Y-16657150D02*
X6482801Y-16638103D01*
X6482801Y-16638103D02*
X6492324Y-16628579D01*
X6492324Y-16628579D02*
X6511372Y-16619055D01*
X6663753Y-16800007D02*
X6673277Y-16809531D01*
X6673277Y-16809531D02*
X6663753Y-16819055D01*
X6663753Y-16819055D02*
X6654229Y-16809531D01*
X6654229Y-16809531D02*
X6663753Y-16800007D01*
X6663753Y-16800007D02*
X6663753Y-16819055D01*
X6787562Y-16704769D02*
X6768515Y-16695245D01*
X6768515Y-16695245D02*
X6758991Y-16685722D01*
X6758991Y-16685722D02*
X6749467Y-16666674D01*
X6749467Y-16666674D02*
X6749467Y-16657150D01*
X6749467Y-16657150D02*
X6758991Y-16638103D01*
X6758991Y-16638103D02*
X6768515Y-16628579D01*
X6768515Y-16628579D02*
X6787562Y-16619055D01*
X6787562Y-16619055D02*
X6825658Y-16619055D01*
X6825658Y-16619055D02*
X6844705Y-16628579D01*
X6844705Y-16628579D02*
X6854229Y-16638103D01*
X6854229Y-16638103D02*
X6863753Y-16657150D01*
X6863753Y-16657150D02*
X6863753Y-16666674D01*
X6863753Y-16666674D02*
X6854229Y-16685722D01*
X6854229Y-16685722D02*
X6844705Y-16695245D01*
X6844705Y-16695245D02*
X6825658Y-16704769D01*
X6825658Y-16704769D02*
X6787562Y-16704769D01*
X6787562Y-16704769D02*
X6768515Y-16714293D01*
X6768515Y-16714293D02*
X6758991Y-16723817D01*
X6758991Y-16723817D02*
X6749467Y-16742864D01*
X6749467Y-16742864D02*
X6749467Y-16780960D01*
X6749467Y-16780960D02*
X6758991Y-16800007D01*
X6758991Y-16800007D02*
X6768515Y-16809531D01*
X6768515Y-16809531D02*
X6787562Y-16819055D01*
X6787562Y-16819055D02*
X6825658Y-16819055D01*
X6825658Y-16819055D02*
X6844705Y-16809531D01*
X6844705Y-16809531D02*
X6854229Y-16800007D01*
X6854229Y-16800007D02*
X6863753Y-16780960D01*
X6863753Y-16780960D02*
X6863753Y-16742864D01*
X6863753Y-16742864D02*
X6854229Y-16723817D01*
X6854229Y-16723817D02*
X6844705Y-16714293D01*
X6844705Y-16714293D02*
X6825658Y-16704769D01*
X6978039Y-16704769D02*
X6958991Y-16695245D01*
X6958991Y-16695245D02*
X6949467Y-16685722D01*
X6949467Y-16685722D02*
X6939943Y-16666674D01*
X6939943Y-16666674D02*
X6939943Y-16657150D01*
X6939943Y-16657150D02*
X6949467Y-16638103D01*
X6949467Y-16638103D02*
X6958991Y-16628579D01*
X6958991Y-16628579D02*
X6978039Y-16619055D01*
X6978039Y-16619055D02*
X7016134Y-16619055D01*
X7016134Y-16619055D02*
X7035182Y-16628579D01*
X7035182Y-16628579D02*
X7044705Y-16638103D01*
X7044705Y-16638103D02*
X7054229Y-16657150D01*
X7054229Y-16657150D02*
X7054229Y-16666674D01*
X7054229Y-16666674D02*
X7044705Y-16685722D01*
X7044705Y-16685722D02*
X7035182Y-16695245D01*
X7035182Y-16695245D02*
X7016134Y-16704769D01*
X7016134Y-16704769D02*
X6978039Y-16704769D01*
X6978039Y-16704769D02*
X6958991Y-16714293D01*
X6958991Y-16714293D02*
X6949467Y-16723817D01*
X6949467Y-16723817D02*
X6939943Y-16742864D01*
X6939943Y-16742864D02*
X6939943Y-16780960D01*
X6939943Y-16780960D02*
X6949467Y-16800007D01*
X6949467Y-16800007D02*
X6958991Y-16809531D01*
X6958991Y-16809531D02*
X6978039Y-16819055D01*
X6978039Y-16819055D02*
X7016134Y-16819055D01*
X7016134Y-16819055D02*
X7035182Y-16809531D01*
X7035182Y-16809531D02*
X7044705Y-16800007D01*
X7044705Y-16800007D02*
X7054229Y-16780960D01*
X7054229Y-16780960D02*
X7054229Y-16742864D01*
X7054229Y-16742864D02*
X7044705Y-16723817D01*
X7044705Y-16723817D02*
X7035182Y-16714293D01*
X7035182Y-16714293D02*
X7016134Y-16704769D01*
X7149467Y-16819055D02*
X7187562Y-16819055D01*
X7187562Y-16819055D02*
X7206610Y-16809531D01*
X7206610Y-16809531D02*
X7216134Y-16800007D01*
X7216134Y-16800007D02*
X7235182Y-16771436D01*
X7235182Y-16771436D02*
X7244705Y-16733341D01*
X7244705Y-16733341D02*
X7244705Y-16657150D01*
X7244705Y-16657150D02*
X7235182Y-16638103D01*
X7235182Y-16638103D02*
X7225658Y-16628579D01*
X7225658Y-16628579D02*
X7206610Y-16619055D01*
X7206610Y-16619055D02*
X7168515Y-16619055D01*
X7168515Y-16619055D02*
X7149467Y-16628579D01*
X7149467Y-16628579D02*
X7139943Y-16638103D01*
X7139943Y-16638103D02*
X7130420Y-16657150D01*
X7130420Y-16657150D02*
X7130420Y-16704769D01*
X7130420Y-16704769D02*
X7139943Y-16723817D01*
X7139943Y-16723817D02*
X7149467Y-16733341D01*
X7149467Y-16733341D02*
X7168515Y-16742864D01*
X7168515Y-16742864D02*
X7206610Y-16742864D01*
X7206610Y-16742864D02*
X7225658Y-16733341D01*
X7225658Y-16733341D02*
X7235182Y-16723817D01*
X7235182Y-16723817D02*
X7244705Y-16704769D01*
X7330420Y-16819055D02*
X7330420Y-16685722D01*
X7330420Y-16704769D02*
X7339943Y-16695245D01*
X7339943Y-16695245D02*
X7358991Y-16685722D01*
X7358991Y-16685722D02*
X7387563Y-16685722D01*
X7387563Y-16685722D02*
X7406610Y-16695245D01*
X7406610Y-16695245D02*
X7416134Y-16714293D01*
X7416134Y-16714293D02*
X7416134Y-16819055D01*
X7416134Y-16714293D02*
X7425658Y-16695245D01*
X7425658Y-16695245D02*
X7444705Y-16685722D01*
X7444705Y-16685722D02*
X7473277Y-16685722D01*
X7473277Y-16685722D02*
X7492324Y-16695245D01*
X7492324Y-16695245D02*
X7501848Y-16714293D01*
X7501848Y-16714293D02*
X7501848Y-16819055D01*
X7597086Y-16819055D02*
X7597086Y-16685722D01*
X7597086Y-16704769D02*
X7606610Y-16695245D01*
X7606610Y-16695245D02*
X7625658Y-16685722D01*
X7625658Y-16685722D02*
X7654229Y-16685722D01*
X7654229Y-16685722D02*
X7673277Y-16695245D01*
X7673277Y-16695245D02*
X7682801Y-16714293D01*
X7682801Y-16714293D02*
X7682801Y-16819055D01*
X7682801Y-16714293D02*
X7692324Y-16695245D01*
X7692324Y-16695245D02*
X7711372Y-16685722D01*
X7711372Y-16685722D02*
X7739943Y-16685722D01*
X7739943Y-16685722D02*
X7758991Y-16695245D01*
X7758991Y-16695245D02*
X7768515Y-16714293D01*
X7768515Y-16714293D02*
X7768515Y-16819055D01*
X8158991Y-16609531D02*
X7987563Y-16866674D01*
X8416134Y-16619055D02*
X8435182Y-16619055D01*
X8435182Y-16619055D02*
X8454229Y-16628579D01*
X8454229Y-16628579D02*
X8463753Y-16638103D01*
X8463753Y-16638103D02*
X8473277Y-16657150D01*
X8473277Y-16657150D02*
X8482801Y-16695245D01*
X8482801Y-16695245D02*
X8482801Y-16742864D01*
X8482801Y-16742864D02*
X8473277Y-16780960D01*
X8473277Y-16780960D02*
X8463753Y-16800007D01*
X8463753Y-16800007D02*
X8454229Y-16809531D01*
X8454229Y-16809531D02*
X8435182Y-16819055D01*
X8435182Y-16819055D02*
X8416134Y-16819055D01*
X8416134Y-16819055D02*
X8397087Y-16809531D01*
X8397087Y-16809531D02*
X8387563Y-16800007D01*
X8387563Y-16800007D02*
X8378039Y-16780960D01*
X8378039Y-16780960D02*
X8368515Y-16742864D01*
X8368515Y-16742864D02*
X8368515Y-16695245D01*
X8368515Y-16695245D02*
X8378039Y-16657150D01*
X8378039Y-16657150D02*
X8387563Y-16638103D01*
X8387563Y-16638103D02*
X8397087Y-16628579D01*
X8397087Y-16628579D02*
X8416134Y-16619055D01*
X8568515Y-16800007D02*
X8578039Y-16809531D01*
X8578039Y-16809531D02*
X8568515Y-16819055D01*
X8568515Y-16819055D02*
X8558991Y-16809531D01*
X8558991Y-16809531D02*
X8568515Y-16800007D01*
X8568515Y-16800007D02*
X8568515Y-16819055D01*
X8701848Y-16619055D02*
X8720896Y-16619055D01*
X8720896Y-16619055D02*
X8739944Y-16628579D01*
X8739944Y-16628579D02*
X8749468Y-16638103D01*
X8749468Y-16638103D02*
X8758991Y-16657150D01*
X8758991Y-16657150D02*
X8768515Y-16695245D01*
X8768515Y-16695245D02*
X8768515Y-16742864D01*
X8768515Y-16742864D02*
X8758991Y-16780960D01*
X8758991Y-16780960D02*
X8749468Y-16800007D01*
X8749468Y-16800007D02*
X8739944Y-16809531D01*
X8739944Y-16809531D02*
X8720896Y-16819055D01*
X8720896Y-16819055D02*
X8701848Y-16819055D01*
X8701848Y-16819055D02*
X8682801Y-16809531D01*
X8682801Y-16809531D02*
X8673277Y-16800007D01*
X8673277Y-16800007D02*
X8663753Y-16780960D01*
X8663753Y-16780960D02*
X8654229Y-16742864D01*
X8654229Y-16742864D02*
X8654229Y-16695245D01*
X8654229Y-16695245D02*
X8663753Y-16657150D01*
X8663753Y-16657150D02*
X8673277Y-16638103D01*
X8673277Y-16638103D02*
X8682801Y-16628579D01*
X8682801Y-16628579D02*
X8701848Y-16619055D01*
X8835182Y-16619055D02*
X8958991Y-16619055D01*
X8958991Y-16619055D02*
X8892325Y-16695245D01*
X8892325Y-16695245D02*
X8920896Y-16695245D01*
X8920896Y-16695245D02*
X8939944Y-16704769D01*
X8939944Y-16704769D02*
X8949468Y-16714293D01*
X8949468Y-16714293D02*
X8958991Y-16733341D01*
X8958991Y-16733341D02*
X8958991Y-16780960D01*
X8958991Y-16780960D02*
X8949468Y-16800007D01*
X8949468Y-16800007D02*
X8939944Y-16809531D01*
X8939944Y-16809531D02*
X8920896Y-16819055D01*
X8920896Y-16819055D02*
X8863753Y-16819055D01*
X8863753Y-16819055D02*
X8844706Y-16809531D01*
X8844706Y-16809531D02*
X8835182Y-16800007D01*
X9139944Y-16619055D02*
X9044706Y-16619055D01*
X9044706Y-16619055D02*
X9035182Y-16714293D01*
X9035182Y-16714293D02*
X9044706Y-16704769D01*
X9044706Y-16704769D02*
X9063753Y-16695245D01*
X9063753Y-16695245D02*
X9111372Y-16695245D01*
X9111372Y-16695245D02*
X9130420Y-16704769D01*
X9130420Y-16704769D02*
X9139944Y-16714293D01*
X9139944Y-16714293D02*
X9149468Y-16733341D01*
X9149468Y-16733341D02*
X9149468Y-16780960D01*
X9149468Y-16780960D02*
X9139944Y-16800007D01*
X9139944Y-16800007D02*
X9130420Y-16809531D01*
X9130420Y-16809531D02*
X9111372Y-16819055D01*
X9111372Y-16819055D02*
X9063753Y-16819055D01*
X9063753Y-16819055D02*
X9044706Y-16809531D01*
X9044706Y-16809531D02*
X9035182Y-16800007D01*
X9273277Y-16619055D02*
X9292325Y-16619055D01*
X9292325Y-16619055D02*
X9311372Y-16628579D01*
X9311372Y-16628579D02*
X9320896Y-16638103D01*
X9320896Y-16638103D02*
X9330420Y-16657150D01*
X9330420Y-16657150D02*
X9339944Y-16695245D01*
X9339944Y-16695245D02*
X9339944Y-16742864D01*
X9339944Y-16742864D02*
X9330420Y-16780960D01*
X9330420Y-16780960D02*
X9320896Y-16800007D01*
X9320896Y-16800007D02*
X9311372Y-16809531D01*
X9311372Y-16809531D02*
X9292325Y-16819055D01*
X9292325Y-16819055D02*
X9273277Y-16819055D01*
X9273277Y-16819055D02*
X9254229Y-16809531D01*
X9254229Y-16809531D02*
X9244706Y-16800007D01*
X9244706Y-16800007D02*
X9235182Y-16780960D01*
X9235182Y-16780960D02*
X9225658Y-16742864D01*
X9225658Y-16742864D02*
X9225658Y-16695245D01*
X9225658Y-16695245D02*
X9235182Y-16657150D01*
X9235182Y-16657150D02*
X9244706Y-16638103D01*
X9244706Y-16638103D02*
X9254229Y-16628579D01*
X9254229Y-16628579D02*
X9273277Y-16619055D01*
X9416134Y-16619055D02*
X9416134Y-16657150D01*
X9492325Y-16619055D02*
X9492325Y-16657150D01*
X9787563Y-16895245D02*
X9778039Y-16885722D01*
X9778039Y-16885722D02*
X9758991Y-16857150D01*
X9758991Y-16857150D02*
X9749468Y-16838103D01*
X9749468Y-16838103D02*
X9739944Y-16809531D01*
X9739944Y-16809531D02*
X9730420Y-16761912D01*
X9730420Y-16761912D02*
X9730420Y-16723817D01*
X9730420Y-16723817D02*
X9739944Y-16676198D01*
X9739944Y-16676198D02*
X9749468Y-16647626D01*
X9749468Y-16647626D02*
X9758991Y-16628579D01*
X9758991Y-16628579D02*
X9778039Y-16600007D01*
X9778039Y-16600007D02*
X9787563Y-16590483D01*
X9949468Y-16619055D02*
X9911372Y-16619055D01*
X9911372Y-16619055D02*
X9892325Y-16628579D01*
X9892325Y-16628579D02*
X9882801Y-16638103D01*
X9882801Y-16638103D02*
X9863753Y-16666674D01*
X9863753Y-16666674D02*
X9854230Y-16704769D01*
X9854230Y-16704769D02*
X9854230Y-16780960D01*
X9854230Y-16780960D02*
X9863753Y-16800007D01*
X9863753Y-16800007D02*
X9873277Y-16809531D01*
X9873277Y-16809531D02*
X9892325Y-16819055D01*
X9892325Y-16819055D02*
X9930420Y-16819055D01*
X9930420Y-16819055D02*
X9949468Y-16809531D01*
X9949468Y-16809531D02*
X9958991Y-16800007D01*
X9958991Y-16800007D02*
X9968515Y-16780960D01*
X9968515Y-16780960D02*
X9968515Y-16733341D01*
X9968515Y-16733341D02*
X9958991Y-16714293D01*
X9958991Y-16714293D02*
X9949468Y-16704769D01*
X9949468Y-16704769D02*
X9930420Y-16695245D01*
X9930420Y-16695245D02*
X9892325Y-16695245D01*
X9892325Y-16695245D02*
X9873277Y-16704769D01*
X9873277Y-16704769D02*
X9863753Y-16714293D01*
X9863753Y-16714293D02*
X9854230Y-16733341D01*
X10206611Y-16819055D02*
X10206611Y-16619055D01*
X10292325Y-16819055D02*
X10292325Y-16714293D01*
X10292325Y-16714293D02*
X10282801Y-16695245D01*
X10282801Y-16695245D02*
X10263753Y-16685722D01*
X10263753Y-16685722D02*
X10235182Y-16685722D01*
X10235182Y-16685722D02*
X10216134Y-16695245D01*
X10216134Y-16695245D02*
X10206611Y-16704769D01*
X10416134Y-16819055D02*
X10397087Y-16809531D01*
X10397087Y-16809531D02*
X10387563Y-16800007D01*
X10387563Y-16800007D02*
X10378039Y-16780960D01*
X10378039Y-16780960D02*
X10378039Y-16723817D01*
X10378039Y-16723817D02*
X10387563Y-16704769D01*
X10387563Y-16704769D02*
X10397087Y-16695245D01*
X10397087Y-16695245D02*
X10416134Y-16685722D01*
X10416134Y-16685722D02*
X10444706Y-16685722D01*
X10444706Y-16685722D02*
X10463753Y-16695245D01*
X10463753Y-16695245D02*
X10473277Y-16704769D01*
X10473277Y-16704769D02*
X10482801Y-16723817D01*
X10482801Y-16723817D02*
X10482801Y-16780960D01*
X10482801Y-16780960D02*
X10473277Y-16800007D01*
X10473277Y-16800007D02*
X10463753Y-16809531D01*
X10463753Y-16809531D02*
X10444706Y-16819055D01*
X10444706Y-16819055D02*
X10416134Y-16819055D01*
X10597087Y-16819055D02*
X10578039Y-16809531D01*
X10578039Y-16809531D02*
X10568515Y-16790484D01*
X10568515Y-16790484D02*
X10568515Y-16619055D01*
X10749468Y-16809531D02*
X10730420Y-16819055D01*
X10730420Y-16819055D02*
X10692325Y-16819055D01*
X10692325Y-16819055D02*
X10673277Y-16809531D01*
X10673277Y-16809531D02*
X10663753Y-16790484D01*
X10663753Y-16790484D02*
X10663753Y-16714293D01*
X10663753Y-16714293D02*
X10673277Y-16695245D01*
X10673277Y-16695245D02*
X10692325Y-16685722D01*
X10692325Y-16685722D02*
X10730420Y-16685722D01*
X10730420Y-16685722D02*
X10749468Y-16695245D01*
X10749468Y-16695245D02*
X10758992Y-16714293D01*
X10758992Y-16714293D02*
X10758992Y-16733341D01*
X10758992Y-16733341D02*
X10663753Y-16752388D01*
X10835182Y-16809531D02*
X10854230Y-16819055D01*
X10854230Y-16819055D02*
X10892325Y-16819055D01*
X10892325Y-16819055D02*
X10911373Y-16809531D01*
X10911373Y-16809531D02*
X10920896Y-16790484D01*
X10920896Y-16790484D02*
X10920896Y-16780960D01*
X10920896Y-16780960D02*
X10911373Y-16761912D01*
X10911373Y-16761912D02*
X10892325Y-16752388D01*
X10892325Y-16752388D02*
X10863753Y-16752388D01*
X10863753Y-16752388D02*
X10844706Y-16742864D01*
X10844706Y-16742864D02*
X10835182Y-16723817D01*
X10835182Y-16723817D02*
X10835182Y-16714293D01*
X10835182Y-16714293D02*
X10844706Y-16695245D01*
X10844706Y-16695245D02*
X10863753Y-16685722D01*
X10863753Y-16685722D02*
X10892325Y-16685722D01*
X10892325Y-16685722D02*
X10911373Y-16695245D01*
X10987563Y-16895245D02*
X10997087Y-16885722D01*
X10997087Y-16885722D02*
X11016134Y-16857150D01*
X11016134Y-16857150D02*
X11025658Y-16838103D01*
X11025658Y-16838103D02*
X11035182Y-16809531D01*
X11035182Y-16809531D02*
X11044706Y-16761912D01*
X11044706Y-16761912D02*
X11044706Y-16723817D01*
X11044706Y-16723817D02*
X11035182Y-16676198D01*
X11035182Y-16676198D02*
X11025658Y-16647626D01*
X11025658Y-16647626D02*
X11016134Y-16628579D01*
X11016134Y-16628579D02*
X10997087Y-16600007D01*
X10997087Y-16600007D02*
X10987563Y-16590483D01*
D12*
X6167500Y-17036571D02*
X6212500Y-16991571D01*
X6167500Y-16946571D01*
X6122500Y-16991571D01*
X6167500Y-17036571D01*
D11*
X6511372Y-16883055D02*
X6530420Y-16883055D01*
X6530420Y-16883055D02*
X6549467Y-16892579D01*
X6549467Y-16892579D02*
X6558991Y-16902103D01*
X6558991Y-16902103D02*
X6568515Y-16921150D01*
X6568515Y-16921150D02*
X6578039Y-16959245D01*
X6578039Y-16959245D02*
X6578039Y-17006865D01*
X6578039Y-17006865D02*
X6568515Y-17044960D01*
X6568515Y-17044960D02*
X6558991Y-17064007D01*
X6558991Y-17064007D02*
X6549467Y-17073531D01*
X6549467Y-17073531D02*
X6530420Y-17083055D01*
X6530420Y-17083055D02*
X6511372Y-17083055D01*
X6511372Y-17083055D02*
X6492324Y-17073531D01*
X6492324Y-17073531D02*
X6482801Y-17064007D01*
X6482801Y-17064007D02*
X6473277Y-17044960D01*
X6473277Y-17044960D02*
X6463753Y-17006865D01*
X6463753Y-17006865D02*
X6463753Y-16959245D01*
X6463753Y-16959245D02*
X6473277Y-16921150D01*
X6473277Y-16921150D02*
X6482801Y-16902103D01*
X6482801Y-16902103D02*
X6492324Y-16892579D01*
X6492324Y-16892579D02*
X6511372Y-16883055D01*
X6663753Y-17064007D02*
X6673277Y-17073531D01*
X6673277Y-17073531D02*
X6663753Y-17083055D01*
X6663753Y-17083055D02*
X6654229Y-17073531D01*
X6654229Y-17073531D02*
X6663753Y-17064007D01*
X6663753Y-17064007D02*
X6663753Y-17083055D01*
X6768515Y-17083055D02*
X6806610Y-17083055D01*
X6806610Y-17083055D02*
X6825658Y-17073531D01*
X6825658Y-17073531D02*
X6835182Y-17064007D01*
X6835182Y-17064007D02*
X6854229Y-17035436D01*
X6854229Y-17035436D02*
X6863753Y-16997341D01*
X6863753Y-16997341D02*
X6863753Y-16921150D01*
X6863753Y-16921150D02*
X6854229Y-16902103D01*
X6854229Y-16902103D02*
X6844705Y-16892579D01*
X6844705Y-16892579D02*
X6825658Y-16883055D01*
X6825658Y-16883055D02*
X6787562Y-16883055D01*
X6787562Y-16883055D02*
X6768515Y-16892579D01*
X6768515Y-16892579D02*
X6758991Y-16902103D01*
X6758991Y-16902103D02*
X6749467Y-16921150D01*
X6749467Y-16921150D02*
X6749467Y-16968769D01*
X6749467Y-16968769D02*
X6758991Y-16987817D01*
X6758991Y-16987817D02*
X6768515Y-16997341D01*
X6768515Y-16997341D02*
X6787562Y-17006865D01*
X6787562Y-17006865D02*
X6825658Y-17006865D01*
X6825658Y-17006865D02*
X6844705Y-16997341D01*
X6844705Y-16997341D02*
X6854229Y-16987817D01*
X6854229Y-16987817D02*
X6863753Y-16968769D01*
X6987562Y-16883055D02*
X7006610Y-16883055D01*
X7006610Y-16883055D02*
X7025658Y-16892579D01*
X7025658Y-16892579D02*
X7035182Y-16902103D01*
X7035182Y-16902103D02*
X7044705Y-16921150D01*
X7044705Y-16921150D02*
X7054229Y-16959245D01*
X7054229Y-16959245D02*
X7054229Y-17006865D01*
X7054229Y-17006865D02*
X7044705Y-17044960D01*
X7044705Y-17044960D02*
X7035182Y-17064007D01*
X7035182Y-17064007D02*
X7025658Y-17073531D01*
X7025658Y-17073531D02*
X7006610Y-17083055D01*
X7006610Y-17083055D02*
X6987562Y-17083055D01*
X6987562Y-17083055D02*
X6968515Y-17073531D01*
X6968515Y-17073531D02*
X6958991Y-17064007D01*
X6958991Y-17064007D02*
X6949467Y-17044960D01*
X6949467Y-17044960D02*
X6939943Y-17006865D01*
X6939943Y-17006865D02*
X6939943Y-16959245D01*
X6939943Y-16959245D02*
X6949467Y-16921150D01*
X6949467Y-16921150D02*
X6958991Y-16902103D01*
X6958991Y-16902103D02*
X6968515Y-16892579D01*
X6968515Y-16892579D02*
X6987562Y-16883055D01*
X7178039Y-16883055D02*
X7197086Y-16883055D01*
X7197086Y-16883055D02*
X7216134Y-16892579D01*
X7216134Y-16892579D02*
X7225658Y-16902103D01*
X7225658Y-16902103D02*
X7235182Y-16921150D01*
X7235182Y-16921150D02*
X7244705Y-16959245D01*
X7244705Y-16959245D02*
X7244705Y-17006865D01*
X7244705Y-17006865D02*
X7235182Y-17044960D01*
X7235182Y-17044960D02*
X7225658Y-17064007D01*
X7225658Y-17064007D02*
X7216134Y-17073531D01*
X7216134Y-17073531D02*
X7197086Y-17083055D01*
X7197086Y-17083055D02*
X7178039Y-17083055D01*
X7178039Y-17083055D02*
X7158991Y-17073531D01*
X7158991Y-17073531D02*
X7149467Y-17064007D01*
X7149467Y-17064007D02*
X7139943Y-17044960D01*
X7139943Y-17044960D02*
X7130420Y-17006865D01*
X7130420Y-17006865D02*
X7130420Y-16959245D01*
X7130420Y-16959245D02*
X7139943Y-16921150D01*
X7139943Y-16921150D02*
X7149467Y-16902103D01*
X7149467Y-16902103D02*
X7158991Y-16892579D01*
X7158991Y-16892579D02*
X7178039Y-16883055D01*
X7330420Y-17083055D02*
X7330420Y-16949722D01*
X7330420Y-16968769D02*
X7339943Y-16959245D01*
X7339943Y-16959245D02*
X7358991Y-16949722D01*
X7358991Y-16949722D02*
X7387563Y-16949722D01*
X7387563Y-16949722D02*
X7406610Y-16959245D01*
X7406610Y-16959245D02*
X7416134Y-16978293D01*
X7416134Y-16978293D02*
X7416134Y-17083055D01*
X7416134Y-16978293D02*
X7425658Y-16959245D01*
X7425658Y-16959245D02*
X7444705Y-16949722D01*
X7444705Y-16949722D02*
X7473277Y-16949722D01*
X7473277Y-16949722D02*
X7492324Y-16959245D01*
X7492324Y-16959245D02*
X7501848Y-16978293D01*
X7501848Y-16978293D02*
X7501848Y-17083055D01*
X7597086Y-17083055D02*
X7597086Y-16949722D01*
X7597086Y-16968769D02*
X7606610Y-16959245D01*
X7606610Y-16959245D02*
X7625658Y-16949722D01*
X7625658Y-16949722D02*
X7654229Y-16949722D01*
X7654229Y-16949722D02*
X7673277Y-16959245D01*
X7673277Y-16959245D02*
X7682801Y-16978293D01*
X7682801Y-16978293D02*
X7682801Y-17083055D01*
X7682801Y-16978293D02*
X7692324Y-16959245D01*
X7692324Y-16959245D02*
X7711372Y-16949722D01*
X7711372Y-16949722D02*
X7739943Y-16949722D01*
X7739943Y-16949722D02*
X7758991Y-16959245D01*
X7758991Y-16959245D02*
X7768515Y-16978293D01*
X7768515Y-16978293D02*
X7768515Y-17083055D01*
X8158991Y-16873531D02*
X7987563Y-17130674D01*
X8416134Y-16883055D02*
X8435182Y-16883055D01*
X8435182Y-16883055D02*
X8454229Y-16892579D01*
X8454229Y-16892579D02*
X8463753Y-16902103D01*
X8463753Y-16902103D02*
X8473277Y-16921150D01*
X8473277Y-16921150D02*
X8482801Y-16959245D01*
X8482801Y-16959245D02*
X8482801Y-17006865D01*
X8482801Y-17006865D02*
X8473277Y-17044960D01*
X8473277Y-17044960D02*
X8463753Y-17064007D01*
X8463753Y-17064007D02*
X8454229Y-17073531D01*
X8454229Y-17073531D02*
X8435182Y-17083055D01*
X8435182Y-17083055D02*
X8416134Y-17083055D01*
X8416134Y-17083055D02*
X8397087Y-17073531D01*
X8397087Y-17073531D02*
X8387563Y-17064007D01*
X8387563Y-17064007D02*
X8378039Y-17044960D01*
X8378039Y-17044960D02*
X8368515Y-17006865D01*
X8368515Y-17006865D02*
X8368515Y-16959245D01*
X8368515Y-16959245D02*
X8378039Y-16921150D01*
X8378039Y-16921150D02*
X8387563Y-16902103D01*
X8387563Y-16902103D02*
X8397087Y-16892579D01*
X8397087Y-16892579D02*
X8416134Y-16883055D01*
X8568515Y-17064007D02*
X8578039Y-17073531D01*
X8578039Y-17073531D02*
X8568515Y-17083055D01*
X8568515Y-17083055D02*
X8558991Y-17073531D01*
X8558991Y-17073531D02*
X8568515Y-17064007D01*
X8568515Y-17064007D02*
X8568515Y-17083055D01*
X8701848Y-16883055D02*
X8720896Y-16883055D01*
X8720896Y-16883055D02*
X8739944Y-16892579D01*
X8739944Y-16892579D02*
X8749468Y-16902103D01*
X8749468Y-16902103D02*
X8758991Y-16921150D01*
X8758991Y-16921150D02*
X8768515Y-16959245D01*
X8768515Y-16959245D02*
X8768515Y-17006865D01*
X8768515Y-17006865D02*
X8758991Y-17044960D01*
X8758991Y-17044960D02*
X8749468Y-17064007D01*
X8749468Y-17064007D02*
X8739944Y-17073531D01*
X8739944Y-17073531D02*
X8720896Y-17083055D01*
X8720896Y-17083055D02*
X8701848Y-17083055D01*
X8701848Y-17083055D02*
X8682801Y-17073531D01*
X8682801Y-17073531D02*
X8673277Y-17064007D01*
X8673277Y-17064007D02*
X8663753Y-17044960D01*
X8663753Y-17044960D02*
X8654229Y-17006865D01*
X8654229Y-17006865D02*
X8654229Y-16959245D01*
X8654229Y-16959245D02*
X8663753Y-16921150D01*
X8663753Y-16921150D02*
X8673277Y-16902103D01*
X8673277Y-16902103D02*
X8682801Y-16892579D01*
X8682801Y-16892579D02*
X8701848Y-16883055D01*
X8835182Y-16883055D02*
X8958991Y-16883055D01*
X8958991Y-16883055D02*
X8892325Y-16959245D01*
X8892325Y-16959245D02*
X8920896Y-16959245D01*
X8920896Y-16959245D02*
X8939944Y-16968769D01*
X8939944Y-16968769D02*
X8949468Y-16978293D01*
X8949468Y-16978293D02*
X8958991Y-16997341D01*
X8958991Y-16997341D02*
X8958991Y-17044960D01*
X8958991Y-17044960D02*
X8949468Y-17064007D01*
X8949468Y-17064007D02*
X8939944Y-17073531D01*
X8939944Y-17073531D02*
X8920896Y-17083055D01*
X8920896Y-17083055D02*
X8863753Y-17083055D01*
X8863753Y-17083055D02*
X8844706Y-17073531D01*
X8844706Y-17073531D02*
X8835182Y-17064007D01*
X9139944Y-16883055D02*
X9044706Y-16883055D01*
X9044706Y-16883055D02*
X9035182Y-16978293D01*
X9035182Y-16978293D02*
X9044706Y-16968769D01*
X9044706Y-16968769D02*
X9063753Y-16959245D01*
X9063753Y-16959245D02*
X9111372Y-16959245D01*
X9111372Y-16959245D02*
X9130420Y-16968769D01*
X9130420Y-16968769D02*
X9139944Y-16978293D01*
X9139944Y-16978293D02*
X9149468Y-16997341D01*
X9149468Y-16997341D02*
X9149468Y-17044960D01*
X9149468Y-17044960D02*
X9139944Y-17064007D01*
X9139944Y-17064007D02*
X9130420Y-17073531D01*
X9130420Y-17073531D02*
X9111372Y-17083055D01*
X9111372Y-17083055D02*
X9063753Y-17083055D01*
X9063753Y-17083055D02*
X9044706Y-17073531D01*
X9044706Y-17073531D02*
X9035182Y-17064007D01*
X9320896Y-16949722D02*
X9320896Y-17083055D01*
X9273277Y-16873531D02*
X9225658Y-17016388D01*
X9225658Y-17016388D02*
X9349468Y-17016388D01*
X9416134Y-16883055D02*
X9416134Y-16921150D01*
X9492325Y-16883055D02*
X9492325Y-16921150D01*
X9787563Y-17159245D02*
X9778039Y-17149722D01*
X9778039Y-17149722D02*
X9758991Y-17121150D01*
X9758991Y-17121150D02*
X9749468Y-17102103D01*
X9749468Y-17102103D02*
X9739944Y-17073531D01*
X9739944Y-17073531D02*
X9730420Y-17025912D01*
X9730420Y-17025912D02*
X9730420Y-16987817D01*
X9730420Y-16987817D02*
X9739944Y-16940198D01*
X9739944Y-16940198D02*
X9749468Y-16911626D01*
X9749468Y-16911626D02*
X9758991Y-16892579D01*
X9758991Y-16892579D02*
X9778039Y-16864007D01*
X9778039Y-16864007D02*
X9787563Y-16854484D01*
X9949468Y-16949722D02*
X9949468Y-17083055D01*
X9901849Y-16873531D02*
X9854230Y-17016388D01*
X9854230Y-17016388D02*
X9978039Y-17016388D01*
X10206611Y-17083055D02*
X10206611Y-16883055D01*
X10292325Y-17083055D02*
X10292325Y-16978293D01*
X10292325Y-16978293D02*
X10282801Y-16959245D01*
X10282801Y-16959245D02*
X10263753Y-16949722D01*
X10263753Y-16949722D02*
X10235182Y-16949722D01*
X10235182Y-16949722D02*
X10216134Y-16959245D01*
X10216134Y-16959245D02*
X10206611Y-16968769D01*
X10416134Y-17083055D02*
X10397087Y-17073531D01*
X10397087Y-17073531D02*
X10387563Y-17064007D01*
X10387563Y-17064007D02*
X10378039Y-17044960D01*
X10378039Y-17044960D02*
X10378039Y-16987817D01*
X10378039Y-16987817D02*
X10387563Y-16968769D01*
X10387563Y-16968769D02*
X10397087Y-16959245D01*
X10397087Y-16959245D02*
X10416134Y-16949722D01*
X10416134Y-16949722D02*
X10444706Y-16949722D01*
X10444706Y-16949722D02*
X10463753Y-16959245D01*
X10463753Y-16959245D02*
X10473277Y-16968769D01*
X10473277Y-16968769D02*
X10482801Y-16987817D01*
X10482801Y-16987817D02*
X10482801Y-17044960D01*
X10482801Y-17044960D02*
X10473277Y-17064007D01*
X10473277Y-17064007D02*
X10463753Y-17073531D01*
X10463753Y-17073531D02*
X10444706Y-17083055D01*
X10444706Y-17083055D02*
X10416134Y-17083055D01*
X10597087Y-17083055D02*
X10578039Y-17073531D01*
X10578039Y-17073531D02*
X10568515Y-17054484D01*
X10568515Y-17054484D02*
X10568515Y-16883055D01*
X10749468Y-17073531D02*
X10730420Y-17083055D01*
X10730420Y-17083055D02*
X10692325Y-17083055D01*
X10692325Y-17083055D02*
X10673277Y-17073531D01*
X10673277Y-17073531D02*
X10663753Y-17054484D01*
X10663753Y-17054484D02*
X10663753Y-16978293D01*
X10663753Y-16978293D02*
X10673277Y-16959245D01*
X10673277Y-16959245D02*
X10692325Y-16949722D01*
X10692325Y-16949722D02*
X10730420Y-16949722D01*
X10730420Y-16949722D02*
X10749468Y-16959245D01*
X10749468Y-16959245D02*
X10758992Y-16978293D01*
X10758992Y-16978293D02*
X10758992Y-16997341D01*
X10758992Y-16997341D02*
X10663753Y-17016388D01*
X10835182Y-17073531D02*
X10854230Y-17083055D01*
X10854230Y-17083055D02*
X10892325Y-17083055D01*
X10892325Y-17083055D02*
X10911373Y-17073531D01*
X10911373Y-17073531D02*
X10920896Y-17054484D01*
X10920896Y-17054484D02*
X10920896Y-17044960D01*
X10920896Y-17044960D02*
X10911373Y-17025912D01*
X10911373Y-17025912D02*
X10892325Y-17016388D01*
X10892325Y-17016388D02*
X10863753Y-17016388D01*
X10863753Y-17016388D02*
X10844706Y-17006865D01*
X10844706Y-17006865D02*
X10835182Y-16987817D01*
X10835182Y-16987817D02*
X10835182Y-16978293D01*
X10835182Y-16978293D02*
X10844706Y-16959245D01*
X10844706Y-16959245D02*
X10863753Y-16949722D01*
X10863753Y-16949722D02*
X10892325Y-16949722D01*
X10892325Y-16949722D02*
X10911373Y-16959245D01*
X10987563Y-17159245D02*
X10997087Y-17149722D01*
X10997087Y-17149722D02*
X11016134Y-17121150D01*
X11016134Y-17121150D02*
X11025658Y-17102103D01*
X11025658Y-17102103D02*
X11035182Y-17073531D01*
X11035182Y-17073531D02*
X11044706Y-17025912D01*
X11044706Y-17025912D02*
X11044706Y-16987817D01*
X11044706Y-16987817D02*
X11035182Y-16940198D01*
X11035182Y-16940198D02*
X11025658Y-16911626D01*
X11025658Y-16911626D02*
X11016134Y-16892579D01*
X11016134Y-16892579D02*
X10997087Y-16864007D01*
X10997087Y-16864007D02*
X10987563Y-16854484D01*
D12*
X6117500Y-17208071D02*
X6212500Y-17303071D01*
X6212500Y-17208071D02*
X6117500Y-17303071D01*
X6212500Y-17255571D02*
G75*
G02*
X6117500Y-17255571I-47500J0D01*
G01*
X6117500Y-17255571D02*
G75*
G02*
X6212500Y-17255571I47500J0D01*
G01*
D11*
X6511372Y-17147055D02*
X6530420Y-17147055D01*
X6530420Y-17147055D02*
X6549467Y-17156579D01*
X6549467Y-17156579D02*
X6558991Y-17166103D01*
X6558991Y-17166103D02*
X6568515Y-17185150D01*
X6568515Y-17185150D02*
X6578039Y-17223245D01*
X6578039Y-17223245D02*
X6578039Y-17270865D01*
X6578039Y-17270865D02*
X6568515Y-17308960D01*
X6568515Y-17308960D02*
X6558991Y-17328007D01*
X6558991Y-17328007D02*
X6549467Y-17337531D01*
X6549467Y-17337531D02*
X6530420Y-17347055D01*
X6530420Y-17347055D02*
X6511372Y-17347055D01*
X6511372Y-17347055D02*
X6492324Y-17337531D01*
X6492324Y-17337531D02*
X6482801Y-17328007D01*
X6482801Y-17328007D02*
X6473277Y-17308960D01*
X6473277Y-17308960D02*
X6463753Y-17270865D01*
X6463753Y-17270865D02*
X6463753Y-17223245D01*
X6463753Y-17223245D02*
X6473277Y-17185150D01*
X6473277Y-17185150D02*
X6482801Y-17166103D01*
X6482801Y-17166103D02*
X6492324Y-17156579D01*
X6492324Y-17156579D02*
X6511372Y-17147055D01*
X6663753Y-17328007D02*
X6673277Y-17337531D01*
X6673277Y-17337531D02*
X6663753Y-17347055D01*
X6663753Y-17347055D02*
X6654229Y-17337531D01*
X6654229Y-17337531D02*
X6663753Y-17328007D01*
X6663753Y-17328007D02*
X6663753Y-17347055D01*
X6768515Y-17347055D02*
X6806610Y-17347055D01*
X6806610Y-17347055D02*
X6825658Y-17337531D01*
X6825658Y-17337531D02*
X6835182Y-17328007D01*
X6835182Y-17328007D02*
X6854229Y-17299436D01*
X6854229Y-17299436D02*
X6863753Y-17261341D01*
X6863753Y-17261341D02*
X6863753Y-17185150D01*
X6863753Y-17185150D02*
X6854229Y-17166103D01*
X6854229Y-17166103D02*
X6844705Y-17156579D01*
X6844705Y-17156579D02*
X6825658Y-17147055D01*
X6825658Y-17147055D02*
X6787562Y-17147055D01*
X6787562Y-17147055D02*
X6768515Y-17156579D01*
X6768515Y-17156579D02*
X6758991Y-17166103D01*
X6758991Y-17166103D02*
X6749467Y-17185150D01*
X6749467Y-17185150D02*
X6749467Y-17232769D01*
X6749467Y-17232769D02*
X6758991Y-17251817D01*
X6758991Y-17251817D02*
X6768515Y-17261341D01*
X6768515Y-17261341D02*
X6787562Y-17270865D01*
X6787562Y-17270865D02*
X6825658Y-17270865D01*
X6825658Y-17270865D02*
X6844705Y-17261341D01*
X6844705Y-17261341D02*
X6854229Y-17251817D01*
X6854229Y-17251817D02*
X6863753Y-17232769D01*
X7044705Y-17147055D02*
X6949467Y-17147055D01*
X6949467Y-17147055D02*
X6939943Y-17242293D01*
X6939943Y-17242293D02*
X6949467Y-17232769D01*
X6949467Y-17232769D02*
X6968515Y-17223245D01*
X6968515Y-17223245D02*
X7016134Y-17223245D01*
X7016134Y-17223245D02*
X7035182Y-17232769D01*
X7035182Y-17232769D02*
X7044705Y-17242293D01*
X7044705Y-17242293D02*
X7054229Y-17261341D01*
X7054229Y-17261341D02*
X7054229Y-17308960D01*
X7054229Y-17308960D02*
X7044705Y-17328007D01*
X7044705Y-17328007D02*
X7035182Y-17337531D01*
X7035182Y-17337531D02*
X7016134Y-17347055D01*
X7016134Y-17347055D02*
X6968515Y-17347055D01*
X6968515Y-17347055D02*
X6949467Y-17337531D01*
X6949467Y-17337531D02*
X6939943Y-17328007D01*
X7178039Y-17147055D02*
X7197086Y-17147055D01*
X7197086Y-17147055D02*
X7216134Y-17156579D01*
X7216134Y-17156579D02*
X7225658Y-17166103D01*
X7225658Y-17166103D02*
X7235182Y-17185150D01*
X7235182Y-17185150D02*
X7244705Y-17223245D01*
X7244705Y-17223245D02*
X7244705Y-17270865D01*
X7244705Y-17270865D02*
X7235182Y-17308960D01*
X7235182Y-17308960D02*
X7225658Y-17328007D01*
X7225658Y-17328007D02*
X7216134Y-17337531D01*
X7216134Y-17337531D02*
X7197086Y-17347055D01*
X7197086Y-17347055D02*
X7178039Y-17347055D01*
X7178039Y-17347055D02*
X7158991Y-17337531D01*
X7158991Y-17337531D02*
X7149467Y-17328007D01*
X7149467Y-17328007D02*
X7139943Y-17308960D01*
X7139943Y-17308960D02*
X7130420Y-17270865D01*
X7130420Y-17270865D02*
X7130420Y-17223245D01*
X7130420Y-17223245D02*
X7139943Y-17185150D01*
X7139943Y-17185150D02*
X7149467Y-17166103D01*
X7149467Y-17166103D02*
X7158991Y-17156579D01*
X7158991Y-17156579D02*
X7178039Y-17147055D01*
X7330420Y-17347055D02*
X7330420Y-17213722D01*
X7330420Y-17232769D02*
X7339943Y-17223245D01*
X7339943Y-17223245D02*
X7358991Y-17213722D01*
X7358991Y-17213722D02*
X7387563Y-17213722D01*
X7387563Y-17213722D02*
X7406610Y-17223245D01*
X7406610Y-17223245D02*
X7416134Y-17242293D01*
X7416134Y-17242293D02*
X7416134Y-17347055D01*
X7416134Y-17242293D02*
X7425658Y-17223245D01*
X7425658Y-17223245D02*
X7444705Y-17213722D01*
X7444705Y-17213722D02*
X7473277Y-17213722D01*
X7473277Y-17213722D02*
X7492324Y-17223245D01*
X7492324Y-17223245D02*
X7501848Y-17242293D01*
X7501848Y-17242293D02*
X7501848Y-17347055D01*
X7597086Y-17347055D02*
X7597086Y-17213722D01*
X7597086Y-17232769D02*
X7606610Y-17223245D01*
X7606610Y-17223245D02*
X7625658Y-17213722D01*
X7625658Y-17213722D02*
X7654229Y-17213722D01*
X7654229Y-17213722D02*
X7673277Y-17223245D01*
X7673277Y-17223245D02*
X7682801Y-17242293D01*
X7682801Y-17242293D02*
X7682801Y-17347055D01*
X7682801Y-17242293D02*
X7692324Y-17223245D01*
X7692324Y-17223245D02*
X7711372Y-17213722D01*
X7711372Y-17213722D02*
X7739943Y-17213722D01*
X7739943Y-17213722D02*
X7758991Y-17223245D01*
X7758991Y-17223245D02*
X7768515Y-17242293D01*
X7768515Y-17242293D02*
X7768515Y-17347055D01*
X8158991Y-17137531D02*
X7987563Y-17394674D01*
X8416134Y-17147055D02*
X8435182Y-17147055D01*
X8435182Y-17147055D02*
X8454229Y-17156579D01*
X8454229Y-17156579D02*
X8463753Y-17166103D01*
X8463753Y-17166103D02*
X8473277Y-17185150D01*
X8473277Y-17185150D02*
X8482801Y-17223245D01*
X8482801Y-17223245D02*
X8482801Y-17270865D01*
X8482801Y-17270865D02*
X8473277Y-17308960D01*
X8473277Y-17308960D02*
X8463753Y-17328007D01*
X8463753Y-17328007D02*
X8454229Y-17337531D01*
X8454229Y-17337531D02*
X8435182Y-17347055D01*
X8435182Y-17347055D02*
X8416134Y-17347055D01*
X8416134Y-17347055D02*
X8397087Y-17337531D01*
X8397087Y-17337531D02*
X8387563Y-17328007D01*
X8387563Y-17328007D02*
X8378039Y-17308960D01*
X8378039Y-17308960D02*
X8368515Y-17270865D01*
X8368515Y-17270865D02*
X8368515Y-17223245D01*
X8368515Y-17223245D02*
X8378039Y-17185150D01*
X8378039Y-17185150D02*
X8387563Y-17166103D01*
X8387563Y-17166103D02*
X8397087Y-17156579D01*
X8397087Y-17156579D02*
X8416134Y-17147055D01*
X8568515Y-17328007D02*
X8578039Y-17337531D01*
X8578039Y-17337531D02*
X8568515Y-17347055D01*
X8568515Y-17347055D02*
X8558991Y-17337531D01*
X8558991Y-17337531D02*
X8568515Y-17328007D01*
X8568515Y-17328007D02*
X8568515Y-17347055D01*
X8701848Y-17147055D02*
X8720896Y-17147055D01*
X8720896Y-17147055D02*
X8739944Y-17156579D01*
X8739944Y-17156579D02*
X8749468Y-17166103D01*
X8749468Y-17166103D02*
X8758991Y-17185150D01*
X8758991Y-17185150D02*
X8768515Y-17223245D01*
X8768515Y-17223245D02*
X8768515Y-17270865D01*
X8768515Y-17270865D02*
X8758991Y-17308960D01*
X8758991Y-17308960D02*
X8749468Y-17328007D01*
X8749468Y-17328007D02*
X8739944Y-17337531D01*
X8739944Y-17337531D02*
X8720896Y-17347055D01*
X8720896Y-17347055D02*
X8701848Y-17347055D01*
X8701848Y-17347055D02*
X8682801Y-17337531D01*
X8682801Y-17337531D02*
X8673277Y-17328007D01*
X8673277Y-17328007D02*
X8663753Y-17308960D01*
X8663753Y-17308960D02*
X8654229Y-17270865D01*
X8654229Y-17270865D02*
X8654229Y-17223245D01*
X8654229Y-17223245D02*
X8663753Y-17185150D01*
X8663753Y-17185150D02*
X8673277Y-17166103D01*
X8673277Y-17166103D02*
X8682801Y-17156579D01*
X8682801Y-17156579D02*
X8701848Y-17147055D01*
X8835182Y-17147055D02*
X8958991Y-17147055D01*
X8958991Y-17147055D02*
X8892325Y-17223245D01*
X8892325Y-17223245D02*
X8920896Y-17223245D01*
X8920896Y-17223245D02*
X8939944Y-17232769D01*
X8939944Y-17232769D02*
X8949468Y-17242293D01*
X8949468Y-17242293D02*
X8958991Y-17261341D01*
X8958991Y-17261341D02*
X8958991Y-17308960D01*
X8958991Y-17308960D02*
X8949468Y-17328007D01*
X8949468Y-17328007D02*
X8939944Y-17337531D01*
X8939944Y-17337531D02*
X8920896Y-17347055D01*
X8920896Y-17347055D02*
X8863753Y-17347055D01*
X8863753Y-17347055D02*
X8844706Y-17337531D01*
X8844706Y-17337531D02*
X8835182Y-17328007D01*
X9025658Y-17147055D02*
X9158991Y-17147055D01*
X9158991Y-17147055D02*
X9073277Y-17347055D01*
X9320896Y-17213722D02*
X9320896Y-17347055D01*
X9273277Y-17137531D02*
X9225658Y-17280388D01*
X9225658Y-17280388D02*
X9349468Y-17280388D01*
X9416134Y-17147055D02*
X9416134Y-17185150D01*
X9492325Y-17147055D02*
X9492325Y-17185150D01*
X9787563Y-17423245D02*
X9778039Y-17413722D01*
X9778039Y-17413722D02*
X9758991Y-17385150D01*
X9758991Y-17385150D02*
X9749468Y-17366103D01*
X9749468Y-17366103D02*
X9739944Y-17337531D01*
X9739944Y-17337531D02*
X9730420Y-17289912D01*
X9730420Y-17289912D02*
X9730420Y-17251817D01*
X9730420Y-17251817D02*
X9739944Y-17204198D01*
X9739944Y-17204198D02*
X9749468Y-17175626D01*
X9749468Y-17175626D02*
X9758991Y-17156579D01*
X9758991Y-17156579D02*
X9778039Y-17128007D01*
X9778039Y-17128007D02*
X9787563Y-17118484D01*
X9949468Y-17213722D02*
X9949468Y-17347055D01*
X9901849Y-17137531D02*
X9854230Y-17280388D01*
X9854230Y-17280388D02*
X9978039Y-17280388D01*
X10206611Y-17347055D02*
X10206611Y-17147055D01*
X10292325Y-17347055D02*
X10292325Y-17242293D01*
X10292325Y-17242293D02*
X10282801Y-17223245D01*
X10282801Y-17223245D02*
X10263753Y-17213722D01*
X10263753Y-17213722D02*
X10235182Y-17213722D01*
X10235182Y-17213722D02*
X10216134Y-17223245D01*
X10216134Y-17223245D02*
X10206611Y-17232769D01*
X10416134Y-17347055D02*
X10397087Y-17337531D01*
X10397087Y-17337531D02*
X10387563Y-17328007D01*
X10387563Y-17328007D02*
X10378039Y-17308960D01*
X10378039Y-17308960D02*
X10378039Y-17251817D01*
X10378039Y-17251817D02*
X10387563Y-17232769D01*
X10387563Y-17232769D02*
X10397087Y-17223245D01*
X10397087Y-17223245D02*
X10416134Y-17213722D01*
X10416134Y-17213722D02*
X10444706Y-17213722D01*
X10444706Y-17213722D02*
X10463753Y-17223245D01*
X10463753Y-17223245D02*
X10473277Y-17232769D01*
X10473277Y-17232769D02*
X10482801Y-17251817D01*
X10482801Y-17251817D02*
X10482801Y-17308960D01*
X10482801Y-17308960D02*
X10473277Y-17328007D01*
X10473277Y-17328007D02*
X10463753Y-17337531D01*
X10463753Y-17337531D02*
X10444706Y-17347055D01*
X10444706Y-17347055D02*
X10416134Y-17347055D01*
X10597087Y-17347055D02*
X10578039Y-17337531D01*
X10578039Y-17337531D02*
X10568515Y-17318484D01*
X10568515Y-17318484D02*
X10568515Y-17147055D01*
X10749468Y-17337531D02*
X10730420Y-17347055D01*
X10730420Y-17347055D02*
X10692325Y-17347055D01*
X10692325Y-17347055D02*
X10673277Y-17337531D01*
X10673277Y-17337531D02*
X10663753Y-17318484D01*
X10663753Y-17318484D02*
X10663753Y-17242293D01*
X10663753Y-17242293D02*
X10673277Y-17223245D01*
X10673277Y-17223245D02*
X10692325Y-17213722D01*
X10692325Y-17213722D02*
X10730420Y-17213722D01*
X10730420Y-17213722D02*
X10749468Y-17223245D01*
X10749468Y-17223245D02*
X10758992Y-17242293D01*
X10758992Y-17242293D02*
X10758992Y-17261341D01*
X10758992Y-17261341D02*
X10663753Y-17280388D01*
X10835182Y-17337531D02*
X10854230Y-17347055D01*
X10854230Y-17347055D02*
X10892325Y-17347055D01*
X10892325Y-17347055D02*
X10911373Y-17337531D01*
X10911373Y-17337531D02*
X10920896Y-17318484D01*
X10920896Y-17318484D02*
X10920896Y-17308960D01*
X10920896Y-17308960D02*
X10911373Y-17289912D01*
X10911373Y-17289912D02*
X10892325Y-17280388D01*
X10892325Y-17280388D02*
X10863753Y-17280388D01*
X10863753Y-17280388D02*
X10844706Y-17270865D01*
X10844706Y-17270865D02*
X10835182Y-17251817D01*
X10835182Y-17251817D02*
X10835182Y-17242293D01*
X10835182Y-17242293D02*
X10844706Y-17223245D01*
X10844706Y-17223245D02*
X10863753Y-17213722D01*
X10863753Y-17213722D02*
X10892325Y-17213722D01*
X10892325Y-17213722D02*
X10911373Y-17223245D01*
X10987563Y-17423245D02*
X10997087Y-17413722D01*
X10997087Y-17413722D02*
X11016134Y-17385150D01*
X11016134Y-17385150D02*
X11025658Y-17366103D01*
X11025658Y-17366103D02*
X11035182Y-17337531D01*
X11035182Y-17337531D02*
X11044706Y-17289912D01*
X11044706Y-17289912D02*
X11044706Y-17251817D01*
X11044706Y-17251817D02*
X11035182Y-17204198D01*
X11035182Y-17204198D02*
X11025658Y-17175626D01*
X11025658Y-17175626D02*
X11016134Y-17156579D01*
X11016134Y-17156579D02*
X10997087Y-17128007D01*
X10997087Y-17128007D02*
X10987563Y-17118484D01*
D13*
X6072800Y-17449721D02*
X6212500Y-17589421D01*
X6212500Y-17449721D02*
X6072800Y-17589421D01*
X6142650Y-17449721D02*
X6142650Y-17589421D01*
X6072800Y-17519571D02*
X6212500Y-17519571D01*
D11*
X6578039Y-17611055D02*
X6463753Y-17611055D01*
X6520896Y-17611055D02*
X6520896Y-17411055D01*
X6520896Y-17411055D02*
X6501848Y-17439626D01*
X6501848Y-17439626D02*
X6482801Y-17458674D01*
X6482801Y-17458674D02*
X6463753Y-17468198D01*
X6663753Y-17592007D02*
X6673277Y-17601531D01*
X6673277Y-17601531D02*
X6663753Y-17611055D01*
X6663753Y-17611055D02*
X6654229Y-17601531D01*
X6654229Y-17601531D02*
X6663753Y-17592007D01*
X6663753Y-17592007D02*
X6663753Y-17611055D01*
X6739943Y-17411055D02*
X6863753Y-17411055D01*
X6863753Y-17411055D02*
X6797086Y-17487245D01*
X6797086Y-17487245D02*
X6825658Y-17487245D01*
X6825658Y-17487245D02*
X6844705Y-17496769D01*
X6844705Y-17496769D02*
X6854229Y-17506293D01*
X6854229Y-17506293D02*
X6863753Y-17525341D01*
X6863753Y-17525341D02*
X6863753Y-17572960D01*
X6863753Y-17572960D02*
X6854229Y-17592007D01*
X6854229Y-17592007D02*
X6844705Y-17601531D01*
X6844705Y-17601531D02*
X6825658Y-17611055D01*
X6825658Y-17611055D02*
X6768515Y-17611055D01*
X6768515Y-17611055D02*
X6749467Y-17601531D01*
X6749467Y-17601531D02*
X6739943Y-17592007D01*
X6958991Y-17611055D02*
X6997086Y-17611055D01*
X6997086Y-17611055D02*
X7016134Y-17601531D01*
X7016134Y-17601531D02*
X7025658Y-17592007D01*
X7025658Y-17592007D02*
X7044705Y-17563436D01*
X7044705Y-17563436D02*
X7054229Y-17525341D01*
X7054229Y-17525341D02*
X7054229Y-17449150D01*
X7054229Y-17449150D02*
X7044705Y-17430103D01*
X7044705Y-17430103D02*
X7035182Y-17420579D01*
X7035182Y-17420579D02*
X7016134Y-17411055D01*
X7016134Y-17411055D02*
X6978039Y-17411055D01*
X6978039Y-17411055D02*
X6958991Y-17420579D01*
X6958991Y-17420579D02*
X6949467Y-17430103D01*
X6949467Y-17430103D02*
X6939943Y-17449150D01*
X6939943Y-17449150D02*
X6939943Y-17496769D01*
X6939943Y-17496769D02*
X6949467Y-17515817D01*
X6949467Y-17515817D02*
X6958991Y-17525341D01*
X6958991Y-17525341D02*
X6978039Y-17534865D01*
X6978039Y-17534865D02*
X7016134Y-17534865D01*
X7016134Y-17534865D02*
X7035182Y-17525341D01*
X7035182Y-17525341D02*
X7044705Y-17515817D01*
X7044705Y-17515817D02*
X7054229Y-17496769D01*
X7120896Y-17411055D02*
X7254229Y-17411055D01*
X7254229Y-17411055D02*
X7168515Y-17611055D01*
X7330420Y-17611055D02*
X7330420Y-17477722D01*
X7330420Y-17496769D02*
X7339943Y-17487245D01*
X7339943Y-17487245D02*
X7358991Y-17477722D01*
X7358991Y-17477722D02*
X7387563Y-17477722D01*
X7387563Y-17477722D02*
X7406610Y-17487245D01*
X7406610Y-17487245D02*
X7416134Y-17506293D01*
X7416134Y-17506293D02*
X7416134Y-17611055D01*
X7416134Y-17506293D02*
X7425658Y-17487245D01*
X7425658Y-17487245D02*
X7444705Y-17477722D01*
X7444705Y-17477722D02*
X7473277Y-17477722D01*
X7473277Y-17477722D02*
X7492324Y-17487245D01*
X7492324Y-17487245D02*
X7501848Y-17506293D01*
X7501848Y-17506293D02*
X7501848Y-17611055D01*
X7597086Y-17611055D02*
X7597086Y-17477722D01*
X7597086Y-17496769D02*
X7606610Y-17487245D01*
X7606610Y-17487245D02*
X7625658Y-17477722D01*
X7625658Y-17477722D02*
X7654229Y-17477722D01*
X7654229Y-17477722D02*
X7673277Y-17487245D01*
X7673277Y-17487245D02*
X7682801Y-17506293D01*
X7682801Y-17506293D02*
X7682801Y-17611055D01*
X7682801Y-17506293D02*
X7692324Y-17487245D01*
X7692324Y-17487245D02*
X7711372Y-17477722D01*
X7711372Y-17477722D02*
X7739943Y-17477722D01*
X7739943Y-17477722D02*
X7758991Y-17487245D01*
X7758991Y-17487245D02*
X7768515Y-17506293D01*
X7768515Y-17506293D02*
X7768515Y-17611055D01*
X8158991Y-17401531D02*
X7987563Y-17658674D01*
X8416134Y-17411055D02*
X8435182Y-17411055D01*
X8435182Y-17411055D02*
X8454229Y-17420579D01*
X8454229Y-17420579D02*
X8463753Y-17430103D01*
X8463753Y-17430103D02*
X8473277Y-17449150D01*
X8473277Y-17449150D02*
X8482801Y-17487245D01*
X8482801Y-17487245D02*
X8482801Y-17534865D01*
X8482801Y-17534865D02*
X8473277Y-17572960D01*
X8473277Y-17572960D02*
X8463753Y-17592007D01*
X8463753Y-17592007D02*
X8454229Y-17601531D01*
X8454229Y-17601531D02*
X8435182Y-17611055D01*
X8435182Y-17611055D02*
X8416134Y-17611055D01*
X8416134Y-17611055D02*
X8397087Y-17601531D01*
X8397087Y-17601531D02*
X8387563Y-17592007D01*
X8387563Y-17592007D02*
X8378039Y-17572960D01*
X8378039Y-17572960D02*
X8368515Y-17534865D01*
X8368515Y-17534865D02*
X8368515Y-17487245D01*
X8368515Y-17487245D02*
X8378039Y-17449150D01*
X8378039Y-17449150D02*
X8387563Y-17430103D01*
X8387563Y-17430103D02*
X8397087Y-17420579D01*
X8397087Y-17420579D02*
X8416134Y-17411055D01*
X8568515Y-17592007D02*
X8578039Y-17601531D01*
X8578039Y-17601531D02*
X8568515Y-17611055D01*
X8568515Y-17611055D02*
X8558991Y-17601531D01*
X8558991Y-17601531D02*
X8568515Y-17592007D01*
X8568515Y-17592007D02*
X8568515Y-17611055D01*
X8701848Y-17411055D02*
X8720896Y-17411055D01*
X8720896Y-17411055D02*
X8739944Y-17420579D01*
X8739944Y-17420579D02*
X8749468Y-17430103D01*
X8749468Y-17430103D02*
X8758991Y-17449150D01*
X8758991Y-17449150D02*
X8768515Y-17487245D01*
X8768515Y-17487245D02*
X8768515Y-17534865D01*
X8768515Y-17534865D02*
X8758991Y-17572960D01*
X8758991Y-17572960D02*
X8749468Y-17592007D01*
X8749468Y-17592007D02*
X8739944Y-17601531D01*
X8739944Y-17601531D02*
X8720896Y-17611055D01*
X8720896Y-17611055D02*
X8701848Y-17611055D01*
X8701848Y-17611055D02*
X8682801Y-17601531D01*
X8682801Y-17601531D02*
X8673277Y-17592007D01*
X8673277Y-17592007D02*
X8663753Y-17572960D01*
X8663753Y-17572960D02*
X8654229Y-17534865D01*
X8654229Y-17534865D02*
X8654229Y-17487245D01*
X8654229Y-17487245D02*
X8663753Y-17449150D01*
X8663753Y-17449150D02*
X8673277Y-17430103D01*
X8673277Y-17430103D02*
X8682801Y-17420579D01*
X8682801Y-17420579D02*
X8701848Y-17411055D01*
X8949468Y-17411055D02*
X8854229Y-17411055D01*
X8854229Y-17411055D02*
X8844706Y-17506293D01*
X8844706Y-17506293D02*
X8854229Y-17496769D01*
X8854229Y-17496769D02*
X8873277Y-17487245D01*
X8873277Y-17487245D02*
X8920896Y-17487245D01*
X8920896Y-17487245D02*
X8939944Y-17496769D01*
X8939944Y-17496769D02*
X8949468Y-17506293D01*
X8949468Y-17506293D02*
X8958991Y-17525341D01*
X8958991Y-17525341D02*
X8958991Y-17572960D01*
X8958991Y-17572960D02*
X8949468Y-17592007D01*
X8949468Y-17592007D02*
X8939944Y-17601531D01*
X8939944Y-17601531D02*
X8920896Y-17611055D01*
X8920896Y-17611055D02*
X8873277Y-17611055D01*
X8873277Y-17611055D02*
X8854229Y-17601531D01*
X8854229Y-17601531D02*
X8844706Y-17592007D01*
X9139944Y-17411055D02*
X9044706Y-17411055D01*
X9044706Y-17411055D02*
X9035182Y-17506293D01*
X9035182Y-17506293D02*
X9044706Y-17496769D01*
X9044706Y-17496769D02*
X9063753Y-17487245D01*
X9063753Y-17487245D02*
X9111372Y-17487245D01*
X9111372Y-17487245D02*
X9130420Y-17496769D01*
X9130420Y-17496769D02*
X9139944Y-17506293D01*
X9139944Y-17506293D02*
X9149468Y-17525341D01*
X9149468Y-17525341D02*
X9149468Y-17572960D01*
X9149468Y-17572960D02*
X9139944Y-17592007D01*
X9139944Y-17592007D02*
X9130420Y-17601531D01*
X9130420Y-17601531D02*
X9111372Y-17611055D01*
X9111372Y-17611055D02*
X9063753Y-17611055D01*
X9063753Y-17611055D02*
X9044706Y-17601531D01*
X9044706Y-17601531D02*
X9035182Y-17592007D01*
X9273277Y-17411055D02*
X9292325Y-17411055D01*
X9292325Y-17411055D02*
X9311372Y-17420579D01*
X9311372Y-17420579D02*
X9320896Y-17430103D01*
X9320896Y-17430103D02*
X9330420Y-17449150D01*
X9330420Y-17449150D02*
X9339944Y-17487245D01*
X9339944Y-17487245D02*
X9339944Y-17534865D01*
X9339944Y-17534865D02*
X9330420Y-17572960D01*
X9330420Y-17572960D02*
X9320896Y-17592007D01*
X9320896Y-17592007D02*
X9311372Y-17601531D01*
X9311372Y-17601531D02*
X9292325Y-17611055D01*
X9292325Y-17611055D02*
X9273277Y-17611055D01*
X9273277Y-17611055D02*
X9254229Y-17601531D01*
X9254229Y-17601531D02*
X9244706Y-17592007D01*
X9244706Y-17592007D02*
X9235182Y-17572960D01*
X9235182Y-17572960D02*
X9225658Y-17534865D01*
X9225658Y-17534865D02*
X9225658Y-17487245D01*
X9225658Y-17487245D02*
X9235182Y-17449150D01*
X9235182Y-17449150D02*
X9244706Y-17430103D01*
X9244706Y-17430103D02*
X9254229Y-17420579D01*
X9254229Y-17420579D02*
X9273277Y-17411055D01*
X9416134Y-17411055D02*
X9416134Y-17449150D01*
X9492325Y-17411055D02*
X9492325Y-17449150D01*
X9787563Y-17687245D02*
X9778039Y-17677722D01*
X9778039Y-17677722D02*
X9758991Y-17649150D01*
X9758991Y-17649150D02*
X9749468Y-17630103D01*
X9749468Y-17630103D02*
X9739944Y-17601531D01*
X9739944Y-17601531D02*
X9730420Y-17553912D01*
X9730420Y-17553912D02*
X9730420Y-17515817D01*
X9730420Y-17515817D02*
X9739944Y-17468198D01*
X9739944Y-17468198D02*
X9749468Y-17439626D01*
X9749468Y-17439626D02*
X9758991Y-17420579D01*
X9758991Y-17420579D02*
X9778039Y-17392007D01*
X9778039Y-17392007D02*
X9787563Y-17382484D01*
X9949468Y-17477722D02*
X9949468Y-17611055D01*
X9901849Y-17401531D02*
X9854230Y-17544388D01*
X9854230Y-17544388D02*
X9978039Y-17544388D01*
X10206611Y-17611055D02*
X10206611Y-17411055D01*
X10292325Y-17611055D02*
X10292325Y-17506293D01*
X10292325Y-17506293D02*
X10282801Y-17487245D01*
X10282801Y-17487245D02*
X10263753Y-17477722D01*
X10263753Y-17477722D02*
X10235182Y-17477722D01*
X10235182Y-17477722D02*
X10216134Y-17487245D01*
X10216134Y-17487245D02*
X10206611Y-17496769D01*
X10416134Y-17611055D02*
X10397087Y-17601531D01*
X10397087Y-17601531D02*
X10387563Y-17592007D01*
X10387563Y-17592007D02*
X10378039Y-17572960D01*
X10378039Y-17572960D02*
X10378039Y-17515817D01*
X10378039Y-17515817D02*
X10387563Y-17496769D01*
X10387563Y-17496769D02*
X10397087Y-17487245D01*
X10397087Y-17487245D02*
X10416134Y-17477722D01*
X10416134Y-17477722D02*
X10444706Y-17477722D01*
X10444706Y-17477722D02*
X10463753Y-17487245D01*
X10463753Y-17487245D02*
X10473277Y-17496769D01*
X10473277Y-17496769D02*
X10482801Y-17515817D01*
X10482801Y-17515817D02*
X10482801Y-17572960D01*
X10482801Y-17572960D02*
X10473277Y-17592007D01*
X10473277Y-17592007D02*
X10463753Y-17601531D01*
X10463753Y-17601531D02*
X10444706Y-17611055D01*
X10444706Y-17611055D02*
X10416134Y-17611055D01*
X10597087Y-17611055D02*
X10578039Y-17601531D01*
X10578039Y-17601531D02*
X10568515Y-17582484D01*
X10568515Y-17582484D02*
X10568515Y-17411055D01*
X10749468Y-17601531D02*
X10730420Y-17611055D01*
X10730420Y-17611055D02*
X10692325Y-17611055D01*
X10692325Y-17611055D02*
X10673277Y-17601531D01*
X10673277Y-17601531D02*
X10663753Y-17582484D01*
X10663753Y-17582484D02*
X10663753Y-17506293D01*
X10663753Y-17506293D02*
X10673277Y-17487245D01*
X10673277Y-17487245D02*
X10692325Y-17477722D01*
X10692325Y-17477722D02*
X10730420Y-17477722D01*
X10730420Y-17477722D02*
X10749468Y-17487245D01*
X10749468Y-17487245D02*
X10758992Y-17506293D01*
X10758992Y-17506293D02*
X10758992Y-17525341D01*
X10758992Y-17525341D02*
X10663753Y-17544388D01*
X10835182Y-17601531D02*
X10854230Y-17611055D01*
X10854230Y-17611055D02*
X10892325Y-17611055D01*
X10892325Y-17611055D02*
X10911373Y-17601531D01*
X10911373Y-17601531D02*
X10920896Y-17582484D01*
X10920896Y-17582484D02*
X10920896Y-17572960D01*
X10920896Y-17572960D02*
X10911373Y-17553912D01*
X10911373Y-17553912D02*
X10892325Y-17544388D01*
X10892325Y-17544388D02*
X10863753Y-17544388D01*
X10863753Y-17544388D02*
X10844706Y-17534865D01*
X10844706Y-17534865D02*
X10835182Y-17515817D01*
X10835182Y-17515817D02*
X10835182Y-17506293D01*
X10835182Y-17506293D02*
X10844706Y-17487245D01*
X10844706Y-17487245D02*
X10863753Y-17477722D01*
X10863753Y-17477722D02*
X10892325Y-17477722D01*
X10892325Y-17477722D02*
X10911373Y-17487245D01*
X10987563Y-17687245D02*
X10997087Y-17677722D01*
X10997087Y-17677722D02*
X11016134Y-17649150D01*
X11016134Y-17649150D02*
X11025658Y-17630103D01*
X11025658Y-17630103D02*
X11035182Y-17601531D01*
X11035182Y-17601531D02*
X11044706Y-17553912D01*
X11044706Y-17553912D02*
X11044706Y-17515817D01*
X11044706Y-17515817D02*
X11035182Y-17468198D01*
X11035182Y-17468198D02*
X11025658Y-17439626D01*
X11025658Y-17439626D02*
X11016134Y-17420579D01*
X11016134Y-17420579D02*
X10997087Y-17392007D01*
X10997087Y-17392007D02*
X10987563Y-17382484D01*
D14*
X6060100Y-17707371D02*
X6212500Y-17859771D01*
X6212500Y-17707371D02*
X6060100Y-17859771D01*
X6190182Y-17837453D02*
X6190182Y-17729689D01*
X6082418Y-17729689D01*
X6082418Y-17837453D01*
X6190182Y-17837453D01*
D11*
X6578039Y-17875055D02*
X6463753Y-17875055D01*
X6520896Y-17875055D02*
X6520896Y-17675055D01*
X6520896Y-17675055D02*
X6501848Y-17703626D01*
X6501848Y-17703626D02*
X6482801Y-17722674D01*
X6482801Y-17722674D02*
X6463753Y-17732198D01*
X6663753Y-17856007D02*
X6673277Y-17865531D01*
X6673277Y-17865531D02*
X6663753Y-17875055D01*
X6663753Y-17875055D02*
X6654229Y-17865531D01*
X6654229Y-17865531D02*
X6663753Y-17856007D01*
X6663753Y-17856007D02*
X6663753Y-17875055D01*
X6854229Y-17675055D02*
X6758991Y-17675055D01*
X6758991Y-17675055D02*
X6749467Y-17770293D01*
X6749467Y-17770293D02*
X6758991Y-17760769D01*
X6758991Y-17760769D02*
X6778039Y-17751245D01*
X6778039Y-17751245D02*
X6825658Y-17751245D01*
X6825658Y-17751245D02*
X6844705Y-17760769D01*
X6844705Y-17760769D02*
X6854229Y-17770293D01*
X6854229Y-17770293D02*
X6863753Y-17789341D01*
X6863753Y-17789341D02*
X6863753Y-17836960D01*
X6863753Y-17836960D02*
X6854229Y-17856007D01*
X6854229Y-17856007D02*
X6844705Y-17865531D01*
X6844705Y-17865531D02*
X6825658Y-17875055D01*
X6825658Y-17875055D02*
X6778039Y-17875055D01*
X6778039Y-17875055D02*
X6758991Y-17865531D01*
X6758991Y-17865531D02*
X6749467Y-17856007D01*
X6939943Y-17694103D02*
X6949467Y-17684579D01*
X6949467Y-17684579D02*
X6968515Y-17675055D01*
X6968515Y-17675055D02*
X7016134Y-17675055D01*
X7016134Y-17675055D02*
X7035182Y-17684579D01*
X7035182Y-17684579D02*
X7044705Y-17694103D01*
X7044705Y-17694103D02*
X7054229Y-17713150D01*
X7054229Y-17713150D02*
X7054229Y-17732198D01*
X7054229Y-17732198D02*
X7044705Y-17760769D01*
X7044705Y-17760769D02*
X6930420Y-17875055D01*
X6930420Y-17875055D02*
X7054229Y-17875055D01*
X7225658Y-17741722D02*
X7225658Y-17875055D01*
X7178039Y-17665531D02*
X7130420Y-17808388D01*
X7130420Y-17808388D02*
X7254229Y-17808388D01*
X7330420Y-17875055D02*
X7330420Y-17741722D01*
X7330420Y-17760769D02*
X7339943Y-17751245D01*
X7339943Y-17751245D02*
X7358991Y-17741722D01*
X7358991Y-17741722D02*
X7387563Y-17741722D01*
X7387563Y-17741722D02*
X7406610Y-17751245D01*
X7406610Y-17751245D02*
X7416134Y-17770293D01*
X7416134Y-17770293D02*
X7416134Y-17875055D01*
X7416134Y-17770293D02*
X7425658Y-17751245D01*
X7425658Y-17751245D02*
X7444705Y-17741722D01*
X7444705Y-17741722D02*
X7473277Y-17741722D01*
X7473277Y-17741722D02*
X7492324Y-17751245D01*
X7492324Y-17751245D02*
X7501848Y-17770293D01*
X7501848Y-17770293D02*
X7501848Y-17875055D01*
X7597086Y-17875055D02*
X7597086Y-17741722D01*
X7597086Y-17760769D02*
X7606610Y-17751245D01*
X7606610Y-17751245D02*
X7625658Y-17741722D01*
X7625658Y-17741722D02*
X7654229Y-17741722D01*
X7654229Y-17741722D02*
X7673277Y-17751245D01*
X7673277Y-17751245D02*
X7682801Y-17770293D01*
X7682801Y-17770293D02*
X7682801Y-17875055D01*
X7682801Y-17770293D02*
X7692324Y-17751245D01*
X7692324Y-17751245D02*
X7711372Y-17741722D01*
X7711372Y-17741722D02*
X7739943Y-17741722D01*
X7739943Y-17741722D02*
X7758991Y-17751245D01*
X7758991Y-17751245D02*
X7768515Y-17770293D01*
X7768515Y-17770293D02*
X7768515Y-17875055D01*
X8158991Y-17665531D02*
X7987563Y-17922674D01*
X8416134Y-17675055D02*
X8435182Y-17675055D01*
X8435182Y-17675055D02*
X8454229Y-17684579D01*
X8454229Y-17684579D02*
X8463753Y-17694103D01*
X8463753Y-17694103D02*
X8473277Y-17713150D01*
X8473277Y-17713150D02*
X8482801Y-17751245D01*
X8482801Y-17751245D02*
X8482801Y-17798865D01*
X8482801Y-17798865D02*
X8473277Y-17836960D01*
X8473277Y-17836960D02*
X8463753Y-17856007D01*
X8463753Y-17856007D02*
X8454229Y-17865531D01*
X8454229Y-17865531D02*
X8435182Y-17875055D01*
X8435182Y-17875055D02*
X8416134Y-17875055D01*
X8416134Y-17875055D02*
X8397087Y-17865531D01*
X8397087Y-17865531D02*
X8387563Y-17856007D01*
X8387563Y-17856007D02*
X8378039Y-17836960D01*
X8378039Y-17836960D02*
X8368515Y-17798865D01*
X8368515Y-17798865D02*
X8368515Y-17751245D01*
X8368515Y-17751245D02*
X8378039Y-17713150D01*
X8378039Y-17713150D02*
X8387563Y-17694103D01*
X8387563Y-17694103D02*
X8397087Y-17684579D01*
X8397087Y-17684579D02*
X8416134Y-17675055D01*
X8568515Y-17856007D02*
X8578039Y-17865531D01*
X8578039Y-17865531D02*
X8568515Y-17875055D01*
X8568515Y-17875055D02*
X8558991Y-17865531D01*
X8558991Y-17865531D02*
X8568515Y-17856007D01*
X8568515Y-17856007D02*
X8568515Y-17875055D01*
X8701848Y-17675055D02*
X8720896Y-17675055D01*
X8720896Y-17675055D02*
X8739944Y-17684579D01*
X8739944Y-17684579D02*
X8749468Y-17694103D01*
X8749468Y-17694103D02*
X8758991Y-17713150D01*
X8758991Y-17713150D02*
X8768515Y-17751245D01*
X8768515Y-17751245D02*
X8768515Y-17798865D01*
X8768515Y-17798865D02*
X8758991Y-17836960D01*
X8758991Y-17836960D02*
X8749468Y-17856007D01*
X8749468Y-17856007D02*
X8739944Y-17865531D01*
X8739944Y-17865531D02*
X8720896Y-17875055D01*
X8720896Y-17875055D02*
X8701848Y-17875055D01*
X8701848Y-17875055D02*
X8682801Y-17865531D01*
X8682801Y-17865531D02*
X8673277Y-17856007D01*
X8673277Y-17856007D02*
X8663753Y-17836960D01*
X8663753Y-17836960D02*
X8654229Y-17798865D01*
X8654229Y-17798865D02*
X8654229Y-17751245D01*
X8654229Y-17751245D02*
X8663753Y-17713150D01*
X8663753Y-17713150D02*
X8673277Y-17694103D01*
X8673277Y-17694103D02*
X8682801Y-17684579D01*
X8682801Y-17684579D02*
X8701848Y-17675055D01*
X8939944Y-17675055D02*
X8901848Y-17675055D01*
X8901848Y-17675055D02*
X8882801Y-17684579D01*
X8882801Y-17684579D02*
X8873277Y-17694103D01*
X8873277Y-17694103D02*
X8854229Y-17722674D01*
X8854229Y-17722674D02*
X8844706Y-17760769D01*
X8844706Y-17760769D02*
X8844706Y-17836960D01*
X8844706Y-17836960D02*
X8854229Y-17856007D01*
X8854229Y-17856007D02*
X8863753Y-17865531D01*
X8863753Y-17865531D02*
X8882801Y-17875055D01*
X8882801Y-17875055D02*
X8920896Y-17875055D01*
X8920896Y-17875055D02*
X8939944Y-17865531D01*
X8939944Y-17865531D02*
X8949468Y-17856007D01*
X8949468Y-17856007D02*
X8958991Y-17836960D01*
X8958991Y-17836960D02*
X8958991Y-17789341D01*
X8958991Y-17789341D02*
X8949468Y-17770293D01*
X8949468Y-17770293D02*
X8939944Y-17760769D01*
X8939944Y-17760769D02*
X8920896Y-17751245D01*
X8920896Y-17751245D02*
X8882801Y-17751245D01*
X8882801Y-17751245D02*
X8863753Y-17760769D01*
X8863753Y-17760769D02*
X8854229Y-17770293D01*
X8854229Y-17770293D02*
X8844706Y-17789341D01*
X9082801Y-17675055D02*
X9101849Y-17675055D01*
X9101849Y-17675055D02*
X9120896Y-17684579D01*
X9120896Y-17684579D02*
X9130420Y-17694103D01*
X9130420Y-17694103D02*
X9139944Y-17713150D01*
X9139944Y-17713150D02*
X9149468Y-17751245D01*
X9149468Y-17751245D02*
X9149468Y-17798865D01*
X9149468Y-17798865D02*
X9139944Y-17836960D01*
X9139944Y-17836960D02*
X9130420Y-17856007D01*
X9130420Y-17856007D02*
X9120896Y-17865531D01*
X9120896Y-17865531D02*
X9101849Y-17875055D01*
X9101849Y-17875055D02*
X9082801Y-17875055D01*
X9082801Y-17875055D02*
X9063753Y-17865531D01*
X9063753Y-17865531D02*
X9054229Y-17856007D01*
X9054229Y-17856007D02*
X9044706Y-17836960D01*
X9044706Y-17836960D02*
X9035182Y-17798865D01*
X9035182Y-17798865D02*
X9035182Y-17751245D01*
X9035182Y-17751245D02*
X9044706Y-17713150D01*
X9044706Y-17713150D02*
X9054229Y-17694103D01*
X9054229Y-17694103D02*
X9063753Y-17684579D01*
X9063753Y-17684579D02*
X9082801Y-17675055D01*
X9273277Y-17675055D02*
X9292325Y-17675055D01*
X9292325Y-17675055D02*
X9311372Y-17684579D01*
X9311372Y-17684579D02*
X9320896Y-17694103D01*
X9320896Y-17694103D02*
X9330420Y-17713150D01*
X9330420Y-17713150D02*
X9339944Y-17751245D01*
X9339944Y-17751245D02*
X9339944Y-17798865D01*
X9339944Y-17798865D02*
X9330420Y-17836960D01*
X9330420Y-17836960D02*
X9320896Y-17856007D01*
X9320896Y-17856007D02*
X9311372Y-17865531D01*
X9311372Y-17865531D02*
X9292325Y-17875055D01*
X9292325Y-17875055D02*
X9273277Y-17875055D01*
X9273277Y-17875055D02*
X9254229Y-17865531D01*
X9254229Y-17865531D02*
X9244706Y-17856007D01*
X9244706Y-17856007D02*
X9235182Y-17836960D01*
X9235182Y-17836960D02*
X9225658Y-17798865D01*
X9225658Y-17798865D02*
X9225658Y-17751245D01*
X9225658Y-17751245D02*
X9235182Y-17713150D01*
X9235182Y-17713150D02*
X9244706Y-17694103D01*
X9244706Y-17694103D02*
X9254229Y-17684579D01*
X9254229Y-17684579D02*
X9273277Y-17675055D01*
X9416134Y-17675055D02*
X9416134Y-17713150D01*
X9492325Y-17675055D02*
X9492325Y-17713150D01*
X9787563Y-17951245D02*
X9778039Y-17941722D01*
X9778039Y-17941722D02*
X9758991Y-17913150D01*
X9758991Y-17913150D02*
X9749468Y-17894103D01*
X9749468Y-17894103D02*
X9739944Y-17865531D01*
X9739944Y-17865531D02*
X9730420Y-17817912D01*
X9730420Y-17817912D02*
X9730420Y-17779817D01*
X9730420Y-17779817D02*
X9739944Y-17732198D01*
X9739944Y-17732198D02*
X9749468Y-17703626D01*
X9749468Y-17703626D02*
X9758991Y-17684579D01*
X9758991Y-17684579D02*
X9778039Y-17656007D01*
X9778039Y-17656007D02*
X9787563Y-17646484D01*
X9949468Y-17741722D02*
X9949468Y-17875055D01*
X9901849Y-17665531D02*
X9854230Y-17808388D01*
X9854230Y-17808388D02*
X9978039Y-17808388D01*
X10139944Y-17675055D02*
X10101849Y-17675055D01*
X10101849Y-17675055D02*
X10082801Y-17684579D01*
X10082801Y-17684579D02*
X10073277Y-17694103D01*
X10073277Y-17694103D02*
X10054230Y-17722674D01*
X10054230Y-17722674D02*
X10044706Y-17760769D01*
X10044706Y-17760769D02*
X10044706Y-17836960D01*
X10044706Y-17836960D02*
X10054230Y-17856007D01*
X10054230Y-17856007D02*
X10063753Y-17865531D01*
X10063753Y-17865531D02*
X10082801Y-17875055D01*
X10082801Y-17875055D02*
X10120896Y-17875055D01*
X10120896Y-17875055D02*
X10139944Y-17865531D01*
X10139944Y-17865531D02*
X10149468Y-17856007D01*
X10149468Y-17856007D02*
X10158991Y-17836960D01*
X10158991Y-17836960D02*
X10158991Y-17789341D01*
X10158991Y-17789341D02*
X10149468Y-17770293D01*
X10149468Y-17770293D02*
X10139944Y-17760769D01*
X10139944Y-17760769D02*
X10120896Y-17751245D01*
X10120896Y-17751245D02*
X10082801Y-17751245D01*
X10082801Y-17751245D02*
X10063753Y-17760769D01*
X10063753Y-17760769D02*
X10054230Y-17770293D01*
X10054230Y-17770293D02*
X10044706Y-17789341D01*
X10397087Y-17875055D02*
X10397087Y-17675055D01*
X10482801Y-17875055D02*
X10482801Y-17770293D01*
X10482801Y-17770293D02*
X10473277Y-17751245D01*
X10473277Y-17751245D02*
X10454230Y-17741722D01*
X10454230Y-17741722D02*
X10425658Y-17741722D01*
X10425658Y-17741722D02*
X10406611Y-17751245D01*
X10406611Y-17751245D02*
X10397087Y-17760769D01*
X10606611Y-17875055D02*
X10587563Y-17865531D01*
X10587563Y-17865531D02*
X10578039Y-17856007D01*
X10578039Y-17856007D02*
X10568515Y-17836960D01*
X10568515Y-17836960D02*
X10568515Y-17779817D01*
X10568515Y-17779817D02*
X10578039Y-17760769D01*
X10578039Y-17760769D02*
X10587563Y-17751245D01*
X10587563Y-17751245D02*
X10606611Y-17741722D01*
X10606611Y-17741722D02*
X10635182Y-17741722D01*
X10635182Y-17741722D02*
X10654230Y-17751245D01*
X10654230Y-17751245D02*
X10663753Y-17760769D01*
X10663753Y-17760769D02*
X10673277Y-17779817D01*
X10673277Y-17779817D02*
X10673277Y-17836960D01*
X10673277Y-17836960D02*
X10663753Y-17856007D01*
X10663753Y-17856007D02*
X10654230Y-17865531D01*
X10654230Y-17865531D02*
X10635182Y-17875055D01*
X10635182Y-17875055D02*
X10606611Y-17875055D01*
X10787563Y-17875055D02*
X10768515Y-17865531D01*
X10768515Y-17865531D02*
X10758992Y-17846484D01*
X10758992Y-17846484D02*
X10758992Y-17675055D01*
X10939944Y-17865531D02*
X10920896Y-17875055D01*
X10920896Y-17875055D02*
X10882801Y-17875055D01*
X10882801Y-17875055D02*
X10863753Y-17865531D01*
X10863753Y-17865531D02*
X10854230Y-17846484D01*
X10854230Y-17846484D02*
X10854230Y-17770293D01*
X10854230Y-17770293D02*
X10863753Y-17751245D01*
X10863753Y-17751245D02*
X10882801Y-17741722D01*
X10882801Y-17741722D02*
X10920896Y-17741722D01*
X10920896Y-17741722D02*
X10939944Y-17751245D01*
X10939944Y-17751245D02*
X10949468Y-17770293D01*
X10949468Y-17770293D02*
X10949468Y-17789341D01*
X10949468Y-17789341D02*
X10854230Y-17808388D01*
X11025658Y-17865531D02*
X11044706Y-17875055D01*
X11044706Y-17875055D02*
X11082801Y-17875055D01*
X11082801Y-17875055D02*
X11101849Y-17865531D01*
X11101849Y-17865531D02*
X11111373Y-17846484D01*
X11111373Y-17846484D02*
X11111373Y-17836960D01*
X11111373Y-17836960D02*
X11101849Y-17817912D01*
X11101849Y-17817912D02*
X11082801Y-17808388D01*
X11082801Y-17808388D02*
X11054230Y-17808388D01*
X11054230Y-17808388D02*
X11035182Y-17798865D01*
X11035182Y-17798865D02*
X11025658Y-17779817D01*
X11025658Y-17779817D02*
X11025658Y-17770293D01*
X11025658Y-17770293D02*
X11035182Y-17751245D01*
X11035182Y-17751245D02*
X11054230Y-17741722D01*
X11054230Y-17741722D02*
X11082801Y-17741722D01*
X11082801Y-17741722D02*
X11101849Y-17751245D01*
X11178039Y-17951245D02*
X11187563Y-17941722D01*
X11187563Y-17941722D02*
X11206611Y-17913150D01*
X11206611Y-17913150D02*
X11216134Y-17894103D01*
X11216134Y-17894103D02*
X11225658Y-17865531D01*
X11225658Y-17865531D02*
X11235182Y-17817912D01*
X11235182Y-17817912D02*
X11235182Y-17779817D01*
X11235182Y-17779817D02*
X11225658Y-17732198D01*
X11225658Y-17732198D02*
X11216134Y-17703626D01*
X11216134Y-17703626D02*
X11206611Y-17684579D01*
X11206611Y-17684579D02*
X11187563Y-17656007D01*
X11187563Y-17656007D02*
X11178039Y-17646484D01*
M02*
