M48
; DRILL file {KiCad 8.0.2} date 2024-10-11T16:26:52+0200
; FORMAT={-:-/ absolute / metric / decimal}
; #@! TF.CreationDate,2024-10-11T16:26:52+02:00
; #@! TF.GenerationSoftware,Kicad,Pcbnew,8.0.2
; #@! TF.FileFunction,Plated,1,4,PTH
FMAT,2
METRIC
; #@! TA.AperFunction,Plated,PTH,ViaDrill
T1C0.300
; #@! TA.AperFunction,Plated,PTH,ComponentDrill
T2C0.600
; #@! TA.AperFunction,Plated,PTH,ComponentDrill
T3C0.800
; #@! TA.AperFunction,Plated,PTH,ComponentDrill
T4C0.889
; #@! TA.AperFunction,Plated,PTH,ComponentDrill
T5C0.900
; #@! TA.AperFunction,Plated,PTH,ComponentDrill
T6C0.950
; #@! TA.AperFunction,Plated,PTH,ComponentDrill
T7C1.397
; #@! TA.AperFunction,Plated,PTH,ComponentDrill
T8C1.524
%
G90
G05
T1
X65.0Y-73.0
X69.565Y-113.404
X74.0Y-102.0
X74.875Y-109.375
X75.0Y-106.0
X78.0Y-103.0
X82.0Y-111.0
X85.0Y-33.5
X88.5Y-111.0
X105.0Y-33.0
X105.666Y-54.768
X105.744Y-92.881
X105.956Y-72.358
X109.0Y-104.5
X113.0Y-111.5
X114.0Y-110.5
X114.5Y-106.607
X114.932Y-109.986
X115.48Y-109.384
X116.5Y-107.5
X121.0Y-105.0
X121.0Y-114.5
X121.627Y-72.358
X123.051Y-54.768
X123.147Y-92.881
X126.547Y-114.052
X130.5Y-111.0
X136.5Y-113.452
X137.5Y-111.0
X141.0Y-94.5
X158.0Y-127.5
X184.57Y-95.057
X194.0Y-42.5
X201.554Y-80.724
X203.5Y-39.5
X207.0Y-46.5
T3
X65.0Y-77.42
X65.0Y-87.58
X82.0Y-114.0
X87.0Y-114.0
X92.0Y-109.0
X92.0Y-114.0
X94.696Y-103.0
X97.196Y-103.0
X102.5Y-99.5
X102.5Y-104.5
X102.5Y-108.5
X102.5Y-113.5
X118.0Y-98.0
X123.0Y-98.0
X123.0Y-107.5
X124.5Y-102.75
X124.5Y-105.25
X124.5Y-111.75
X124.5Y-114.25
X128.0Y-107.5
X129.5Y-97.5
X133.5Y-106.05
X133.5Y-110.93
X134.5Y-97.5
X143.5Y-124.0
X143.5Y-129.0
X149.5Y-124.5
X149.5Y-129.5
X169.92Y-130.5
X180.08Y-130.5
T4
X206.445Y-121.625
X208.985Y-121.605
X211.525Y-121.625
X217.89Y-133.04
X217.905Y-127.975
X217.905Y-130.515
T5
X205.815Y-136.355
X205.825Y-141.295
X212.175Y-136.375
X212.175Y-141.315
T6
X92.25Y-33.475
X94.75Y-33.475
X97.25Y-33.475
X99.75Y-33.475
T7
X202.65Y-125.42
X202.65Y-135.58
X215.35Y-125.435
X215.35Y-135.565
T8
X72.19Y-45.96
X72.19Y-65.46
X72.19Y-84.96
X78.54Y-43.42
X78.54Y-62.92
X78.54Y-82.42
X91.69Y-45.96
X91.69Y-65.46
X91.69Y-84.96
X98.04Y-43.42
X98.04Y-62.92
X98.04Y-82.42
X111.19Y-42.96
X111.19Y-62.46
X111.19Y-81.96
X117.54Y-40.42
X117.54Y-59.92
X117.54Y-79.42
X130.69Y-39.46
X130.69Y-58.96
X130.69Y-78.46
X137.04Y-36.92
X137.04Y-56.42
X137.04Y-75.92
X150.19Y-39.46
X150.19Y-58.96
X150.19Y-78.96
X150.19Y-104.96
X156.54Y-36.92
X156.54Y-56.42
X156.54Y-76.42
X156.54Y-102.42
X169.69Y-45.46
X169.69Y-64.96
X169.69Y-84.46
X176.04Y-42.92
X176.04Y-62.42
X176.04Y-81.92
X177.19Y-112.96
X183.54Y-110.42
X189.19Y-53.46
X189.19Y-72.96
X189.19Y-92.46
X195.54Y-50.92
X195.54Y-70.42
X195.54Y-89.92
T2
X63.25Y-99.18G85X64.45Y-99.18
G05
X63.25Y-107.82G85X64.45Y-107.82
G05
X67.45Y-99.18G85X68.25Y-99.18
G05
X67.45Y-107.82G85X68.25Y-107.82
G05
M30
