%TF.GenerationSoftware,KiCad,Pcbnew,8.0.2*%
%TF.CreationDate,2024-10-11T16:26:55+02:00*%
%TF.ProjectId,duo_board,64756f5f-626f-4617-9264-2e6b69636164,rev?*%
%TF.SameCoordinates,Original*%
%TF.FileFunction,Copper,L4,Bot*%
%TF.FilePolarity,Positive*%
%FSLAX46Y46*%
G04 Gerber Fmt 4.6, Leading zero omitted, Abs format (unit mm)*
G04 Created by KiCad (PCBNEW 8.0.2) date 2024-10-11 16:26:55*
%MOMM*%
%LPD*%
G01*
G04 APERTURE LIST*
G04 Aperture macros list*
%AMRoundRect*
0 Rectangle with rounded corners*
0 $1 Rounding radius*
0 $2 $3 $4 $5 $6 $7 $8 $9 X,Y pos of 4 corners*
0 Add a 4 corners polygon primitive as box body*
4,1,4,$2,$3,$4,$5,$6,$7,$8,$9,$2,$3,0*
0 Add four circle primitives for the rounded corners*
1,1,$1+$1,$2,$3*
1,1,$1+$1,$4,$5*
1,1,$1+$1,$6,$7*
1,1,$1+$1,$8,$9*
0 Add four rect primitives between the rounded corners*
20,1,$1+$1,$2,$3,$4,$5,0*
20,1,$1+$1,$4,$5,$6,$7,0*
20,1,$1+$1,$6,$7,$8,$9,0*
20,1,$1+$1,$8,$9,$2,$3,0*%
G04 Aperture macros list end*
%TA.AperFunction,ComponentPad*%
%ADD10C,1.500000*%
%TD*%
%TA.AperFunction,ComponentPad*%
%ADD11C,1.600000*%
%TD*%
%TA.AperFunction,ComponentPad*%
%ADD12O,1.600000X1.600000*%
%TD*%
%TA.AperFunction,ComponentPad*%
%ADD13R,1.600000X1.600000*%
%TD*%
%TA.AperFunction,ComponentPad*%
%ADD14C,2.300000*%
%TD*%
%TA.AperFunction,ComponentPad*%
%ADD15RoundRect,0.250000X-0.600000X-0.725000X0.600000X-0.725000X0.600000X0.725000X-0.600000X0.725000X0*%
%TD*%
%TA.AperFunction,ComponentPad*%
%ADD16O,1.700000X1.950000*%
%TD*%
%TA.AperFunction,SMDPad,CuDef*%
%ADD17R,1.498600X2.006600*%
%TD*%
%TA.AperFunction,SMDPad,CuDef*%
%ADD18R,1.498600X2.590800*%
%TD*%
%TA.AperFunction,SMDPad,CuDef*%
%ADD19RoundRect,0.250000X0.650000X-1.000000X0.650000X1.000000X-0.650000X1.000000X-0.650000X-1.000000X0*%
%TD*%
%TA.AperFunction,SMDPad,CuDef*%
%ADD20R,1.150000X0.590000*%
%TD*%
%TA.AperFunction,SMDPad,CuDef*%
%ADD21R,1.150000X0.298000*%
%TD*%
%TA.AperFunction,ComponentPad*%
%ADD22O,2.200000X1.000000*%
%TD*%
%TA.AperFunction,ComponentPad*%
%ADD23O,1.800000X1.000000*%
%TD*%
%TA.AperFunction,SMDPad,CuDef*%
%ADD24RoundRect,0.075000X0.662500X0.075000X-0.662500X0.075000X-0.662500X-0.075000X0.662500X-0.075000X0*%
%TD*%
%TA.AperFunction,SMDPad,CuDef*%
%ADD25RoundRect,0.075000X0.075000X0.662500X-0.075000X0.662500X-0.075000X-0.662500X0.075000X-0.662500X0*%
%TD*%
%TA.AperFunction,ComponentPad*%
%ADD26C,1.778000*%
%TD*%
%TA.AperFunction,ComponentPad*%
%ADD27C,2.286000*%
%TD*%
%TA.AperFunction,ViaPad*%
%ADD28C,0.600000*%
%TD*%
%TA.AperFunction,Conductor*%
%ADD29C,0.200000*%
%TD*%
G04 APERTURE END LIST*
D10*
%TO.P,Y1,1,1*%
%TO.N,/HSE_IN*%
X133500000Y-106050000D03*
%TO.P,Y1,2,2*%
%TO.N,/HSE_OUT*%
X133500000Y-110930000D03*
%TD*%
D11*
%TO.P,R2,1*%
%TO.N,Net-(D24-K)*%
X169920000Y-130500000D03*
D12*
%TO.P,R2,2*%
%TO.N,GND*%
X180080000Y-130500000D03*
%TD*%
D11*
%TO.P,R1,1*%
%TO.N,+3.3V*%
X65000000Y-77420000D03*
D12*
%TO.P,R1,2*%
%TO.N,/USB_D+*%
X65000000Y-87580000D03*
%TD*%
D11*
%TO.P,C12,1*%
%TO.N,GND*%
X92000000Y-114000000D03*
%TO.P,C12,2*%
%TO.N,+5V*%
X92000000Y-109000000D03*
%TD*%
%TO.P,C11,1*%
%TO.N,+3.3V*%
X82000000Y-114000000D03*
%TO.P,C11,2*%
%TO.N,GND*%
X87000000Y-114000000D03*
%TD*%
%TO.P,C10,1*%
%TO.N,/HSE_OUT*%
X124500000Y-111750000D03*
%TO.P,C10,2*%
%TO.N,GND*%
X124500000Y-114250000D03*
%TD*%
%TO.P,C9,1*%
%TO.N,GND*%
X124500000Y-102750000D03*
%TO.P,C9,2*%
%TO.N,/HSE_IN*%
X124500000Y-105250000D03*
%TD*%
%TO.P,C8,1*%
%TO.N,/NRST*%
X149500000Y-129500000D03*
%TO.P,C8,2*%
%TO.N,GND*%
X149500000Y-124500000D03*
%TD*%
%TO.P,C7,1*%
%TO.N,+3.3V*%
X143500000Y-129000000D03*
%TO.P,C7,2*%
%TO.N,GND*%
X143500000Y-124000000D03*
%TD*%
%TO.P,C6,1*%
%TO.N,+3.3V*%
X134500000Y-97500000D03*
%TO.P,C6,2*%
%TO.N,GND*%
X129500000Y-97500000D03*
%TD*%
D13*
%TO.P,C5,1*%
%TO.N,+3.3V*%
X97196400Y-103000000D03*
D11*
%TO.P,C5,2*%
%TO.N,GND*%
X94696400Y-103000000D03*
%TD*%
%TO.P,C4,1*%
%TO.N,+3.3V*%
X118000000Y-98000000D03*
%TO.P,C4,2*%
%TO.N,GND*%
X123000000Y-98000000D03*
%TD*%
%TO.P,C3,1*%
%TO.N,+3.3V*%
X102500000Y-104500000D03*
%TO.P,C3,2*%
%TO.N,GND*%
X102500000Y-99500000D03*
%TD*%
%TO.P,C2,1*%
%TO.N,+3.3V*%
X123000000Y-107500000D03*
%TO.P,C2,2*%
%TO.N,GND*%
X128000000Y-107500000D03*
%TD*%
%TO.P,C1,1*%
%TO.N,+3.3V*%
X102500000Y-113500000D03*
%TO.P,C1,2*%
%TO.N,GND*%
X102500000Y-108500000D03*
%TD*%
D14*
%TO.P,MX16,1,1*%
%TO.N,COL1*%
X91690000Y-84960000D03*
%TO.P,MX16,2,2*%
%TO.N,Net-(D16-A)*%
X98040000Y-82420000D03*
%TD*%
%TO.P,MX4,1,1*%
%TO.N,COL3*%
X130690000Y-39460000D03*
%TO.P,MX4,2,2*%
%TO.N,Net-(D4-A)*%
X137040000Y-36920000D03*
%TD*%
%TO.P,MX18,1,1*%
%TO.N,COL3*%
X130690000Y-78460000D03*
%TO.P,MX18,2,2*%
%TO.N,Net-(D18-A)*%
X137040000Y-75920000D03*
%TD*%
%TO.P,MX13,1,1*%
%TO.N,COL5*%
X169690000Y-64960000D03*
%TO.P,MX13,2,2*%
%TO.N,Net-(D13-A)*%
X176040000Y-62420000D03*
%TD*%
%TO.P,MX9,1,1*%
%TO.N,COL1*%
X91690000Y-65460000D03*
%TO.P,MX9,2,2*%
%TO.N,Net-(D9-A)*%
X98040000Y-62920000D03*
%TD*%
%TO.P,MX6,1,1*%
%TO.N,COL5*%
X169690000Y-45460000D03*
%TO.P,MX6,2,2*%
%TO.N,Net-(D6-A)*%
X176040000Y-42920000D03*
%TD*%
%TO.P,MX22,1,1*%
%TO.N,COL4*%
X150190000Y-104960000D03*
%TO.P,MX22,2,2*%
%TO.N,Net-(D22-A)*%
X156540000Y-102420000D03*
%TD*%
%TO.P,MX21,1,1*%
%TO.N,COL6*%
X189190000Y-92460000D03*
%TO.P,MX21,2,2*%
%TO.N,Net-(D21-A)*%
X195540000Y-89920000D03*
%TD*%
%TO.P,MX3,1,1*%
%TO.N,COL2*%
X111190000Y-42960000D03*
%TO.P,MX3,2,2*%
%TO.N,Net-(D3-A)*%
X117540000Y-40420000D03*
%TD*%
%TO.P,MX23,1,1*%
%TO.N,COL5*%
X177190000Y-112960000D03*
%TO.P,MX23,2,2*%
%TO.N,Net-(D23-A)*%
X183540000Y-110420000D03*
%TD*%
%TO.P,MX17,1,1*%
%TO.N,COL2*%
X111190000Y-81960000D03*
%TO.P,MX17,2,2*%
%TO.N,Net-(D17-A)*%
X117540000Y-79420000D03*
%TD*%
%TO.P,MX1,1,1*%
%TO.N,COL0*%
X72190000Y-45960000D03*
%TO.P,MX1,2,2*%
%TO.N,Net-(D1-A)*%
X78540000Y-43420000D03*
%TD*%
%TO.P,MX2,1,1*%
%TO.N,COL1*%
X91690000Y-45960000D03*
%TO.P,MX2,2,2*%
%TO.N,Net-(D2-A)*%
X98040000Y-43420000D03*
%TD*%
%TO.P,MX20,1,1*%
%TO.N,COL5*%
X169690000Y-84460000D03*
%TO.P,MX20,2,2*%
%TO.N,Net-(D20-A)*%
X176040000Y-81920000D03*
%TD*%
%TO.P,MX11,1,1*%
%TO.N,COL3*%
X130690000Y-58960000D03*
%TO.P,MX11,2,2*%
%TO.N,Net-(D11-A)*%
X137040000Y-56420000D03*
%TD*%
%TO.P,MX14,1,1*%
%TO.N,COL6*%
X189190000Y-72960000D03*
%TO.P,MX14,2,2*%
%TO.N,Net-(D14-A)*%
X195540000Y-70420000D03*
%TD*%
%TO.P,MX7,1,1*%
%TO.N,COL6*%
X189190000Y-53460000D03*
%TO.P,MX7,2,2*%
%TO.N,Net-(D7-A)*%
X195540000Y-50920000D03*
%TD*%
D15*
%TO.P,J3,1,Pin_1*%
%TO.N,GND*%
X92250000Y-33475000D03*
D16*
%TO.P,J3,2,Pin_2*%
%TO.N,/SWCLK*%
X94750000Y-33475000D03*
%TO.P,J3,3,Pin_3*%
%TO.N,/SWDIO*%
X97250000Y-33475000D03*
%TO.P,J3,4,Pin_4*%
%TO.N,+3.3V*%
X99750000Y-33475000D03*
%TD*%
D14*
%TO.P,MX5,1,1*%
%TO.N,COL4*%
X150190000Y-39460000D03*
%TO.P,MX5,2,2*%
%TO.N,Net-(D5-A)*%
X156540000Y-36920000D03*
%TD*%
%TO.P,MX19,1,1*%
%TO.N,COL4*%
X150190000Y-78960000D03*
%TO.P,MX19,2,2*%
%TO.N,Net-(D19-A)*%
X156540000Y-76420000D03*
%TD*%
%TO.P,MX12,1,1*%
%TO.N,COL4*%
X150190000Y-58960000D03*
%TO.P,MX12,2,2*%
%TO.N,Net-(D12-A)*%
X156540000Y-56420000D03*
%TD*%
%TO.P,MX10,1,1*%
%TO.N,COL2*%
X111190000Y-62460000D03*
%TO.P,MX10,2,2*%
%TO.N,Net-(D10-A)*%
X117540000Y-59920000D03*
%TD*%
%TO.P,MX8,1,1*%
%TO.N,COL0*%
X72190000Y-65460000D03*
%TO.P,MX8,2,2*%
%TO.N,Net-(D8-A)*%
X78540000Y-62920000D03*
%TD*%
%TO.P,MX15,1,1*%
%TO.N,COL0*%
X72190000Y-84960000D03*
%TO.P,MX15,2,2*%
%TO.N,Net-(D15-A)*%
X78540000Y-82420000D03*
%TD*%
D17*
%TO.P,J1,7,7*%
%TO.N,+3.3V*%
X197996200Y-42606800D03*
%TO.P,J1,6,6*%
X203482600Y-42606800D03*
%TO.P,J1,5,5*%
%TO.N,GND*%
X206784600Y-42606800D03*
D18*
%TO.P,J1,4,4*%
%TO.N,USART1_TX*%
X197462800Y-35698000D03*
D17*
%TO.P,J1,3,3*%
X199774200Y-35393200D03*
%TO.P,J1,2,2*%
%TO.N,USART1_RX*%
X206784600Y-35393200D03*
%TD*%
D19*
%TO.P,D14,1,K*%
%TO.N,ROW1*%
X200620000Y-82500000D03*
%TO.P,D14,2,A*%
%TO.N,Net-(D14-A)*%
X200620000Y-78500000D03*
%TD*%
%TO.P,D7,1,K*%
%TO.N,ROW0*%
X200540000Y-63500000D03*
%TO.P,D7,2,A*%
%TO.N,Net-(D7-A)*%
X200540000Y-59500000D03*
%TD*%
D20*
%TO.P,J2,A1B12,GND1*%
%TO.N,unconnected-(J2-GND1-PadA1B12)*%
X68425000Y-106700000D03*
%TO.P,J2,A4B9,VBUS1*%
%TO.N,+5V*%
X68425000Y-105900000D03*
D21*
%TO.P,J2,A5,CC1*%
%TO.N,unconnected-(J2-CC1-PadA5)*%
X68425000Y-104750000D03*
%TO.P,J2,A6,DP1*%
%TO.N,/USB_D+*%
X68425000Y-103750000D03*
%TO.P,J2,A7,DN1*%
%TO.N,/USB_D-*%
X68425000Y-103250000D03*
%TO.P,J2,A8,SBU1*%
%TO.N,unconnected-(J2-SBU1-PadA8)*%
X68425000Y-102250000D03*
D20*
%TO.P,J2,B1A12,GND2*%
%TO.N,GND*%
X68425000Y-100300000D03*
%TO.P,J2,B4A9,VBUS2*%
%TO.N,unconnected-(J2-VBUS2-PadB4A9)*%
X68425000Y-101100000D03*
D21*
%TO.P,J2,B5,CC2*%
%TO.N,unconnected-(J2-CC2-PadB5)*%
X68425000Y-101750000D03*
%TO.P,J2,B6,DP2*%
%TO.N,unconnected-(J2-DP2-PadB6)*%
X68425000Y-102750000D03*
%TO.P,J2,B7,DN2*%
%TO.N,unconnected-(J2-DN2-PadB7)*%
X68425000Y-104250000D03*
%TO.P,J2,B8,SBU2*%
%TO.N,unconnected-(J2-SBU2-PadB8)*%
X68425000Y-105250000D03*
D22*
%TO.P,J2,SH1,SHIELD1*%
%TO.N,unconnected-(J2-SHIELD1-PadSH1)*%
X63850000Y-107820000D03*
%TO.P,J2,SH2,SHIELD2*%
%TO.N,unconnected-(J2-SHIELD2-PadSH2)*%
X63850000Y-99180000D03*
D23*
%TO.P,J2,SH3,SHIELD3*%
%TO.N,unconnected-(J2-SHIELD3-PadSH3)*%
X67850000Y-107820000D03*
%TO.P,J2,SH4,SHIELD4*%
%TO.N,unconnected-(J2-SHIELD4-PadSH4)*%
X67850000Y-99180000D03*
%TD*%
D19*
%TO.P,D20,1,K*%
%TO.N,ROW2*%
X182120000Y-93500000D03*
%TO.P,D20,2,A*%
%TO.N,Net-(D20-A)*%
X182120000Y-89500000D03*
%TD*%
%TO.P,D12,1,K*%
%TO.N,ROW1*%
X162540000Y-71580000D03*
%TO.P,D12,2,A*%
%TO.N,Net-(D12-A)*%
X162540000Y-67580000D03*
%TD*%
%TO.P,D21,1,K*%
%TO.N,ROW2*%
X201620000Y-101000000D03*
%TO.P,D21,2,A*%
%TO.N,Net-(D21-A)*%
X201620000Y-97000000D03*
%TD*%
%TO.P,D8,1,K*%
%TO.N,ROW1*%
X83960000Y-74000000D03*
%TO.P,D8,2,A*%
%TO.N,Net-(D8-A)*%
X83960000Y-70000000D03*
%TD*%
%TO.P,D19,1,K*%
%TO.N,ROW2*%
X162620000Y-89000000D03*
%TO.P,D19,2,A*%
%TO.N,Net-(D19-A)*%
X162620000Y-85000000D03*
%TD*%
%TO.P,D10,1,K*%
%TO.N,ROW1*%
X123040000Y-71580000D03*
%TO.P,D10,2,A*%
%TO.N,Net-(D10-A)*%
X123040000Y-67580000D03*
%TD*%
D24*
%TO.P,U1,1,VBAT*%
%TO.N,+3.3V*%
X119162500Y-106250000D03*
%TO.P,U1,2,PC13*%
%TO.N,unconnected-(U1-PC13-Pad2)*%
X119162500Y-106750000D03*
%TO.P,U1,3,PC14*%
%TO.N,unconnected-(U1-PC14-Pad3)*%
X119162500Y-107250000D03*
%TO.P,U1,4,PC15*%
%TO.N,unconnected-(U1-PC15-Pad4)*%
X119162500Y-107750000D03*
%TO.P,U1,5,PD0*%
%TO.N,/HSE_IN*%
X119162500Y-108250000D03*
%TO.P,U1,6,PD1*%
%TO.N,/HSE_OUT*%
X119162500Y-108750000D03*
%TO.P,U1,7,NRST*%
%TO.N,/NRST*%
X119162500Y-109250000D03*
%TO.P,U1,8,VSSA*%
%TO.N,GND*%
X119162500Y-109750000D03*
%TO.P,U1,9,VDDA*%
%TO.N,+3.3V*%
X119162500Y-110250000D03*
%TO.P,U1,10,PA0*%
%TO.N,unconnected-(U1-PA0-Pad10)*%
X119162500Y-110750000D03*
%TO.P,U1,11,PA1*%
%TO.N,unconnected-(U1-PA1-Pad11)*%
X119162500Y-111250000D03*
%TO.P,U1,12,PA2*%
%TO.N,unconnected-(U1-PA2-Pad12)*%
X119162500Y-111750000D03*
D25*
%TO.P,U1,13,PA3*%
%TO.N,unconnected-(U1-PA3-Pad13)*%
X117750000Y-113162500D03*
%TO.P,U1,14,PA4*%
%TO.N,unconnected-(U1-PA4-Pad14)*%
X117250000Y-113162500D03*
%TO.P,U1,15,PA5*%
%TO.N,unconnected-(U1-PA5-Pad15)*%
X116750000Y-113162500D03*
%TO.P,U1,16,PA6*%
%TO.N,unconnected-(U1-PA6-Pad16)*%
X116250000Y-113162500D03*
%TO.P,U1,17,PA7*%
%TO.N,unconnected-(U1-PA7-Pad17)*%
X115750000Y-113162500D03*
%TO.P,U1,18,PB0*%
%TO.N,/X_AXIS*%
X115250000Y-113162500D03*
%TO.P,U1,19,PB1*%
%TO.N,/Y_AXIS*%
X114750000Y-113162500D03*
%TO.P,U1,20,PB2*%
%TO.N,unconnected-(U1-PB2-Pad20)*%
X114250000Y-113162500D03*
%TO.P,U1,21,PB10*%
%TO.N,unconnected-(U1-PB10-Pad21)*%
X113750000Y-113162500D03*
%TO.P,U1,22,PB11*%
%TO.N,unconnected-(U1-PB11-Pad22)*%
X113250000Y-113162500D03*
%TO.P,U1,23,VSS*%
%TO.N,GND*%
X112750000Y-113162500D03*
%TO.P,U1,24,VDD*%
%TO.N,+3.3V*%
X112250000Y-113162500D03*
D24*
%TO.P,U1,25,PB12*%
%TO.N,unconnected-(U1-PB12-Pad25)*%
X110837500Y-111750000D03*
%TO.P,U1,26,PB13*%
%TO.N,unconnected-(U1-PB13-Pad26)*%
X110837500Y-111250000D03*
%TO.P,U1,27,PB14*%
%TO.N,unconnected-(U1-PB14-Pad27)*%
X110837500Y-110750000D03*
%TO.P,U1,28,PB15*%
%TO.N,/BTN_PIN*%
X110837500Y-110250000D03*
%TO.P,U1,29,PA8*%
%TO.N,unconnected-(U1-PA8-Pad29)*%
X110837500Y-109750000D03*
%TO.P,U1,30,PA9*%
%TO.N,USART1_TX*%
X110837500Y-109250000D03*
%TO.P,U1,31,PA10*%
%TO.N,USART1_RX*%
X110837500Y-108750000D03*
%TO.P,U1,32,PA11*%
%TO.N,/USB_D-*%
X110837500Y-108250000D03*
%TO.P,U1,33,PA12*%
%TO.N,/USB_D+*%
X110837500Y-107750000D03*
%TO.P,U1,34,PA13*%
%TO.N,/SWDIO*%
X110837500Y-107250000D03*
%TO.P,U1,35,VSS*%
%TO.N,GND*%
X110837500Y-106750000D03*
%TO.P,U1,36,VDD*%
%TO.N,+3.3V*%
X110837500Y-106250000D03*
D25*
%TO.P,U1,37,PA14*%
%TO.N,/SWCLK*%
X112250000Y-104837500D03*
%TO.P,U1,38,PA15*%
%TO.N,unconnected-(U1-PA15-Pad38)*%
X112750000Y-104837500D03*
%TO.P,U1,39,PB3*%
%TO.N,unconnected-(U1-PB3-Pad39)*%
X113250000Y-104837500D03*
%TO.P,U1,40,PB4*%
%TO.N,unconnected-(U1-PB4-Pad40)*%
X113750000Y-104837500D03*
%TO.P,U1,41,PB5*%
%TO.N,unconnected-(U1-PB5-Pad41)*%
X114250000Y-104837500D03*
%TO.P,U1,42,PB6*%
%TO.N,unconnected-(U1-PB6-Pad42)*%
X114750000Y-104837500D03*
%TO.P,U1,43,PB7*%
%TO.N,unconnected-(U1-PB7-Pad43)*%
X115250000Y-104837500D03*
%TO.P,U1,44,BOOT0*%
%TO.N,GND*%
X115750000Y-104837500D03*
%TO.P,U1,45,PB8*%
%TO.N,unconnected-(U1-PB8-Pad45)*%
X116250000Y-104837500D03*
%TO.P,U1,46,PB9*%
%TO.N,unconnected-(U1-PB9-Pad46)*%
X116750000Y-104837500D03*
%TO.P,U1,47,VSS*%
%TO.N,GND*%
X117250000Y-104837500D03*
%TO.P,U1,48,VDD*%
%TO.N,+3.3V*%
X117750000Y-104837500D03*
%TD*%
D19*
%TO.P,D17,1,K*%
%TO.N,ROW2*%
X123620000Y-90500000D03*
%TO.P,D17,2,A*%
%TO.N,Net-(D17-A)*%
X123620000Y-86500000D03*
%TD*%
%TO.P,D5,1,K*%
%TO.N,ROW0*%
X162040000Y-52500000D03*
%TO.P,D5,2,A*%
%TO.N,Net-(D5-A)*%
X162040000Y-48500000D03*
%TD*%
%TO.P,D2,1,K*%
%TO.N,ROW0*%
X103540000Y-55500000D03*
%TO.P,D2,2,A*%
%TO.N,Net-(D2-A)*%
X103540000Y-51500000D03*
%TD*%
%TO.P,D4,1,K*%
%TO.N,ROW0*%
X143120000Y-52500000D03*
%TO.P,D4,2,A*%
%TO.N,Net-(D4-A)*%
X143120000Y-48500000D03*
%TD*%
%TO.P,D11,1,K*%
%TO.N,ROW1*%
X142540000Y-70080000D03*
%TO.P,D11,2,A*%
%TO.N,Net-(D11-A)*%
X142540000Y-66080000D03*
%TD*%
%TO.P,D18,1,K*%
%TO.N,ROW2*%
X143120000Y-87500000D03*
%TO.P,D18,2,A*%
%TO.N,Net-(D18-A)*%
X143120000Y-83500000D03*
%TD*%
%TO.P,D16,1,K*%
%TO.N,ROW2*%
X104120000Y-93500000D03*
%TO.P,D16,2,A*%
%TO.N,Net-(D16-A)*%
X104120000Y-89500000D03*
%TD*%
%TO.P,D22,1,K*%
%TO.N,ROW3*%
X161500000Y-114500000D03*
%TO.P,D22,2,A*%
%TO.N,Net-(D22-A)*%
X161500000Y-110500000D03*
%TD*%
%TO.P,D6,1,K*%
%TO.N,ROW0*%
X181040000Y-57000000D03*
%TO.P,D6,2,A*%
%TO.N,Net-(D6-A)*%
X181040000Y-53000000D03*
%TD*%
%TO.P,D3,1,K*%
%TO.N,ROW0*%
X123540000Y-52580000D03*
%TO.P,D3,2,A*%
%TO.N,Net-(D3-A)*%
X123540000Y-48580000D03*
%TD*%
%TO.P,D15,1,K*%
%TO.N,ROW2*%
X84620000Y-93500000D03*
%TO.P,D15,2,A*%
%TO.N,Net-(D15-A)*%
X84620000Y-89500000D03*
%TD*%
%TO.P,D1,1,K*%
%TO.N,ROW0*%
X83500000Y-55080000D03*
%TO.P,D1,2,A*%
%TO.N,Net-(D1-A)*%
X83500000Y-51080000D03*
%TD*%
%TO.P,D23,1,K*%
%TO.N,ROW3*%
X193270000Y-122500000D03*
%TO.P,D23,2,A*%
%TO.N,Net-(D23-A)*%
X193270000Y-118500000D03*
%TD*%
%TO.P,D13,1,K*%
%TO.N,ROW1*%
X181120000Y-75500000D03*
%TO.P,D13,2,A*%
%TO.N,Net-(D13-A)*%
X181120000Y-71500000D03*
%TD*%
%TO.P,D9,1,K*%
%TO.N,ROW1*%
X104120000Y-75500000D03*
%TO.P,D9,2,A*%
%TO.N,Net-(D9-A)*%
X104120000Y-71500000D03*
%TD*%
D26*
%TO.P,U2,B1A,SEL+*%
%TO.N,/BTN_PIN*%
X212175000Y-141314800D03*
%TO.P,U2,B1B,B1B*%
%TO.N,unconnected-(U2-PadB1B)*%
X205825000Y-141295000D03*
%TO.P,U2,B2A,SEL-*%
%TO.N,GND*%
X212175000Y-136374800D03*
%TO.P,U2,B2B,B2B*%
%TO.N,unconnected-(U2-PadB2B)*%
X205815000Y-136354800D03*
%TO.P,U2,H1,H+*%
%TO.N,GND*%
X211525000Y-121624800D03*
%TO.P,U2,H2,H*%
%TO.N,/Y_AXIS*%
X208985000Y-121604800D03*
%TO.P,U2,H3,H-*%
%TO.N,+3.3V*%
X206445000Y-121624800D03*
D27*
%TO.P,U2,S1,SHIELD*%
%TO.N,GND*%
X215350000Y-135564800D03*
%TO.P,U2,S2,SHIELD*%
X215350000Y-125434800D03*
%TO.P,U2,S3,SHIELD*%
X202650000Y-125420000D03*
%TO.P,U2,S4,SHIELD*%
X202650000Y-135580000D03*
D26*
%TO.P,U2,V1,V+*%
%TO.N,+3.3V*%
X217890000Y-133040000D03*
%TO.P,U2,V2,V*%
%TO.N,/X_AXIS*%
X217905000Y-130514800D03*
%TO.P,U2,V3,V-*%
%TO.N,GND*%
X217905000Y-127974800D03*
%TD*%
D28*
%TO.N,+3.3V*%
X137500000Y-111000000D03*
%TO.N,+5V*%
X69565300Y-113404000D03*
%TO.N,ROW2*%
X105744000Y-92881100D03*
X123147000Y-92881100D03*
%TO.N,ROW1*%
X105956000Y-72358500D03*
X121627000Y-72358500D03*
%TO.N,ROW0*%
X105666000Y-54767700D03*
X123051000Y-54767700D03*
%TO.N,/Y_AXIS*%
X114932000Y-109986000D03*
%TO.N,/X_AXIS*%
X126547000Y-114052000D03*
%TO.N,/BTN_PIN*%
X114000000Y-110500000D03*
%TO.N,USART1_RX*%
X184570000Y-95056700D03*
X116500000Y-107500000D03*
%TO.N,USART1_TX*%
X115480000Y-109384000D03*
X201554000Y-80723600D03*
%TO.N,+3.3V*%
X121000000Y-105000000D03*
X203500000Y-39500000D03*
X65000000Y-73000000D03*
X105000000Y-33000000D03*
X158000000Y-127500000D03*
X82000000Y-111000000D03*
X74875200Y-109375000D03*
X78000000Y-103000000D03*
X75000000Y-106000000D03*
X130500000Y-111000000D03*
X136500000Y-113452000D03*
X109000000Y-104500000D03*
X141000000Y-94500000D03*
X194000000Y-42500000D03*
%TO.N,GND*%
X85000000Y-33500000D03*
X88500000Y-111000000D03*
X121000000Y-114500000D03*
X114500000Y-106607000D03*
X113000000Y-111500000D03*
X74000000Y-102000000D03*
X207000000Y-46500000D03*
%TD*%
D29*
%TO.N,+3.3V*%
X137000000Y-97500000D02*
X134500000Y-97500000D01*
X137500000Y-98000000D02*
X137000000Y-97500000D01*
X137500000Y-111000000D02*
X137500000Y-98000000D01*
%TO.N,/HSE_OUT*%
X132680000Y-111750000D02*
X133500000Y-110930000D01*
X124500000Y-111750000D02*
X132680000Y-111750000D01*
X124038000Y-112212000D02*
X124500000Y-111750000D01*
X118314000Y-112212000D02*
X124038000Y-112212000D01*
X118081000Y-111979000D02*
X118314000Y-112212000D01*
X118081000Y-109020000D02*
X118081000Y-111979000D01*
X118352000Y-108750000D02*
X118081000Y-109020000D01*
X119162000Y-108750000D02*
X118352000Y-108750000D01*
X119162000Y-108750000D02*
X119162500Y-108750000D01*
%TO.N,/NRST*%
X147000000Y-129500000D02*
X149500000Y-129500000D01*
X147000000Y-122000000D02*
X147000000Y-129500000D01*
X134250000Y-109250000D02*
X147000000Y-122000000D01*
X119162500Y-109250000D02*
X134250000Y-109250000D01*
X119162000Y-109250000D02*
X119162500Y-109250000D01*
%TO.N,/HSE_IN*%
X121750000Y-105250000D02*
X124500000Y-105250000D01*
X120200000Y-106800000D02*
X121750000Y-105250000D01*
X120200000Y-107982000D02*
X120200000Y-106800000D01*
X119932000Y-108250000D02*
X120200000Y-107982000D01*
X119162500Y-108250000D02*
X119932000Y-108250000D01*
X119162000Y-108250000D02*
X119162500Y-108250000D01*
%TO.N,/SWCLK*%
X112250000Y-97706500D02*
X112250000Y-104837500D01*
X108206000Y-93662600D02*
X112250000Y-97706500D01*
X108206000Y-46931100D02*
X108206000Y-93662600D01*
X95901700Y-34626700D02*
X108206000Y-46931100D01*
X95901700Y-33475000D02*
X95901700Y-34626700D01*
X94750000Y-33475000D02*
X95901700Y-33475000D01*
X112250000Y-104837500D02*
X112250000Y-104838000D01*
%TO.N,/SWDIO*%
X110003000Y-107250000D02*
X110837500Y-107250000D01*
X106567000Y-103814000D02*
X110003000Y-107250000D01*
X106567000Y-49015200D02*
X106567000Y-103814000D01*
X93595700Y-36043500D02*
X106567000Y-49015200D01*
X93595700Y-32816000D02*
X93595700Y-36043500D01*
X94266300Y-32145400D02*
X93595700Y-32816000D01*
X95920400Y-32145400D02*
X94266300Y-32145400D01*
X97250000Y-33475000D02*
X95920400Y-32145400D01*
X110837500Y-107250000D02*
X110838000Y-107250000D01*
%TO.N,/USB_D+*%
X66633100Y-102835000D02*
X66633100Y-98375700D01*
X67548300Y-103750000D02*
X66633100Y-102835000D01*
X68425000Y-103750000D02*
X67548300Y-103750000D01*
X66633100Y-90314800D02*
X66633100Y-98375700D01*
X65000000Y-88681700D02*
X66633100Y-90314800D01*
X65000000Y-87580000D02*
X65000000Y-88681700D01*
X108127000Y-107750000D02*
X110837500Y-107750000D01*
X98752600Y-98375700D02*
X108127000Y-107750000D01*
X66633100Y-98375700D02*
X98752600Y-98375700D01*
X110837500Y-107750000D02*
X110838000Y-107750000D01*
%TO.N,/USB_D-*%
X71163700Y-103250000D02*
X68425000Y-103250000D01*
X75288700Y-107375000D02*
X71163700Y-103250000D01*
X103819000Y-107375000D02*
X75288700Y-107375000D01*
X104694000Y-108250000D02*
X103819000Y-107375000D01*
X110837500Y-108250000D02*
X104694000Y-108250000D01*
X110838000Y-108250000D02*
X110837500Y-108250000D01*
%TO.N,+5V*%
X69565300Y-111466000D02*
X69565300Y-113404000D01*
X66633400Y-108535000D02*
X69565300Y-111466000D01*
X66633400Y-106815000D02*
X66633400Y-108535000D01*
X67548300Y-105900000D02*
X66633400Y-106815000D01*
X68425000Y-105900000D02*
X67548300Y-105900000D01*
%TO.N,COL6*%
X189387000Y-72762600D02*
X189190000Y-72960000D01*
X189387000Y-53657400D02*
X189387000Y-72762600D01*
X189190000Y-53460000D02*
X189387000Y-53657400D01*
%TO.N,COL5*%
X169876000Y-64774000D02*
X169690000Y-64960000D01*
X169876000Y-45646000D02*
X169876000Y-64774000D01*
X169690000Y-45460000D02*
X169876000Y-45646000D01*
X170169000Y-84938900D02*
X169690000Y-84460000D01*
X170169000Y-105939000D02*
X170169000Y-84938900D01*
X177190000Y-112960000D02*
X170169000Y-105939000D01*
%TO.N,COL4*%
X150370000Y-58780400D02*
X150190000Y-58960000D01*
X150370000Y-39639600D02*
X150370000Y-58780400D01*
X150190000Y-39460000D02*
X150370000Y-39639600D01*
X150347000Y-79116700D02*
X150190000Y-78960000D01*
X150347000Y-104803000D02*
X150347000Y-79116700D01*
X150190000Y-104960000D02*
X150347000Y-104803000D01*
%TO.N,COL3*%
X130870000Y-58780400D02*
X130690000Y-58960000D01*
X130870000Y-39639600D02*
X130870000Y-58780400D01*
X130690000Y-39460000D02*
X130870000Y-39639600D01*
X126845000Y-78460000D02*
X130690000Y-78460000D01*
X121014000Y-72628400D02*
X126845000Y-78460000D01*
X121014000Y-71150300D02*
X121014000Y-72628400D01*
X122284000Y-69880000D02*
X121014000Y-71150300D01*
X123208000Y-69880000D02*
X122284000Y-69880000D01*
X125958000Y-67129700D02*
X123208000Y-69880000D01*
X125958000Y-62902100D02*
X125958000Y-67129700D01*
X129901000Y-58960000D02*
X125958000Y-62902100D01*
X130690000Y-58960000D02*
X129901000Y-58960000D01*
%TO.N,COL2*%
X111370000Y-43139500D02*
X111190000Y-42960000D01*
X111370000Y-62280500D02*
X111370000Y-43139500D01*
X111190000Y-62460000D02*
X111370000Y-62280500D01*
X111370000Y-62639500D02*
X111190000Y-62460000D01*
X111370000Y-81780500D02*
X111370000Y-62639500D01*
X111190000Y-81960000D02*
X111370000Y-81780500D01*
%TO.N,COL1*%
X91863500Y-65286500D02*
X91690000Y-65460000D01*
X91863500Y-46133500D02*
X91863500Y-65286500D01*
X91690000Y-45960000D02*
X91863500Y-46133500D01*
X91874800Y-84775200D02*
X91690000Y-84960000D01*
X91874800Y-65644800D02*
X91874800Y-84775200D01*
X91690000Y-65460000D02*
X91874800Y-65644800D01*
%TO.N,COL0*%
X72369500Y-65639500D02*
X72190000Y-65460000D01*
X72369500Y-84780500D02*
X72369500Y-65639500D01*
X72190000Y-84960000D02*
X72369500Y-84780500D01*
X72369500Y-65280500D02*
X72190000Y-65460000D01*
X72369500Y-46139500D02*
X72369500Y-65280500D01*
X72190000Y-45960000D02*
X72369500Y-46139500D01*
%TO.N,ROW3*%
X169500000Y-122500000D02*
X161500000Y-114500000D01*
X193270000Y-122500000D02*
X169500000Y-122500000D01*
%TO.N,ROW2*%
X140120000Y-90500000D02*
X143120000Y-87500000D01*
X123620000Y-90500000D02*
X140120000Y-90500000D01*
X145569000Y-85051100D02*
X143120000Y-87500000D01*
X145569000Y-81520200D02*
X145569000Y-85051100D01*
X149595000Y-77494400D02*
X145569000Y-81520200D01*
X154497000Y-77494400D02*
X149595000Y-77494400D01*
X157035000Y-80031700D02*
X154497000Y-77494400D01*
X159657000Y-80031700D02*
X157035000Y-80031700D01*
X161384000Y-81759100D02*
X159657000Y-80031700D01*
X161384000Y-87764100D02*
X161384000Y-81759100D01*
X162620000Y-89000000D02*
X161384000Y-87764100D01*
X189620000Y-101000000D02*
X182120000Y-93500000D01*
X201620000Y-101000000D02*
X189620000Y-101000000D01*
X84620000Y-93500000D02*
X104120000Y-93500000D01*
X105125000Y-93500000D02*
X105744000Y-92881100D01*
X104120000Y-93500000D02*
X105125000Y-93500000D01*
X123620000Y-92408400D02*
X123147000Y-92881100D01*
X123620000Y-90500000D02*
X123620000Y-92408400D01*
X176831000Y-88211300D02*
X182120000Y-93500000D01*
X176831000Y-86649300D02*
X176831000Y-88211300D01*
X173177000Y-82995300D02*
X176831000Y-86649300D01*
X168625000Y-82995300D02*
X173177000Y-82995300D01*
X162620000Y-89000000D02*
X168625000Y-82995300D01*
%TO.N,ROW1*%
X188120000Y-82500000D02*
X200620000Y-82500000D01*
X181120000Y-75500000D02*
X188120000Y-82500000D01*
X124540000Y-70080000D02*
X142540000Y-70080000D01*
X123040000Y-71580000D02*
X124540000Y-70080000D01*
X122262000Y-72358500D02*
X123040000Y-71580000D01*
X121627000Y-72358500D02*
X122262000Y-72358500D01*
X83960000Y-83068800D02*
X83960000Y-74000000D01*
X89825800Y-88934600D02*
X83960000Y-83068800D01*
X91012700Y-88934600D02*
X89825800Y-88934600D01*
X92040300Y-87907000D02*
X91012700Y-88934600D01*
X92040300Y-87091800D02*
X92040300Y-87907000D01*
X95006600Y-84125500D02*
X92040300Y-87091800D01*
X95006600Y-83400400D02*
X95006600Y-84125500D01*
X102907000Y-75500000D02*
X95006600Y-83400400D01*
X104120000Y-75500000D02*
X102907000Y-75500000D01*
X104120000Y-74194800D02*
X105956000Y-72358500D01*
X104120000Y-75500000D02*
X104120000Y-74194800D01*
X144040000Y-71580000D02*
X162540000Y-71580000D01*
X142540000Y-70080000D02*
X144040000Y-71580000D01*
X177200000Y-71580000D02*
X181120000Y-75500000D01*
X162540000Y-71580000D02*
X177200000Y-71580000D01*
%TO.N,ROW0*%
X137831000Y-47211200D02*
X143120000Y-52500000D01*
X137831000Y-41679100D02*
X137831000Y-47211200D01*
X134160000Y-38008200D02*
X137831000Y-41679100D01*
X130070000Y-38008200D02*
X134160000Y-38008200D01*
X127296000Y-40781900D02*
X130070000Y-38008200D01*
X127296000Y-48823800D02*
X127296000Y-40781900D01*
X123540000Y-52580000D02*
X127296000Y-48823800D01*
X196331000Y-59291300D02*
X200540000Y-63500000D01*
X196331000Y-55679200D02*
X196331000Y-59291300D01*
X192653000Y-52000700D02*
X196331000Y-55679200D01*
X186039000Y-52000700D02*
X192653000Y-52000700D01*
X181040000Y-57000000D02*
X186039000Y-52000700D01*
X157331000Y-47791200D02*
X162040000Y-52500000D01*
X157331000Y-41679100D02*
X157331000Y-47791200D01*
X153660000Y-38008200D02*
X157331000Y-41679100D01*
X149570000Y-38008200D02*
X153660000Y-38008200D01*
X145736000Y-41841800D02*
X149570000Y-38008200D01*
X145736000Y-49883700D02*
X145736000Y-41841800D01*
X143120000Y-52500000D02*
X145736000Y-49883700D01*
X123540000Y-54278300D02*
X123051000Y-54767700D01*
X123540000Y-52580000D02*
X123540000Y-54278300D01*
X98740200Y-50700200D02*
X103540000Y-55500000D01*
X98740200Y-48113900D02*
X98740200Y-50700200D01*
X95134600Y-44508300D02*
X98740200Y-48113900D01*
X91004900Y-44508300D02*
X95134600Y-44508300D01*
X85642600Y-49870600D02*
X91004900Y-44508300D01*
X85642600Y-52937400D02*
X85642600Y-49870600D01*
X83500000Y-55080000D02*
X85642600Y-52937400D01*
X104934000Y-55500000D02*
X105666000Y-54767700D01*
X103540000Y-55500000D02*
X104934000Y-55500000D01*
X176155000Y-52114800D02*
X181040000Y-57000000D01*
X176155000Y-47002700D02*
X176155000Y-52114800D01*
X173158000Y-44005600D02*
X176155000Y-47002700D01*
X169003000Y-44005600D02*
X173158000Y-44005600D01*
X162040000Y-50968200D02*
X169003000Y-44005600D01*
X162040000Y-52500000D02*
X162040000Y-50968200D01*
%TO.N,/Y_AXIS*%
X114750000Y-110167000D02*
X114932000Y-109986000D01*
X114750000Y-113162000D02*
X114750000Y-110167000D01*
X114750000Y-113162000D02*
X114750000Y-113162500D01*
%TO.N,/X_AXIS*%
X115250000Y-113162000D02*
X115250000Y-113162500D01*
X125626000Y-113132000D02*
X126547000Y-114052000D01*
X119287000Y-113132000D02*
X125626000Y-113132000D01*
X118216000Y-114202000D02*
X119287000Y-113132000D01*
X115519000Y-114202000D02*
X118216000Y-114202000D01*
X115250000Y-113933000D02*
X115519000Y-114202000D01*
X115250000Y-113162500D02*
X115250000Y-113933000D01*
%TO.N,/BTN_PIN*%
X113750000Y-110250000D02*
X110838000Y-110250000D01*
X114000000Y-110500000D02*
X113750000Y-110250000D01*
X110838000Y-110250000D02*
X110837500Y-110250000D01*
%TO.N,USART1_RX*%
X184570000Y-94985700D02*
X184570000Y-95056700D01*
X191189000Y-88366400D02*
X184570000Y-94985700D01*
X197223000Y-88366400D02*
X191189000Y-88366400D01*
X204534000Y-81056100D02*
X197223000Y-88366400D01*
X204534000Y-36593200D02*
X204534000Y-81056100D01*
X205734000Y-35393200D02*
X204534000Y-36593200D01*
X206784600Y-35393200D02*
X205734000Y-35393200D01*
X206785000Y-35393200D02*
X206784600Y-35393200D01*
X111627000Y-108750000D02*
X110838000Y-108750000D01*
X112877000Y-107500000D02*
X111627000Y-108750000D01*
X116500000Y-107500000D02*
X112877000Y-107500000D01*
X110838000Y-108750000D02*
X110837500Y-108750000D01*
%TO.N,USART1_TX*%
X200825000Y-35393200D02*
X199774200Y-35393200D01*
X201829000Y-36396800D02*
X200825000Y-35393200D01*
X201829000Y-80448900D02*
X201829000Y-36396800D01*
X201554000Y-80723600D02*
X201829000Y-80448900D01*
X115346000Y-109250000D02*
X115480000Y-109384000D01*
X110838000Y-109250000D02*
X115346000Y-109250000D01*
X110838000Y-109250000D02*
X110837500Y-109250000D01*
X197463000Y-34100900D02*
X197463000Y-34500100D01*
X198354000Y-34100900D02*
X197463000Y-34100900D01*
X198723000Y-34469600D02*
X198354000Y-34100900D01*
X198723000Y-35393200D02*
X198723000Y-34469600D01*
X199774200Y-35393200D02*
X198723000Y-35393200D01*
X197463000Y-34500100D02*
X197463000Y-34899400D01*
X197462800Y-34500300D02*
X197462800Y-35698000D01*
X197463000Y-34500100D02*
X197462800Y-34500300D01*
%TO.N,Net-(D23-A)*%
X185190000Y-110420000D02*
X183540000Y-110420000D01*
X193270000Y-118500000D02*
X185190000Y-110420000D01*
%TO.N,Net-(D22-A)*%
X157331000Y-103211000D02*
X156540000Y-102420000D01*
X157331000Y-107829000D02*
X157331000Y-103211000D01*
X160002000Y-110500000D02*
X157331000Y-107829000D01*
X161500000Y-110500000D02*
X160002000Y-110500000D01*
%TO.N,Net-(D21-A)*%
X201620000Y-96000000D02*
X201620000Y-97000000D01*
X195540000Y-89920000D02*
X201620000Y-96000000D01*
%TO.N,Net-(D20-A)*%
X182120000Y-88000000D02*
X176040000Y-81920000D01*
X182120000Y-89500000D02*
X182120000Y-88000000D01*
%TO.N,Net-(D19-A)*%
X156684000Y-76420000D02*
X156540000Y-76420000D01*
X162620000Y-82356500D02*
X156684000Y-76420000D01*
X162620000Y-85000000D02*
X162620000Y-82356500D01*
%TO.N,Net-(D18-A)*%
X143120000Y-82000000D02*
X137040000Y-75920000D01*
X143120000Y-83500000D02*
X143120000Y-82000000D01*
%TO.N,Net-(D17-A)*%
X118331000Y-80211300D02*
X117540000Y-79420000D01*
X118331000Y-84790700D02*
X118331000Y-80211300D01*
X120041000Y-86500000D02*
X118331000Y-84790700D01*
X123620000Y-86500000D02*
X120041000Y-86500000D01*
%TO.N,Net-(D16-A)*%
X99103500Y-83483500D02*
X98040000Y-82420000D01*
X99103500Y-88076100D02*
X99103500Y-83483500D01*
X100527000Y-89500000D02*
X99103500Y-88076100D01*
X104120000Y-89500000D02*
X100527000Y-89500000D01*
%TO.N,Net-(D15-A)*%
X84620000Y-88500000D02*
X78540000Y-82420000D01*
X84620000Y-89500000D02*
X84620000Y-88500000D01*
%TO.N,Net-(D14-A)*%
X200620000Y-75500000D02*
X195540000Y-70420000D01*
X200620000Y-78500000D02*
X200620000Y-75500000D01*
%TO.N,Net-(D13-A)*%
X181120000Y-67500000D02*
X176040000Y-62420000D01*
X181120000Y-71500000D02*
X181120000Y-67500000D01*
%TO.N,Net-(D12-A)*%
X162540000Y-62420000D02*
X156540000Y-56420000D01*
X162540000Y-67580000D02*
X162540000Y-62420000D01*
%TO.N,Net-(D11-A)*%
X142540000Y-61920000D02*
X137040000Y-56420000D01*
X142540000Y-66080000D02*
X142540000Y-61920000D01*
%TO.N,Net-(D10-A)*%
X118331000Y-60711300D02*
X117540000Y-59920000D01*
X118331000Y-65286600D02*
X118331000Y-60711300D01*
X120625000Y-67580000D02*
X118331000Y-65286600D01*
X123040000Y-67580000D02*
X120625000Y-67580000D01*
%TO.N,Net-(D9-A)*%
X104120000Y-69000000D02*
X98040000Y-62920000D01*
X104120000Y-71500000D02*
X104120000Y-69000000D01*
%TO.N,Net-(D8-A)*%
X83960000Y-68340000D02*
X78540000Y-62920000D01*
X83960000Y-70000000D02*
X83960000Y-68340000D01*
%TO.N,Net-(D7-A)*%
X200540000Y-55920000D02*
X195540000Y-50920000D01*
X200540000Y-59500000D02*
X200540000Y-55920000D01*
%TO.N,Net-(D6-A)*%
X181040000Y-47920000D02*
X176040000Y-42920000D01*
X181040000Y-53000000D02*
X181040000Y-47920000D01*
%TO.N,Net-(D5-A)*%
X162040000Y-42420000D02*
X156540000Y-36920000D01*
X162040000Y-48500000D02*
X162040000Y-42420000D01*
%TO.N,Net-(D4-A)*%
X143120000Y-43000000D02*
X137040000Y-36920000D01*
X143120000Y-48500000D02*
X143120000Y-43000000D01*
%TO.N,Net-(D3-A)*%
X118331000Y-41211300D02*
X117540000Y-40420000D01*
X118331000Y-45775400D02*
X118331000Y-41211300D01*
X121136000Y-48580000D02*
X118331000Y-45775400D01*
X123540000Y-48580000D02*
X121136000Y-48580000D01*
%TO.N,Net-(D2-A)*%
X99153300Y-44533300D02*
X98040000Y-43420000D01*
X99153300Y-49096700D02*
X99153300Y-44533300D01*
X101557000Y-51500000D02*
X99153300Y-49096700D01*
X103540000Y-51500000D02*
X101557000Y-51500000D01*
%TO.N,Net-(D1-A)*%
X83500000Y-48380000D02*
X78540000Y-43420000D01*
X83500000Y-51080000D02*
X83500000Y-48380000D01*
%TO.N,+3.3V*%
X65000000Y-77420000D02*
X65000000Y-73000000D01*
X104525000Y-33475000D02*
X105000000Y-33000000D01*
X99750000Y-33475000D02*
X104525000Y-33475000D01*
X82000000Y-114000000D02*
X82000000Y-111000000D01*
X79500000Y-114000000D02*
X82000000Y-114000000D01*
X74875200Y-109375000D02*
X79500000Y-114000000D01*
X78000000Y-103000000D02*
X75000000Y-106000000D01*
X138608000Y-124108000D02*
X143500000Y-129000000D01*
X138608000Y-115560000D02*
X138608000Y-124108000D01*
X136500000Y-113452000D02*
X138608000Y-115560000D01*
X129750000Y-110250000D02*
X130500000Y-111000000D01*
X119162500Y-110250000D02*
X129750000Y-110250000D01*
X117750000Y-98250000D02*
X118000000Y-98000000D01*
X117750000Y-104837500D02*
X117750000Y-98250000D01*
X117750000Y-104838000D02*
X117750000Y-104837500D01*
X119162000Y-110250000D02*
X119162500Y-110250000D01*
X110838000Y-106250000D02*
X110837500Y-106249500D01*
X109088000Y-104500000D02*
X109000000Y-104500000D01*
X110837500Y-106249500D02*
X109088000Y-104500000D01*
X110837500Y-106249500D02*
X110837500Y-106250000D01*
X112250000Y-113162000D02*
X112081000Y-113331000D01*
X111912000Y-113500000D02*
X102500000Y-113500000D01*
X112081000Y-113331000D02*
X111912000Y-113500000D01*
X112081500Y-113331000D02*
X112250000Y-113162500D01*
X112081000Y-113331000D02*
X112081500Y-113331000D01*
X119162000Y-106250000D02*
X119162500Y-106249500D01*
X120412000Y-105000000D02*
X121000000Y-105000000D01*
X119162500Y-106249500D02*
X120412000Y-105000000D01*
X119162500Y-106249500D02*
X119162500Y-106250000D01*
X203483000Y-42606800D02*
X203483000Y-41062100D01*
X203483000Y-39517400D02*
X203500000Y-39500000D01*
X203483000Y-41062100D02*
X203483000Y-39517400D01*
X203482600Y-41062500D02*
X203482600Y-42606800D01*
X203483000Y-41062100D02*
X203482600Y-41062500D01*
X194107000Y-42606800D02*
X194000000Y-42500000D01*
X197996000Y-42606800D02*
X194107000Y-42606800D01*
X197996000Y-42606800D02*
X197996200Y-42606800D01*
%TO.N,GND*%
X85025000Y-33475000D02*
X85000000Y-33500000D01*
X92250000Y-33475000D02*
X85025000Y-33475000D01*
X88500000Y-111500000D02*
X88500000Y-111000000D01*
X91000000Y-114000000D02*
X88500000Y-111500000D01*
X92000000Y-114000000D02*
X91000000Y-114000000D01*
X87000000Y-112500000D02*
X88500000Y-111000000D01*
X87000000Y-114000000D02*
X87000000Y-112500000D01*
X121250000Y-114250000D02*
X121000000Y-114500000D01*
X124500000Y-114250000D02*
X121250000Y-114250000D01*
X72300000Y-100300000D02*
X74000000Y-102000000D01*
X68425000Y-100300000D02*
X72300000Y-100300000D01*
X114751000Y-106607000D02*
X114500000Y-106607000D01*
X114751000Y-106607000D02*
X114500000Y-106607000D01*
X116251000Y-106607000D02*
X114751000Y-106607000D01*
X117250000Y-105607000D02*
X116251000Y-106607000D01*
X117250000Y-104838000D02*
X117250000Y-105607000D01*
X117250000Y-104838000D02*
X117250000Y-104837500D01*
X115750000Y-105607000D02*
X114751000Y-106607000D01*
X115750000Y-104838000D02*
X115750000Y-105607000D01*
X115750000Y-104838000D02*
X115750000Y-104837500D01*
X114357000Y-106750000D02*
X114500000Y-106607000D01*
X110838000Y-106750000D02*
X114357000Y-106750000D01*
X110838000Y-106750000D02*
X110837500Y-106750000D01*
X112750000Y-111750000D02*
X113000000Y-111500000D01*
X112750000Y-113162000D02*
X112750000Y-111750000D01*
X112750000Y-113162000D02*
X112750000Y-113162500D01*
X206785000Y-42606800D02*
X206785000Y-44445700D01*
X206785000Y-46284600D02*
X207000000Y-46500000D01*
X206785000Y-44445700D02*
X206785000Y-46284600D01*
X206784600Y-44445300D02*
X206784600Y-42606800D01*
X206785000Y-44445700D02*
X206784600Y-44445300D01*
%TD*%
M02*
