%TF.GenerationSoftware,KiCad,Pcbnew,8.0.2*%
%TF.CreationDate,2024-10-11T16:26:55+02:00*%
%TF.ProjectId,duo_board,64756f5f-626f-4617-9264-2e6b69636164,rev?*%
%TF.SameCoordinates,Original*%
%TF.FileFunction,Soldermask,Bot*%
%TF.FilePolarity,Negative*%
%FSLAX46Y46*%
G04 Gerber Fmt 4.6, Leading zero omitted, Abs format (unit mm)*
G04 Created by KiCad (PCBNEW 8.0.2) date 2024-10-11 16:26:55*
%MOMM*%
%LPD*%
G01*
G04 APERTURE LIST*
G04 Aperture macros list*
%AMRoundRect*
0 Rectangle with rounded corners*
0 $1 Rounding radius*
0 $2 $3 $4 $5 $6 $7 $8 $9 X,Y pos of 4 corners*
0 Add a 4 corners polygon primitive as box body*
4,1,4,$2,$3,$4,$5,$6,$7,$8,$9,$2,$3,0*
0 Add four circle primitives for the rounded corners*
1,1,$1+$1,$2,$3*
1,1,$1+$1,$4,$5*
1,1,$1+$1,$6,$7*
1,1,$1+$1,$8,$9*
0 Add four rect primitives between the rounded corners*
20,1,$1+$1,$2,$3,$4,$5,0*
20,1,$1+$1,$4,$5,$6,$7,0*
20,1,$1+$1,$6,$7,$8,$9,0*
20,1,$1+$1,$8,$9,$2,$3,0*%
G04 Aperture macros list end*
%ADD10C,0.010000*%
%ADD11C,1.500000*%
%ADD12C,1.600000*%
%ADD13O,1.600000X1.600000*%
%ADD14R,1.600000X1.600000*%
%ADD15C,1.750000*%
%ADD16C,3.987800*%
%ADD17C,2.300000*%
%ADD18RoundRect,0.250000X-0.600000X-0.725000X0.600000X-0.725000X0.600000X0.725000X-0.600000X0.725000X0*%
%ADD19O,1.700000X1.950000*%
%ADD20R,1.498600X2.006600*%
%ADD21R,1.498600X2.590800*%
%ADD22RoundRect,0.250000X0.650000X-1.000000X0.650000X1.000000X-0.650000X1.000000X-0.650000X-1.000000X0*%
%ADD23O,2.352400X1.152400*%
%ADD24O,1.952400X1.152400*%
%ADD25RoundRect,0.075000X0.662500X0.075000X-0.662500X0.075000X-0.662500X-0.075000X0.662500X-0.075000X0*%
%ADD26RoundRect,0.075000X0.075000X0.662500X-0.075000X0.662500X-0.075000X-0.662500X0.075000X-0.662500X0*%
%ADD27C,1.778000*%
%ADD28C,2.286000*%
G04 APERTURE END LIST*
D10*
%TO.C,J2*%
X69063500Y-100658500D02*
X67786500Y-100658500D01*
X67786500Y-99941500D01*
X69063500Y-99941500D01*
X69063500Y-100658500D01*
G36*
X69063500Y-100658500D02*
G01*
X67786500Y-100658500D01*
X67786500Y-99941500D01*
X69063500Y-99941500D01*
X69063500Y-100658500D01*
G37*
X69063500Y-101458500D02*
X67786500Y-101458500D01*
X67786500Y-100741500D01*
X69063500Y-100741500D01*
X69063500Y-101458500D01*
G36*
X69063500Y-101458500D02*
G01*
X67786500Y-101458500D01*
X67786500Y-100741500D01*
X69063500Y-100741500D01*
X69063500Y-101458500D01*
G37*
X69063500Y-101962500D02*
X67786500Y-101962500D01*
X67786500Y-101537500D01*
X69063500Y-101537500D01*
X69063500Y-101962500D01*
G36*
X69063500Y-101962500D02*
G01*
X67786500Y-101962500D01*
X67786500Y-101537500D01*
X69063500Y-101537500D01*
X69063500Y-101962500D01*
G37*
X69063500Y-102462500D02*
X67786500Y-102462500D01*
X67786500Y-102037500D01*
X69063500Y-102037500D01*
X69063500Y-102462500D01*
G36*
X69063500Y-102462500D02*
G01*
X67786500Y-102462500D01*
X67786500Y-102037500D01*
X69063500Y-102037500D01*
X69063500Y-102462500D01*
G37*
X69063500Y-102962500D02*
X67786500Y-102962500D01*
X67786500Y-102537500D01*
X69063500Y-102537500D01*
X69063500Y-102962500D01*
G36*
X69063500Y-102962500D02*
G01*
X67786500Y-102962500D01*
X67786500Y-102537500D01*
X69063500Y-102537500D01*
X69063500Y-102962500D01*
G37*
X69063500Y-103462500D02*
X67786500Y-103462500D01*
X67786500Y-103037500D01*
X69063500Y-103037500D01*
X69063500Y-103462500D01*
G36*
X69063500Y-103462500D02*
G01*
X67786500Y-103462500D01*
X67786500Y-103037500D01*
X69063500Y-103037500D01*
X69063500Y-103462500D01*
G37*
X69063500Y-103962500D02*
X67786500Y-103962500D01*
X67786500Y-103537500D01*
X69063500Y-103537500D01*
X69063500Y-103962500D01*
G36*
X69063500Y-103962500D02*
G01*
X67786500Y-103962500D01*
X67786500Y-103537500D01*
X69063500Y-103537500D01*
X69063500Y-103962500D01*
G37*
X69063500Y-104462500D02*
X67786500Y-104462500D01*
X67786500Y-104037500D01*
X69063500Y-104037500D01*
X69063500Y-104462500D01*
G36*
X69063500Y-104462500D02*
G01*
X67786500Y-104462500D01*
X67786500Y-104037500D01*
X69063500Y-104037500D01*
X69063500Y-104462500D01*
G37*
X69063500Y-104962500D02*
X67786500Y-104962500D01*
X67786500Y-104537500D01*
X69063500Y-104537500D01*
X69063500Y-104962500D01*
G36*
X69063500Y-104962500D02*
G01*
X67786500Y-104962500D01*
X67786500Y-104537500D01*
X69063500Y-104537500D01*
X69063500Y-104962500D01*
G37*
X69063500Y-105462500D02*
X67786500Y-105462500D01*
X67786500Y-105037500D01*
X69063500Y-105037500D01*
X69063500Y-105462500D01*
G36*
X69063500Y-105462500D02*
G01*
X67786500Y-105462500D01*
X67786500Y-105037500D01*
X69063500Y-105037500D01*
X69063500Y-105462500D01*
G37*
X69063500Y-106258500D02*
X67786500Y-106258500D01*
X67786500Y-105541500D01*
X69063500Y-105541500D01*
X69063500Y-106258500D01*
G36*
X69063500Y-106258500D02*
G01*
X67786500Y-106258500D01*
X67786500Y-105541500D01*
X69063500Y-105541500D01*
X69063500Y-106258500D01*
G37*
X69063500Y-107058500D02*
X67786500Y-107058500D01*
X67786500Y-106341500D01*
X69063500Y-106341500D01*
X69063500Y-107058500D01*
G36*
X69063500Y-107058500D02*
G01*
X67786500Y-107058500D01*
X67786500Y-106341500D01*
X69063500Y-106341500D01*
X69063500Y-107058500D01*
G37*
%TD*%
D11*
%TO.C,Y1*%
X133500000Y-106050000D03*
X133500000Y-110930000D03*
%TD*%
D12*
%TO.C,R2*%
X169920000Y-130500000D03*
D13*
X180080000Y-130500000D03*
%TD*%
D12*
%TO.C,R1*%
X65000000Y-77420000D03*
D13*
X65000000Y-87580000D03*
%TD*%
D12*
%TO.C,C12*%
X92000000Y-114000000D03*
X92000000Y-109000000D03*
%TD*%
%TO.C,C11*%
X82000000Y-114000000D03*
X87000000Y-114000000D03*
%TD*%
%TO.C,C10*%
X124500000Y-111750000D03*
X124500000Y-114250000D03*
%TD*%
%TO.C,C9*%
X124500000Y-102750000D03*
X124500000Y-105250000D03*
%TD*%
%TO.C,C8*%
X149500000Y-129500000D03*
X149500000Y-124500000D03*
%TD*%
%TO.C,C7*%
X143500000Y-129000000D03*
X143500000Y-124000000D03*
%TD*%
%TO.C,C6*%
X134500000Y-97500000D03*
X129500000Y-97500000D03*
%TD*%
D14*
%TO.C,C5*%
X97196400Y-103000000D03*
D12*
X94696400Y-103000000D03*
%TD*%
%TO.C,C4*%
X118000000Y-98000000D03*
X123000000Y-98000000D03*
%TD*%
%TO.C,C3*%
X102500000Y-104500000D03*
X102500000Y-99500000D03*
%TD*%
%TO.C,C2*%
X123000000Y-107500000D03*
X128000000Y-107500000D03*
%TD*%
%TO.C,C1*%
X102500000Y-113500000D03*
X102500000Y-108500000D03*
%TD*%
D15*
%TO.C,MX16*%
X90420000Y-87500000D03*
D16*
X95500000Y-87500000D03*
D15*
X100580000Y-87500000D03*
D17*
X91690000Y-84960000D03*
X98040000Y-82420000D03*
%TD*%
D15*
%TO.C,MX4*%
X129420000Y-42000000D03*
D16*
X134500000Y-42000000D03*
D15*
X139580000Y-42000000D03*
D17*
X130690000Y-39460000D03*
X137040000Y-36920000D03*
%TD*%
D15*
%TO.C,MX18*%
X129420000Y-81000000D03*
D16*
X134500000Y-81000000D03*
D15*
X139580000Y-81000000D03*
D17*
X130690000Y-78460000D03*
X137040000Y-75920000D03*
%TD*%
D15*
%TO.C,MX13*%
X168420000Y-67500000D03*
D16*
X173500000Y-67500000D03*
D15*
X178580000Y-67500000D03*
D17*
X169690000Y-64960000D03*
X176040000Y-62420000D03*
%TD*%
D15*
%TO.C,MX9*%
X90420000Y-68000000D03*
D16*
X95500000Y-68000000D03*
D15*
X100580000Y-68000000D03*
D17*
X91690000Y-65460000D03*
X98040000Y-62920000D03*
%TD*%
D15*
%TO.C,MX6*%
X168420000Y-48000000D03*
D16*
X173500000Y-48000000D03*
D15*
X178580000Y-48000000D03*
D17*
X169690000Y-45460000D03*
X176040000Y-42920000D03*
%TD*%
D15*
%TO.C,MX22*%
X148920000Y-107500000D03*
D16*
X154000000Y-107500000D03*
D15*
X159080000Y-107500000D03*
D17*
X150190000Y-104960000D03*
X156540000Y-102420000D03*
%TD*%
D15*
%TO.C,MX21*%
X187920000Y-95000000D03*
D16*
X193000000Y-95000000D03*
D15*
X198080000Y-95000000D03*
D17*
X189190000Y-92460000D03*
X195540000Y-89920000D03*
%TD*%
D15*
%TO.C,MX3*%
X109920000Y-45500000D03*
D16*
X115000000Y-45500000D03*
D15*
X120080000Y-45500000D03*
D17*
X111190000Y-42960000D03*
X117540000Y-40420000D03*
%TD*%
D15*
%TO.C,MX23*%
X175920000Y-115500000D03*
D16*
X181000000Y-115500000D03*
D15*
X186080000Y-115500000D03*
D17*
X177190000Y-112960000D03*
X183540000Y-110420000D03*
%TD*%
D15*
%TO.C,MX17*%
X109920000Y-84500000D03*
D16*
X115000000Y-84500000D03*
D15*
X120080000Y-84500000D03*
D17*
X111190000Y-81960000D03*
X117540000Y-79420000D03*
%TD*%
D15*
%TO.C,MX1*%
X70920000Y-48500000D03*
D16*
X76000000Y-48500000D03*
D15*
X81080000Y-48500000D03*
D17*
X72190000Y-45960000D03*
X78540000Y-43420000D03*
%TD*%
D15*
%TO.C,MX2*%
X90420000Y-48500000D03*
D16*
X95500000Y-48500000D03*
D15*
X100580000Y-48500000D03*
D17*
X91690000Y-45960000D03*
X98040000Y-43420000D03*
%TD*%
D15*
%TO.C,MX20*%
X168420000Y-87000000D03*
D16*
X173500000Y-87000000D03*
D15*
X178580000Y-87000000D03*
D17*
X169690000Y-84460000D03*
X176040000Y-81920000D03*
%TD*%
D15*
%TO.C,MX11*%
X129420000Y-61500000D03*
D16*
X134500000Y-61500000D03*
D15*
X139580000Y-61500000D03*
D17*
X130690000Y-58960000D03*
X137040000Y-56420000D03*
%TD*%
D15*
%TO.C,MX14*%
X187920000Y-75500000D03*
D16*
X193000000Y-75500000D03*
D15*
X198080000Y-75500000D03*
D17*
X189190000Y-72960000D03*
X195540000Y-70420000D03*
%TD*%
D15*
%TO.C,MX7*%
X187920000Y-56000000D03*
D16*
X193000000Y-56000000D03*
D15*
X198080000Y-56000000D03*
D17*
X189190000Y-53460000D03*
X195540000Y-50920000D03*
%TD*%
D18*
%TO.C,J3*%
X92250000Y-33475000D03*
D19*
X94750000Y-33475000D03*
X97250000Y-33475000D03*
X99750000Y-33475000D03*
%TD*%
D15*
%TO.C,MX5*%
X148920000Y-42000000D03*
D16*
X154000000Y-42000000D03*
D15*
X159080000Y-42000000D03*
D17*
X150190000Y-39460000D03*
X156540000Y-36920000D03*
%TD*%
D15*
%TO.C,MX19*%
X148920000Y-81500000D03*
D16*
X154000000Y-81500000D03*
D15*
X159080000Y-81500000D03*
D17*
X150190000Y-78960000D03*
X156540000Y-76420000D03*
%TD*%
D15*
%TO.C,MX12*%
X148920000Y-61500000D03*
D16*
X154000000Y-61500000D03*
D15*
X159080000Y-61500000D03*
D17*
X150190000Y-58960000D03*
X156540000Y-56420000D03*
%TD*%
D15*
%TO.C,MX10*%
X109920000Y-65000000D03*
D16*
X115000000Y-65000000D03*
D15*
X120080000Y-65000000D03*
D17*
X111190000Y-62460000D03*
X117540000Y-59920000D03*
%TD*%
D15*
%TO.C,MX8*%
X70920000Y-68000000D03*
D16*
X76000000Y-68000000D03*
D15*
X81080000Y-68000000D03*
D17*
X72190000Y-65460000D03*
X78540000Y-62920000D03*
%TD*%
D15*
%TO.C,MX15*%
X70920000Y-87500000D03*
D16*
X76000000Y-87500000D03*
D15*
X81080000Y-87500000D03*
D17*
X72190000Y-84960000D03*
X78540000Y-82420000D03*
%TD*%
D20*
%TO.C,J1*%
X197996200Y-42606800D03*
X203482600Y-42606800D03*
X206784600Y-42606800D03*
D21*
X197462800Y-35698000D03*
D20*
X199774200Y-35393200D03*
X206784600Y-35393200D03*
%TD*%
D22*
%TO.C,D14*%
X200620000Y-82500000D03*
X200620000Y-78500000D03*
%TD*%
%TO.C,D7*%
X200540000Y-63500000D03*
X200540000Y-59500000D03*
%TD*%
D23*
%TO.C,J2*%
X63850000Y-107820000D03*
X63850000Y-99180000D03*
D24*
X67850000Y-107820000D03*
X67850000Y-99180000D03*
%TD*%
D22*
%TO.C,D20*%
X182120000Y-93500000D03*
X182120000Y-89500000D03*
%TD*%
%TO.C,D12*%
X162540000Y-71580000D03*
X162540000Y-67580000D03*
%TD*%
%TO.C,D21*%
X201620000Y-101000000D03*
X201620000Y-97000000D03*
%TD*%
%TO.C,D8*%
X83960000Y-74000000D03*
X83960000Y-70000000D03*
%TD*%
%TO.C,D19*%
X162620000Y-89000000D03*
X162620000Y-85000000D03*
%TD*%
%TO.C,D10*%
X123040000Y-71580000D03*
X123040000Y-67580000D03*
%TD*%
D25*
%TO.C,U1*%
X119162500Y-106250000D03*
X119162500Y-106750000D03*
X119162500Y-107250000D03*
X119162500Y-107750000D03*
X119162500Y-108250000D03*
X119162500Y-108750000D03*
X119162500Y-109250000D03*
X119162500Y-109750000D03*
X119162500Y-110250000D03*
X119162500Y-110750000D03*
X119162500Y-111250000D03*
X119162500Y-111750000D03*
D26*
X117750000Y-113162500D03*
X117250000Y-113162500D03*
X116750000Y-113162500D03*
X116250000Y-113162500D03*
X115750000Y-113162500D03*
X115250000Y-113162500D03*
X114750000Y-113162500D03*
X114250000Y-113162500D03*
X113750000Y-113162500D03*
X113250000Y-113162500D03*
X112750000Y-113162500D03*
X112250000Y-113162500D03*
D25*
X110837500Y-111750000D03*
X110837500Y-111250000D03*
X110837500Y-110750000D03*
X110837500Y-110250000D03*
X110837500Y-109750000D03*
X110837500Y-109250000D03*
X110837500Y-108750000D03*
X110837500Y-108250000D03*
X110837500Y-107750000D03*
X110837500Y-107250000D03*
X110837500Y-106750000D03*
X110837500Y-106250000D03*
D26*
X112250000Y-104837500D03*
X112750000Y-104837500D03*
X113250000Y-104837500D03*
X113750000Y-104837500D03*
X114250000Y-104837500D03*
X114750000Y-104837500D03*
X115250000Y-104837500D03*
X115750000Y-104837500D03*
X116250000Y-104837500D03*
X116750000Y-104837500D03*
X117250000Y-104837500D03*
X117750000Y-104837500D03*
%TD*%
D22*
%TO.C,D17*%
X123620000Y-90500000D03*
X123620000Y-86500000D03*
%TD*%
%TO.C,D5*%
X162040000Y-52500000D03*
X162040000Y-48500000D03*
%TD*%
%TO.C,D2*%
X103540000Y-55500000D03*
X103540000Y-51500000D03*
%TD*%
%TO.C,D4*%
X143120000Y-52500000D03*
X143120000Y-48500000D03*
%TD*%
%TO.C,D11*%
X142540000Y-70080000D03*
X142540000Y-66080000D03*
%TD*%
%TO.C,D18*%
X143120000Y-87500000D03*
X143120000Y-83500000D03*
%TD*%
%TO.C,D16*%
X104120000Y-93500000D03*
X104120000Y-89500000D03*
%TD*%
%TO.C,D22*%
X161500000Y-114500000D03*
X161500000Y-110500000D03*
%TD*%
%TO.C,D6*%
X181040000Y-57000000D03*
X181040000Y-53000000D03*
%TD*%
%TO.C,D3*%
X123540000Y-52580000D03*
X123540000Y-48580000D03*
%TD*%
%TO.C,D15*%
X84620000Y-93500000D03*
X84620000Y-89500000D03*
%TD*%
%TO.C,D1*%
X83500000Y-55080000D03*
X83500000Y-51080000D03*
%TD*%
%TO.C,D23*%
X193270000Y-122500000D03*
X193270000Y-118500000D03*
%TD*%
%TO.C,D13*%
X181120000Y-75500000D03*
X181120000Y-71500000D03*
%TD*%
%TO.C,D9*%
X104120000Y-75500000D03*
X104120000Y-71500000D03*
%TD*%
D27*
%TO.C,U2*%
X212175000Y-141314800D03*
X205825000Y-141295000D03*
X212175000Y-136374800D03*
X205815000Y-136354800D03*
X211525000Y-121624800D03*
X208985000Y-121604800D03*
X206445000Y-121624800D03*
D28*
X215350000Y-135564800D03*
X215350000Y-125434800D03*
X202650000Y-125420000D03*
X202650000Y-135580000D03*
D27*
X217890000Y-133040000D03*
X217905000Y-130514800D03*
X217905000Y-127974800D03*
%TD*%
M02*
