%TF.GenerationSoftware,KiCad,Pcbnew,8.0.2*%
%TF.CreationDate,2024-10-11T16:26:55+02:00*%
%TF.ProjectId,duo_board,64756f5f-626f-4617-9264-2e6b69636164,rev?*%
%TF.SameCoordinates,Original*%
%TF.FileFunction,Copper,L1,Top*%
%TF.FilePolarity,Positive*%
%FSLAX46Y46*%
G04 Gerber Fmt 4.6, Leading zero omitted, Abs format (unit mm)*
G04 Created by KiCad (PCBNEW 8.0.2) date 2024-10-11 16:26:55*
%MOMM*%
%LPD*%
G01*
G04 APERTURE LIST*
G04 Aperture macros list*
%AMRoundRect*
0 Rectangle with rounded corners*
0 $1 Rounding radius*
0 $2 $3 $4 $5 $6 $7 $8 $9 X,Y pos of 4 corners*
0 Add a 4 corners polygon primitive as box body*
4,1,4,$2,$3,$4,$5,$6,$7,$8,$9,$2,$3,0*
0 Add four circle primitives for the rounded corners*
1,1,$1+$1,$2,$3*
1,1,$1+$1,$4,$5*
1,1,$1+$1,$6,$7*
1,1,$1+$1,$8,$9*
0 Add four rect primitives between the rounded corners*
20,1,$1+$1,$2,$3,$4,$5,0*
20,1,$1+$1,$4,$5,$6,$7,0*
20,1,$1+$1,$6,$7,$8,$9,0*
20,1,$1+$1,$8,$9,$2,$3,0*%
G04 Aperture macros list end*
%ADD10C,0.300000*%
%TA.AperFunction,NonConductor*%
%ADD11C,0.300000*%
%TD*%
%TA.AperFunction,ComponentPad*%
%ADD12C,1.500000*%
%TD*%
%TA.AperFunction,ComponentPad*%
%ADD13C,1.600000*%
%TD*%
%TA.AperFunction,ComponentPad*%
%ADD14O,1.600000X1.600000*%
%TD*%
%TA.AperFunction,ComponentPad*%
%ADD15R,1.600000X1.600000*%
%TD*%
%TA.AperFunction,SMDPad,CuDef*%
%ADD16RoundRect,0.375000X0.375000X-0.625000X0.375000X0.625000X-0.375000X0.625000X-0.375000X-0.625000X0*%
%TD*%
%TA.AperFunction,SMDPad,CuDef*%
%ADD17RoundRect,0.500000X1.400000X-0.500000X1.400000X0.500000X-1.400000X0.500000X-1.400000X-0.500000X0*%
%TD*%
%TA.AperFunction,ComponentPad*%
%ADD18C,2.300000*%
%TD*%
%TA.AperFunction,SMDPad,CuDef*%
%ADD19R,1.000000X1.000000*%
%TD*%
%TA.AperFunction,SMDPad,CuDef*%
%ADD20RoundRect,0.243750X0.243750X0.456250X-0.243750X0.456250X-0.243750X-0.456250X0.243750X-0.456250X0*%
%TD*%
%TA.AperFunction,ComponentPad*%
%ADD21RoundRect,0.250000X-0.600000X-0.725000X0.600000X-0.725000X0.600000X0.725000X-0.600000X0.725000X0*%
%TD*%
%TA.AperFunction,ComponentPad*%
%ADD22O,1.700000X1.950000*%
%TD*%
%TA.AperFunction,ComponentPad*%
%ADD23O,2.200000X1.000000*%
%TD*%
%TA.AperFunction,ComponentPad*%
%ADD24O,1.800000X1.000000*%
%TD*%
%TA.AperFunction,ComponentPad*%
%ADD25C,1.778000*%
%TD*%
%TA.AperFunction,ComponentPad*%
%ADD26C,2.286000*%
%TD*%
%TA.AperFunction,ViaPad*%
%ADD27C,0.600000*%
%TD*%
%TA.AperFunction,Conductor*%
%ADD28C,0.200000*%
%TD*%
G04 APERTURE END LIST*
D10*
D11*
G36*
X171502285Y-33588475D02*
G01*
X172028018Y-33588475D01*
X172028018Y-33730258D01*
X171903454Y-33730258D01*
X171903454Y-34137288D01*
X171455024Y-34137288D01*
X171402267Y-34117138D01*
X171148743Y-33866179D01*
X171126762Y-33813422D01*
X171126762Y-33289888D01*
X171146912Y-33233101D01*
X171399703Y-32982508D01*
X171452826Y-32961625D01*
X171705983Y-32961625D01*
X171760938Y-32981775D01*
X171927267Y-33150669D01*
X171819923Y-33255816D01*
X171675942Y-33109637D01*
X171485066Y-33109637D01*
X171276605Y-33319930D01*
X171276605Y-33781182D01*
X171485066Y-33987445D01*
X171755443Y-33987445D01*
X171755443Y-33730258D01*
X171502285Y-33730258D01*
X171502285Y-33588475D01*
G37*
G36*
X172259560Y-32959794D02*
G01*
X173160816Y-32959794D01*
X173160816Y-33111835D01*
X172407205Y-33111835D01*
X172407205Y-33470139D01*
X172909490Y-33470139D01*
X172909490Y-33622547D01*
X172407205Y-33622547D01*
X172407205Y-33991475D01*
X173160816Y-33991475D01*
X173160816Y-34141685D01*
X172259560Y-34141685D01*
X172259560Y-32959794D01*
G37*
G36*
X174018108Y-32983974D02*
G01*
X174271266Y-33241528D01*
X174293614Y-33294284D01*
X174293614Y-33809026D01*
X174271266Y-33863981D01*
X174015910Y-34117138D01*
X173963154Y-34141685D01*
X173392358Y-34141685D01*
X173392358Y-33991475D01*
X173516556Y-33991475D01*
X173516556Y-33989277D01*
X173666765Y-33989277D01*
X173933112Y-33989277D01*
X174143405Y-33778984D01*
X174143405Y-33324326D01*
X173933112Y-33109637D01*
X173666765Y-33109637D01*
X173666765Y-33989277D01*
X173516556Y-33989277D01*
X173516556Y-33109637D01*
X173392358Y-33109637D01*
X173392358Y-32961625D01*
X173965352Y-32961625D01*
X174018108Y-32983974D01*
G37*
G36*
X174649354Y-33470139D02*
G01*
X175301849Y-33470139D01*
X175301849Y-33611922D01*
X174649354Y-33611922D01*
X174649354Y-33470139D01*
G37*
G36*
X176283705Y-32983974D02*
G01*
X176536863Y-33241528D01*
X176559211Y-33294284D01*
X176559211Y-33809026D01*
X176536863Y-33863981D01*
X176281507Y-34117138D01*
X176228750Y-34141685D01*
X175657955Y-34141685D01*
X175657955Y-33991475D01*
X175782152Y-33991475D01*
X175782152Y-33989277D01*
X175932362Y-33989277D01*
X176198709Y-33989277D01*
X176409002Y-33778984D01*
X176409002Y-33324326D01*
X176198709Y-33109637D01*
X175932362Y-33109637D01*
X175932362Y-33989277D01*
X175782152Y-33989277D01*
X175782152Y-33109637D01*
X175657955Y-33109637D01*
X175657955Y-32961625D01*
X176230949Y-32961625D01*
X176283705Y-32983974D01*
G37*
G36*
X176790753Y-32961625D02*
G01*
X176936566Y-32961625D01*
X176936566Y-33907578D01*
X177020097Y-33989277D01*
X177461933Y-33989277D01*
X177541800Y-33905746D01*
X177541800Y-32961625D01*
X177692009Y-32961625D01*
X177692009Y-33935788D01*
X177671859Y-33985980D01*
X177549494Y-34114574D01*
X177494539Y-34139487D01*
X176987857Y-34139487D01*
X176935467Y-34117138D01*
X176810903Y-33992575D01*
X176790753Y-33939818D01*
X176790753Y-32961625D01*
G37*
G36*
X178678262Y-32984706D02*
G01*
X178804658Y-33115132D01*
X178824808Y-33167522D01*
X178824808Y-33937986D01*
X178801727Y-33991109D01*
X178673866Y-34117138D01*
X178621109Y-34139487D01*
X178122854Y-34139487D01*
X178070464Y-34119337D01*
X177945533Y-33999169D01*
X177923551Y-33944214D01*
X177923551Y-33195366D01*
X178077791Y-33195366D01*
X178077791Y-33911974D01*
X178153262Y-33989277D01*
X178590701Y-33989277D01*
X178674598Y-33905746D01*
X178674598Y-33197564D01*
X178590334Y-33109637D01*
X178155460Y-33109637D01*
X178077791Y-33195366D01*
X177923551Y-33195366D01*
X177923551Y-33165324D01*
X177947732Y-33115132D01*
X178067899Y-32984706D01*
X178122854Y-32961625D01*
X178622941Y-32961625D01*
X178678262Y-32984706D01*
G37*
G36*
X179180547Y-33470139D02*
G01*
X179833042Y-33470139D01*
X179833042Y-33611922D01*
X179180547Y-33611922D01*
X179180547Y-33470139D01*
G37*
G36*
X180815997Y-32981409D02*
G01*
X181070254Y-33245924D01*
X181090404Y-33296482D01*
X181067690Y-33353269D01*
X180863258Y-33549640D01*
X181068056Y-33750041D01*
X181090404Y-33800600D01*
X181068056Y-33855188D01*
X180810502Y-34118970D01*
X180757745Y-34141685D01*
X180189148Y-34141685D01*
X180189148Y-33991475D01*
X180313346Y-33991475D01*
X180463555Y-33991475D01*
X180725505Y-33991475D01*
X180910153Y-33804996D01*
X180727704Y-33626577D01*
X180463555Y-33626577D01*
X180463555Y-33991475D01*
X180313346Y-33991475D01*
X180313346Y-33474535D01*
X180463555Y-33474535D01*
X180725505Y-33474535D01*
X180910153Y-33296116D01*
X180729535Y-33109637D01*
X180463555Y-33109637D01*
X180463555Y-33474535D01*
X180313346Y-33474535D01*
X180313346Y-33109637D01*
X180189148Y-33109637D01*
X180189148Y-32961625D01*
X180762142Y-32961625D01*
X180815997Y-32981409D01*
G37*
G36*
X182076657Y-32984706D02*
G01*
X182203053Y-33115132D01*
X182223203Y-33167522D01*
X182223203Y-33937986D01*
X182200122Y-33991109D01*
X182072260Y-34117138D01*
X182019504Y-34139487D01*
X181521249Y-34139487D01*
X181468859Y-34119337D01*
X181343928Y-33999169D01*
X181321946Y-33944214D01*
X181321946Y-33195366D01*
X181476186Y-33195366D01*
X181476186Y-33911974D01*
X181551657Y-33989277D01*
X181989096Y-33989277D01*
X182072993Y-33905746D01*
X182072993Y-33197564D01*
X181988729Y-33109637D01*
X181553855Y-33109637D01*
X181476186Y-33195366D01*
X181321946Y-33195366D01*
X181321946Y-33165324D01*
X181346127Y-33115132D01*
X181466294Y-32984706D01*
X181521249Y-32961625D01*
X182021336Y-32961625D01*
X182076657Y-32984706D01*
G37*
G36*
X182958129Y-32983974D02*
G01*
X183335851Y-33368290D01*
X183356001Y-33420680D01*
X183356001Y-34141685D01*
X183205792Y-34141685D01*
X183205792Y-33730258D01*
X182602390Y-33730258D01*
X182602390Y-34141685D01*
X182454745Y-34141685D01*
X182454745Y-33448890D01*
X182604588Y-33448890D01*
X182604588Y-33588475D01*
X183205792Y-33588475D01*
X183205792Y-33451088D01*
X182903175Y-33146273D01*
X182604588Y-33448890D01*
X182454745Y-33448890D01*
X182454745Y-33416650D01*
X182476727Y-33366458D01*
X182850052Y-32984706D01*
X182900976Y-32961625D01*
X182958129Y-32983974D01*
G37*
G36*
X184337857Y-32983974D02*
G01*
X184466451Y-33110736D01*
X184488799Y-33163492D01*
X184488799Y-33422878D01*
X184466451Y-33475635D01*
X184341887Y-33602397D01*
X184289131Y-33624745D01*
X184087264Y-33624745D01*
X184466451Y-34007595D01*
X184488799Y-34060352D01*
X184488799Y-34139487D01*
X184340788Y-34139487D01*
X184340788Y-34102850D01*
X183872941Y-33624745D01*
X183735188Y-33624745D01*
X183735188Y-34139487D01*
X183587543Y-34139487D01*
X183587543Y-33474535D01*
X183735188Y-33474535D01*
X184256891Y-33474535D01*
X184338590Y-33392836D01*
X184338590Y-33195732D01*
X184254692Y-33111835D01*
X183735188Y-33111835D01*
X183735188Y-33474535D01*
X183587543Y-33474535D01*
X183587543Y-32961625D01*
X184285101Y-32961625D01*
X184337857Y-32983974D01*
G37*
G36*
X185346092Y-32983974D02*
G01*
X185599249Y-33241528D01*
X185621598Y-33294284D01*
X185621598Y-33809026D01*
X185599249Y-33863981D01*
X185343893Y-34117138D01*
X185291137Y-34141685D01*
X184720341Y-34141685D01*
X184720341Y-33991475D01*
X184844539Y-33991475D01*
X184844539Y-33989277D01*
X184994748Y-33989277D01*
X185261095Y-33989277D01*
X185471388Y-33778984D01*
X185471388Y-33324326D01*
X185261095Y-33109637D01*
X184994748Y-33109637D01*
X184994748Y-33989277D01*
X184844539Y-33989277D01*
X184844539Y-33109637D01*
X184720341Y-33109637D01*
X184720341Y-32961625D01*
X185293335Y-32961625D01*
X185346092Y-32983974D01*
G37*
D12*
%TO.P,Y1,1,1*%
%TO.N,/HSE_IN*%
X133500000Y-106050000D03*
%TO.P,Y1,2,2*%
%TO.N,/HSE_OUT*%
X133500000Y-110930000D03*
%TD*%
D13*
%TO.P,R2,1*%
%TO.N,Net-(D24-K)*%
X169920000Y-130500000D03*
D14*
%TO.P,R2,2*%
%TO.N,GND*%
X180080000Y-130500000D03*
%TD*%
D13*
%TO.P,R1,1*%
%TO.N,+3.3V*%
X65000000Y-77420000D03*
D14*
%TO.P,R1,2*%
%TO.N,/USB_D+*%
X65000000Y-87580000D03*
%TD*%
D13*
%TO.P,C12,1*%
%TO.N,GND*%
X92000000Y-114000000D03*
%TO.P,C12,2*%
%TO.N,+5V*%
X92000000Y-109000000D03*
%TD*%
%TO.P,C11,1*%
%TO.N,+3.3V*%
X82000000Y-114000000D03*
%TO.P,C11,2*%
%TO.N,GND*%
X87000000Y-114000000D03*
%TD*%
%TO.P,C10,1*%
%TO.N,/HSE_OUT*%
X124500000Y-111750000D03*
%TO.P,C10,2*%
%TO.N,GND*%
X124500000Y-114250000D03*
%TD*%
%TO.P,C9,1*%
%TO.N,GND*%
X124500000Y-102750000D03*
%TO.P,C9,2*%
%TO.N,/HSE_IN*%
X124500000Y-105250000D03*
%TD*%
%TO.P,C8,1*%
%TO.N,/NRST*%
X149500000Y-129500000D03*
%TO.P,C8,2*%
%TO.N,GND*%
X149500000Y-124500000D03*
%TD*%
%TO.P,C7,1*%
%TO.N,+3.3V*%
X143500000Y-129000000D03*
%TO.P,C7,2*%
%TO.N,GND*%
X143500000Y-124000000D03*
%TD*%
%TO.P,C6,1*%
%TO.N,+3.3V*%
X134500000Y-97500000D03*
%TO.P,C6,2*%
%TO.N,GND*%
X129500000Y-97500000D03*
%TD*%
D15*
%TO.P,C5,1*%
%TO.N,+3.3V*%
X97196400Y-103000000D03*
D13*
%TO.P,C5,2*%
%TO.N,GND*%
X94696400Y-103000000D03*
%TD*%
%TO.P,C4,1*%
%TO.N,+3.3V*%
X118000000Y-98000000D03*
%TO.P,C4,2*%
%TO.N,GND*%
X123000000Y-98000000D03*
%TD*%
%TO.P,C3,1*%
%TO.N,+3.3V*%
X102500000Y-104500000D03*
%TO.P,C3,2*%
%TO.N,GND*%
X102500000Y-99500000D03*
%TD*%
%TO.P,C2,1*%
%TO.N,+3.3V*%
X123000000Y-107500000D03*
%TO.P,C2,2*%
%TO.N,GND*%
X128000000Y-107500000D03*
%TD*%
%TO.P,C1,1*%
%TO.N,+3.3V*%
X102500000Y-113500000D03*
%TO.P,C1,2*%
%TO.N,GND*%
X102500000Y-108500000D03*
%TD*%
D16*
%TO.P,U3,1,GND*%
%TO.N,GND*%
X80200000Y-106150000D03*
%TO.P,U3,2,VO*%
%TO.N,+3.3V*%
X82500000Y-106150000D03*
D17*
X82500000Y-99850000D03*
D16*
%TO.P,U3,3,VI*%
%TO.N,+5V*%
X84800000Y-106150000D03*
%TD*%
D18*
%TO.P,MX16,1,1*%
%TO.N,COL1*%
X91690000Y-84960000D03*
%TO.P,MX16,2,2*%
%TO.N,Net-(D16-A)*%
X98040000Y-82420000D03*
%TD*%
%TO.P,MX4,1,1*%
%TO.N,COL3*%
X130690000Y-39460000D03*
%TO.P,MX4,2,2*%
%TO.N,Net-(D4-A)*%
X137040000Y-36920000D03*
%TD*%
%TO.P,MX18,1,1*%
%TO.N,COL3*%
X130690000Y-78460000D03*
%TO.P,MX18,2,2*%
%TO.N,Net-(D18-A)*%
X137040000Y-75920000D03*
%TD*%
%TO.P,MX13,1,1*%
%TO.N,COL5*%
X169690000Y-64960000D03*
%TO.P,MX13,2,2*%
%TO.N,Net-(D13-A)*%
X176040000Y-62420000D03*
%TD*%
%TO.P,MX9,1,1*%
%TO.N,COL1*%
X91690000Y-65460000D03*
%TO.P,MX9,2,2*%
%TO.N,Net-(D9-A)*%
X98040000Y-62920000D03*
%TD*%
%TO.P,MX6,1,1*%
%TO.N,COL5*%
X169690000Y-45460000D03*
%TO.P,MX6,2,2*%
%TO.N,Net-(D6-A)*%
X176040000Y-42920000D03*
%TD*%
%TO.P,MX22,1,1*%
%TO.N,COL4*%
X150190000Y-104960000D03*
%TO.P,MX22,2,2*%
%TO.N,Net-(D22-A)*%
X156540000Y-102420000D03*
%TD*%
%TO.P,MX21,1,1*%
%TO.N,COL6*%
X189190000Y-92460000D03*
%TO.P,MX21,2,2*%
%TO.N,Net-(D21-A)*%
X195540000Y-89920000D03*
%TD*%
%TO.P,MX3,1,1*%
%TO.N,COL2*%
X111190000Y-42960000D03*
%TO.P,MX3,2,2*%
%TO.N,Net-(D3-A)*%
X117540000Y-40420000D03*
%TD*%
D19*
%TO.P,TP1,1,1*%
%TO.N,+5V*%
X72000000Y-113500000D03*
%TD*%
D20*
%TO.P,D24,1,K*%
%TO.N,Net-(D24-K)*%
X164375000Y-130500000D03*
%TO.P,D24,2,A*%
%TO.N,+3.3V*%
X162500000Y-130500000D03*
%TD*%
D18*
%TO.P,MX23,1,1*%
%TO.N,COL5*%
X177190000Y-112960000D03*
%TO.P,MX23,2,2*%
%TO.N,Net-(D23-A)*%
X183540000Y-110420000D03*
%TD*%
%TO.P,MX17,1,1*%
%TO.N,COL2*%
X111190000Y-81960000D03*
%TO.P,MX17,2,2*%
%TO.N,Net-(D17-A)*%
X117540000Y-79420000D03*
%TD*%
%TO.P,MX1,1,1*%
%TO.N,COL0*%
X72190000Y-45960000D03*
%TO.P,MX1,2,2*%
%TO.N,Net-(D1-A)*%
X78540000Y-43420000D03*
%TD*%
%TO.P,MX2,1,1*%
%TO.N,COL1*%
X91690000Y-45960000D03*
%TO.P,MX2,2,2*%
%TO.N,Net-(D2-A)*%
X98040000Y-43420000D03*
%TD*%
%TO.P,MX20,1,1*%
%TO.N,COL5*%
X169690000Y-84460000D03*
%TO.P,MX20,2,2*%
%TO.N,Net-(D20-A)*%
X176040000Y-81920000D03*
%TD*%
%TO.P,MX11,1,1*%
%TO.N,COL3*%
X130690000Y-58960000D03*
%TO.P,MX11,2,2*%
%TO.N,Net-(D11-A)*%
X137040000Y-56420000D03*
%TD*%
%TO.P,MX14,1,1*%
%TO.N,COL6*%
X189190000Y-72960000D03*
%TO.P,MX14,2,2*%
%TO.N,Net-(D14-A)*%
X195540000Y-70420000D03*
%TD*%
%TO.P,MX7,1,1*%
%TO.N,COL6*%
X189190000Y-53460000D03*
%TO.P,MX7,2,2*%
%TO.N,Net-(D7-A)*%
X195540000Y-50920000D03*
%TD*%
D21*
%TO.P,J3,1,Pin_1*%
%TO.N,GND*%
X92250000Y-33475000D03*
D22*
%TO.P,J3,2,Pin_2*%
%TO.N,/SWCLK*%
X94750000Y-33475000D03*
%TO.P,J3,3,Pin_3*%
%TO.N,/SWDIO*%
X97250000Y-33475000D03*
%TO.P,J3,4,Pin_4*%
%TO.N,+3.3V*%
X99750000Y-33475000D03*
%TD*%
D18*
%TO.P,MX5,1,1*%
%TO.N,COL4*%
X150190000Y-39460000D03*
%TO.P,MX5,2,2*%
%TO.N,Net-(D5-A)*%
X156540000Y-36920000D03*
%TD*%
%TO.P,MX19,1,1*%
%TO.N,COL4*%
X150190000Y-78960000D03*
%TO.P,MX19,2,2*%
%TO.N,Net-(D19-A)*%
X156540000Y-76420000D03*
%TD*%
%TO.P,MX12,1,1*%
%TO.N,COL4*%
X150190000Y-58960000D03*
%TO.P,MX12,2,2*%
%TO.N,Net-(D12-A)*%
X156540000Y-56420000D03*
%TD*%
%TO.P,MX10,1,1*%
%TO.N,COL2*%
X111190000Y-62460000D03*
%TO.P,MX10,2,2*%
%TO.N,Net-(D10-A)*%
X117540000Y-59920000D03*
%TD*%
%TO.P,MX8,1,1*%
%TO.N,COL0*%
X72190000Y-65460000D03*
%TO.P,MX8,2,2*%
%TO.N,Net-(D8-A)*%
X78540000Y-62920000D03*
%TD*%
%TO.P,MX15,1,1*%
%TO.N,COL0*%
X72190000Y-84960000D03*
%TO.P,MX15,2,2*%
%TO.N,Net-(D15-A)*%
X78540000Y-82420000D03*
%TD*%
D23*
%TO.P,J2,SH1,SHIELD1*%
%TO.N,unconnected-(J2-SHIELD1-PadSH1)*%
X63850000Y-107820000D03*
%TO.P,J2,SH2,SHIELD2*%
%TO.N,unconnected-(J2-SHIELD2-PadSH2)*%
X63850000Y-99180000D03*
D24*
%TO.P,J2,SH3,SHIELD3*%
%TO.N,unconnected-(J2-SHIELD3-PadSH3)*%
X67850000Y-107820000D03*
%TO.P,J2,SH4,SHIELD4*%
%TO.N,unconnected-(J2-SHIELD4-PadSH4)*%
X67850000Y-99180000D03*
%TD*%
D19*
%TO.P,TP2,1,1*%
%TO.N,+3.3V*%
X144000000Y-94500000D03*
%TD*%
D25*
%TO.P,U2,B1A,SEL+*%
%TO.N,/BTN_PIN*%
X212175000Y-141314800D03*
%TO.P,U2,B1B,B1B*%
%TO.N,unconnected-(U2-PadB1B)*%
X205825000Y-141295000D03*
%TO.P,U2,B2A,SEL-*%
%TO.N,GND*%
X212175000Y-136374800D03*
%TO.P,U2,B2B,B2B*%
%TO.N,unconnected-(U2-PadB2B)*%
X205815000Y-136354800D03*
%TO.P,U2,H1,H+*%
%TO.N,GND*%
X211525000Y-121624800D03*
%TO.P,U2,H2,H*%
%TO.N,/Y_AXIS*%
X208985000Y-121604800D03*
%TO.P,U2,H3,H-*%
%TO.N,+3.3V*%
X206445000Y-121624800D03*
D26*
%TO.P,U2,S1,SHIELD*%
%TO.N,GND*%
X215350000Y-135564800D03*
%TO.P,U2,S2,SHIELD*%
X215350000Y-125434800D03*
%TO.P,U2,S3,SHIELD*%
X202650000Y-125420000D03*
%TO.P,U2,S4,SHIELD*%
X202650000Y-135580000D03*
D25*
%TO.P,U2,V1,V+*%
%TO.N,+3.3V*%
X217890000Y-133040000D03*
%TO.P,U2,V2,V*%
%TO.N,/X_AXIS*%
X217905000Y-130514800D03*
%TO.P,U2,V3,V-*%
%TO.N,GND*%
X217905000Y-127974800D03*
%TD*%
D27*
%TO.N,+3.3V*%
X137500000Y-111000000D03*
%TO.N,+5V*%
X69565300Y-113404000D03*
%TO.N,ROW2*%
X105744000Y-92881100D03*
X123147000Y-92881100D03*
%TO.N,ROW1*%
X105956000Y-72358500D03*
X121627000Y-72358500D03*
%TO.N,ROW0*%
X105666000Y-54767700D03*
X123051000Y-54767700D03*
%TO.N,/Y_AXIS*%
X114932000Y-109986000D03*
%TO.N,/X_AXIS*%
X126547000Y-114052000D03*
%TO.N,/BTN_PIN*%
X114000000Y-110500000D03*
%TO.N,USART1_RX*%
X184570000Y-95056700D03*
X116500000Y-107500000D03*
%TO.N,USART1_TX*%
X115480000Y-109384000D03*
X201554000Y-80723600D03*
%TO.N,+3.3V*%
X121000000Y-105000000D03*
X203500000Y-39500000D03*
X65000000Y-73000000D03*
X105000000Y-33000000D03*
X158000000Y-127500000D03*
X82000000Y-111000000D03*
X74875200Y-109375000D03*
X78000000Y-103000000D03*
X75000000Y-106000000D03*
X130500000Y-111000000D03*
X136500000Y-113452000D03*
X109000000Y-104500000D03*
X141000000Y-94500000D03*
X194000000Y-42500000D03*
%TO.N,GND*%
X85000000Y-33500000D03*
X88500000Y-111000000D03*
X121000000Y-114500000D03*
X114500000Y-106607000D03*
X113000000Y-111500000D03*
X74000000Y-102000000D03*
X207000000Y-46500000D03*
%TD*%
D28*
%TO.N,+3.3V*%
X137500000Y-112452000D02*
X136500000Y-113452000D01*
X137500000Y-111000000D02*
X137500000Y-112452000D01*
%TO.N,/X_AXIS*%
X215390000Y-128000000D02*
X217129000Y-129739000D01*
X160946000Y-128000000D02*
X215390000Y-128000000D01*
X146998000Y-114052000D02*
X160946000Y-128000000D01*
X126547000Y-114052000D02*
X146998000Y-114052000D01*
%TO.N,Net-(D24-K)*%
X164375000Y-130500000D02*
X169920000Y-130500000D01*
%TO.N,/HSE_IN*%
X132700000Y-105250000D02*
X133500000Y-106050000D01*
X124500000Y-105250000D02*
X132700000Y-105250000D01*
%TO.N,+5V*%
X71198300Y-113500000D02*
X71599200Y-113500000D01*
X71102000Y-113404000D02*
X71198300Y-113500000D01*
X69565300Y-113404000D02*
X71102000Y-113404000D01*
X84800000Y-107766000D02*
X84800000Y-106150000D01*
X77332800Y-107766000D02*
X84800000Y-107766000D01*
X71599200Y-113500000D02*
X77332800Y-107766000D01*
X90766400Y-107766000D02*
X92000000Y-109000000D01*
X84800000Y-107766000D02*
X90766400Y-107766000D01*
X72000000Y-113500000D02*
X71599200Y-113500000D01*
%TO.N,COL6*%
X189370000Y-92280400D02*
X189190000Y-92460000D01*
X189370000Y-73139600D02*
X189370000Y-92280400D01*
X189190000Y-72960000D02*
X189370000Y-73139600D01*
%TO.N,COL5*%
X168864000Y-64960000D02*
X169690000Y-64960000D01*
X166966000Y-66857800D02*
X168864000Y-64960000D01*
X166966000Y-81736500D02*
X166966000Y-66857800D01*
X169690000Y-84460000D02*
X166966000Y-81736500D01*
%TO.N,COL4*%
X150370000Y-78780400D02*
X150190000Y-78960000D01*
X150370000Y-59139600D02*
X150370000Y-78780400D01*
X150190000Y-58960000D02*
X150370000Y-59139600D01*
%TO.N,ROW2*%
X105744000Y-92881100D02*
X123147000Y-92881100D01*
%TO.N,ROW1*%
X105956000Y-72358500D02*
X121627000Y-72358500D01*
%TO.N,ROW0*%
X105666000Y-54767700D02*
X123051000Y-54767700D01*
%TO.N,/Y_AXIS*%
X205435000Y-118055000D02*
X208210000Y-120830000D01*
X176032000Y-118055000D02*
X205435000Y-118055000D01*
X169063000Y-111086000D02*
X176032000Y-118055000D01*
X144597000Y-111086000D02*
X169063000Y-111086000D01*
X143373000Y-109862000D02*
X144597000Y-111086000D01*
X115853000Y-109862000D02*
X143373000Y-109862000D01*
X115729000Y-109986000D02*
X115853000Y-109862000D01*
X114932000Y-109986000D02*
X115729000Y-109986000D01*
X208984800Y-121604800D02*
X208210000Y-120830000D01*
X208985000Y-121604800D02*
X208984800Y-121604800D01*
%TO.N,/X_AXIS*%
X217905000Y-130514800D02*
X217904900Y-130514900D01*
X217905000Y-130515000D02*
X217904900Y-130514900D01*
X217130000Y-129739000D02*
X217905000Y-130515000D01*
X217129000Y-129739000D02*
X217130000Y-129739000D01*
X217904900Y-130514900D02*
X217129000Y-129739000D01*
%TO.N,/BTN_PIN*%
X208844000Y-137984000D02*
X210510000Y-139650000D01*
X197064000Y-137984000D02*
X208844000Y-137984000D01*
X191060000Y-131980000D02*
X197064000Y-137984000D01*
X161038000Y-131980000D02*
X191060000Y-131980000D01*
X143828000Y-114769000D02*
X161038000Y-131980000D01*
X126370000Y-114769000D02*
X143828000Y-114769000D01*
X125663000Y-114062000D02*
X126370000Y-114769000D01*
X125663000Y-113830000D02*
X125663000Y-114062000D01*
X124768000Y-112935000D02*
X125663000Y-113830000D01*
X116435000Y-112935000D02*
X124768000Y-112935000D01*
X114000000Y-110500000D02*
X116435000Y-112935000D01*
X212174800Y-141314800D02*
X210510000Y-139650000D01*
X212175000Y-141314800D02*
X212174800Y-141314800D01*
%TO.N,USART1_RX*%
X181026000Y-98600200D02*
X184570000Y-95056700D01*
X136692000Y-98600200D02*
X181026000Y-98600200D01*
X131292000Y-104000000D02*
X136692000Y-98600200D01*
X120000000Y-104000000D02*
X131292000Y-104000000D01*
X116500000Y-107500000D02*
X120000000Y-104000000D01*
%TO.N,USART1_TX*%
X201554000Y-86059800D02*
X201554000Y-80723600D01*
X195719000Y-91894700D02*
X201554000Y-86059800D01*
X192433000Y-91894700D02*
X195719000Y-91894700D01*
X190440000Y-93887800D02*
X192433000Y-91894700D01*
X190440000Y-94573600D02*
X190440000Y-93887800D01*
X181125000Y-103889000D02*
X190440000Y-94573600D01*
X155490000Y-103889000D02*
X181125000Y-103889000D01*
X155101000Y-103500000D02*
X155490000Y-103889000D01*
X141611000Y-103500000D02*
X155101000Y-103500000D01*
X135727000Y-109384000D02*
X141611000Y-103500000D01*
X115480000Y-109384000D02*
X135727000Y-109384000D01*
%TO.N,+3.3V*%
X101000000Y-103000000D02*
X102500000Y-104500000D01*
X97196400Y-103000000D02*
X101000000Y-103000000D01*
X123000000Y-106000000D02*
X123000000Y-107500000D01*
X122000000Y-105000000D02*
X123000000Y-106000000D01*
X121000000Y-105000000D02*
X122000000Y-105000000D01*
X141000000Y-94500000D02*
X144000000Y-94500000D01*
X160500000Y-130000000D02*
X158000000Y-127500000D01*
X162000000Y-130000000D02*
X160500000Y-130000000D01*
X162500000Y-130500000D02*
X162000000Y-130000000D01*
X79350000Y-103000000D02*
X82500000Y-99850000D01*
X74500000Y-109000000D02*
X74875200Y-109375000D01*
X74500000Y-106500000D02*
X74500000Y-109000000D01*
X75000000Y-106000000D02*
X74500000Y-106500000D01*
X79350000Y-103000000D02*
X78000000Y-103000000D01*
X82500000Y-106150000D02*
X79350000Y-103000000D01*
X132952000Y-113452000D02*
X136500000Y-113452000D01*
X130500000Y-111000000D02*
X132952000Y-113452000D01*
X109000000Y-104500000D02*
X102500000Y-104500000D01*
%TO.N,GND*%
X149000000Y-124000000D02*
X149500000Y-124500000D01*
X75000000Y-102000000D02*
X74000000Y-102000000D01*
X79150000Y-106150000D02*
X75000000Y-102000000D01*
X80200000Y-106150000D02*
X79150000Y-106150000D01*
X214540000Y-136375000D02*
X215350000Y-135565000D01*
X215365000Y-125435000D02*
X215350000Y-125435000D01*
X215350000Y-125434800D02*
X215350000Y-125435000D01*
X215350000Y-135564800D02*
X215350000Y-135565000D01*
%TD*%
M02*
