%TF.GenerationSoftware,KiCad,Pcbnew,8.0.2*%
%TF.CreationDate,2024-10-11T16:26:55+02:00*%
%TF.ProjectId,duo_board,64756f5f-626f-4617-9264-2e6b69636164,rev?*%
%TF.SameCoordinates,Original*%
%TF.FileFunction,Profile,NP*%
%FSLAX46Y46*%
G04 Gerber Fmt 4.6, Leading zero omitted, Abs format (unit mm)*
G04 Created by KiCad (PCBNEW 8.0.2) date 2024-10-11 16:26:55*
%MOMM*%
%LPD*%
G01*
G04 APERTURE LIST*
%TA.AperFunction,Profile*%
%ADD10C,0.150000*%
%TD*%
G04 APERTURE END LIST*
D10*
X70050000Y-35500000D02*
G75*
G02*
X67950000Y-35500000I-1050000J0D01*
G01*
X67950000Y-35500000D02*
G75*
G02*
X70050000Y-35500000I1050000J0D01*
G01*
X211290354Y-106584666D02*
G75*
G02*
X209743431Y-102478365I4803146J4153966D01*
G01*
X225859731Y-129464497D02*
G75*
G02*
X223759729Y-129464497I-1050001J0D01*
G01*
X223759729Y-129464497D02*
G75*
G02*
X225859731Y-129464497I1050001J0D01*
G01*
X202897400Y-29950001D02*
G75*
G02*
X209247221Y-36252425I0J-6349999D01*
G01*
X68549999Y-29950001D02*
X202897400Y-29950001D01*
X175831894Y-134844762D02*
X143887292Y-132387485D01*
X138027228Y-126248525D02*
X137887836Y-121648594D01*
X62200000Y-36300002D02*
G75*
G02*
X68549999Y-29950000I6350000J2D01*
G01*
X216724740Y-150088557D02*
G75*
G02*
X208407321Y-152096076I-5259740J3557957D01*
G01*
X131498697Y-115491070D02*
G75*
G02*
X137887753Y-121648597I41903J-6349930D01*
G01*
X62200000Y-109557809D02*
X62200000Y-36300001D01*
X143887293Y-132387485D02*
G75*
G02*
X138027225Y-126248525I487007J6331285D01*
G01*
X208407345Y-152096033D02*
X178402590Y-135610732D01*
X131498698Y-115491069D02*
X68592052Y-115907670D01*
X67350000Y-111745001D02*
G75*
G02*
X65250000Y-111745001I-1050000J0D01*
G01*
X65250000Y-111745001D02*
G75*
G02*
X67350000Y-111745001I1050000J0D01*
G01*
X209247222Y-36252425D02*
X209743426Y-102478365D01*
X68592052Y-115907669D02*
G75*
G02*
X62199992Y-109557809I-42052J6349869D01*
G01*
X228125765Y-133234082D02*
X216724740Y-150088557D01*
X227668983Y-125522354D02*
G75*
G02*
X228125762Y-133234080I-4803093J-4153886D01*
G01*
X211290354Y-106584666D02*
X227668983Y-125522354D01*
X175831894Y-134844762D02*
G75*
G02*
X178402594Y-135610724I-486894J-6330938D01*
G01*
M02*
